# vtk DataFile Version 2.0
vtkObjects
ASCII
DATASET UNSTRUCTURED_GRID
POINTS 600 float
-1000.01 0 -2000
-999.99 0 -2000
-1000.01 250.666 -1984.23
-999.99 250.666 -1984.23
-1000.01 497.38 -1937.17
-999.99 497.38 -1937.17
-1000.01 736.249 -1859.55
-999.99 736.249 -1859.55
-1000.01 963.507 -1752.61
-999.99 963.507 -1752.61
-1000.01 1175.57 -1618.03
-999.99 1175.57 -1618.03
-1000.01 1369.09 -1457.94
-999.99 1369.09 -1457.94
-1000.01 1541.03 -1274.85
-999.99 1541.03 -1274.85
-1000.01 1688.66 -1071.65
-999.99 1688.66 -1071.65
-1000.01 1809.65 -851.559
-999.99 1809.65 -851.559
-1000.01 1902.11 -618.034
-999.99 1902.11 -618.034
-1000.01 1964.57 -374.763
-999.99 1964.57 -374.763
-1000.01 1996.05 -125.581
-999.99 1996.05 -125.581
-1000.01 1996.05 125.581
-999.99 1996.05 125.581
-1000.01 1964.57 374.763
-999.99 1964.57 374.763
-1000.01 1902.11 618.034
-999.99 1902.11 618.034
-1000.01 1809.65 851.559
-999.99 1809.65 851.559
-1000.01 1688.66 1071.65
-999.99 1688.66 1071.65
-1000.01 1541.03 1274.85
-999.99 1541.03 1274.85
-1000.01 1369.09 1457.94
-999.99 1369.09 1457.94
-1000.01 1175.57 1618.03
-999.99 1175.57 1618.03
-1000.01 963.507 1752.61
-999.99 963.507 1752.61
-1000.01 736.249 1859.55
-999.99 736.249 1859.55
-1000.01 497.38 1937.17
-999.99 497.38 1937.17
-1000.01 250.666 1984.23
-999.99 250.666 1984.23
-1000.01 -6.43249e-13 2000
-999.99 -6.43249e-13 2000
-1000.01 -250.666 1984.23
-999.99 -250.666 1984.23
-1000.01 -497.38 1937.17
-999.99 -497.38 1937.17
-1000.01 -736.249 1859.55
-999.99 -736.249 1859.55
-1000.01 -963.507 1752.61
-999.99 -963.507 1752.61
-1000.01 -1175.57 1618.03
-999.99 -1175.57 1618.03
-1000.01 -1369.09 1457.94
-999.99 -1369.09 1457.94
-1000.01 -1541.03 1274.85
-999.99 -1541.03 1274.85
-1000.01 -1688.66 1071.65
-999.99 -1688.66 1071.65
-1000.01 -1809.65 851.559
-999.99 -1809.65 851.559
-1000.01 -1902.11 618.034
-999.99 -1902.11 618.034
-1000.01 -1964.57 374.763
-999.99 -1964.57 374.763
-1000.01 -1996.05 125.581
-999.99 -1996.05 125.581
-1000.01 -1996.05 -125.581
-999.99 -1996.05 -125.581
-1000.01 -1964.57 -374.763
-999.99 -1964.57 -374.763
-1000.01 -1902.11 -618.034
-999.99 -1902.11 -618.034
-1000.01 -1809.65 -851.559
-999.99 -1809.65 -851.559
-1000.01 -1688.66 -1071.65
-999.99 -1688.66 -1071.65
-1000.01 -1541.03 -1274.85
-999.99 -1541.03 -1274.85
-1000.01 -1369.09 -1457.94
-999.99 -1369.09 -1457.94
-1000.01 -1175.57 -1618.03
-999.99 -1175.57 -1618.03
-1000.01 -963.507 -1752.61
-999.99 -963.507 -1752.61
-1000.01 -736.249 -1859.55
-999.99 -736.249 -1859.55
-1000.01 -497.38 -1937.17
-999.99 -497.38 -1937.17
-1000.01 -250.666 -1984.23
-999.99 -250.666 -1984.23
999.99 0 -2000
1000.01 0 -2000
999.99 250.666 -1984.23
1000.01 250.666 -1984.23
999.99 497.38 -1937.17
1000.01 497.38 -1937.17
999.99 736.249 -1859.55
1000.01 736.249 -1859.55
999.99 963.507 -1752.61
1000.01 963.507 -1752.61
999.99 1175.57 -1618.03
1000.01 1175.57 -1618.03
999.99 1369.09 -1457.94
1000.01 1369.09 -1457.94
999.99 1541.03 -1274.85
1000.01 1541.03 -1274.85
999.99 1688.66 -1071.65
1000.01 1688.66 -1071.65
999.99 1809.65 -851.559
1000.01 1809.65 -851.559
999.99 1902.11 -618.034
1000.01 1902.11 -618.034
999.99 1964.57 -374.763
1000.01 1964.57 -374.763
999.99 1996.05 -125.581
1000.01 1996.05 -125.581
999.99 1996.05 125.581
1000.01 1996.05 125.581
999.99 1964.57 374.763
1000.01 1964.57 374.763
999.99 1902.11 618.034
1000.01 1902.11 618.034
999.99 1809.65 851.559
1000.01 1809.65 851.559
999.99 1688.66 1071.65
1000.01 1688.66 1071.65
999.99 1541.03 1274.85
1000.01 1541.03 1274.85
999.99 1369.09 1457.94
1000.01 1369.09 1457.94
999.99 1175.57 1618.03
1000.01 1175.57 1618.03
999.99 963.507 1752.61
1000.01 963.507 1752.61
999.99 736.249 1859.55
1000.01 736.249 1859.55
999.99 497.38 1937.17
1000.01 497.38 1937.17
999.99 250.666 1984.23
1000.01 250.666 1984.23
999.99 -6.43249e-13 2000
1000.01 -6.43249e-13 2000
999.99 -250.666 1984.23
1000.01 -250.666 1984.23
999.99 -497.38 1937.17
1000.01 -497.38 1937.17
999.99 -736.249 1859.55
1000.01 -736.249 1859.55
999.99 -963.507 1752.61
1000.01 -963.507 1752.61
999.99 -1175.57 1618.03
1000.01 -1175.57 1618.03
999.99 -1369.09 1457.94
1000.01 -1369.09 1457.94
999.99 -1541.03 1274.85
1000.01 -1541.03 1274.85
999.99 -1688.66 1071.65
1000.01 -1688.66 1071.65
999.99 -1809.65 851.559
1000.01 -1809.65 851.559
999.99 -1902.11 618.034
1000.01 -1902.11 618.034
999.99 -1964.57 374.763
1000.01 -1964.57 374.763
999.99 -1996.05 125.581
1000.01 -1996.05 125.581
999.99 -1996.05 -125.581
1000.01 -1996.05 -125.581
999.99 -1964.57 -374.763
1000.01 -1964.57 -374.763
999.99 -1902.11 -618.034
1000.01 -1902.11 -618.034
999.99 -1809.65 -851.559
1000.01 -1809.65 -851.559
999.99 -1688.66 -1071.65
1000.01 -1688.66 -1071.65
999.99 -1541.03 -1274.85
1000.01 -1541.03 -1274.85
999.99 -1369.09 -1457.94
1000.01 -1369.09 -1457.94
999.99 -1175.57 -1618.03
1000.01 -1175.57 -1618.03
999.99 -963.507 -1752.61
1000.01 -963.507 -1752.61
999.99 -736.249 -1859.55
1000.01 -736.249 -1859.55
999.99 -497.38 -1937.17
1000.01 -497.38 -1937.17
999.99 -250.666 -1984.23
1000.01 -250.666 -1984.23
0 -999.99 -2000
0 -1000.01 -2000
250.666 -999.99 -1984.23
250.666 -1000.01 -1984.23
497.38 -999.99 -1937.17
497.38 -1000.01 -1937.17
736.249 -999.99 -1859.55
736.249 -1000.01 -1859.55
963.507 -999.99 -1752.61
963.507 -1000.01 -1752.61
1175.57 -999.99 -1618.03
1175.57 -1000.01 -1618.03
1369.09 -999.99 -1457.94
1369.09 -1000.01 -1457.94
1541.03 -999.99 -1274.85
1541.03 -1000.01 -1274.85
1688.66 -999.99 -1071.65
1688.66 -1000.01 -1071.65
1809.65 -999.99 -851.559
1809.65 -1000.01 -851.559
1902.11 -999.99 -618.034
1902.11 -1000.01 -618.034
1964.57 -999.99 -374.763
1964.57 -1000.01 -374.763
1996.05 -999.99 -125.581
1996.05 -1000.01 -125.581
1996.05 -999.99 125.581
1996.05 -1000.01 125.581
1964.57 -999.99 374.763
1964.57 -1000.01 374.763
1902.11 -999.99 618.034
1902.11 -1000.01 618.034
1809.65 -999.99 851.559
1809.65 -1000.01 851.559
1688.66 -999.99 1071.65
1688.66 -1000.01 1071.65
1541.03 -999.99 1274.85
1541.03 -1000.01 1274.85
1369.09 -999.99 1457.94
1369.09 -1000.01 1457.94
1175.57 -999.99 1618.03
1175.57 -1000.01 1618.03
963.507 -999.99 1752.61
963.507 -1000.01 1752.61
736.249 -999.99 1859.55
736.249 -1000.01 1859.55
497.38 -999.99 1937.17
497.38 -1000.01 1937.17
250.666 -999.99 1984.23
250.666 -1000.01 1984.23
-6.43249e-13 -999.99 2000
-6.43249e-13 -1000.01 2000
-250.666 -999.99 1984.23
-250.666 -1000.01 1984.23
-497.38 -999.99 1937.17
-497.38 -1000.01 1937.17
-736.249 -999.99 1859.55
-736.249 -1000.01 1859.55
-963.507 -999.99 1752.61
-963.507 -1000.01 1752.61
-1175.57 -999.99 1618.03
-1175.57 -1000.01 1618.03
-1369.09 -999.99 1457.94
-1369.09 -1000.01 1457.94
-1541.03 -999.99 1274.85
-1541.03 -1000.01 1274.85
-1688.66 -999.99 1071.65
-1688.66 -1000.01 1071.65
-1809.65 -999.99 851.559
-1809.65 -1000.01 851.559
-1902.11 -999.99 618.034
-1902.11 -1000.01 618.034
-1964.57 -999.99 374.763
-1964.57 -1000.01 374.763
-1996.05 -999.99 125.581
-1996.05 -1000.01 125.581
-1996.05 -999.99 -125.581
-1996.05 -1000.01 -125.581
-1964.57 -999.99 -374.763
-1964.57 -1000.01 -374.763
-1902.11 -999.99 -618.034
-1902.11 -1000.01 -618.034
-1809.65 -999.99 -851.559
-1809.65 -1000.01 -851.559
-1688.66 -999.99 -1071.65
-1688.66 -1000.01 -1071.65
-1541.03 -999.99 -1274.85
-1541.03 -1000.01 -1274.85
-1369.09 -999.99 -1457.94
-1369.09 -1000.01 -1457.94
-1175.57 -999.99 -1618.03
-1175.57 -1000.01 -1618.03
-963.507 -999.99 -1752.61
-963.507 -1000.01 -1752.61
-736.249 -999.99 -1859.55
-736.249 -1000.01 -1859.55
-497.38 -999.99 -1937.17
-497.38 -1000.01 -1937.17
-250.666 -999.99 -1984.23
-250.666 -1000.01 -1984.23
0 1000.01 -2000
0 999.99 -2000
250.666 1000.01 -1984.23
250.666 999.99 -1984.23
497.38 1000.01 -1937.17
497.38 999.99 -1937.17
736.249 1000.01 -1859.55
736.249 999.99 -1859.55
963.507 1000.01 -1752.61
963.507 999.99 -1752.61
1175.57 1000.01 -1618.03
1175.57 999.99 -1618.03
1369.09 1000.01 -1457.94
1369.09 999.99 -1457.94
1541.03 1000.01 -1274.85
1541.03 999.99 -1274.85
1688.66 1000.01 -1071.65
1688.66 999.99 -1071.65
1809.65 1000.01 -851.559
1809.65 999.99 -851.559
1902.11 1000.01 -618.034
1902.11 999.99 -618.034
1964.57 1000.01 -374.763
1964.57 999.99 -374.763
1996.05 1000.01 -125.581
1996.05 999.99 -125.581
1996.05 1000.01 125.581
1996.05 999.99 125.581
1964.57 1000.01 374.763
1964.57 999.99 374.763
1902.11 1000.01 618.034
1902.11 999.99 618.034
1809.65 1000.01 851.559
1809.65 999.99 851.559
1688.66 1000.01 1071.65
1688.66 999.99 1071.65
1541.03 1000.01 1274.85
1541.03 999.99 1274.85
1369.09 1000.01 1457.94
1369.09 999.99 1457.94
1175.57 1000.01 1618.03
1175.57 999.99 1618.03
963.507 1000.01 1752.61
963.507 999.99 1752.61
736.249 1000.01 1859.55
736.249 999.99 1859.55
497.38 1000.01 1937.17
497.38 999.99 1937.17
250.666 1000.01 1984.23
250.666 999.99 1984.23
-6.43249e-13 1000.01 2000
-6.43249e-13 999.99 2000
-250.666 1000.01 1984.23
-250.666 999.99 1984.23
-497.38 1000.01 1937.17
-497.38 999.99 1937.17
-736.249 1000.01 1859.55
-736.249 999.99 1859.55
-963.507 1000.01 1752.61
-963.507 999.99 1752.61
-1175.57 1000.01 1618.03
-1175.57 999.99 1618.03
-1369.09 1000.01 1457.94
-1369.09 999.99 1457.94
-1541.03 1000.01 1274.85
-1541.03 999.99 1274.85
-1688.66 1000.01 1071.65
-1688.66 999.99 1071.65
-1809.65 1000.01 851.559
-1809.65 999.99 851.559
-1902.11 1000.01 618.034
-1902.11 999.99 618.034
-1964.57 1000.01 374.763
-1964.57 999.99 374.763
-1996.05 1000.01 125.581
-1996.05 999.99 125.581
-1996.05 1000.01 -125.581
-1996.05 999.99 -125.581
-1964.57 1000.01 -374.763
-1964.57 999.99 -374.763
-1902.11 1000.01 -618.034
-1902.11 999.99 -618.034
-1809.65 1000.01 -851.559
-1809.65 999.99 -851.559
-1688.66 1000.01 -1071.65
-1688.66 999.99 -1071.65
-1541.03 1000.01 -1274.85
-1541.03 999.99 -1274.85
-1369.09 1000.01 -1457.94
-1369.09 999.99 -1457.94
-1175.57 1000.01 -1618.03
-1175.57 999.99 -1618.03
-963.507 1000.01 -1752.61
-963.507 999.99 -1752.61
-736.249 1000.01 -1859.55
-736.249 999.99 -1859.55
-497.38 1000.01 -1937.17
-497.38 999.99 -1937.17
-250.666 1000.01 -1984.23
-250.666 999.99 -1984.23
2000 0 -1000.01
2000 0 -999.99
1984.23 250.666 -1000.01
1984.23 250.666 -999.99
1937.17 497.38 -1000.01
1937.17 497.38 -999.99
1859.55 736.249 -1000.01
1859.55 736.249 -999.99
1752.61 963.507 -1000.01
1752.61 963.507 -999.99
1618.03 1175.57 -1000.01
1618.03 1175.57 -999.99
1457.94 1369.09 -1000.01
1457.94 1369.09 -999.99
1274.85 1541.03 -1000.01
1274.85 1541.03 -999.99
1071.65 1688.66 -1000.01
1071.65 1688.66 -999.99
851.559 1809.65 -1000.01
851.559 1809.65 -999.99
618.034 1902.11 -1000.01
618.034 1902.11 -999.99
374.763 1964.57 -1000.01
374.763 1964.57 -999.99
125.581 1996.05 -1000.01
125.581 1996.05 -999.99
-125.581 1996.05 -1000.01
-125.581 1996.05 -999.99
-374.763 1964.57 -1000.01
-374.763 1964.57 -999.99
-618.034 1902.11 -1000.01
-618.034 1902.11 -999.99
-851.559 1809.65 -1000.01
-851.559 1809.65 -999.99
-1071.65 1688.66 -1000.01
-1071.65 1688.66 -999.99
-1274.85 1541.03 -1000.01
-1274.85 1541.03 -999.99
-1457.94 1369.09 -1000.01
-1457.94 1369.09 -999.99
-1618.03 1175.57 -1000.01
-1618.03 1175.57 -999.99
-1752.61 963.507 -1000.01
-1752.61 963.507 -999.99
-1859.55 736.249 -1000.01
-1859.55 736.249 -999.99
-1937.17 497.38 -1000.01
-1937.17 497.38 -999.99
-1984.23 250.666 -1000.01
-1984.23 250.666 -999.99
-2000 -6.43249e-13 -1000.01
-2000 -6.43249e-13 -999.99
-1984.23 -250.666 -1000.01
-1984.23 -250.666 -999.99
-1937.17 -497.38 -1000.01
-1937.17 -497.38 -999.99
-1859.55 -736.249 -1000.01
-1859.55 -736.249 -999.99
-1752.61 -963.507 -1000.01
-1752.61 -963.507 -999.99
-1618.03 -1175.57 -1000.01
-1618.03 -1175.57 -999.99
-1457.94 -1369.09 -1000.01
-1457.94 -1369.09 -999.99
-1274.85 -1541.03 -1000.01
-1274.85 -1541.03 -999.99
-1071.65 -1688.66 -1000.01
-1071.65 -1688.66 -999.99
-851.559 -1809.65 -1000.01
-851.559 -1809.65 -999.99
-618.034 -1902.11 -1000.01
-618.034 -1902.11 -999.99
-374.763 -1964.57 -1000.01
-374.763 -1964.57 -999.99
-125.581 -1996.05 -1000.01
-125.581 -1996.05 -999.99
125.581 -1996.05 -1000.01
125.581 -1996.05 -999.99
374.763 -1964.57 -1000.01
374.763 -1964.57 -999.99
618.034 -1902.11 -1000.01
618.034 -1902.11 -999.99
851.559 -1809.65 -1000.01
851.559 -1809.65 -999.99
1071.65 -1688.66 -1000.01
1071.65 -1688.66 -999.99
1274.85 -1541.03 -1000.01
1274.85 -1541.03 -999.99
1457.94 -1369.09 -1000.01
1457.94 -1369.09 -999.99
1618.03 -1175.57 -1000.01
1618.03 -1175.57 -999.99
1752.61 -963.507 -1000.01
1752.61 -963.507 -999.99
1859.55 -736.249 -1000.01
1859.55 -736.249 -999.99
1937.17 -497.38 -1000.01
1937.17 -497.38 -999.99
1984.23 -250.666 -1000.01
1984.23 -250.666 -999.99
2000 0 999.99
2000 0 1000.01
1984.23 250.666 999.99
1984.23 250.666 1000.01
1937.17 497.38 999.99
1937.17 497.38 1000.01
1859.55 736.249 999.99
1859.55 736.249 1000.01
1752.61 963.507 999.99
1752.61 963.507 1000.01
1618.03 1175.57 999.99
1618.03 1175.57 1000.01
1457.94 1369.09 999.99
1457.94 1369.09 1000.01
1274.85 1541.03 999.99
1274.85 1541.03 1000.01
1071.65 1688.66 999.99
1071.65 1688.66 1000.01
851.559 1809.65 999.99
851.559 1809.65 1000.01
618.034 1902.11 999.99
618.034 1902.11 1000.01
374.763 1964.57 999.99
374.763 1964.57 1000.01
125.581 1996.05 999.99
125.581 1996.05 1000.01
-125.581 1996.05 999.99
-125.581 1996.05 1000.01
-374.763 1964.57 999.99
-374.763 1964.57 1000.01
-618.034 1902.11 999.99
-618.034 1902.11 1000.01
-851.559 1809.65 999.99
-851.559 1809.65 1000.01
-1071.65 1688.66 999.99
-1071.65 1688.66 1000.01
-1274.85 1541.03 999.99
-1274.85 1541.03 1000.01
-1457.94 1369.09 999.99
-1457.94 1369.09 1000.01
-1618.03 1175.57 999.99
-1618.03 1175.57 1000.01
-1752.61 963.507 999.99
-1752.61 963.507 1000.01
-1859.55 736.249 999.99
-1859.55 736.249 1000.01
-1937.17 497.38 999.99
-1937.17 497.38 1000.01
-1984.23 250.666 999.99
-1984.23 250.666 1000.01
-2000 -6.43249e-13 999.99
-2000 -6.43249e-13 1000.01
-1984.23 -250.666 999.99
-1984.23 -250.666 1000.01
-1937.17 -497.38 999.99
-1937.17 -497.38 1000.01
-1859.55 -736.249 999.99
-1859.55 -736.249 1000.01
-1752.61 -963.507 999.99
-1752.61 -963.507 1000.01
-1618.03 -1175.57 999.99
-1618.03 -1175.57 1000.01
-1457.94 -1369.09 999.99
-1457.94 -1369.09 1000.01
-1274.85 -1541.03 999.99
-1274.85 -1541.03 1000.01
-1071.65 -1688.66 999.99
-1071.65 -1688.66 1000.01
-851.559 -1809.65 999.99
-851.559 -1809.65 1000.01
-618.034 -1902.11 999.99
-618.034 -1902.11 1000.01
-374.763 -1964.57 999.99
-374.763 -1964.57 1000.01
-125.581 -1996.05 999.99
-125.581 -1996.05 1000.01
125.581 -1996.05 999.99
125.581 -1996.05 1000.01
374.763 -1964.57 999.99
374.763 -1964.57 1000.01
618.034 -1902.11 999.99
618.034 -1902.11 1000.01
851.559 -1809.65 999.99
851.559 -1809.65 1000.01
1071.65 -1688.66 999.99
1071.65 -1688.66 1000.01
1274.85 -1541.03 999.99
1274.85 -1541.03 1000.01
1457.94 -1369.09 999.99
1457.94 -1369.09 1000.01
1618.03 -1175.57 999.99
1618.03 -1175.57 1000.01
1752.61 -963.507 999.99
1752.61 -963.507 1000.01
1859.55 -736.249 999.99
1859.55 -736.249 1000.01
1937.17 -497.38 999.99
1937.17 -497.38 1000.01
1984.23 -250.666 999.99
1984.23 -250.666 1000.01
CELLS 1176 4704
3 35 32 34
3 35 32 33
3 26 27 25
3 26 25 24
3 31 32 30
3 31 32 33
3 53 54 52
3 53 54 55
3 57 54 56
3 57 54 55
3 57 58 56
3 57 58 59
3 63 64 62
3 63 64 65
3 37 38 36
3 37 38 39
3 37 34 36
3 37 35 34
3 15 14 12
3 15 13 12
3 20 21 19
3 20 18 19
3 23 22 24
3 23 25 24
3 23 20 22
3 23 20 21
3 29 26 27
3 29 26 28
3 29 28 30
3 29 31 30
3 95 96 94
3 95 96 97
3 1 2 0
3 1 2 3
3 98 1 99
3 98 1 0
3 98 99 97
3 98 96 97
3 9 8 6
3 9 6 7
3 51 48 50
3 51 48 49
3 51 52 50
3 51 53 52
3 41 38 40
3 41 38 39
3 42 43 45
3 42 44 45
3 42 41 43
3 42 41 40
3 46 47 45
3 46 44 45
3 46 47 49
3 46 48 49
3 17 16 18
3 17 18 19
3 17 16 14
3 17 15 14
3 4 5 7
3 4 6 7
3 4 2 3
3 4 5 3
3 73 72 74
3 73 74 75
3 67 64 65
3 67 66 64
3 67 66 68
3 67 69 68
3 61 58 59
3 61 60 58
3 61 63 62
3 61 60 62
3 88 89 87
3 88 87 86
3 88 89 91
3 88 90 91
3 93 92 90
3 93 90 91
3 93 95 94
3 93 92 94
3 77 76 74
3 77 74 75
3 11 13 12
3 11 10 12
3 11 9 8
3 11 10 8
3 78 14 12
3 78 92 94
3 78 26 24
3 78 16 18
3 78 22 24
3 78 34 36
3 78 52 50
3 78 66 68
3 78 32 30
3 78 10 12
3 78 64 62
3 78 98 0
3 78 32 34
3 78 48 50
3 78 28 30
3 78 20 18
3 78 2 0
3 78 4 6
3 78 54 56
3 78 60 62
3 78 42 44
3 78 16 14
3 78 38 36
3 78 26 28
3 78 96 94
3 78 76 74
3 78 88 86
3 78 8 6
3 78 54 52
3 78 72 74
3 78 58 56
3 78 38 40
3 78 20 22
3 78 46 44
3 78 98 96
3 78 84 86
3 78 66 64
3 78 60 58
3 78 42 40
3 78 46 48
3 78 92 90
3 78 70 68
3 78 82 80
3 78 4 2
3 78 10 8
3 78 88 90
3 78 84 82
3 78 70 72
3 83 82 80
3 83 81 80
3 71 69 68
3 71 70 68
3 71 73 72
3 71 70 72
3 79 78 80
3 79 81 80
3 79 77 76
3 79 78 76
3 85 21 19
3 85 29 27
3 85 53 55
3 85 99 97
3 85 35 33
3 85 89 87
3 85 27 25
3 85 95 97
3 85 47 45
3 85 63 65
3 85 37 39
3 85 41 39
3 85 31 33
3 85 1 3
3 85 5 7
3 85 57 55
3 85 43 45
3 85 23 25
3 85 17 19
3 85 93 91
3 85 9 7
3 85 73 75
3 85 57 59
3 85 67 65
3 85 51 49
3 85 37 35
3 85 47 49
3 85 15 13
3 85 23 21
3 85 29 31
3 85 61 59
3 85 11 13
3 85 1 99
3 85 5 3
3 85 77 75
3 85 51 53
3 85 41 43
3 85 17 15
3 85 89 91
3 85 79 81
3 85 67 69
3 85 61 63
3 85 93 95
3 85 71 69
3 85 11 9
3 85 83 81
3 85 71 73
3 85 79 77
3 85 87 86
3 85 84 86
3 85 84 82
3 85 83 82
3 135 132 134
3 135 132 133
3 126 127 125
3 126 125 124
3 131 132 130
3 131 132 133
3 153 154 152
3 153 154 155
3 157 154 156
3 157 154 155
3 157 158 156
3 157 158 159
3 163 164 162
3 163 164 165
3 137 138 136
3 137 138 139
3 137 134 136
3 137 135 134
3 115 114 112
3 115 113 112
3 120 121 119
3 120 118 119
3 123 122 124
3 123 125 124
3 123 120 122
3 123 120 121
3 129 126 127
3 129 126 128
3 129 128 130
3 129 131 130
3 195 196 194
3 195 196 197
3 101 102 100
3 101 102 103
3 198 101 199
3 198 101 100
3 198 199 197
3 198 196 197
3 109 108 106
3 109 106 107
3 151 148 150
3 151 148 149
3 151 152 150
3 151 153 152
3 141 138 140
3 141 138 139
3 142 143 145
3 142 144 145
3 142 141 143
3 142 141 140
3 146 147 145
3 146 144 145
3 146 147 149
3 146 148 149
3 117 116 118
3 117 118 119
3 117 116 114
3 117 115 114
3 104 105 107
3 104 106 107
3 104 102 103
3 104 105 103
3 173 172 174
3 173 174 175
3 167 164 165
3 167 166 164
3 167 166 168
3 167 169 168
3 161 158 159
3 161 160 158
3 161 163 162
3 161 160 162
3 188 189 187
3 188 187 186
3 188 189 191
3 188 190 191
3 193 192 190
3 193 190 191
3 193 195 194
3 193 192 194
3 177 176 174
3 177 174 175
3 111 113 112
3 111 110 112
3 111 109 108
3 111 110 108
3 178 114 112
3 178 192 194
3 178 126 124
3 178 116 118
3 178 122 124
3 178 134 136
3 178 152 150
3 178 166 168
3 178 132 130
3 178 110 112
3 178 164 162
3 178 198 100
3 178 132 134
3 178 148 150
3 178 128 130
3 178 120 118
3 178 102 100
3 178 104 106
3 178 154 156
3 178 160 162
3 178 142 144
3 178 116 114
3 178 138 136
3 178 126 128
3 178 196 194
3 178 176 174
3 178 188 186
3 178 108 106
3 178 154 152
3 178 172 174
3 178 158 156
3 178 138 140
3 178 120 122
3 178 146 144
3 178 198 196
3 178 184 186
3 178 166 164
3 178 160 158
3 178 142 140
3 178 146 148
3 178 192 190
3 178 170 168
3 178 182 180
3 178 104 102
3 178 110 108
3 178 188 190
3 178 184 182
3 178 170 172
3 183 182 180
3 183 181 180
3 171 169 168
3 171 170 168
3 171 173 172
3 171 170 172
3 179 178 180
3 179 181 180
3 179 177 176
3 179 178 176
3 185 121 119
3 185 129 127
3 185 153 155
3 185 199 197
3 185 135 133
3 185 189 187
3 185 127 125
3 185 195 197
3 185 147 145
3 185 163 165
3 185 137 139
3 185 141 139
3 185 131 133
3 185 101 103
3 185 105 107
3 185 157 155
3 185 143 145
3 185 123 125
3 185 117 119
3 185 193 191
3 185 109 107
3 185 173 175
3 185 157 159
3 185 167 165
3 185 151 149
3 185 137 135
3 185 147 149
3 185 115 113
3 185 123 121
3 185 129 131
3 185 161 159
3 185 111 113
3 185 101 199
3 185 105 103
3 185 177 175
3 185 151 153
3 185 141 143
3 185 117 115
3 185 189 191
3 185 179 181
3 185 167 169
3 185 161 163
3 185 193 195
3 185 171 169
3 185 111 109
3 185 183 181
3 185 171 173
3 185 179 177
3 185 187 186
3 185 184 186
3 185 184 182
3 185 183 182
3 235 232 234
3 235 232 233
3 226 227 225
3 226 225 224
3 231 232 230
3 231 232 233
3 253 254 252
3 253 254 255
3 257 254 256
3 257 254 255
3 257 258 256
3 257 258 259
3 263 264 262
3 263 264 265
3 237 238 236
3 237 238 239
3 237 234 236
3 237 235 234
3 215 214 212
3 215 213 212
3 220 221 219
3 220 218 219
3 223 222 224
3 223 225 224
3 223 220 222
3 223 220 221
3 229 226 227
3 229 226 228
3 229 228 230
3 229 231 230
3 295 296 294
3 295 296 297
3 201 202 200
3 201 202 203
3 298 201 299
3 298 201 200
3 298 299 297
3 298 296 297
3 209 208 206
3 209 206 207
3 251 248 250
3 251 248 249
3 251 252 250
3 251 253 252
3 241 238 240
3 241 238 239
3 242 243 245
3 242 244 245
3 242 241 243
3 242 241 240
3 246 247 245
3 246 244 245
3 246 247 249
3 246 248 249
3 217 216 218
3 217 218 219
3 217 216 214
3 217 215 214
3 204 205 207
3 204 206 207
3 204 202 203
3 204 205 203
3 273 272 274
3 273 274 275
3 267 264 265
3 267 266 264
3 267 266 268
3 267 269 268
3 261 258 259
3 261 260 258
3 261 263 262
3 261 260 262
3 288 289 287
3 288 287 286
3 288 289 291
3 288 290 291
3 293 292 290
3 293 290 291
3 293 295 294
3 293 292 294
3 277 276 274
3 277 274 275
3 211 213 212
3 211 210 212
3 211 209 208
3 211 210 208
3 278 214 212
3 278 292 294
3 278 226 224
3 278 216 218
3 278 222 224
3 278 234 236
3 278 252 250
3 278 266 268
3 278 232 230
3 278 210 212
3 278 264 262
3 278 298 200
3 278 232 234
3 278 248 250
3 278 228 230
3 278 220 218
3 278 202 200
3 278 204 206
3 278 254 256
3 278 260 262
3 278 242 244
3 278 216 214
3 278 238 236
3 278 226 228
3 278 296 294
3 278 276 274
3 278 288 286
3 278 208 206
3 278 254 252
3 278 272 274
3 278 258 256
3 278 238 240
3 278 220 222
3 278 246 244
3 278 298 296
3 278 284 286
3 278 266 264
3 278 260 258
3 278 242 240
3 278 246 248
3 278 292 290
3 278 270 268
3 278 282 280
3 278 204 202
3 278 210 208
3 278 288 290
3 278 284 282
3 278 270 272
3 283 282 280
3 283 281 280
3 271 269 268
3 271 270 268
3 271 273 272
3 271 270 272
3 279 278 280
3 279 281 280
3 279 277 276
3 279 278 276
3 285 221 219
3 285 229 227
3 285 253 255
3 285 299 297
3 285 235 233
3 285 289 287
3 285 227 225
3 285 295 297
3 285 247 245
3 285 263 265
3 285 237 239
3 285 241 239
3 285 231 233
3 285 201 203
3 285 205 207
3 285 257 255
3 285 243 245
3 285 223 225
3 285 217 219
3 285 293 291
3 285 209 207
3 285 273 275
3 285 257 259
3 285 267 265
3 285 251 249
3 285 237 235
3 285 247 249
3 285 215 213
3 285 223 221
3 285 229 231
3 285 261 259
3 285 211 213
3 285 201 299
3 285 205 203
3 285 277 275
3 285 251 253
3 285 241 243
3 285 217 215
3 285 289 291
3 285 279 281
3 285 267 269
3 285 261 263
3 285 293 295
3 285 271 269
3 285 211 209
3 285 283 281
3 285 271 273
3 285 279 277
3 285 287 286
3 285 284 286
3 285 284 282
3 285 283 282
3 335 332 334
3 335 332 333
3 326 327 325
3 326 325 324
3 331 332 330
3 331 332 333
3 353 354 352
3 353 354 355
3 357 354 356
3 357 354 355
3 357 358 356
3 357 358 359
3 363 364 362
3 363 364 365
3 337 338 336
3 337 338 339
3 337 334 336
3 337 335 334
3 315 314 312
3 315 313 312
3 320 321 319
3 320 318 319
3 323 322 324
3 323 325 324
3 323 320 322
3 323 320 321
3 329 326 327
3 329 326 328
3 329 328 330
3 329 331 330
3 395 396 394
3 395 396 397
3 301 302 300
3 301 302 303
3 398 301 399
3 398 301 300
3 398 399 397
3 398 396 397
3 309 308 306
3 309 306 307
3 351 348 350
3 351 348 349
3 351 352 350
3 351 353 352
3 341 338 340
3 341 338 339
3 342 343 345
3 342 344 345
3 342 341 343
3 342 341 340
3 346 347 345
3 346 344 345
3 346 347 349
3 346 348 349
3 317 316 318
3 317 318 319
3 317 316 314
3 317 315 314
3 304 305 307
3 304 306 307
3 304 302 303
3 304 305 303
3 373 372 374
3 373 374 375
3 367 364 365
3 367 366 364
3 367 366 368
3 367 369 368
3 361 358 359
3 361 360 358
3 361 363 362
3 361 360 362
3 388 389 387
3 388 387 386
3 388 389 391
3 388 390 391
3 393 392 390
3 393 390 391
3 393 395 394
3 393 392 394
3 377 376 374
3 377 374 375
3 311 313 312
3 311 310 312
3 311 309 308
3 311 310 308
3 378 314 312
3 378 392 394
3 378 326 324
3 378 316 318
3 378 322 324
3 378 334 336
3 378 352 350
3 378 366 368
3 378 332 330
3 378 310 312
3 378 364 362
3 378 398 300
3 378 332 334
3 378 348 350
3 378 328 330
3 378 320 318
3 378 302 300
3 378 304 306
3 378 354 356
3 378 360 362
3 378 342 344
3 378 316 314
3 378 338 336
3 378 326 328
3 378 396 394
3 378 376 374
3 378 388 386
3 378 308 306
3 378 354 352
3 378 372 374
3 378 358 356
3 378 338 340
3 378 320 322
3 378 346 344
3 378 398 396
3 378 384 386
3 378 366 364
3 378 360 358
3 378 342 340
3 378 346 348
3 378 392 390
3 378 370 368
3 378 382 380
3 378 304 302
3 378 310 308
3 378 388 390
3 378 384 382
3 378 370 372
3 383 382 380
3 383 381 380
3 371 369 368
3 371 370 368
3 371 373 372
3 371 370 372
3 379 378 380
3 379 381 380
3 379 377 376
3 379 378 376
3 385 321 319
3 385 329 327
3 385 353 355
3 385 399 397
3 385 335 333
3 385 389 387
3 385 327 325
3 385 395 397
3 385 347 345
3 385 363 365
3 385 337 339
3 385 341 339
3 385 331 333
3 385 301 303
3 385 305 307
3 385 357 355
3 385 343 345
3 385 323 325
3 385 317 319
3 385 393 391
3 385 309 307
3 385 373 375
3 385 357 359
3 385 367 365
3 385 351 349
3 385 337 335
3 385 347 349
3 385 315 313
3 385 323 321
3 385 329 331
3 385 361 359
3 385 311 313
3 385 301 399
3 385 305 303
3 385 377 375
3 385 351 353
3 385 341 343
3 385 317 315
3 385 389 391
3 385 379 381
3 385 367 369
3 385 361 363
3 385 393 395
3 385 371 369
3 385 311 309
3 385 383 381
3 385 371 373
3 385 379 377
3 385 387 386
3 385 384 386
3 385 384 382
3 385 383 382
3 435 432 434
3 435 432 433
3 426 427 425
3 426 425 424
3 431 432 430
3 431 432 433
3 453 454 452
3 453 454 455
3 457 454 456
3 457 454 455
3 457 458 456
3 457 458 459
3 463 464 462
3 463 464 465
3 437 438 436
3 437 438 439
3 437 434 436
3 437 435 434
3 415 414 412
3 415 413 412
3 420 421 419
3 420 418 419
3 423 422 424
3 423 425 424
3 423 420 422
3 423 420 421
3 429 426 427
3 429 426 428
3 429 428 430
3 429 431 430
3 495 496 494
3 495 496 497
3 401 402 400
3 401 402 403
3 498 401 499
3 498 401 400
3 498 499 497
3 498 496 497
3 409 408 406
3 409 406 407
3 451 448 450
3 451 448 449
3 451 452 450
3 451 453 452
3 441 438 440
3 441 438 439
3 442 443 445
3 442 444 445
3 442 441 443
3 442 441 440
3 446 447 445
3 446 444 445
3 446 447 449
3 446 448 449
3 417 416 418
3 417 418 419
3 417 416 414
3 417 415 414
3 404 405 407
3 404 406 407
3 404 402 403
3 404 405 403
3 473 472 474
3 473 474 475
3 467 464 465
3 467 466 464
3 467 466 468
3 467 469 468
3 461 458 459
3 461 460 458
3 461 463 462
3 461 460 462
3 488 489 487
3 488 487 486
3 488 489 491
3 488 490 491
3 493 492 490
3 493 490 491
3 493 495 494
3 493 492 494
3 477 476 474
3 477 474 475
3 411 413 412
3 411 410 412
3 411 409 408
3 411 410 408
3 478 414 412
3 478 492 494
3 478 426 424
3 478 416 418
3 478 422 424
3 478 434 436
3 478 452 450
3 478 466 468
3 478 432 430
3 478 410 412
3 478 464 462
3 478 498 400
3 478 432 434
3 478 448 450
3 478 428 430
3 478 420 418
3 478 402 400
3 478 404 406
3 478 454 456
3 478 460 462
3 478 442 444
3 478 416 414
3 478 438 436
3 478 426 428
3 478 496 494
3 478 476 474
3 478 488 486
3 478 408 406
3 478 454 452
3 478 472 474
3 478 458 456
3 478 438 440
3 478 420 422
3 478 446 444
3 478 498 496
3 478 484 486
3 478 466 464
3 478 460 458
3 478 442 440
3 478 446 448
3 478 492 490
3 478 470 468
3 478 482 480
3 478 404 402
3 478 410 408
3 478 488 490
3 478 484 482
3 478 470 472
3 483 482 480
3 483 481 480
3 471 469 468
3 471 470 468
3 471 473 472
3 471 470 472
3 479 478 480
3 479 481 480
3 479 477 476
3 479 478 476
3 485 421 419
3 485 429 427
3 485 453 455
3 485 499 497
3 485 435 433
3 485 489 487
3 485 427 425
3 485 495 497
3 485 447 445
3 485 463 465
3 485 437 439
3 485 441 439
3 485 431 433
3 485 401 403
3 485 405 407
3 485 457 455
3 485 443 445
3 485 423 425
3 485 417 419
3 485 493 491
3 485 409 407
3 485 473 475
3 485 457 459
3 485 467 465
3 485 451 449
3 485 437 435
3 485 447 449
3 485 415 413
3 485 423 421
3 485 429 431
3 485 461 459
3 485 411 413
3 485 401 499
3 485 405 403
3 485 477 475
3 485 451 453
3 485 441 443
3 485 417 415
3 485 489 491
3 485 479 481
3 485 467 469
3 485 461 463
3 485 493 495
3 485 471 469
3 485 411 409
3 485 483 481
3 485 471 473
3 485 479 477
3 485 487 486
3 485 484 486
3 485 484 482
3 485 483 482
3 535 532 534
3 535 532 533
3 526 527 525
3 526 525 524
3 531 532 530
3 531 532 533
3 553 554 552
3 553 554 555
3 557 554 556
3 557 554 555
3 557 558 556
3 557 558 559
3 563 564 562
3 563 564 565
3 537 538 536
3 537 538 539
3 537 534 536
3 537 535 534
3 515 514 512
3 515 513 512
3 520 521 519
3 520 518 519
3 523 522 524
3 523 525 524
3 523 520 522
3 523 520 521
3 529 526 527
3 529 526 528
3 529 528 530
3 529 531 530
3 595 596 594
3 595 596 597
3 501 502 500
3 501 502 503
3 598 501 599
3 598 501 500
3 598 599 597
3 598 596 597
3 509 508 506
3 509 506 507
3 551 548 550
3 551 548 549
3 551 552 550
3 551 553 552
3 541 538 540
3 541 538 539
3 542 543 545
3 542 544 545
3 542 541 543
3 542 541 540
3 546 547 545
3 546 544 545
3 546 547 549
3 546 548 549
3 517 516 518
3 517 518 519
3 517 516 514
3 517 515 514
3 504 505 507
3 504 506 507
3 504 502 503
3 504 505 503
3 573 572 574
3 573 574 575
3 567 564 565
3 567 566 564
3 567 566 568
3 567 569 568
3 561 558 559
3 561 560 558
3 561 563 562
3 561 560 562
3 588 589 587
3 588 587 586
3 588 589 591
3 588 590 591
3 593 592 590
3 593 590 591
3 593 595 594
3 593 592 594
3 577 576 574
3 577 574 575
3 511 513 512
3 511 510 512
3 511 509 508
3 511 510 508
3 578 514 512
3 578 592 594
3 578 526 524
3 578 516 518
3 578 522 524
3 578 534 536
3 578 552 550
3 578 566 568
3 578 532 530
3 578 510 512
3 578 564 562
3 578 598 500
3 578 532 534
3 578 548 550
3 578 528 530
3 578 520 518
3 578 502 500
3 578 504 506
3 578 554 556
3 578 560 562
3 578 542 544
3 578 516 514
3 578 538 536
3 578 526 528
3 578 596 594
3 578 576 574
3 578 588 586
3 578 508 506
3 578 554 552
3 578 572 574
3 578 558 556
3 578 538 540
3 578 520 522
3 578 546 544
3 578 598 596
3 578 584 586
3 578 566 564
3 578 560 558
3 578 542 540
3 578 546 548
3 578 592 590
3 578 570 568
3 578 582 580
3 578 504 502
3 578 510 508
3 578 588 590
3 578 584 582
3 578 570 572
3 583 582 580
3 583 581 580
3 571 569 568
3 571 570 568
3 571 573 572
3 571 570 572
3 579 578 580
3 579 581 580
3 579 577 576
3 579 578 576
3 585 521 519
3 585 529 527
3 585 553 555
3 585 599 597
3 585 535 533
3 585 589 587
3 585 527 525
3 585 595 597
3 585 547 545
3 585 563 565
3 585 537 539
3 585 541 539
3 585 531 533
3 585 501 503
3 585 505 507
3 585 557 555
3 585 543 545
3 585 523 525
3 585 517 519
3 585 593 591
3 585 509 507
3 585 573 575
3 585 557 559
3 585 567 565
3 585 551 549
3 585 537 535
3 585 547 549
3 585 515 513
3 585 523 521
3 585 529 531
3 585 561 559
3 585 511 513
3 585 501 599
3 585 505 503
3 585 577 575
3 585 551 553
3 585 541 543
3 585 517 515
3 585 589 591
3 585 579 581
3 585 567 569
3 585 561 563
3 585 593 595
3 585 571 569
3 585 511 509
3 585 583 581
3 585 571 573
3 585 579 577
3 585 587 586
3 585 584 586
3 585 584 582
3 585 583 582
CELL_TYPES 1176
5 5 5 5 5 5 5 5 5 5 
5 5 5 5 5 5 5 5 5 5 
5 5 5 5 5 5 5 5 5 5 
5 5 5 5 5 5 5 5 5 5 
5 5 5 5 5 5 5 5 5 5 
5 5 5 5 5 5 5 5 5 5 
5 5 5 5 5 5 5 5 5 5 
5 5 5 5 5 5 5 5 5 5 
5 5 5 5 5 5 5 5 5 5 
5 5 5 5 5 5 5 5 5 5 
5 5 5 5 5 5 5 5 5 5 
5 5 5 5 5 5 5 5 5 5 
5 5 5 5 5 5 5 5 5 5 
5 5 5 5 5 5 5 5 5 5 
5 5 5 5 5 5 5 5 5 5 
5 5 5 5 5 5 5 5 5 5 
5 5 5 5 5 5 5 5 5 5 
5 5 5 5 5 5 5 5 5 5 
5 5 5 5 5 5 5 5 5 5 
5 5 5 5 5 5 5 5 5 5 
5 5 5 5 5 5 5 5 5 5 
5 5 5 5 5 5 5 5 5 5 
5 5 5 5 5 5 5 5 5 5 
5 5 5 5 5 5 5 5 5 5 
5 5 5 5 5 5 5 5 5 5 
5 5 5 5 5 5 5 5 5 5 
5 5 5 5 5 5 5 5 5 5 
5 5 5 5 5 5 5 5 5 5 
5 5 5 5 5 5 5 5 5 5 
5 5 5 5 5 5 5 5 5 5 
5 5 5 5 5 5 5 5 5 5 
5 5 5 5 5 5 5 5 5 5 
5 5 5 5 5 5 5 5 5 5 
5 5 5 5 5 5 5 5 5 5 
5 5 5 5 5 5 5 5 5 5 
5 5 5 5 5 5 5 5 5 5 
5 5 5 5 5 5 5 5 5 5 
5 5 5 5 5 5 5 5 5 5 
5 5 5 5 5 5 5 5 5 5 
5 5 5 5 5 5 5 5 5 5 
5 5 5 5 5 5 5 5 5 5 
5 5 5 5 5 5 5 5 5 5 
5 5 5 5 5 5 5 5 5 5 
5 5 5 5 5 5 5 5 5 5 
5 5 5 5 5 5 5 5 5 5 
5 5 5 5 5 5 5 5 5 5 
5 5 5 5 5 5 5 5 5 5 
5 5 5 5 5 5 5 5 5 5 
5 5 5 5 5 5 5 5 5 5 
5 5 5 5 5 5 5 5 5 5 
5 5 5 5 5 5 5 5 5 5 
5 5 5 5 5 5 5 5 5 5 
5 5 5 5 5 5 5 5 5 5 
5 5 5 5 5 5 5 5 5 5 
5 5 5 5 5 5 5 5 5 5 
5 5 5 5 5 5 5 5 5 5 
5 5 5 5 5 5 5 5 5 5 
5 5 5 5 5 5 5 5 5 5 
5 5 5 5 5 5 5 5 5 5 
5 5 5 5 5 5 5 5 5 5 
5 5 5 5 5 5 5 5 5 5 
5 5 5 5 5 5 5 5 5 5 
5 5 5 5 5 5 5 5 5 5 
5 5 5 5 5 5 5 5 5 5 
5 5 5 5 5 5 5 5 5 5 
5 5 5 5 5 5 5 5 5 5 
5 5 5 5 5 5 5 5 5 5 
5 5 5 5 5 5 5 5 5 5 
5 5 5 5 5 5 5 5 5 5 
5 5 5 5 5 5 5 5 5 5 
5 5 5 5 5 5 5 5 5 5 
5 5 5 5 5 5 5 5 5 5 
5 5 5 5 5 5 5 5 5 5 
5 5 5 5 5 5 5 5 5 5 
5 5 5 5 5 5 5 5 5 5 
5 5 5 5 5 5 5 5 5 5 
5 5 5 5 5 5 5 5 5 5 
5 5 5 5 5 5 5 5 5 5 
5 5 5 5 5 5 5 5 5 5 
5 5 5 5 5 5 5 5 5 5 
5 5 5 5 5 5 5 5 5 5 
5 5 5 5 5 5 5 5 5 5 
5 5 5 5 5 5 5 5 5 5 
5 5 5 5 5 5 5 5 5 5 
5 5 5 5 5 5 5 5 5 5 
5 5 5 5 5 5 5 5 5 5 
5 5 5 5 5 5 5 5 5 5 
5 5 5 5 5 5 5 5 5 5 
5 5 5 5 5 5 5 5 5 5 
5 5 5 5 5 5 5 5 5 5 
5 5 5 5 5 5 5 5 5 5 
5 5 5 5 5 5 5 5 5 5 
5 5 5 5 5 5 5 5 5 5 
5 5 5 5 5 5 5 5 5 5 
5 5 5 5 5 5 5 5 5 5 
5 5 5 5 5 5 5 5 5 5 
5 5 5 5 5 5 5 5 5 5 
5 5 5 5 5 5 5 5 5 5 
5 5 5 5 5 5 5 5 5 5 
5 5 5 5 5 5 5 5 5 5 
5 5 5 5 5 5 5 5 5 5 
5 5 5 5 5 5 5 5 5 5 
5 5 5 5 5 5 5 5 5 5 
5 5 5 5 5 5 5 5 5 5 
5 5 5 5 5 5 5 5 5 5 
5 5 5 5 5 5 5 5 5 5 
5 5 5 5 5 5 5 5 5 5 
5 5 5 5 5 5 5 5 5 5 
5 5 5 5 5 5 5 5 5 5 
5 5 5 5 5 5 5 5 5 5 
5 5 5 5 5 5 5 5 5 5 
5 5 5 5 5 5 5 5 5 5 
5 5 5 5 5 5 5 5 5 5 
5 5 5 5 5 5 5 5 5 5 
5 5 5 5 5 5 5 5 5 5 
5 5 5 5 5 5 5 5 5 5 
5 5 5 5 5 5 5 5 5 5 
5 5 5 5 5 5 
CELL_DATA 1176
SCALARS Face_Number float 1
LOOKUP_TABLE default
0 0 0 0 0 0 0 0 0 
0 0 0 0 0 0 0 0 0 0 
0 0 0 0 0 0 0 0 0 0 
0 0 0 0 0 0 0 0 0 0 
0 0 0 0 0 0 0 0 0 0 
0 0 0 0 0 0 0 0 0 0 
0 0 0 0 0 0 0 0 0 0 
0 0 0 0 0 0 0 0 0 0 
0 0 0 0 0 0 0 0 0 0 
0 0 0 0 0 0 0 0 0 0 
0 0 0 0 0 0 0 0 0 0 
0 0 0 0 0 0 0 0 0 0 
0 0 0 0 0 0 0 0 0 0 
0 0 0 0 0 0 0 0 0 0 
0 0 0 0 0 0 0 0 0 0 
0 0 0 0 0 0 0 0 0 0 
0 0 0 0 0 0 0 0 0 0 
0 0 0 0 0 0 0 0 0 0 
0 0 0 0 0 0 0 0 0 0 
0 0 0 0 0 0 0 1 1 1 
1 1 1 1 1 1 1 1 1 1 
1 1 1 1 1 1 1 1 1 1 
1 1 1 1 1 1 1 1 1 1 
1 1 1 1 1 1 1 1 1 1 
1 1 1 1 1 1 1 1 1 1 
1 1 1 1 1 1 1 1 1 1 
1 1 1 1 1 1 1 1 1 1 
1 1 1 1 1 1 1 1 1 1 
1 1 1 1 1 1 1 1 1 1 
1 1 1 1 1 1 1 1 1 1 
1 1 1 1 1 1 1 1 1 1 
1 1 1 1 1 1 1 1 1 1 
1 1 1 1 1 1 1 1 1 1 
1 1 1 1 1 1 1 1 1 1 
1 1 1 1 1 1 1 1 1 1 
1 1 1 1 1 1 1 1 1 1 
1 1 1 1 1 1 1 1 1 1 
1 1 1 1 1 1 1 1 1 1 
1 1 1 1 1 1 1 1 1 1 
1 1 1 2 2 2 2 2 2 2 
2 2 2 2 2 2 2 2 2 2 
2 2 2 2 2 2 2 2 2 2 
2 2 2 2 2 2 2 2 2 2 
2 2 2 2 2 2 2 2 2 2 
2 2 2 2 2 2 2 2 2 2 
2 2 2 2 2 2 2 2 2 2 
2 2 2 2 2 2 2 2 2 2 
2 2 2 2 2 2 2 2 2 2 
2 2 2 2 2 2 2 2 2 2 
2 2 2 2 2 2 2 2 2 2 
2 2 2 2 2 2 2 2 2 2 
2 2 2 2 2 2 2 2 2 2 
2 2 2 2 2 2 2 2 2 2 
2 2 2 2 2 2 2 2 2 2 
2 2 2 2 2 2 2 2 2 2 
2 2 2 2 2 2 2 2 2 2 
2 2 2 2 2 2 2 2 2 2 
2 2 2 2 2 2 2 2 2 2 
2 2 2 2 2 2 2 2 2 3 
3 3 3 3 3 3 3 3 3 3 
3 3 3 3 3 3 3 3 3 3 
3 3 3 3 3 3 3 3 3 3 
3 3 3 3 3 3 3 3 3 3 
3 3 3 3 3 3 3 3 3 3 
3 3 3 3 3 3 3 3 3 3 
3 3 3 3 3 3 3 3 3 3 
3 3 3 3 3 3 3 3 3 3 
3 3 3 3 3 3 3 3 3 3 
3 3 3 3 3 3 3 3 3 3 
3 3 3 3 3 3 3 3 3 3 
3 3 3 3 3 3 3 3 3 3 
3 3 3 3 3 3 3 3 3 3 
3 3 3 3 3 3 3 3 3 3 
3 3 3 3 3 3 3 3 3 3 
3 3 3 3 3 3 3 3 3 3 
3 3 3 3 3 3 3 3 3 3 
3 3 3 3 3 3 3 3 3 3 
3 3 3 3 3 3 3 3 3 3 
3 3 3 3 3 4 4 4 4 4 
4 4 4 4 4 4 4 4 4 4 
4 4 4 4 4 4 4 4 4 4 
4 4 4 4 4 4 4 4 4 4 
4 4 4 4 4 4 4 4 4 4 
4 4 4 4 4 4 4 4 4 4 
4 4 4 4 4 4 4 4 4 4 
4 4 4 4 4 4 4 4 4 4 
4 4 4 4 4 4 4 4 4 4 
4 4 4 4 4 4 4 4 4 4 
4 4 4 4 4 4 4 4 4 4 
4 4 4 4 4 4 4 4 4 4 
4 4 4 4 4 4 4 4 4 4 
4 4 4 4 4 4 4 4 4 4 
4 4 4 4 4 4 4 4 4 4 
4 4 4 4 4 4 4 4 4 4 
4 4 4 4 4 4 4 4 4 4 
4 4 4 4 4 4 4 4 4 4 
4 4 4 4 4 4 4 4 4 4 
4 4 4 4 4 4 4 4 4 4 
4 5 5 5 5 5 5 5 5 5 
5 5 5 5 5 5 5 5 5 5 
5 5 5 5 5 5 5 5 5 5 
5 5 5 5 5 5 5 5 5 5 
5 5 5 5 5 5 5 5 5 5 
5 5 5 5 5 5 5 5 5 5 
5 5 5 5 5 5 5 5 5 5 
5 5 5 5 5 5 5 5 5 5 
5 5 5 5 5 5 5 5 5 5 
5 5 5 5 5 5 5 5 5 5 
5 5 5 5 5 5 5 5 5 5 
5 5 5 5 5 5 5 5 5 5 
5 5 5 5 5 5 5 5 5 5 
5 5 5 5 5 5 5 5 5 5 
5 5 5 5 5 5 5 5 5 5 
5 5 5 5 5 5 5 5 5 5 
5 5 5 5 5 5 5 5 5 5 
5 5 5 5 5 5 5 5 5 5 
5 5 5 5 5 5 5 5 5 5 
5 5 5 5 5 5 5 SCALARS Node_Number float 1
LOOKUP_TABLE default
-1 -1 -1 -1 -1 -1 -1 -1 -1 
-1 -1 -1 -1 -1 -1 -1 -1 -1 -1 
-1 -1 -1 -1 -1 -1 -1 -1 -1 -1 
-1 -1 -1 -1 -1 -1 -1 -1 -1 -1 
-1 -1 -1 -1 -1 -1 -1 -1 -1 -1 
-1 -1 -1 -1 -1 -1 -1 -1 -1 -1 
-1 -1 -1 -1 -1 -1 -1 -1 -1 -1 
-1 -1 -1 -1 -1 -1 -1 -1 -1 -1 
-1 -1 -1 -1 -1 -1 -1 -1 -1 -1 
-1 -1 -1 -1 -1 -1 -1 -1 -1 -1 
-1 -1 -1 -1 -1 -1 -1 -1 -1 -1 
-1 -1 -1 -1 -1 -1 -1 -1 -1 -1 
-1 -1 -1 -1 -1 -1 -1 -1 -1 -1 
-1 -1 -1 -1 -1 -1 -1 -1 -1 -1 
-1 -1 -1 -1 -1 -1 -1 -1 -1 -1 
-1 -1 -1 -1 -1 -1 -1 -1 -1 -1 
-1 -1 -1 -1 -1 -1 -1 -1 -1 -1 
-1 -1 -1 -1 -1 -1 -1 -1 -1 -1 
-1 -1 -1 -1 -1 -1 -1 -1 -1 -1 
-1 -1 -1 -1 -1 -1 -1 -1 -1 -1 
-1 -1 -1 -1 -1 -1 -1 -1 -1 -1 
-1 -1 -1 -1 -1 -1 -1 -1 -1 -1 
-1 -1 -1 -1 -1 -1 -1 -1 -1 -1 
-1 -1 -1 -1 -1 -1 -1 -1 -1 -1 
-1 -1 -1 -1 -1 -1 -1 -1 -1 -1 
-1 -1 -1 -1 -1 -1 -1 -1 -1 -1 
-1 -1 -1 -1 -1 -1 -1 -1 -1 -1 
-1 -1 -1 -1 -1 -1 -1 -1 -1 -1 
-1 -1 -1 -1 -1 -1 -1 -1 -1 -1 
-1 -1 -1 -1 -1 -1 -1 -1 -1 -1 
-1 -1 -1 -1 -1 -1 -1 -1 -1 -1 
-1 -1 -1 -1 -1 -1 -1 -1 -1 -1 
-1 -1 -1 -1 -1 -1 -1 -1 -1 -1 
-1 -1 -1 -1 -1 -1 -1 -1 -1 -1 
-1 -1 -1 -1 -1 -1 -1 -1 -1 -1 
-1 -1 -1 -1 -1 -1 -1 -1 -1 -1 
-1 -1 -1 -1 -1 -1 -1 -1 -1 -1 
-1 -1 -1 -1 -1 -1 -1 -1 -1 -1 
-1 -1 -1 -1 -1 -1 -1 -1 -1 -1 
-1 -1 -1 0 0 0 0 0 0 0 
0 0 0 0 0 0 0 0 0 0 
0 0 0 0 0 0 0 0 0 0 
0 0 0 0 0 0 0 0 0 0 
0 0 0 0 0 0 0 0 0 0 
0 0 0 0 0 0 0 0 0 0 
0 0 0 0 0 0 0 0 0 0 
0 0 0 0 0 0 0 0 0 0 
0 0 0 0 0 0 0 0 0 0 
0 0 0 0 0 0 0 0 0 0 
0 0 0 0 0 0 0 0 0 0 
0 0 0 0 0 0 0 0 0 0 
0 0 0 0 0 0 0 0 0 0 
0 0 0 0 0 0 0 0 0 0 
0 0 0 0 0 0 0 0 0 0 
0 0 0 0 0 0 0 0 0 0 
0 0 0 0 0 0 0 0 0 0 
0 0 0 0 0 0 0 0 0 0 
0 0 0 0 0 0 0 0 0 0 
0 0 0 0 0 0 0 0 0 0 
0 0 0 0 0 0 0 0 0 0 
0 0 0 0 0 0 0 0 0 0 
0 0 0 0 0 0 0 0 0 0 
0 0 0 0 0 0 0 0 0 0 
0 0 0 0 0 0 0 0 0 0 
0 0 0 0 0 0 0 0 0 0 
0 0 0 0 0 0 0 0 0 0 
0 0 0 0 0 0 0 0 0 0 
0 0 0 0 0 0 0 0 0 0 
0 0 0 0 0 0 0 0 0 0 
0 0 0 0 0 0 0 0 0 0 
0 0 0 0 0 0 0 0 0 0 
0 0 0 0 0 0 0 0 0 0 
0 0 0 0 0 0 0 0 0 0 
0 0 0 0 0 0 0 0 0 0 
0 0 0 0 0 0 0 0 0 0 
0 0 0 0 0 0 0 0 0 0 
0 0 0 0 0 0 0 0 0 0 
0 0 0 0 0 0 0 0 0 0 
0 0 0 0 0 0 0 0 0 0 
0 0 0 0 0 0 0 0 0 0 
0 0 0 0 0 0 0 0 0 0 
0 0 0 0 0 0 0 0 0 0 
0 0 0 0 0 0 0 0 0 0 
0 0 0 0 0 0 0 0 0 0 
0 0 0 0 0 0 0 0 0 0 
0 0 0 0 0 0 0 0 0 0 
0 0 0 0 0 0 0 0 0 0 
0 0 0 0 0 0 0 0 0 0 
0 0 0 0 0 0 0 0 0 0 
0 0 0 0 0 0 0 0 0 0 
0 0 0 0 0 0 0 0 0 0 
0 0 0 0 0 0 0 0 0 0 
0 0 0 0 0 0 0 0 0 0 
0 0 0 0 0 0 0 0 0 0 
0 0 0 0 0 0 0 0 0 0 
0 0 0 0 0 0 0 0 0 0 
0 0 0 0 0 0 0 0 0 0 
0 0 0 0 0 0 0 0 0 0 
0 -1 -1 -1 -1 -1 -1 -1 -1 -1 
-1 -1 -1 -1 -1 -1 -1 -1 -1 -1 
-1 -1 -1 -1 -1 -1 -1 -1 -1 -1 
-1 -1 -1 -1 -1 -1 -1 -1 -1 -1 
-1 -1 -1 -1 -1 -1 -1 -1 -1 -1 
-1 -1 -1 -1 -1 -1 -1 -1 -1 -1 
-1 -1 -1 -1 -1 -1 -1 -1 -1 -1 
-1 -1 -1 -1 -1 -1 -1 -1 -1 -1 
-1 -1 -1 -1 -1 -1 -1 -1 -1 -1 
-1 -1 -1 -1 -1 -1 -1 -1 -1 -1 
-1 -1 -1 -1 -1 -1 -1 -1 -1 -1 
-1 -1 -1 -1 -1 -1 -1 -1 -1 -1 
-1 -1 -1 -1 -1 -1 -1 -1 -1 -1 
-1 -1 -1 -1 -1 -1 -1 -1 -1 -1 
-1 -1 -1 -1 -1 -1 -1 -1 -1 -1 
-1 -1 -1 -1 -1 -1 -1 -1 -1 -1 
-1 -1 -1 -1 -1 -1 -1 -1 -1 -1 
-1 -1 -1 -1 -1 -1 -1 -1 -1 -1 
-1 -1 -1 -1 -1 -1 -1 -1 -1 -1 
-1 -1 -1 -1 -1 -1 -1 SCALARS Type float 1
LOOKUP_TABLE default
6 6 6 6 6 6 6 6 6 
6 6 6 6 6 6 6 6 6 6 
6 6 6 6 6 6 6 6 6 6 
6 6 6 6 6 6 6 6 6 6 
6 6 6 6 6 6 6 6 6 6 
6 6 6 6 6 6 6 6 6 6 
6 6 6 6 6 6 6 6 6 6 
6 6 6 6 6 6 6 6 6 6 
6 6 6 6 6 6 6 6 6 6 
6 6 6 6 6 6 6 6 6 6 
6 6 6 6 6 6 6 6 6 6 
6 6 6 6 6 6 6 6 6 6 
6 6 6 6 6 6 6 6 6 6 
6 6 6 6 6 6 6 6 6 6 
6 6 6 6 6 6 6 6 6 6 
6 6 6 6 6 6 6 6 6 6 
6 6 6 6 6 6 6 6 6 6 
6 6 6 6 6 6 6 6 6 6 
6 6 6 6 6 6 6 6 6 6 
6 6 6 6 6 6 6 6 6 6 
6 6 6 6 6 6 6 6 6 6 
6 6 6 6 6 6 6 6 6 6 
6 6 6 6 6 6 6 6 6 6 
6 6 6 6 6 6 6 6 6 6 
6 6 6 6 6 6 6 6 6 6 
6 6 6 6 6 6 6 6 6 6 
6 6 6 6 6 6 6 6 6 6 
6 6 6 6 6 6 6 6 6 6 
6 6 6 6 6 6 6 6 6 6 
6 6 6 6 6 6 6 6 6 6 
6 6 6 6 6 6 6 6 6 6 
6 6 6 6 6 6 6 6 6 6 
6 6 6 6 6 6 6 6 6 6 
6 6 6 6 6 6 6 6 6 6 
6 6 6 6 6 6 6 6 6 6 
6 6 6 6 6 6 6 6 6 6 
6 6 6 6 6 6 6 6 6 6 
6 6 6 6 6 6 6 6 6 6 
6 6 6 6 6 6 6 6 6 6 
6 6 6 6 6 6 6 6 6 6 
6 6 6 6 6 6 6 6 6 6 
6 6 6 6 6 6 6 6 6 6 
6 6 6 6 6 6 6 6 6 6 
6 6 6 6 6 6 6 6 6 6 
6 6 6 6 6 6 6 6 6 6 
6 6 6 6 6 6 6 6 6 6 
6 6 6 6 6 6 6 6 6 6 
6 6 6 6 6 6 6 6 6 6 
6 6 6 6 6 6 6 6 6 6 
6 6 6 6 6 6 6 6 6 6 
6 6 6 6 6 6 6 6 6 6 
6 6 6 6 6 6 6 6 6 6 
6 6 6 6 6 6 6 6 6 6 
6 6 6 6 6 6 6 6 6 6 
6 6 6 6 6 6 6 6 6 6 
6 6 6 6 6 6 6 6 6 6 
6 6 6 6 6 6 6 6 6 6 
6 6 6 6 6 6 6 6 6 6 
6 6 6 6 6 6 6 6 6 6 
6 6 6 6 6 6 6 6 6 6 
6 6 6 6 6 6 6 6 6 6 
6 6 6 6 6 6 6 6 6 6 
6 6 6 6 6 6 6 6 6 6 
6 6 6 6 6 6 6 6 6 6 
6 6 6 6 6 6 6 6 6 6 
6 6 6 6 6 6 6 6 6 6 
6 6 6 6 6 6 6 6 6 6 
6 6 6 6 6 6 6 6 6 6 
6 6 6 6 6 6 6 6 6 6 
6 6 6 6 6 6 6 6 6 6 
6 6 6 6 6 6 6 6 6 6 
6 6 6 6 6 6 6 6 6 6 
6 6 6 6 6 6 6 6 6 6 
6 6 6 6 6 6 6 6 6 6 
6 6 6 6 6 6 6 6 6 6 
6 6 6 6 6 6 6 6 6 6 
6 6 6 6 6 6 6 6 6 6 
6 6 6 6 6 6 6 6 6 6 
6 6 6 6 6 6 6 6 6 6 
6 6 6 6 6 6 6 6 6 6 
6 6 6 6 6 6 6 6 6 6 
6 6 6 6 6 6 6 6 6 6 
6 6 6 6 6 6 6 6 6 6 
6 6 6 6 6 6 6 6 6 6 
6 6 6 6 6 6 6 6 6 6 
6 6 6 6 6 6 6 6 6 6 
6 6 6 6 6 6 6 6 6 6 
6 6 6 6 6 6 6 6 6 6 
6 6 6 6 6 6 6 6 6 6 
6 6 6 6 6 6 6 6 6 6 
6 6 6 6 6 6 6 6 6 6 
6 6 6 6 6 6 6 6 6 6 
6 6 6 6 6 6 6 6 6 6 
6 6 6 6 6 6 6 6 6 6 
6 6 6 6 6 6 6 6 6 6 
6 6 6 6 6 6 6 6 6 6 
6 6 6 6 6 6 6 6 6 6 
6 6 6 6 6 6 6 6 6 6 
6 6 6 6 6 6 6 6 6 6 
6 6 6 6 6 6 6 6 6 6 
6 6 6 6 6 6 6 6 6 6 
6 6 6 6 6 6 6 6 6 6 
6 6 6 6 6 6 6 6 6 6 
6 6 6 6 6 6 6 6 6 6 
6 6 6 6 6 6 6 6 6 6 
6 6 6 6 6 6 6 6 6 6 
6 6 6 6 6 6 6 6 6 6 
6 6 6 6 6 6 6 6 6 6 
6 6 6 6 6 6 6 6 6 6 
6 6 6 6 6 6 6 6 6 6 
6 6 6 6 6 6 6 6 6 6 
6 6 6 6 6 6 6 6 6 6 
6 6 6 6 6 6 6 6 6 6 
6 6 6 6 6 6 6 6 6 6 
6 6 6 6 6 6 6 6 6 6 
6 6 6 6 6 6 6 6 6 6 
6 6 6 6 6 6 6 6 6 6 
6 6 6 6 6 6 6 SCALARS Sn_MPa float 1
LOOKUP_TABLE default
100.234 100.234 100.234 100.234 100.234 100.234 100.234 100.234 100.234 
100.234 100.234 100.234 100.234 100.234 100.234 100.234 100.234 100.234 100.234 
100.234 100.234 100.234 100.234 100.234 100.234 100.234 100.234 100.234 100.234 
100.234 100.234 100.234 100.234 100.234 100.234 100.234 100.234 100.234 100.234 
100.234 100.234 100.234 100.234 100.234 100.234 100.234 100.234 100.234 100.234 
100.234 100.234 100.234 100.234 100.234 100.234 100.234 100.234 100.234 100.234 
100.234 100.234 100.234 100.234 100.234 100.234 100.234 100.234 100.234 100.234 
100.234 100.234 100.234 100.234 100.234 100.234 100.234 100.234 100.234 100.234 
100.234 100.234 100.234 100.234 100.234 100.234 100.234 100.234 100.234 100.234 
100.234 100.234 100.234 100.234 100.234 100.234 100.234 100.234 100.234 100.234 
100.234 100.234 100.234 100.234 100.234 100.234 100.234 100.234 100.234 100.234 
100.234 100.234 100.234 100.234 100.234 100.234 100.234 100.234 100.234 100.234 
100.234 100.234 100.234 100.234 100.234 100.234 100.234 100.234 100.234 100.234 
100.234 100.234 100.234 100.234 100.234 100.234 100.234 100.234 100.234 100.234 
100.234 100.234 100.234 100.234 100.234 100.234 100.234 100.234 100.234 100.234 
100.234 100.234 100.234 100.234 100.234 100.234 100.234 100.234 100.234 100.234 
100.234 100.234 100.234 100.234 100.234 100.234 100.234 100.234 100.234 100.234 
100.234 100.234 100.234 100.234 100.234 100.234 100.234 100.234 100.234 100.234 
100.234 100.234 100.234 100.234 100.234 100.234 100.234 100.234 100.234 100.234 
100.234 100.234 100.234 100.234 100.234 100.234 100.234 100.234 100.234 100.234 
100.234 100.234 100.234 100.234 100.234 100.234 100.234 100.234 100.234 100.234 
100.234 100.234 100.234 100.234 100.234 100.234 100.234 100.234 100.234 100.234 
100.234 100.234 100.234 100.234 100.234 100.234 100.234 100.234 100.234 100.234 
100.234 100.234 100.234 100.234 100.234 100.234 100.234 100.234 100.234 100.234 
100.234 100.234 100.234 100.234 100.234 100.234 100.234 100.234 100.234 100.234 
100.234 100.234 100.234 100.234 100.234 100.234 100.234 100.234 100.234 100.234 
100.234 100.234 100.234 100.234 100.234 100.234 100.234 100.234 100.234 100.234 
100.234 100.234 100.234 100.234 100.234 100.234 100.234 100.234 100.234 100.234 
100.234 100.234 100.234 100.234 100.234 100.234 100.234 100.234 100.234 100.234 
100.234 100.234 100.234 100.234 100.234 100.234 100.234 100.234 100.234 100.234 
100.234 100.234 100.234 100.234 100.234 100.234 100.234 100.234 100.234 100.234 
100.234 100.234 100.234 100.234 100.234 100.234 100.234 100.234 100.234 100.234 
100.234 100.234 100.234 100.234 100.234 100.234 100.234 100.234 100.234 100.234 
100.234 100.234 100.234 100.234 100.234 100.234 100.234 100.234 100.234 100.234 
100.234 100.234 100.234 100.234 100.234 100.234 100.234 100.234 100.234 100.234 
100.234 100.234 100.234 100.234 100.234 100.234 100.234 100.234 100.234 100.234 
100.234 100.234 100.234 100.234 100.234 100.234 100.234 100.234 100.234 100.234 
100.234 100.234 100.234 100.234 100.234 100.234 100.234 100.234 100.234 100.234 
100.234 100.234 100.234 100.234 100.234 100.234 100.234 100.234 100.234 100.234 
100.234 100.234 100.234 130.632 130.632 130.632 130.632 130.632 130.632 130.632 
130.632 130.632 130.632 130.632 130.632 130.632 130.632 130.632 130.632 130.632 
130.632 130.632 130.632 130.632 130.632 130.632 130.632 130.632 130.632 130.632 
130.632 130.632 130.632 130.632 130.632 130.632 130.632 130.632 130.632 130.632 
130.632 130.632 130.632 130.632 130.632 130.632 130.632 130.632 130.632 130.632 
130.632 130.632 130.632 130.632 130.632 130.632 130.632 130.632 130.632 130.632 
130.632 130.632 130.632 130.632 130.632 130.632 130.632 130.632 130.632 130.632 
130.632 130.632 130.632 130.632 130.632 130.632 130.632 130.632 130.632 130.632 
130.632 130.632 130.632 130.632 130.632 130.632 130.632 130.632 130.632 130.632 
130.632 130.632 130.632 130.632 130.632 130.632 130.632 130.632 130.632 130.632 
130.632 130.632 130.632 130.632 130.632 130.632 130.632 130.632 130.632 130.632 
130.632 130.632 130.632 130.632 130.632 130.632 130.632 130.632 130.632 130.632 
130.632 130.632 130.632 130.632 130.632 130.632 130.632 130.632 130.632 130.632 
130.632 130.632 130.632 130.632 130.632 130.632 130.632 130.632 130.632 130.632 
130.632 130.632 130.632 130.632 130.632 130.632 130.632 130.632 130.632 130.632 
130.632 130.632 130.632 130.632 130.632 130.632 130.632 130.632 130.632 130.632 
130.632 130.632 130.632 130.632 130.632 130.632 130.632 130.632 130.632 130.632 
130.632 130.632 130.632 130.632 130.632 130.632 130.632 130.632 130.632 130.632 
130.632 130.632 130.632 130.632 130.632 130.632 130.632 130.632 130.632 130.632 
130.632 130.632 130.632 130.632 130.632 130.632 130.632 130.632 130.632 130.632 
130.632 130.632 130.632 130.632 130.632 130.632 130.632 130.632 130.632 130.632 
130.632 130.632 130.632 130.632 130.632 130.632 130.632 130.632 130.632 130.632 
130.632 130.632 130.632 130.632 130.632 130.632 130.632 130.632 130.632 130.632 
130.632 130.632 130.632 130.632 130.632 130.632 130.632 130.632 130.632 130.632 
130.632 130.632 130.632 130.632 130.632 130.632 130.632 130.632 130.632 130.632 
130.632 130.632 130.632 130.632 130.632 130.632 130.632 130.632 130.632 130.632 
130.632 130.632 130.632 130.632 130.632 130.632 130.632 130.632 130.632 130.632 
130.632 130.632 130.632 130.632 130.632 130.632 130.632 130.632 130.632 130.632 
130.632 130.632 130.632 130.632 130.632 130.632 130.632 130.632 130.632 130.632 
130.632 130.632 130.632 130.632 130.632 130.632 130.632 130.632 130.632 130.632 
130.632 130.632 130.632 130.632 130.632 130.632 130.632 130.632 130.632 130.632 
130.632 130.632 130.632 130.632 130.632 130.632 130.632 130.632 130.632 130.632 
130.632 130.632 130.632 130.632 130.632 130.632 130.632 130.632 130.632 130.632 
130.632 130.632 130.632 130.632 130.632 130.632 130.632 130.632 130.632 130.632 
130.632 130.632 130.632 130.632 130.632 130.632 130.632 130.632 130.632 130.632 
130.632 130.632 130.632 130.632 130.632 130.632 130.632 130.632 130.632 130.632 
130.632 130.632 130.632 130.632 130.632 130.632 130.632 130.632 130.632 130.632 
130.632 130.632 130.632 130.632 130.632 130.632 130.632 130.632 130.632 130.632 
130.632 130.632 130.632 130.632 130.632 130.632 130.632 130.632 130.632 130.632 
130.632 130.632 130.632 130.632 130.632 141.33 141.33 141.33 141.33 141.33 
141.33 141.33 141.33 141.33 141.33 141.33 141.33 141.33 141.33 141.33 
141.33 141.33 141.33 141.33 141.33 141.33 141.33 141.33 141.33 141.33 
141.33 141.33 141.33 141.33 141.33 141.33 141.33 141.33 141.33 141.33 
141.33 141.33 141.33 141.33 141.33 141.33 141.33 141.33 141.33 141.33 
141.33 141.33 141.33 141.33 141.33 141.33 141.33 141.33 141.33 141.33 
141.33 141.33 141.33 141.33 141.33 141.33 141.33 141.33 141.33 141.33 
141.33 141.33 141.33 141.33 141.33 141.33 141.33 141.33 141.33 141.33 
141.33 141.33 141.33 141.33 141.33 141.33 141.33 141.33 141.33 141.33 
141.33 141.33 141.33 141.33 141.33 141.33 141.33 141.33 141.33 141.33 
141.33 141.33 141.33 141.33 141.33 141.33 141.33 141.33 141.33 141.33 
141.33 141.33 141.33 141.33 141.33 141.33 141.33 141.33 141.33 141.33 
141.33 141.33 141.33 141.33 141.33 141.33 141.33 141.33 141.33 141.33 
141.33 141.33 141.33 141.33 141.33 141.33 141.33 141.33 141.33 141.33 
141.33 141.33 141.33 141.33 141.33 141.33 141.33 141.33 141.33 141.33 
141.33 141.33 141.33 141.33 141.33 141.33 141.33 141.33 141.33 141.33 
141.33 141.33 141.33 141.33 141.33 141.33 141.33 141.33 141.33 141.33 
141.33 141.33 141.33 141.33 141.33 141.33 141.33 141.33 141.33 141.33 
141.33 141.33 141.33 141.33 141.33 141.33 141.33 141.33 141.33 141.33 
141.33 141.33 141.33 141.33 141.33 141.33 141.33 141.33 141.33 141.33 
141.33 141.33 141.33 141.33 141.33 141.33 141.33 141.33 141.33 141.33 
141.33 141.33 141.33 141.33 141.33 141.33 141.33 141.33 141.33 141.33 
141.33 141.33 141.33 141.33 141.33 141.33 141.33 141.33 141.33 141.33 
141.33 141.33 141.33 141.33 141.33 141.33 141.33 141.33 141.33 141.33 
141.33 141.33 141.33 141.33 141.33 141.33 141.33 141.33 141.33 141.33 
141.33 141.33 141.33 141.33 141.33 141.33 141.33 141.33 141.33 141.33 
141.33 141.33 141.33 141.33 141.33 141.33 141.33 141.33 141.33 141.33 
141.33 141.33 141.33 141.33 141.33 141.33 141.33 141.33 141.33 141.33 
141.33 141.33 141.33 141.33 141.33 141.33 141.33 141.33 141.33 141.33 
141.33 141.33 141.33 141.33 141.33 141.33 141.33 141.33 141.33 141.33 
141.33 141.33 141.33 141.33 141.33 141.33 141.33 141.33 141.33 141.33 
141.33 141.33 141.33 141.33 141.33 141.33 141.33 141.33 141.33 141.33 
141.33 141.33 141.33 141.33 141.33 141.33 141.33 141.33 141.33 141.33 
141.33 141.33 141.33 141.33 141.33 141.33 141.33 141.33 141.33 141.33 
141.33 141.33 141.33 141.33 141.33 141.33 141.33 141.33 141.33 141.33 
141.33 141.33 141.33 141.33 141.33 141.33 141.33 141.33 141.33 141.33 
141.33 141.33 141.33 141.33 141.33 141.33 141.33 141.33 141.33 141.33 
141.33 141.33 141.33 141.33 141.33 141.33 141.33 141.33 141.33 141.33 
141.33 141.33 141.33 141.33 141.33 141.33 141.33 141.33 141.33 141.33 
141.33 141.33 141.33 141.33 141.33 141.33 141.33 SCALARS Pc_MPa float 1
LOOKUP_TABLE default
100.424 100.424 100.424 100.424 100.424 100.424 100.424 100.424 100.424 
100.424 100.424 100.424 100.424 100.424 100.424 100.424 100.424 100.424 100.424 
100.424 100.424 100.424 100.424 100.424 100.424 100.424 100.424 100.424 100.424 
100.424 100.424 100.424 100.424 100.424 100.424 100.424 100.424 100.424 100.424 
100.424 100.424 100.424 100.424 100.424 100.424 100.424 100.424 100.424 100.424 
100.424 100.424 100.424 100.424 100.424 100.424 100.424 100.424 100.424 100.424 
100.424 100.424 100.424 100.424 100.424 100.424 100.424 100.424 100.424 100.424 
100.424 100.424 100.424 100.424 100.424 100.424 100.424 100.424 100.424 100.424 
100.424 100.424 100.424 100.424 100.424 100.424 100.424 100.424 100.424 100.424 
100.424 100.424 100.424 100.424 100.424 100.424 100.424 100.424 100.424 100.424 
100.424 100.424 100.424 100.424 100.424 100.424 100.424 100.424 100.424 100.424 
100.424 100.424 100.424 100.424 100.424 100.424 100.424 100.424 100.424 100.424 
100.424 100.424 100.424 100.424 100.424 100.424 100.424 100.424 100.424 100.424 
100.424 100.424 100.424 100.424 100.424 100.424 100.424 100.424 100.424 100.424 
100.424 100.424 100.424 100.424 100.424 100.424 100.424 100.424 100.424 100.424 
100.424 100.424 100.424 100.424 100.424 100.424 100.424 100.424 100.424 100.424 
100.424 100.424 100.424 100.424 100.424 100.424 100.424 100.424 100.424 100.424 
100.424 100.424 100.424 100.424 100.424 100.424 100.424 100.424 100.424 100.424 
100.424 100.424 100.424 100.424 100.424 100.424 100.424 100.424 100.424 100.424 
100.424 100.424 100.424 100.424 100.424 100.424 100.424 103.291 103.291 103.291 
103.291 103.291 103.291 103.291 103.291 103.291 103.291 103.291 103.291 103.291 
103.291 103.291 103.291 103.291 103.291 103.291 103.291 103.291 103.291 103.291 
103.291 103.291 103.291 103.291 103.291 103.291 103.291 103.291 103.291 103.291 
103.291 103.291 103.291 103.291 103.291 103.291 103.291 103.291 103.291 103.291 
103.291 103.291 103.291 103.291 103.291 103.291 103.291 103.291 103.291 103.291 
103.291 103.291 103.291 103.291 103.291 103.291 103.291 103.291 103.291 103.291 
103.291 103.291 103.291 103.291 103.291 103.291 103.291 103.291 103.291 103.291 
103.291 103.291 103.291 103.291 103.291 103.291 103.291 103.291 103.291 103.291 
103.291 103.291 103.291 103.291 103.291 103.291 103.291 103.291 103.291 103.291 
103.291 103.291 103.291 103.291 103.291 103.291 103.291 103.291 103.291 103.291 
103.291 103.291 103.291 103.291 103.291 103.291 103.291 103.291 103.291 103.291 
103.291 103.291 103.291 103.291 103.291 103.291 103.291 103.291 103.291 103.291 
103.291 103.291 103.291 103.291 103.291 103.291 103.291 103.291 103.291 103.291 
103.291 103.291 103.291 103.291 103.291 103.291 103.291 103.291 103.291 103.291 
103.291 103.291 103.291 103.291 103.291 103.291 103.291 103.291 103.291 103.291 
103.291 103.291 103.291 103.291 103.291 103.291 103.291 103.291 103.291 103.291 
103.291 103.291 103.291 103.291 103.291 103.291 103.291 103.291 103.291 103.291 
103.291 103.291 103.291 103.291 103.291 103.291 103.291 103.291 103.291 103.291 
103.291 103.291 103.291 103.291 103.291 103.291 103.291 103.291 103.291 103.291 
103.291 103.291 103.291 144.497 144.497 144.497 144.497 144.497 144.497 144.497 
144.497 144.497 144.497 144.497 144.497 144.497 144.497 144.497 144.497 144.497 
144.497 144.497 144.497 144.497 144.497 144.497 144.497 144.497 144.497 144.497 
144.497 144.497 144.497 144.497 144.497 144.497 144.497 144.497 144.497 144.497 
144.497 144.497 144.497 144.497 144.497 144.497 144.497 144.497 144.497 144.497 
144.497 144.497 144.497 144.497 144.497 144.497 144.497 144.497 144.497 144.497 
144.497 144.497 144.497 144.497 144.497 144.497 144.497 144.497 144.497 144.497 
144.497 144.497 144.497 144.497 144.497 144.497 144.497 144.497 144.497 144.497 
144.497 144.497 144.497 144.497 144.497 144.497 144.497 144.497 144.497 144.497 
144.497 144.497 144.497 144.497 144.497 144.497 144.497 144.497 144.497 144.497 
144.497 144.497 144.497 144.497 144.497 144.497 144.497 144.497 144.497 144.497 
144.497 144.497 144.497 144.497 144.497 144.497 144.497 144.497 144.497 144.497 
144.497 144.497 144.497 144.497 144.497 144.497 144.497 144.497 144.497 144.497 
144.497 144.497 144.497 144.497 144.497 144.497 144.497 144.497 144.497 144.497 
144.497 144.497 144.497 144.497 144.497 144.497 144.497 144.497 144.497 144.497 
144.497 144.497 144.497 144.497 144.497 144.497 144.497 144.497 144.497 144.497 
144.497 144.497 144.497 144.497 144.497 144.497 144.497 144.497 144.497 144.497 
144.497 144.497 144.497 144.497 144.497 144.497 144.497 144.497 144.497 144.497 
144.497 144.497 144.497 144.497 144.497 144.497 144.497 144.497 144.497 144.497 
144.497 144.497 144.497 144.497 144.497 144.497 144.497 144.497 144.497 136.705 
136.705 136.705 136.705 136.705 136.705 136.705 136.705 136.705 136.705 136.705 
136.705 136.705 136.705 136.705 136.705 136.705 136.705 136.705 136.705 136.705 
136.705 136.705 136.705 136.705 136.705 136.705 136.705 136.705 136.705 136.705 
136.705 136.705 136.705 136.705 136.705 136.705 136.705 136.705 136.705 136.705 
136.705 136.705 136.705 136.705 136.705 136.705 136.705 136.705 136.705 136.705 
136.705 136.705 136.705 136.705 136.705 136.705 136.705 136.705 136.705 136.705 
136.705 136.705 136.705 136.705 136.705 136.705 136.705 136.705 136.705 136.705 
136.705 136.705 136.705 136.705 136.705 136.705 136.705 136.705 136.705 136.705 
136.705 136.705 136.705 136.705 136.705 136.705 136.705 136.705 136.705 136.705 
136.705 136.705 136.705 136.705 136.705 136.705 136.705 136.705 136.705 136.705 
136.705 136.705 136.705 136.705 136.705 136.705 136.705 136.705 136.705 136.705 
136.705 136.705 136.705 136.705 136.705 136.705 136.705 136.705 136.705 136.705 
136.705 136.705 136.705 136.705 136.705 136.705 136.705 136.705 136.705 136.705 
136.705 136.705 136.705 136.705 136.705 136.705 136.705 136.705 136.705 136.705 
136.705 136.705 136.705 136.705 136.705 136.705 136.705 136.705 136.705 136.705 
136.705 136.705 136.705 136.705 136.705 136.705 136.705 136.705 136.705 136.705 
136.705 136.705 136.705 136.705 136.705 136.705 136.705 136.705 136.705 136.705 
136.705 136.705 136.705 136.705 136.705 136.705 136.705 136.705 136.705 136.705 
136.705 136.705 136.705 136.705 136.705 136.705 136.705 136.705 136.705 136.705 
136.705 136.705 136.705 136.705 136.705 154.84 154.84 154.84 154.84 154.84 
154.84 154.84 154.84 154.84 154.84 154.84 154.84 154.84 154.84 154.84 
154.84 154.84 154.84 154.84 154.84 154.84 154.84 154.84 154.84 154.84 
154.84 154.84 154.84 154.84 154.84 154.84 154.84 154.84 154.84 154.84 
154.84 154.84 154.84 154.84 154.84 154.84 154.84 154.84 154.84 154.84 
154.84 154.84 154.84 154.84 154.84 154.84 154.84 154.84 154.84 154.84 
154.84 154.84 154.84 154.84 154.84 154.84 154.84 154.84 154.84 154.84 
154.84 154.84 154.84 154.84 154.84 154.84 154.84 154.84 154.84 154.84 
154.84 154.84 154.84 154.84 154.84 154.84 154.84 154.84 154.84 154.84 
154.84 154.84 154.84 154.84 154.84 154.84 154.84 154.84 154.84 154.84 
154.84 154.84 154.84 154.84 154.84 154.84 154.84 154.84 154.84 154.84 
154.84 154.84 154.84 154.84 154.84 154.84 154.84 154.84 154.84 154.84 
154.84 154.84 154.84 154.84 154.84 154.84 154.84 154.84 154.84 154.84 
154.84 154.84 154.84 154.84 154.84 154.84 154.84 154.84 154.84 154.84 
154.84 154.84 154.84 154.84 154.84 154.84 154.84 154.84 154.84 154.84 
154.84 154.84 154.84 154.84 154.84 154.84 154.84 154.84 154.84 154.84 
154.84 154.84 154.84 154.84 154.84 154.84 154.84 154.84 154.84 154.84 
154.84 154.84 154.84 154.84 154.84 154.84 154.84 154.84 154.84 154.84 
154.84 154.84 154.84 154.84 154.84 154.84 154.84 154.84 154.84 154.84 
154.84 154.84 154.84 154.84 154.84 154.84 154.84 154.84 154.84 154.84 
154.84 153.43 153.43 153.43 153.43 153.43 153.43 153.43 153.43 153.43 
153.43 153.43 153.43 153.43 153.43 153.43 153.43 153.43 153.43 153.43 
153.43 153.43 153.43 153.43 153.43 153.43 153.43 153.43 153.43 153.43 
153.43 153.43 153.43 153.43 153.43 153.43 153.43 153.43 153.43 153.43 
153.43 153.43 153.43 153.43 153.43 153.43 153.43 153.43 153.43 153.43 
153.43 153.43 153.43 153.43 153.43 153.43 153.43 153.43 153.43 153.43 
153.43 153.43 153.43 153.43 153.43 153.43 153.43 153.43 153.43 153.43 
153.43 153.43 153.43 153.43 153.43 153.43 153.43 153.43 153.43 153.43 
153.43 153.43 153.43 153.43 153.43 153.43 153.43 153.43 153.43 153.43 
153.43 153.43 153.43 153.43 153.43 153.43 153.43 153.43 153.43 153.43 
153.43 153.43 153.43 153.43 153.43 153.43 153.43 153.43 153.43 153.43 
153.43 153.43 153.43 153.43 153.43 153.43 153.43 153.43 153.43 153.43 
153.43 153.43 153.43 153.43 153.43 153.43 153.43 153.43 153.43 153.43 
153.43 153.43 153.43 153.43 153.43 153.43 153.43 153.43 153.43 153.43 
153.43 153.43 153.43 153.43 153.43 153.43 153.43 153.43 153.43 153.43 
153.43 153.43 153.43 153.43 153.43 153.43 153.43 153.43 153.43 153.43 
153.43 153.43 153.43 153.43 153.43 153.43 153.43 153.43 153.43 153.43 
153.43 153.43 153.43 153.43 153.43 153.43 153.43 153.43 153.43 153.43 
153.43 153.43 153.43 153.43 153.43 153.43 153.43 153.43 153.43 153.43 
153.43 153.43 153.43 153.43 153.43 153.43 153.43 SCALARS Tau_MPa float 1
LOOKUP_TABLE default
2.78498 2.78498 2.78498 2.78498 2.78498 2.78498 2.78498 2.78498 2.78498 
2.78498 2.78498 2.78498 2.78498 2.78498 2.78498 2.78498 2.78498 2.78498 2.78498 
2.78498 2.78498 2.78498 2.78498 2.78498 2.78498 2.78498 2.78498 2.78498 2.78498 
2.78498 2.78498 2.78498 2.78498 2.78498 2.78498 2.78498 2.78498 2.78498 2.78498 
2.78498 2.78498 2.78498 2.78498 2.78498 2.78498 2.78498 2.78498 2.78498 2.78498 
2.78498 2.78498 2.78498 2.78498 2.78498 2.78498 2.78498 2.78498 2.78498 2.78498 
2.78498 2.78498 2.78498 2.78498 2.78498 2.78498 2.78498 2.78498 2.78498 2.78498 
2.78498 2.78498 2.78498 2.78498 2.78498 2.78498 2.78498 2.78498 2.78498 2.78498 
2.78498 2.78498 2.78498 2.78498 2.78498 2.78498 2.78498 2.78498 2.78498 2.78498 
2.78498 2.78498 2.78498 2.78498 2.78498 2.78498 2.78498 2.78498 2.78498 2.78498 
2.78498 2.78498 2.78498 2.78498 2.78498 2.78498 2.78498 2.78498 2.78498 2.78498 
2.78498 2.78498 2.78498 2.78498 2.78498 2.78498 2.78498 2.78498 2.78498 2.78498 
2.78498 2.78498 2.78498 2.78498 2.78498 2.78498 2.78498 2.78498 2.78498 2.78498 
2.78498 2.78498 2.78498 2.78498 2.78498 2.78498 2.78498 2.78498 2.78498 2.78498 
2.78498 2.78498 2.78498 2.78498 2.78498 2.78498 2.78498 2.78498 2.78498 2.78498 
2.78498 2.78498 2.78498 2.78498 2.78498 2.78498 2.78498 2.78498 2.78498 2.78498 
2.78498 2.78498 2.78498 2.78498 2.78498 2.78498 2.78498 2.78498 2.78498 2.78498 
2.78498 2.78498 2.78498 2.78498 2.78498 2.78498 2.78498 2.78498 2.78498 2.78498 
2.78498 2.78498 2.78498 2.78498 2.78498 2.78498 2.78498 2.78498 2.78498 2.78498 
2.78498 2.78498 2.78498 2.78498 2.78498 2.78498 2.78498 2.78498 2.78498 2.78498 
2.78498 2.78498 2.78498 2.78498 2.78498 2.78498 2.78498 2.78498 2.78498 2.78498 
2.78498 2.78498 2.78498 2.78498 2.78498 2.78498 2.78498 2.78498 2.78498 2.78498 
2.78498 2.78498 2.78498 2.78498 2.78498 2.78498 2.78498 2.78498 2.78498 2.78498 
2.78498 2.78498 2.78498 2.78498 2.78498 2.78498 2.78498 2.78498 2.78498 2.78498 
2.78498 2.78498 2.78498 2.78498 2.78498 2.78498 2.78498 2.78498 2.78498 2.78498 
2.78498 2.78498 2.78498 2.78498 2.78498 2.78498 2.78498 2.78498 2.78498 2.78498 
2.78498 2.78498 2.78498 2.78498 2.78498 2.78498 2.78498 2.78498 2.78498 2.78498 
2.78498 2.78498 2.78498 2.78498 2.78498 2.78498 2.78498 2.78498 2.78498 2.78498 
2.78498 2.78498 2.78498 2.78498 2.78498 2.78498 2.78498 2.78498 2.78498 2.78498 
2.78498 2.78498 2.78498 2.78498 2.78498 2.78498 2.78498 2.78498 2.78498 2.78498 
2.78498 2.78498 2.78498 2.78498 2.78498 2.78498 2.78498 2.78498 2.78498 2.78498 
2.78498 2.78498 2.78498 2.78498 2.78498 2.78498 2.78498 2.78498 2.78498 2.78498 
2.78498 2.78498 2.78498 2.78498 2.78498 2.78498 2.78498 2.78498 2.78498 2.78498 
2.78498 2.78498 2.78498 2.78498 2.78498 2.78498 2.78498 2.78498 2.78498 2.78498 
2.78498 2.78498 2.78498 2.78498 2.78498 2.78498 2.78498 2.78498 2.78498 2.78498 
2.78498 2.78498 2.78498 2.78498 2.78498 2.78498 2.78498 2.78498 2.78498 2.78498 
2.78498 2.78498 2.78498 2.78498 2.78498 2.78498 2.78498 2.78498 2.78498 2.78498 
2.78498 2.78498 2.78498 2.78498 2.78498 2.78498 2.78498 2.78498 2.78498 2.78498 
2.78498 2.78498 2.78498 2.78498 2.78498 2.78498 2.78498 2.78498 2.78498 2.78498 
2.78498 2.78498 2.78498 0.506354 0.506354 0.506354 0.506354 0.506354 0.506354 0.506354 
0.506354 0.506354 0.506354 0.506354 0.506354 0.506354 0.506354 0.506354 0.506354 0.506354 
0.506354 0.506354 0.506354 0.506354 0.506354 0.506354 0.506354 0.506354 0.506354 0.506354 
0.506354 0.506354 0.506354 0.506354 0.506354 0.506354 0.506354 0.506354 0.506354 0.506354 
0.506354 0.506354 0.506354 0.506354 0.506354 0.506354 0.506354 0.506354 0.506354 0.506354 
0.506354 0.506354 0.506354 0.506354 0.506354 0.506354 0.506354 0.506354 0.506354 0.506354 
0.506354 0.506354 0.506354 0.506354 0.506354 0.506354 0.506354 0.506354 0.506354 0.506354 
0.506354 0.506354 0.506354 0.506354 0.506354 0.506354 0.506354 0.506354 0.506354 0.506354 
0.506354 0.506354 0.506354 0.506354 0.506354 0.506354 0.506354 0.506354 0.506354 0.506354 
0.506354 0.506354 0.506354 0.506354 0.506354 0.506354 0.506354 0.506354 0.506354 0.506354 
0.506354 0.506354 0.506354 0.506354 0.506354 0.506354 0.506354 0.506354 0.506354 0.506354 
0.506354 0.506354 0.506354 0.506354 0.506354 0.506354 0.506354 0.506354 0.506354 0.506354 
0.506354 0.506354 0.506354 0.506354 0.506354 0.506354 0.506354 0.506354 0.506354 0.506354 
0.506354 0.506354 0.506354 0.506354 0.506354 0.506354 0.506354 0.506354 0.506354 0.506354 
0.506354 0.506354 0.506354 0.506354 0.506354 0.506354 0.506354 0.506354 0.506354 0.506354 
0.506354 0.506354 0.506354 0.506354 0.506354 0.506354 0.506354 0.506354 0.506354 0.506354 
0.506354 0.506354 0.506354 0.506354 0.506354 0.506354 0.506354 0.506354 0.506354 0.506354 
0.506354 0.506354 0.506354 0.506354 0.506354 0.506354 0.506354 0.506354 0.506354 0.506354 
0.506354 0.506354 0.506354 0.506354 0.506354 0.506354 0.506354 0.506354 0.506354 0.506354 
0.506354 0.506354 0.506354 0.506354 0.506354 0.506354 0.506354 0.506354 0.506354 0.506354 
0.506354 0.506354 0.506354 0.506354 0.506354 0.506354 0.506354 0.506354 0.506354 0.506354 
0.506354 0.506354 0.506354 0.506354 0.506354 0.506354 0.506354 0.506354 0.506354 0.506354 
0.506354 0.506354 0.506354 0.506354 0.506354 0.506354 0.506354 0.506354 0.506354 0.506354 
0.506354 0.506354 0.506354 0.506354 0.506354 0.506354 0.506354 0.506354 0.506354 0.506354 
0.506354 0.506354 0.506354 0.506354 0.506354 0.506354 0.506354 0.506354 0.506354 0.506354 
0.506354 0.506354 0.506354 0.506354 0.506354 0.506354 0.506354 0.506354 0.506354 0.506354 
0.506354 0.506354 0.506354 0.506354 0.506354 0.506354 0.506354 0.506354 0.506354 0.506354 
0.506354 0.506354 0.506354 0.506354 0.506354 0.506354 0.506354 0.506354 0.506354 0.506354 
0.506354 0.506354 0.506354 0.506354 0.506354 0.506354 0.506354 0.506354 0.506354 0.506354 
0.506354 0.506354 0.506354 0.506354 0.506354 0.506354 0.506354 0.506354 0.506354 0.506354 
0.506354 0.506354 0.506354 0.506354 0.506354 0.506354 0.506354 0.506354 0.506354 0.506354 
0.506354 0.506354 0.506354 0.506354 0.506354 0.506354 0.506354 0.506354 0.506354 0.506354 
0.506354 0.506354 0.506354 0.506354 0.506354 0.506354 0.506354 0.506354 0.506354 0.506354 
0.506354 0.506354 0.506354 0.506354 0.506354 0.506354 0.506354 0.506354 0.506354 0.506354 
0.506354 0.506354 0.506354 0.506354 0.506354 0.506354 0.506354 0.506354 0.506354 0.506354 
0.506354 0.506354 0.506354 0.506354 0.506354 0.506354 0.506354 0.506354 0.506354 0.506354 
0.506354 0.506354 0.506354 0.506354 0.506354 0.506354 0.506354 0.506354 0.506354 0.506354 
0.506354 0.506354 0.506354 0.506354 0.506354 0.506354 0.506354 0.506354 0.506354 0.506354 
0.506354 0.506354 0.506354 0.506354 0.506354 0.506354 0.506354 0.506354 0.506354 0.506354 
0.506354 0.506354 0.506354 0.506354 0.506354 2.73931 2.73931 2.73931 2.73931 2.73931 
2.73931 2.73931 2.73931 2.73931 2.73931 2.73931 2.73931 2.73931 2.73931 2.73931 
2.73931 2.73931 2.73931 2.73931 2.73931 2.73931 2.73931 2.73931 2.73931 2.73931 
2.73931 2.73931 2.73931 2.73931 2.73931 2.73931 2.73931 2.73931 2.73931 2.73931 
2.73931 2.73931 2.73931 2.73931 2.73931 2.73931 2.73931 2.73931 2.73931 2.73931 
2.73931 2.73931 2.73931 2.73931 2.73931 2.73931 2.73931 2.73931 2.73931 2.73931 
2.73931 2.73931 2.73931 2.73931 2.73931 2.73931 2.73931 2.73931 2.73931 2.73931 
2.73931 2.73931 2.73931 2.73931 2.73931 2.73931 2.73931 2.73931 2.73931 2.73931 
2.73931 2.73931 2.73931 2.73931 2.73931 2.73931 2.73931 2.73931 2.73931 2.73931 
2.73931 2.73931 2.73931 2.73931 2.73931 2.73931 2.73931 2.73931 2.73931 2.73931 
2.73931 2.73931 2.73931 2.73931 2.73931 2.73931 2.73931 2.73931 2.73931 2.73931 
2.73931 2.73931 2.73931 2.73931 2.73931 2.73931 2.73931 2.73931 2.73931 2.73931 
2.73931 2.73931 2.73931 2.73931 2.73931 2.73931 2.73931 2.73931 2.73931 2.73931 
2.73931 2.73931 2.73931 2.73931 2.73931 2.73931 2.73931 2.73931 2.73931 2.73931 
2.73931 2.73931 2.73931 2.73931 2.73931 2.73931 2.73931 2.73931 2.73931 2.73931 
2.73931 2.73931 2.73931 2.73931 2.73931 2.73931 2.73931 2.73931 2.73931 2.73931 
2.73931 2.73931 2.73931 2.73931 2.73931 2.73931 2.73931 2.73931 2.73931 2.73931 
2.73931 2.73931 2.73931 2.73931 2.73931 2.73931 2.73931 2.73931 2.73931 2.73931 
2.73931 2.73931 2.73931 2.73931 2.73931 2.73931 2.73931 2.73931 2.73931 2.73931 
2.73931 2.73931 2.73931 2.73931 2.73931 2.73931 2.73931 2.73931 2.73931 2.73931 
2.73931 2.73931 2.73931 2.73931 2.73931 2.73931 2.73931 2.73931 2.73931 2.73931 
2.73931 2.73931 2.73931 2.73931 2.73931 2.73931 2.73931 2.73931 2.73931 2.73931 
2.73931 2.73931 2.73931 2.73931 2.73931 2.73931 2.73931 2.73931 2.73931 2.73931 
2.73931 2.73931 2.73931 2.73931 2.73931 2.73931 2.73931 2.73931 2.73931 2.73931 
2.73931 2.73931 2.73931 2.73931 2.73931 2.73931 2.73931 2.73931 2.73931 2.73931 
2.73931 2.73931 2.73931 2.73931 2.73931 2.73931 2.73931 2.73931 2.73931 2.73931 
2.73931 2.73931 2.73931 2.73931 2.73931 2.73931 2.73931 2.73931 2.73931 2.73931 
2.73931 2.73931 2.73931 2.73931 2.73931 2.73931 2.73931 2.73931 2.73931 2.73931 
2.73931 2.73931 2.73931 2.73931 2.73931 2.73931 2.73931 2.73931 2.73931 2.73931 
2.73931 2.73931 2.73931 2.73931 2.73931 2.73931 2.73931 2.73931 2.73931 2.73931 
2.73931 2.73931 2.73931 2.73931 2.73931 2.73931 2.73931 2.73931 2.73931 2.73931 
2.73931 2.73931 2.73931 2.73931 2.73931 2.73931 2.73931 2.73931 2.73931 2.73931 
2.73931 2.73931 2.73931 2.73931 2.73931 2.73931 2.73931 2.73931 2.73931 2.73931 
2.73931 2.73931 2.73931 2.73931 2.73931 2.73931 2.73931 2.73931 2.73931 2.73931 
2.73931 2.73931 2.73931 2.73931 2.73931 2.73931 2.73931 2.73931 2.73931 2.73931 
2.73931 2.73931 2.73931 2.73931 2.73931 2.73931 2.73931 2.73931 2.73931 2.73931 
2.73931 2.73931 2.73931 2.73931 2.73931 2.73931 2.73931 2.73931 2.73931 2.73931 
2.73931 2.73931 2.73931 2.73931 2.73931 2.73931 2.73931 2.73931 2.73931 2.73931 
2.73931 2.73931 2.73931 2.73931 2.73931 2.73931 2.73931 2.73931 2.73931 2.73931 
2.73931 2.73931 2.73931 2.73931 2.73931 2.73931 2.73931 
