# vtk DataFile Version 2.0
vtkObjects
ASCII
DATASET UNSTRUCTURED_GRID
POINTS 640 float
-360.775 16.3986 5847.78
-354.775 16.3986 5847.78
-360.775 22.3986 5847.78
-354.775 22.3986 5847.78
-360.775 16.3986 5853.78
-354.775 16.3986 5853.78
-360.775 22.3986 5853.78
-354.775 22.3986 5853.78
-357.775 17.5445 5845.93
-357.775 21.2528 5845.93
-357.775 17.5445 5855.63
-357.775 21.2528 5855.63
-359.629 14.5445 5850.78
-355.921 14.5445 5850.78
-359.629 24.2528 5850.78
-355.921 24.2528 5850.78
-362.629 19.3986 5848.93
-362.629 19.3986 5852.63
-352.921 19.3986 5848.93
-352.921 19.3986 5852.63
-360.775 16.3986 5424
-354.775 16.3986 5424
-360.775 22.3986 5424
-354.775 22.3986 5424
-360.775 16.3986 5430
-354.775 16.3986 5430
-360.775 22.3986 5430
-354.775 22.3986 5430
-357.775 17.5445 5422.14
-357.775 21.2528 5422.14
-357.775 17.5445 5431.85
-357.775 21.2528 5431.85
-359.629 14.5445 5427
-355.921 14.5445 5427
-359.629 24.2528 5427
-355.921 24.2528 5427
-362.629 19.3986 5425.14
-362.629 19.3986 5428.85
-352.921 19.3986 5425.14
-352.921 19.3986 5428.85
-383.719 -406.762 5847.88
-377.719 -406.762 5847.88
-383.719 -400.762 5847.88
-377.719 -400.762 5847.88
-383.719 -406.762 5853.88
-377.719 -406.762 5853.88
-383.719 -400.762 5853.88
-377.719 -400.762 5853.88
-380.719 -405.616 5846.03
-380.719 -401.908 5846.03
-380.719 -405.616 5855.73
-380.719 -401.908 5855.73
-382.573 -408.616 5850.88
-378.865 -408.616 5850.88
-382.573 -398.908 5850.88
-378.865 -398.908 5850.88
-385.573 -403.762 5849.03
-385.573 -403.762 5852.73
-375.865 -403.762 5849.03
-375.865 -403.762 5852.73
-383.719 -406.762 5424.1
-377.719 -406.762 5424.1
-383.719 -400.762 5424.1
-377.719 -400.762 5424.1
-383.719 -406.762 5430.1
-377.719 -406.762 5430.1
-383.719 -400.762 5430.1
-377.719 -400.762 5430.1
-380.719 -405.616 5422.24
-380.719 -401.908 5422.24
-380.719 -405.616 5431.95
-380.719 -401.908 5431.95
-382.573 -408.616 5427.1
-378.865 -408.616 5427.1
-382.573 -398.908 5427.1
-378.865 -398.908 5427.1
-385.573 -403.762 5425.24
-385.573 -403.762 5428.95
-375.865 -403.762 5425.24
-375.865 -403.762 5428.95
-529.861 25.5666 5847.88
-523.861 25.5666 5847.88
-529.861 31.5666 5847.88
-523.861 31.5666 5847.88
-529.861 25.5666 5853.88
-523.861 25.5666 5853.88
-529.861 31.5666 5853.88
-523.861 31.5666 5853.88
-526.861 26.7125 5846.03
-526.861 30.4207 5846.03
-526.861 26.7125 5855.73
-526.861 30.4207 5855.73
-528.715 23.7125 5850.88
-525.007 23.7125 5850.88
-528.715 33.4207 5850.88
-525.007 33.4207 5850.88
-531.715 28.5666 5849.03
-531.715 28.5666 5852.73
-522.007 28.5666 5849.03
-522.007 28.5666 5852.73
-529.861 25.5666 5424.1
-523.861 25.5666 5424.1
-529.861 31.5666 5424.1
-523.861 31.5666 5424.1
-529.861 25.5666 5430.1
-523.861 25.5666 5430.1
-529.861 31.5666 5430.1
-523.861 31.5666 5430.1
-526.861 26.7125 5422.24
-526.861 30.4207 5422.24
-526.861 26.7125 5431.95
-526.861 30.4207 5431.95
-528.715 23.7125 5427.1
-525.007 23.7125 5427.1
-528.715 33.4207 5427.1
-525.007 33.4207 5427.1
-531.715 28.5666 5425.24
-531.715 28.5666 5428.95
-522.007 28.5666 5425.24
-522.007 28.5666 5428.95
-337.831 439.559 5847.88
-331.831 439.559 5847.88
-337.831 445.559 5847.88
-331.831 445.559 5847.88
-337.831 439.559 5853.88
-331.831 439.559 5853.88
-337.831 445.559 5853.88
-331.831 445.559 5853.88
-334.831 440.705 5846.03
-334.831 444.413 5846.03
-334.831 440.705 5855.73
-334.831 444.413 5855.73
-336.685 437.705 5850.88
-332.977 437.705 5850.88
-336.685 447.413 5850.88
-332.977 447.413 5850.88
-339.685 442.559 5849.03
-339.685 442.559 5852.73
-329.977 442.559 5849.03
-329.977 442.559 5852.73
-337.831 439.559 5424.1
-331.831 439.559 5424.1
-337.831 445.559 5424.1
-331.831 445.559 5424.1
-337.831 439.559 5430.1
-331.831 439.559 5430.1
-337.831 445.559 5430.1
-331.831 445.559 5430.1
-334.831 440.705 5422.24
-334.831 444.413 5422.24
-334.831 440.705 5431.95
-334.831 444.413 5431.95
-336.685 437.705 5427.1
-332.977 437.705 5427.1
-336.685 447.413 5427.1
-332.977 447.413 5427.1
-339.685 442.559 5425.24
-339.685 442.559 5428.95
-329.977 442.559 5425.24
-329.977 442.559 5428.95
-191.688 7.23074 5847.88
-185.688 7.23074 5847.88
-191.688 13.2307 5847.88
-185.688 13.2307 5847.88
-191.688 7.23074 5853.88
-185.688 7.23074 5853.88
-191.688 13.2307 5853.88
-185.688 13.2307 5853.88
-188.688 8.37664 5846.03
-188.688 12.0848 5846.03
-188.688 8.37664 5855.73
-188.688 12.0848 5855.73
-190.543 5.37664 5850.88
-186.834 5.37664 5850.88
-190.543 15.0848 5850.88
-186.834 15.0848 5850.88
-193.543 10.2307 5849.03
-193.543 10.2307 5852.73
-183.834 10.2307 5849.03
-183.834 10.2307 5852.73
-191.688 7.23074 5424.1
-185.688 7.23074 5424.1
-191.688 13.2307 5424.1
-185.688 13.2307 5424.1
-191.688 7.23074 5430.1
-185.688 7.23074 5430.1
-191.688 13.2307 5430.1
-185.688 13.2307 5430.1
-188.688 8.37664 5422.24
-188.688 12.0848 5422.24
-188.688 8.37664 5431.95
-188.688 12.0848 5431.95
-190.543 5.37664 5427.1
-186.834 5.37664 5427.1
-190.543 15.0848 5427.1
-186.834 15.0848 5427.1
-193.543 10.2307 5425.24
-193.543 10.2307 5428.95
-183.834 10.2307 5425.24
-183.834 10.2307 5428.95
-360.775 16.3986 5424
-354.775 16.3986 5424
-360.775 22.3986 5424
-354.775 22.3986 5424
-360.775 16.3986 5430
-354.775 16.3986 5430
-360.775 22.3986 5430
-354.775 22.3986 5430
-357.775 17.5445 5422.14
-357.775 21.2528 5422.14
-357.775 17.5445 5431.85
-357.775 21.2528 5431.85
-359.629 14.5445 5427
-355.921 14.5445 5427
-359.629 24.2528 5427
-355.921 24.2528 5427
-362.629 19.3986 5425.14
-362.629 19.3986 5428.85
-352.921 19.3986 5425.14
-352.921 19.3986 5428.85
-360.775 16.3986 153.18
-354.775 16.3986 153.18
-360.775 22.3986 153.18
-354.775 22.3986 153.18
-360.775 16.3986 159.18
-354.775 16.3986 159.18
-360.775 22.3986 159.18
-354.775 22.3986 159.18
-357.775 17.5445 151.326
-357.775 21.2528 151.326
-357.775 17.5445 161.034
-357.775 21.2528 161.034
-359.629 14.5445 156.18
-355.921 14.5445 156.18
-359.629 24.2528 156.18
-355.921 24.2528 156.18
-362.629 19.3986 154.326
-362.629 19.3986 158.034
-352.921 19.3986 154.326
-352.921 19.3986 158.034
-383.719 -406.762 5424.1
-377.719 -406.762 5424.1
-383.719 -400.762 5424.1
-377.719 -400.762 5424.1
-383.719 -406.762 5430.1
-377.719 -406.762 5430.1
-383.719 -400.762 5430.1
-377.719 -400.762 5430.1
-380.719 -405.616 5422.24
-380.719 -401.908 5422.24
-380.719 -405.616 5431.95
-380.719 -401.908 5431.95
-382.573 -408.616 5427.1
-378.865 -408.616 5427.1
-382.573 -398.908 5427.1
-378.865 -398.908 5427.1
-385.573 -403.762 5425.24
-385.573 -403.762 5428.95
-375.865 -403.762 5425.24
-375.865 -403.762 5428.95
-383.719 -406.762 153.18
-377.719 -406.762 153.18
-383.719 -400.762 153.18
-377.719 -400.762 153.18
-383.719 -406.762 159.18
-377.719 -406.762 159.18
-383.719 -400.762 159.18
-377.719 -400.762 159.18
-380.719 -405.616 151.326
-380.719 -401.908 151.326
-380.719 -405.616 161.034
-380.719 -401.908 161.034
-382.573 -408.616 156.18
-378.865 -408.616 156.18
-382.573 -398.908 156.18
-378.865 -398.908 156.18
-385.573 -403.762 154.326
-385.573 -403.762 158.034
-375.865 -403.762 154.326
-375.865 -403.762 158.034
-529.861 25.5666 5424.1
-523.861 25.5666 5424.1
-529.861 31.5666 5424.1
-523.861 31.5666 5424.1
-529.861 25.5666 5430.1
-523.861 25.5666 5430.1
-529.861 31.5666 5430.1
-523.861 31.5666 5430.1
-526.861 26.7125 5422.24
-526.861 30.4207 5422.24
-526.861 26.7125 5431.95
-526.861 30.4207 5431.95
-528.715 23.7125 5427.1
-525.007 23.7125 5427.1
-528.715 33.4207 5427.1
-525.007 33.4207 5427.1
-531.715 28.5666 5425.24
-531.715 28.5666 5428.95
-522.007 28.5666 5425.24
-522.007 28.5666 5428.95
-529.861 25.5666 -235.301
-523.861 25.5666 -235.301
-529.861 31.5666 -235.301
-523.861 31.5666 -235.301
-529.861 25.5666 -229.301
-523.861 25.5666 -229.301
-529.861 31.5666 -229.301
-523.861 31.5666 -229.301
-526.861 26.7125 -237.155
-526.861 30.4207 -237.155
-526.861 26.7125 -227.446
-526.861 30.4207 -227.446
-528.715 23.7125 -232.301
-525.007 23.7125 -232.301
-528.715 33.4207 -232.301
-525.007 33.4207 -232.301
-531.715 28.5666 -234.155
-531.715 28.5666 -230.446
-522.007 28.5666 -234.155
-522.007 28.5666 -230.446
-337.831 439.559 5424.1
-331.831 439.559 5424.1
-337.831 445.559 5424.1
-331.831 445.559 5424.1
-337.831 439.559 5430.1
-331.831 439.559 5430.1
-337.831 445.559 5430.1
-331.831 445.559 5430.1
-334.831 440.705 5422.24
-334.831 444.413 5422.24
-334.831 440.705 5431.95
-334.831 444.413 5431.95
-336.685 437.705 5427.1
-332.977 437.705 5427.1
-336.685 447.413 5427.1
-332.977 447.413 5427.1
-339.685 442.559 5425.24
-339.685 442.559 5428.95
-329.977 442.559 5425.24
-329.977 442.559 5428.95
-337.831 439.559 153.18
-331.831 439.559 153.18
-337.831 445.559 153.18
-331.831 445.559 153.18
-337.831 439.559 159.18
-331.831 439.559 159.18
-337.831 445.559 159.18
-331.831 445.559 159.18
-334.831 440.705 151.326
-334.831 444.413 151.326
-334.831 440.705 161.034
-334.831 444.413 161.034
-336.685 437.705 156.18
-332.977 437.705 156.18
-336.685 447.413 156.18
-332.977 447.413 156.18
-339.685 442.559 154.326
-339.685 442.559 158.034
-329.977 442.559 154.326
-329.977 442.559 158.034
-191.688 7.23074 5424.1
-185.688 7.23074 5424.1
-191.688 13.2307 5424.1
-185.688 13.2307 5424.1
-191.688 7.23074 5430.1
-185.688 7.23074 5430.1
-191.688 13.2307 5430.1
-185.688 13.2307 5430.1
-188.688 8.37664 5422.24
-188.688 12.0848 5422.24
-188.688 8.37664 5431.95
-188.688 12.0848 5431.95
-190.543 5.37664 5427.1
-186.834 5.37664 5427.1
-190.543 15.0848 5427.1
-186.834 15.0848 5427.1
-193.543 10.2307 5425.24
-193.543 10.2307 5428.95
-183.834 10.2307 5425.24
-183.834 10.2307 5428.95
-191.688 7.23074 541.66
-185.688 7.23074 541.66
-191.688 13.2307 541.66
-185.688 13.2307 541.66
-191.688 7.23074 547.66
-185.688 7.23074 547.66
-191.688 13.2307 547.66
-185.688 13.2307 547.66
-188.688 8.37664 539.806
-188.688 12.0848 539.806
-188.688 8.37664 549.514
-188.688 12.0848 549.514
-190.543 5.37664 544.66
-186.834 5.37664 544.66
-190.543 15.0848 544.66
-186.834 15.0848 544.66
-193.543 10.2307 542.806
-193.543 10.2307 546.514
-183.834 10.2307 542.806
-183.834 10.2307 546.514
-360.775 16.3986 153.18
-354.775 16.3986 153.18
-360.775 22.3986 153.18
-354.775 22.3986 153.18
-360.775 16.3986 159.18
-354.775 16.3986 159.18
-360.775 22.3986 159.18
-354.775 22.3986 159.18
-357.775 17.5445 151.326
-357.775 21.2528 151.326
-357.775 17.5445 161.034
-357.775 21.2528 161.034
-359.629 14.5445 156.18
-355.921 14.5445 156.18
-359.629 24.2528 156.18
-355.921 24.2528 156.18
-362.629 19.3986 154.326
-362.629 19.3986 158.034
-352.921 19.3986 154.326
-352.921 19.3986 158.034
-199.156 7.63563 82.6281
-193.156 7.63563 82.6281
-199.156 13.6356 82.6281
-193.156 13.6356 82.6281
-199.156 7.63563 88.6281
-193.156 7.63563 88.6281
-199.156 13.6356 88.6281
-193.156 13.6356 88.6281
-196.156 8.78153 80.774
-196.156 12.4897 80.774
-196.156 8.78153 90.4822
-196.156 12.4897 90.4822
-198.01 5.78153 85.6281
-194.302 5.78153 85.6281
-198.01 15.4897 85.6281
-194.302 15.4897 85.6281
-201.01 10.6356 83.774
-201.01 10.6356 87.4822
-191.302 10.6356 83.774
-191.302 10.6356 87.4822
-199.156 7.63563 82.6281
-193.156 7.63563 82.6281
-199.156 13.6356 82.6281
-193.156 13.6356 82.6281
-199.156 7.63563 88.6281
-193.156 7.63563 88.6281
-199.156 13.6356 88.6281
-193.156 13.6356 88.6281
-196.156 8.78153 80.774
-196.156 12.4897 80.774
-196.156 8.78153 90.4822
-196.156 12.4897 90.4822
-198.01 5.78153 85.6281
-194.302 5.78153 85.6281
-198.01 15.4897 85.6281
-194.302 15.4897 85.6281
-201.01 10.6356 83.774
-201.01 10.6356 87.4822
-191.302 10.6356 83.774
-191.302 10.6356 87.4822
193.156 -13.6356 -88.6281
199.156 -13.6356 -88.6281
193.156 -7.63563 -88.6281
199.156 -7.63563 -88.6281
193.156 -13.6356 -82.6281
199.156 -13.6356 -82.6281
193.156 -7.63563 -82.6281
199.156 -7.63563 -82.6281
196.156 -12.4897 -90.4822
196.156 -8.78153 -90.4822
196.156 -12.4897 -80.774
196.156 -8.78153 -80.774
194.302 -15.4897 -85.6281
198.01 -15.4897 -85.6281
194.302 -5.78153 -85.6281
198.01 -5.78153 -85.6281
191.302 -10.6356 -87.4822
191.302 -10.6356 -83.774
201.01 -10.6356 -87.4822
201.01 -10.6356 -83.774
-383.719 -406.762 153.18
-377.719 -406.762 153.18
-383.719 -400.762 153.18
-377.719 -400.762 153.18
-383.719 -406.762 159.18
-377.719 -406.762 159.18
-383.719 -400.762 159.18
-377.719 -400.762 159.18
-380.719 -405.616 151.326
-380.719 -401.908 151.326
-380.719 -405.616 161.034
-380.719 -401.908 161.034
-382.573 -408.616 156.18
-378.865 -408.616 156.18
-382.573 -398.908 156.18
-378.865 -398.908 156.18
-385.573 -403.762 154.326
-385.573 -403.762 158.034
-375.865 -403.762 154.326
-375.865 -403.762 158.034
331.831 -445.559 -159.18
337.831 -445.559 -159.18
331.831 -439.559 -159.18
337.831 -439.559 -159.18
331.831 -445.559 -153.18
337.831 -445.559 -153.18
331.831 -439.559 -153.18
337.831 -439.559 -153.18
334.831 -444.413 -161.034
334.831 -440.705 -161.034
334.831 -444.413 -151.326
334.831 -440.705 -151.326
332.977 -447.413 -156.18
336.685 -447.413 -156.18
332.977 -437.705 -156.18
336.685 -437.705 -156.18
329.977 -442.559 -158.034
329.977 -442.559 -154.326
339.685 -442.559 -158.034
339.685 -442.559 -154.326
-529.861 25.5666 -235.301
-523.861 25.5666 -235.301
-529.861 31.5666 -235.301
-523.861 31.5666 -235.301
-529.861 25.5666 -229.301
-523.861 25.5666 -229.301
-529.861 31.5666 -229.301
-523.861 31.5666 -229.301
-526.861 26.7125 -237.155
-526.861 30.4207 -237.155
-526.861 26.7125 -227.446
-526.861 30.4207 -227.446
-528.715 23.7125 -232.301
-525.007 23.7125 -232.301
-528.715 33.4207 -232.301
-525.007 33.4207 -232.301
-531.715 28.5666 -234.155
-531.715 28.5666 -230.446
-522.007 28.5666 -234.155
-522.007 28.5666 -230.446
185.688 -13.2307 -547.66
191.688 -13.2307 -547.66
185.688 -7.23074 -547.66
191.688 -7.23074 -547.66
185.688 -13.2307 -541.66
191.688 -13.2307 -541.66
185.688 -7.23074 -541.66
191.688 -7.23074 -541.66
188.688 -12.0848 -549.514
188.688 -8.37664 -549.514
188.688 -12.0848 -539.806
188.688 -8.37664 -539.806
186.834 -15.0848 -544.66
190.543 -15.0848 -544.66
186.834 -5.37664 -544.66
190.543 -5.37664 -544.66
183.834 -10.2307 -546.514
183.834 -10.2307 -542.806
193.543 -10.2307 -546.514
193.543 -10.2307 -542.806
-337.831 439.559 153.18
-331.831 439.559 153.18
-337.831 445.559 153.18
-331.831 445.559 153.18
-337.831 439.559 159.18
-331.831 439.559 159.18
-337.831 445.559 159.18
-331.831 445.559 159.18
-334.831 440.705 151.326
-334.831 444.413 151.326
-334.831 440.705 161.034
-334.831 444.413 161.034
-336.685 437.705 156.18
-332.977 437.705 156.18
-336.685 447.413 156.18
-332.977 447.413 156.18
-339.685 442.559 154.326
-339.685 442.559 158.034
-329.977 442.559 154.326
-329.977 442.559 158.034
377.719 400.762 -159.18
383.719 400.762 -159.18
377.719 406.762 -159.18
383.719 406.762 -159.18
377.719 400.762 -153.18
383.719 400.762 -153.18
377.719 406.762 -153.18
383.719 406.762 -153.18
380.719 401.908 -161.034
380.719 405.616 -161.034
380.719 401.908 -151.326
380.719 405.616 -151.326
378.865 398.908 -156.18
382.573 398.908 -156.18
378.865 408.616 -156.18
382.573 408.616 -156.18
375.865 403.762 -158.034
375.865 403.762 -154.326
385.573 403.762 -158.034
385.573 403.762 -154.326
-191.688 7.23074 541.66
-185.688 7.23074 541.66
-191.688 13.2307 541.66
-185.688 13.2307 541.66
-191.688 7.23074 547.66
-185.688 7.23074 547.66
-191.688 13.2307 547.66
-185.688 13.2307 547.66
-188.688 8.37664 539.806
-188.688 12.0848 539.806
-188.688 8.37664 549.514
-188.688 12.0848 549.514
-190.543 5.37664 544.66
-186.834 5.37664 544.66
-190.543 15.0848 544.66
-186.834 15.0848 544.66
-193.543 10.2307 542.806
-193.543 10.2307 546.514
-183.834 10.2307 542.806
-183.834 10.2307 546.514
523.861 -31.5666 229.301
529.861 -31.5666 229.301
523.861 -25.5666 229.301
529.861 -25.5666 229.301
523.861 -31.5666 235.301
529.861 -31.5666 235.301
523.861 -25.5666 235.301
529.861 -25.5666 235.301
526.861 -30.4207 227.446
526.861 -26.7125 227.446
526.861 -30.4207 237.155
526.861 -26.7125 237.155
525.007 -33.4207 232.301
528.715 -33.4207 232.301
525.007 -23.7125 232.301
528.715 -23.7125 232.301
522.007 -28.5666 230.446
522.007 -28.5666 234.155
531.715 -28.5666 230.446
531.715 -28.5666 234.155
CELLS 800 3200
3 21 23 38
3 21 29 28
3 21 29 23
3 15 14 34
3 15 35 34
3 22 35 23
3 22 29 23
3 22 35 34
3 13 4 12
3 13 4 10
3 13 5 10
3 13 32 33
3 13 32 12
3 20 21 28
3 20 21 33
3 20 32 33
3 20 17 36
3 20 32 12
3 20 4 12
3 20 17 4
3 20 29 28
3 20 22 29
3 20 22 36
3 19 13 33
3 19 21 38
3 19 21 33
3 19 13 5
3 6 14 34
3 6 22 34
3 6 17 36
3 6 22 36
3 6 4 10
3 6 17 4
3 6 11 10
3 7 23 38
3 7 19 38
3 7 35 23
3 7 15 35
3 7 5 10
3 7 11 10
3 7 19 5
3 7 15 14
3 7 6 11
3 7 6 14
3 72 61 73
3 72 60 68
3 72 61 68
3 72 53 73
3 72 53 52
3 50 57 44
3 50 46 51
3 50 46 57
3 76 72 52
3 76 44 52
3 76 57 44
3 76 72 60
3 47 55 75
3 47 78 59
3 47 63 75
3 47 63 78
3 45 53 73
3 45 78 59
3 45 61 73
3 45 78 61
3 45 44 52
3 45 53 52
3 45 50 44
3 45 50 51
3 45 47 59
3 45 47 51
3 69 60 68
3 69 76 60
3 69 76 62
3 69 61 68
3 69 78 61
3 69 63 78
3 69 63 75
3 69 74 75
3 69 74 62
3 54 46 51
3 54 47 55
3 54 47 51
3 54 76 57
3 54 46 57
3 54 76 62
3 54 74 62
3 54 55 75
3 54 74 75
3 115 94 114
3 115 95 94
3 103 115 114
3 103 102 114
3 103 102 109
3 103 109 108
3 103 101 118
3 103 101 108
3 100 102 109
3 100 102 116
3 100 109 108
3 100 101 113
3 100 101 108
3 100 112 113
3 97 112 92
3 97 100 116
3 97 84 92
3 97 100 112
3 97 94 114
3 97 102 114
3 97 102 116
3 97 86 94
3 99 115 95
3 99 103 118
3 99 87 95
3 99 103 115
3 93 99 118
3 93 101 118
3 93 99 85
3 93 101 113
3 93 112 92
3 93 112 113
3 90 84 92
3 90 93 85
3 90 93 92
3 91 95 94
3 91 87 95
3 91 86 94
3 91 97 86
3 91 97 84
3 91 90 84
3 91 99 85
3 91 99 87
3 91 90 85
3 152 141 153
3 152 140 148
3 152 141 148
3 133 152 132
3 133 152 153
3 130 133 132
3 130 133 125
3 130 124 132
3 158 133 153
3 158 141 153
3 158 139 125
3 158 133 125
3 127 139 125
3 127 130 125
3 127 130 131
3 156 124 132
3 156 152 132
3 156 152 140
3 156 124 137
3 143 127 139
3 143 158 139
3 143 135 155
3 143 127 135
3 134 135 155
3 134 154 155
3 149 140 148
3 149 156 142
3 149 156 140
3 149 141 148
3 149 158 141
3 149 143 158
3 149 154 142
3 149 143 155
3 149 154 155
3 126 124 137
3 126 130 131
3 126 130 124
3 126 156 137
3 126 156 142
3 126 154 142
3 126 134 154
3 126 127 131
3 126 127 135
3 126 134 135
3 181 183 198
3 181 189 188
3 181 189 183
3 175 174 194
3 175 195 194
3 182 195 183
3 182 189 183
3 182 195 194
3 182 189 188
3 182 180 188
3 182 180 196
3 173 164 172
3 173 164 170
3 173 165 170
3 192 181 188
3 192 181 193
3 192 180 188
3 192 177 196
3 192 180 196
3 192 164 172
3 192 177 164
3 192 173 193
3 192 173 172
3 179 173 193
3 179 181 198
3 179 181 193
3 179 173 165
3 166 174 194
3 166 182 194
3 166 177 196
3 166 182 196
3 166 164 170
3 166 177 164
3 166 171 170
3 167 183 198
3 167 179 198
3 167 195 183
3 167 175 195
3 167 165 170
3 167 171 170
3 167 179 165
3 167 175 174
3 167 166 171
3 167 166 174
3 235 214 234
3 235 215 214
3 223 235 234
3 223 222 234
3 223 222 229
3 223 229 228
3 223 221 238
3 223 221 228
3 220 222 229
3 220 222 236
3 220 229 228
3 220 221 233
3 220 221 228
3 220 232 233
3 217 232 212
3 217 220 236
3 217 204 212
3 217 220 232
3 217 214 234
3 217 222 234
3 217 222 236
3 217 206 214
3 219 235 215
3 219 223 238
3 219 207 215
3 219 223 235
3 213 219 238
3 213 221 238
3 213 219 205
3 213 221 233
3 213 232 212
3 213 232 233
3 210 204 212
3 210 213 205
3 210 213 212
3 211 215 214
3 211 207 215
3 211 206 214
3 211 217 206
3 211 217 204
3 211 210 204
3 211 219 205
3 211 219 207
3 211 210 205
3 261 263 278
3 261 269 268
3 261 269 263
3 255 254 274
3 255 275 274
3 262 275 263
3 262 269 263
3 262 275 274
3 262 269 268
3 262 260 268
3 262 260 276
3 253 244 252
3 253 244 250
3 253 245 250
3 272 261 268
3 272 261 273
3 272 260 268
3 272 253 273
3 272 253 252
3 259 253 273
3 259 261 278
3 259 261 273
3 259 253 245
3 257 272 260
3 257 244 252
3 257 260 276
3 257 272 252
3 257 254 274
3 257 262 274
3 257 262 276
3 257 246 254
3 257 244 250
3 257 246 251
3 257 251 250
3 247 246 251
3 247 255 254
3 247 246 254
3 247 263 278
3 247 259 278
3 247 275 263
3 247 255 275
3 247 245 250
3 247 251 250
3 247 259 245
3 295 294 314
3 295 315 314
3 309 315 303
3 309 302 314
3 309 315 314
3 309 303 318
3 309 301 318
3 309 301 308
3 293 284 292
3 293 284 290
3 293 285 290
3 293 312 313
3 293 312 292
3 300 301 313
3 300 301 308
3 300 312 313
3 300 297 316
3 300 312 292
3 300 284 292
3 300 297 284
3 300 302 316
3 300 309 308
3 300 309 302
3 299 293 313
3 299 301 318
3 299 301 313
3 299 293 285
3 286 294 314
3 286 302 314
3 286 297 316
3 286 302 316
3 286 284 290
3 286 297 284
3 286 291 290
3 287 303 318
3 287 299 318
3 287 315 303
3 287 295 315
3 287 285 290
3 287 291 290
3 287 299 285
3 287 295 294
3 287 286 291
3 287 286 294
3 355 334 354
3 355 335 334
3 343 355 354
3 343 342 354
3 343 342 349
3 343 349 348
3 343 341 358
3 343 341 348
3 340 342 349
3 340 342 356
3 340 349 348
3 340 341 353
3 340 341 348
3 340 352 353
3 337 352 332
3 337 340 356
3 337 324 332
3 337 340 352
3 337 334 354
3 337 342 354
3 337 342 356
3 337 326 334
3 339 355 335
3 339 343 358
3 339 327 335
3 339 343 355
3 333 339 358
3 333 341 358
3 333 339 325
3 333 341 353
3 333 352 332
3 333 352 353
3 330 324 332
3 330 333 325
3 330 333 332
3 331 335 334
3 331 327 335
3 331 326 334
3 331 337 326
3 331 337 324
3 331 330 324
3 331 339 325
3 331 339 327
3 331 330 325
3 395 374 394
3 395 375 374
3 383 395 394
3 383 382 394
3 383 382 389
3 383 389 388
3 383 381 398
3 383 381 388
3 380 382 389
3 380 382 396
3 380 389 388
3 380 381 393
3 380 381 388
3 380 392 393
3 377 392 372
3 377 380 396
3 377 364 372
3 377 380 392
3 377 374 394
3 377 382 394
3 377 382 396
3 377 366 374
3 379 395 375
3 379 383 398
3 379 367 375
3 379 383 395
3 373 379 398
3 373 381 398
3 373 379 365
3 373 381 393
3 373 392 372
3 373 392 393
3 370 364 372
3 370 373 365
3 370 373 372
3 371 375 374
3 371 367 375
3 371 366 374
3 371 377 366
3 371 377 364
3 371 370 364
3 371 379 365
3 371 379 367
3 371 370 365
3 409 400 416
3 409 402 416
3 409 400 408
3 405 413 412
3 405 404 410
3 405 404 412
3 417 404 412
3 417 400 416
3 417 400 412
3 417 402 416
3 417 414 402
3 417 414 406
3 420 400 412
3 420 412 432
3 422 409 402
3 422 409 429
3 411 404 410
3 411 417 406
3 411 417 404
3 439 423 438
3 439 423 435
3 439 427 435
3 425 405 410
3 425 430 410
3 428 409 408
3 428 409 429
3 428 400 408
3 428 420 400
3 428 423 438
3 428 421 438
3 428 423 429
3 434 423 429
3 434 423 435
3 434 422 429
3 434 414 415
3 434 435 415
3 434 414 402
3 434 422 402
3 431 439 427
3 431 425 439
3 431 425 430
3 431 411 410
3 431 430 410
3 407 414 406
3 407 411 406
3 407 414 415
3 407 427 435
3 407 435 415
3 407 431 427
3 407 431 411
3 433 413 412
3 433 412 432
3 433 405 413
3 433 425 405
3 433 421 438
3 433 439 438
3 433 425 439
3 433 420 432
3 433 428 421
3 433 428 420
3 449 440 456
3 449 442 456
3 449 440 448
3 445 470 450
3 445 465 470
3 457 444 452
3 457 440 456
3 457 440 452
3 457 442 456
3 457 454 442
3 457 454 446
3 460 440 452
3 460 452 472
3 462 449 442
3 462 449 469
3 451 444 450
3 451 457 446
3 451 457 444
3 479 463 478
3 479 463 475
3 479 467 475
3 453 444 452
3 453 444 450
3 453 445 450
3 468 449 448
3 468 449 469
3 468 440 448
3 468 460 440
3 468 463 478
3 468 461 478
3 468 463 469
3 474 463 469
3 474 463 475
3 474 462 469
3 474 454 455
3 474 475 455
3 474 454 442
3 474 462 442
3 471 465 470
3 471 479 465
3 471 479 467
3 471 470 450
3 471 451 450
3 447 454 446
3 447 451 446
3 447 454 455
3 447 467 475
3 447 475 455
3 447 471 467
3 447 471 451
3 473 452 472
3 473 453 452
3 473 445 465
3 473 453 445
3 473 461 478
3 473 479 478
3 473 479 465
3 473 460 472
3 473 468 461
3 473 468 460
3 489 480 496
3 489 482 496
3 489 480 488
3 489 508 509
3 489 508 488
3 503 508 509
3 503 501 518
3 503 501 508
3 493 484 490
3 493 485 490
3 493 484 492
3 497 484 492
3 497 480 496
3 497 480 492
3 497 482 496
3 497 494 482
3 497 494 486
3 500 480 492
3 500 492 512
3 500 480 488
3 500 508 488
3 502 489 482
3 502 489 509
3 491 494 486
3 491 494 495
3 491 487 495
3 491 484 490
3 491 497 486
3 491 497 484
3 491 510 490
3 491 511 510
3 513 493 492
3 513 492 512
3 513 501 508
3 513 500 512
3 513 500 508
3 514 503 509
3 514 503 515
3 514 502 509
3 514 494 495
3 514 515 495
3 514 494 482
3 514 502 482
3 507 487 495
3 507 515 495
3 507 491 487
3 507 491 511
3 505 485 490
3 505 510 490
3 505 493 485
3 505 513 493
3 519 503 518
3 519 503 515
3 519 507 515
3 519 501 518
3 519 513 501
3 519 505 513
3 519 511 510
3 519 507 511
3 519 505 510
3 529 520 536
3 529 522 536
3 529 520 528
3 525 533 532
3 525 524 530
3 525 524 532
3 537 524 532
3 537 520 536
3 537 520 532
3 537 522 536
3 537 534 522
3 537 534 526
3 540 520 532
3 540 532 552
3 542 529 522
3 542 529 549
3 531 524 530
3 531 537 526
3 531 537 524
3 559 543 558
3 559 543 555
3 559 547 555
3 545 525 530
3 545 550 530
3 548 529 528
3 548 529 549
3 548 520 528
3 548 540 520
3 548 543 558
3 548 541 558
3 548 543 549
3 554 543 549
3 554 543 555
3 554 542 549
3 554 534 535
3 554 555 535
3 554 534 522
3 554 542 522
3 551 559 547
3 551 545 559
3 551 545 550
3 551 531 530
3 551 550 530
3 527 534 526
3 527 531 526
3 527 534 535
3 527 547 555
3 527 555 535
3 527 551 547
3 527 551 531
3 553 533 532
3 553 532 552
3 553 525 533
3 553 545 525
3 553 541 558
3 553 559 558
3 553 545 559
3 553 540 552
3 553 548 541
3 553 548 540
3 569 562 576
3 569 560 576
3 569 560 568
3 569 588 589
3 569 588 568
3 573 572 592
3 573 593 592
3 581 588 589
3 581 583 598
3 581 583 589
3 564 577 576
3 564 560 576
3 564 560 572
3 580 593 592
3 580 581 588
3 580 581 593
3 580 560 572
3 580 572 592
3 580 560 568
3 580 588 568
3 574 594 595
3 574 595 575
3 574 577 576
3 574 562 576
3 574 577 566
3 582 583 589
3 582 583 595
3 582 594 595
3 582 569 562
3 582 569 589
3 582 574 594
3 582 574 562
3 571 577 566
3 571 564 570
3 571 564 577
3 571 574 566
3 571 567 575
3 571 574 575
3 571 590 570
3 571 591 590
3 565 564 570
3 565 573 572
3 565 564 572
3 587 595 575
3 587 567 575
3 587 571 567
3 587 571 591
3 585 590 570
3 585 565 570
3 585 573 593
3 585 565 573
3 599 583 598
3 599 583 595
3 599 587 595
3 599 581 598
3 599 581 593
3 599 585 593
3 599 591 590
3 599 587 591
3 599 585 590
3 609 600 616
3 609 602 616
3 609 600 608
3 613 604 610
3 613 605 610
3 613 604 612
3 617 604 612
3 617 600 616
3 617 600 612
3 617 602 616
3 617 614 602
3 617 614 606
3 620 600 612
3 620 612 632
3 634 614 615
3 634 635 615
3 611 614 606
3 611 614 615
3 611 607 615
3 611 604 610
3 611 617 606
3 611 617 604
3 611 630 610
3 611 631 630
3 633 613 612
3 633 612 632
3 628 609 608
3 628 609 629
3 628 600 608
3 628 620 600
3 628 623 638
3 628 621 638
3 628 623 629
3 628 620 632
3 628 633 632
3 628 633 621
3 622 623 629
3 622 623 635
3 622 634 635
3 622 609 602
3 622 609 629
3 622 614 602
3 622 634 614
3 627 607 615
3 627 635 615
3 627 611 607
3 627 611 631
3 625 605 610
3 625 630 610
3 625 613 605
3 625 633 613
3 639 623 638
3 639 623 635
3 639 627 635
3 639 621 638
3 639 633 621
3 639 625 633
3 639 631 630
3 639 627 631
3 639 625 630
CELL_TYPES 800
5 5 5 5 5 5 5 5 5 5 
5 5 5 5 5 5 5 5 5 5 
5 5 5 5 5 5 5 5 5 5 
5 5 5 5 5 5 5 5 5 5 
5 5 5 5 5 5 5 5 5 5 
5 5 5 5 5 5 5 5 5 5 
5 5 5 5 5 5 5 5 5 5 
5 5 5 5 5 5 5 5 5 5 
5 5 5 5 5 5 5 5 5 5 
5 5 5 5 5 5 5 5 5 5 
5 5 5 5 5 5 5 5 5 5 
5 5 5 5 5 5 5 5 5 5 
5 5 5 5 5 5 5 5 5 5 
5 5 5 5 5 5 5 5 5 5 
5 5 5 5 5 5 5 5 5 5 
5 5 5 5 5 5 5 5 5 5 
5 5 5 5 5 5 5 5 5 5 
5 5 5 5 5 5 5 5 5 5 
5 5 5 5 5 5 5 5 5 5 
5 5 5 5 5 5 5 5 5 5 
5 5 5 5 5 5 5 5 5 5 
5 5 5 5 5 5 5 5 5 5 
5 5 5 5 5 5 5 5 5 5 
5 5 5 5 5 5 5 5 5 5 
5 5 5 5 5 5 5 5 5 5 
5 5 5 5 5 5 5 5 5 5 
5 5 5 5 5 5 5 5 5 5 
5 5 5 5 5 5 5 5 5 5 
5 5 5 5 5 5 5 5 5 5 
5 5 5 5 5 5 5 5 5 5 
5 5 5 5 5 5 5 5 5 5 
5 5 5 5 5 5 5 5 5 5 
5 5 5 5 5 5 5 5 5 5 
5 5 5 5 5 5 5 5 5 5 
5 5 5 5 5 5 5 5 5 5 
5 5 5 5 5 5 5 5 5 5 
5 5 5 5 5 5 5 5 5 5 
5 5 5 5 5 5 5 5 5 5 
5 5 5 5 5 5 5 5 5 5 
5 5 5 5 5 5 5 5 5 5 
5 5 5 5 5 5 5 5 5 5 
5 5 5 5 5 5 5 5 5 5 
5 5 5 5 5 5 5 5 5 5 
5 5 5 5 5 5 5 5 5 5 
5 5 5 5 5 5 5 5 5 5 
5 5 5 5 5 5 5 5 5 5 
5 5 5 5 5 5 5 5 5 5 
5 5 5 5 5 5 5 5 5 5 
5 5 5 5 5 5 5 5 5 5 
5 5 5 5 5 5 5 5 5 5 
5 5 5 5 5 5 5 5 5 5 
5 5 5 5 5 5 5 5 5 5 
5 5 5 5 5 5 5 5 5 5 
5 5 5 5 5 5 5 5 5 5 
5 5 5 5 5 5 5 5 5 5 
5 5 5 5 5 5 5 5 5 5 
5 5 5 5 5 5 5 5 5 5 
5 5 5 5 5 5 5 5 5 5 
5 5 5 5 5 5 5 5 5 5 
5 5 5 5 5 5 5 5 5 5 
5 5 5 5 5 5 5 5 5 5 
5 5 5 5 5 5 5 5 5 5 
5 5 5 5 5 5 5 5 5 5 
5 5 5 5 5 5 5 5 5 5 
5 5 5 5 5 5 5 5 5 5 
5 5 5 5 5 5 5 5 5 5 
5 5 5 5 5 5 5 5 5 5 
5 5 5 5 5 5 5 5 5 5 
5 5 5 5 5 5 5 5 5 5 
5 5 5 5 5 5 5 5 5 5 
5 5 5 5 5 5 5 5 5 5 
5 5 5 5 5 5 5 5 5 5 
5 5 5 5 5 5 5 5 5 5 
5 5 5 5 5 5 5 5 5 5 
5 5 5 5 5 5 5 5 5 5 
5 5 5 5 5 5 5 5 5 5 
5 5 5 5 5 5 5 5 5 5 
5 5 5 5 5 5 5 5 5 5 
5 5 5 5 5 5 5 5 5 5 
5 5 5 5 5 5 5 5 5 5 

CELL_DATA 800
SCALARS Well_Number float 1
LOOKUP_TABLE default
0 0 0 0 0 0 0 0 0 
0 0 0 0 0 0 0 0 0 0 
0 0 0 0 0 0 0 0 0 0 
0 0 0 0 0 0 0 0 0 0 
0 0 0 0 0 1 1 1 1 1 
1 1 1 1 1 1 1 1 1 1 
1 1 1 1 1 1 1 1 1 1 
1 1 1 1 1 1 1 1 1 1 
1 1 1 1 1 1 1 1 1 2 
2 2 2 2 2 2 2 2 2 2 
2 2 2 2 2 2 2 2 2 2 
2 2 2 2 2 2 2 2 2 2 
2 2 2 2 2 2 2 2 2 2 
2 2 2 3 3 3 3 3 3 3 
3 3 3 3 3 3 3 3 3 3 
3 3 3 3 3 3 3 3 3 3 
3 3 3 3 3 3 3 3 3 3 
3 3 3 3 3 3 3 4 4 4 
4 4 4 4 4 4 4 4 4 4 
4 4 4 4 4 4 4 4 4 4 
4 4 4 4 4 4 4 4 4 4 
4 4 4 4 4 4 4 4 4 4 
4 5 5 5 5 5 5 5 5 5 
5 5 5 5 5 5 5 5 5 5 
5 5 5 5 5 5 5 5 5 5 
5 5 5 5 5 5 5 5 5 5 
5 5 5 5 5 6 6 6 6 6 
6 6 6 6 6 6 6 6 6 6 
6 6 6 6 6 6 6 6 6 6 
6 6 6 6 6 6 6 6 6 6 
6 6 6 6 6 6 6 6 6 7 
7 7 7 7 7 7 7 7 7 7 
7 7 7 7 7 7 7 7 7 7 
7 7 7 7 7 7 7 7 7 7 
7 7 7 7 7 7 7 7 7 7 
7 7 7 8 8 8 8 8 8 8 
8 8 8 8 8 8 8 8 8 8 
8 8 8 8 8 8 8 8 8 8 
8 8 8 8 8 8 8 8 8 8 
8 8 8 8 8 8 8 9 9 9 
9 9 9 9 9 9 9 9 9 9 
9 9 9 9 9 9 9 9 9 9 
9 9 9 9 9 9 9 9 9 9 
9 9 9 9 9 9 9 9 9 9 
9 10 10 10 10 10 10 10 10 10 
10 10 10 10 10 10 10 10 10 10 
10 10 10 10 10 10 10 10 10 10 
10 10 10 10 10 10 10 10 10 10 
10 10 10 10 10 10 10 10 10 10 
10 10 10 10 10 10 10 10 10 10 
10 11 11 11 11 11 11 11 11 11 
11 11 11 11 11 11 11 11 11 11 
11 11 11 11 11 11 11 11 11 11 
11 11 11 11 11 11 11 11 11 11 
11 11 11 11 11 11 11 11 11 11 
11 11 11 11 11 11 11 11 11 11 
11 12 12 12 12 12 12 12 12 12 
12 12 12 12 12 12 12 12 12 12 
12 12 12 12 12 12 12 12 12 12 
12 12 12 12 12 12 12 12 12 12 
12 12 12 12 12 12 12 12 12 12 
12 12 12 12 12 12 12 12 12 12 
12 13 13 13 13 13 13 13 13 13 
13 13 13 13 13 13 13 13 13 13 
13 13 13 13 13 13 13 13 13 13 
13 13 13 13 13 13 13 13 13 13 
13 13 13 13 13 13 13 13 13 13 
13 13 13 13 13 13 13 13 13 13 
13 14 14 14 14 14 14 14 14 14 
14 14 14 14 14 14 14 14 14 14 
14 14 14 14 14 14 14 14 14 14 
14 14 14 14 14 14 14 14 14 14 
14 14 14 14 14 14 14 14 14 14 
14 14 14 14 14 14 14 14 14 14 
14 15 15 15 15 15 15 15 15 15 
15 15 15 15 15 15 15 15 15 15 
15 15 15 15 15 15 15 15 15 15 
15 15 15 15 15 15 15 15 15 15 
15 15 15 15 15 15 15 15 15 15 
15 15 15 15 15 15 15 15 15 15 
15 SCALARS Well_Type float 1
LOOKUP_TABLE default
-1 -1 -1 -1 -1 -1 -1 -1 -1 
-1 -1 -1 -1 -1 -1 -1 -1 -1 -1 
-1 -1 -1 -1 -1 -1 -1 -1 -1 -1 
-1 -1 -1 -1 -1 -1 -1 -1 -1 -1 
-1 -1 -1 -1 -1 -2 -2 -2 -2 -2 
-2 -2 -2 -2 -2 -2 -2 -2 -2 -2 
-2 -2 -2 -2 -2 -2 -2 -2 -2 -2 
-2 -2 -2 -2 -2 -2 -2 -2 -2 -2 
-2 -2 -2 -2 -2 -2 -2 -2 -2 -2 
-2 -2 -2 -2 -2 -2 -2 -2 -2 -2 
-2 -2 -2 -2 -2 -2 -2 -2 -2 -2 
-2 -2 -2 -2 -2 -2 -2 -2 -2 -2 
-2 -2 -2 -2 -2 -2 -2 -2 -2 -2 
-2 -2 -2 -2 -2 -2 -2 -2 -2 -2 
-2 -2 -2 -2 -2 -2 -2 -2 -2 -2 
-2 -2 -2 -2 -2 -2 -2 -2 -2 -2 
-2 -2 -2 -2 -2 -2 -2 -2 -2 -2 
-2 -2 -2 -2 -2 -2 -2 -2 -2 -2 
-2 -2 -2 -2 -2 -2 -2 -2 -2 -2 
-2 -2 -2 -2 -2 -2 -2 -2 -2 -2 
-2 -2 -2 -2 -2 -2 -2 -2 -2 -2 
-2 -2 -2 -2 -2 -2 -2 -2 -2 -2 
-2 0 0 0 0 0 0 0 0 0 
0 0 0 0 0 0 0 0 0 0 
0 0 0 0 0 0 0 0 0 0 
0 0 0 0 0 0 0 0 0 0 
0 0 0 0 0 0 0 0 0 0 
0 0 0 0 0 0 0 0 0 0 
0 0 0 0 0 0 0 0 0 0 
0 0 0 0 0 0 0 0 0 0 
0 0 0 0 0 0 0 0 0 0 
0 0 0 0 0 0 0 0 0 0 
0 0 0 0 0 0 0 0 0 0 
0 0 0 0 0 0 0 0 0 0 
0 0 0 0 0 0 0 0 0 0 
0 0 0 0 0 0 0 0 0 0 
0 0 0 0 0 0 0 0 0 0 
0 0 0 0 0 0 0 0 0 0 
0 0 0 0 0 0 0 0 0 0 
0 0 0 0 0 0 0 0 0 0 
0 0 0 0 0 0 0 0 0 0 
0 0 0 0 0 0 0 0 0 0 
0 0 0 0 0 0 0 0 0 0 
0 0 0 0 0 0 0 0 0 0 
0 0 0 0 0 0 0 0 0 0 
0 0 0 0 0 0 0 0 0 0 
0 0 0 0 0 0 0 0 0 0 
0 0 0 0 0 0 0 0 0 0 
0 0 0 0 0 0 0 0 0 0 
0 0 0 0 0 0 0 0 0 0 
0 -3 -3 -3 -3 -3 -3 -3 -3 -3 
-3 -3 -3 -3 -3 -3 -3 -3 -3 -3 
-3 -3 -3 -3 -3 -3 -3 -3 -3 -3 
-3 -3 -3 -3 -3 -3 -3 -3 -3 -3 
-3 -3 -3 -3 -3 -3 -3 -3 -3 -3 
-3 -3 -3 -3 -3 -3 -3 -3 -3 -3 
-3 -4 -4 -4 -4 -4 -4 -4 -4 -4 
-4 -4 -4 -4 -4 -4 -4 -4 -4 -4 
-4 -4 -4 -4 -4 -4 -4 -4 -4 -4 
-4 -4 -4 -4 -4 -4 -4 -4 -4 -4 
-4 -4 -4 -4 -4 -4 -4 -4 -4 -4 
-4 -4 -4 -4 -4 -4 -4 -4 -4 -4 
-4 -4 -4 -4 -4 -4 -4 -4 -4 -4 
-4 -4 -4 -4 -4 -4 -4 -4 -4 -4 
-4 -4 -4 -4 -4 -4 -4 -4 -4 -4 
-4 -4 -4 -4 -4 -4 -4 -4 -4 -4 
-4 -4 -4 -4 -4 -4 -4 -4 -4 -4 
-4 -4 -4 -4 -4 -4 -4 -4 -4 -4 
-4 -4 -4 -4 -4 -4 -4 -4 -4 -4 
-4 -4 -4 -4 -4 -4 -4 -4 -4 -4 
-4 -4 -4 -4 -4 -4 -4 -4 -4 -4 
-4 -4 -4 -4 -4 -4 -4 -4 -4 -4 
-4 -4 -4 -4 -4 -4 -4 -4 -4 -4 
-4 -4 -4 -4 -4 -4 -4 -4 -4 -4 
-4 -4 -4 -4 -4 -4 -4 -4 -4 -4 
-4 -4 -4 -4 -4 -4 -4 -4 -4 -4 
-4 -4 -4 -4 -4 -4 -4 -4 -4 -4 
-4 -4 -4 -4 -4 -4 -4 -4 -4 -4 
-4 -4 -4 -4 -4 -4 -4 -4 -4 -4 
-4 -4 -4 -4 -4 -4 -4 -4 -4 -4 
-4 SCALARS Inner_Radius float 1
LOOKUP_TABLE default
0.132373 0.132373 0.132373 0.132373 0.132373 0.132373 0.132373 0.132373 0.132373 
0.132373 0.132373 0.132373 0.132373 0.132373 0.132373 0.132373 0.132373 0.132373 0.132373 
0.132373 0.132373 0.132373 0.132373 0.132373 0.132373 0.132373 0.132373 0.132373 0.132373 
0.132373 0.132373 0.132373 0.132373 0.132373 0.132373 0.132373 0.132373 0.132373 0.132373 
0.132373 0.132373 0.132373 0.132373 0.132373 0.132373 0.132373 0.132373 0.132373 0.132373 
0.132373 0.132373 0.132373 0.132373 0.132373 0.132373 0.132373 0.132373 0.132373 0.132373 
0.132373 0.132373 0.132373 0.132373 0.132373 0.132373 0.132373 0.132373 0.132373 0.132373 
0.132373 0.132373 0.132373 0.132373 0.132373 0.132373 0.132373 0.132373 0.132373 0.132373 
0.132373 0.132373 0.132373 0.132373 0.132373 0.132373 0.132373 0.132373 0.132373 0.132373 
0.132373 0.132373 0.132373 0.132373 0.132373 0.132373 0.132373 0.132373 0.132373 0.132373 
0.132373 0.132373 0.132373 0.132373 0.132373 0.132373 0.132373 0.132373 0.132373 0.132373 
0.132373 0.132373 0.132373 0.132373 0.132373 0.132373 0.132373 0.132373 0.132373 0.132373 
0.132373 0.132373 0.132373 0.132373 0.132373 0.132373 0.132373 0.132373 0.132373 0.132373 
0.132373 0.132373 0.132373 0.132373 0.132373 0.132373 0.132373 0.132373 0.132373 0.132373 
0.132373 0.132373 0.132373 0.132373 0.132373 0.132373 0.132373 0.132373 0.132373 0.132373 
0.132373 0.132373 0.132373 0.132373 0.132373 0.132373 0.132373 0.132373 0.132373 0.132373 
0.132373 0.132373 0.132373 0.132373 0.132373 0.132373 0.132373 0.132373 0.132373 0.132373 
0.132373 0.132373 0.132373 0.132373 0.132373 0.132373 0.132373 0.132373 0.132373 0.132373 
0.132373 0.132373 0.132373 0.132373 0.132373 0.132373 0.132373 0.132373 0.132373 0.132373 
0.132373 0.132373 0.132373 0.132373 0.132373 0.132373 0.132373 0.132373 0.132373 0.132373 
0.132373 0.132373 0.132373 0.132373 0.132373 0.132373 0.132373 0.132373 0.132373 0.132373 
0.132373 0.132373 0.132373 0.132373 0.132373 0.132373 0.132373 0.132373 0.132373 0.132373 
0.132373 0.132373 0.132373 0.132373 0.132373 0.132373 0.132373 0.132373 0.132373 0.132373 
0.132373 0.132373 0.132373 0.132373 0.132373 0.132373 0.132373 0.132373 0.132373 0.132373 
0.132373 0.132373 0.132373 0.132373 0.132373 0.132373 0.132373 0.132373 0.132373 0.132373 
0.132373 0.132373 0.132373 0.132373 0.132373 0.132373 0.132373 0.132373 0.132373 0.132373 
0.132373 0.132373 0.132373 0.132373 0.132373 0.132373 0.132373 0.132373 0.132373 0.132373 
0.132373 0.132373 0.132373 0.132373 0.132373 0.132373 0.132373 0.132373 0.132373 0.132373 
0.132373 0.132373 0.132373 0.132373 0.132373 0.132373 0.132373 0.132373 0.132373 0.132373 
0.132373 0.132373 0.132373 0.132373 0.132373 0.132373 0.132373 0.132373 0.132373 0.132373 
0.132373 0.132373 0.132373 0.132373 0.132373 0.132373 0.132373 0.132373 0.132373 0.132373 
0.132373 0.132373 0.132373 0.132373 0.132373 0.132373 0.132373 0.132373 0.132373 0.132373 
0.132373 0.132373 0.132373 0.132373 0.132373 0.132373 0.132373 0.132373 0.132373 0.132373 
0.132373 0.132373 0.132373 0.132373 0.132373 0.132373 0.132373 0.132373 0.132373 0.132373 
0.132373 0.132373 0.132373 0.132373 0.132373 0.132373 0.132373 0.132373 0.132373 0.132373 
0.132373 0.132373 0.132373 0.132373 0.132373 0.132373 0.132373 0.132373 0.132373 0.132373 
0.132373 0.132373 0.132373 0.132373 0.132373 0.132373 0.132373 0.132373 0.132373 0.132373 
0.132373 0.132373 0.132373 0.132373 0.132373 0.132373 0.132373 0.132373 0.132373 0.132373 
0.132373 0.132373 0.132373 0.132373 0.132373 0.132373 0.132373 0.132373 0.132373 0.132373 
0.132373 0.132373 0.132373 0.132373 0.132373 0.132373 0.132373 0.132373 0.132373 0.132373 
0.132373 0.132373 0.132373 0.132373 0.132373 0.132373 0.132373 0.132373 0.132373 0.132373 
0.132373 0.132373 0.132373 0.132373 0.132373 0.132373 0.132373 0.132373 0.132373 0.132373 
0.132373 0.132373 0.132373 0.132373 0.132373 0.132373 0.132373 0.132373 0.132373 0.132373 
0.132373 0.132373 0.132373 0.132373 0.132373 0.132373 0.132373 0.132373 0.132373 0.132373 
0.132373 0.132373 0.132373 0.132373 0.132373 0.132373 0.132373 0.132373 0.132373 0.132373 
0.132373 0.132373 0.132373 0.132373 0.132373 0.132373 0.132373 0.132373 0.132373 0.132373 
0.132373 0.132373 0.132373 0.132373 0.132373 0.132373 0.132373 0.132373 0.132373 0.132373 
0.132373 0.132373 0.132373 0.132373 0.132373 0.132373 0.132373 0.132373 0.132373 0.132373 
0.132373 0.132373 0.132373 0.132373 0.132373 0.132373 0.132373 0.132373 0.132373 0.132373 
0.132373 0.132373 0.132373 0.132373 0.132373 0.132373 0.132373 0.132373 0.132373 0.132373 
0.132373 0.132373 0.132373 0.132373 0.132373 0.132373 0.132373 0.132373 0.132373 0.132373 
0.132373 0.132373 0.132373 0.132373 0.132373 0.132373 0.132373 0.132373 0.132373 0.132373 
0.132373 0.132373 0.132373 0.132373 0.132373 0.132373 0.132373 0.132373 0.132373 0.132373 
0.132373 0.132373 0.132373 0.132373 0.132373 0.132373 0.132373 0.132373 0.132373 0.132373 
0.132373 0.132373 0.132373 0.132373 0.132373 0.132373 0.132373 0.132373 0.132373 0.132373 
0.132373 0.132373 0.132373 0.132373 0.132373 0.132373 0.132373 0.132373 0.132373 0.132373 
0.132373 0.132373 0.132373 0.132373 0.132373 0.132373 0.132373 0.132373 0.132373 0.132373 
0.132373 0.132373 0.132373 0.132373 0.132373 0.132373 0.132373 0.132373 0.132373 0.132373 
0.132373 0.132373 0.132373 0.132373 0.132373 0.132373 0.132373 0.132373 0.132373 0.132373 
0.132373 0.132373 0.132373 0.132373 0.132373 0.132373 0.132373 0.132373 0.132373 0.132373 
0.132373 0.132373 0.132373 0.132373 0.132373 0.132373 0.132373 0.132373 0.132373 0.132373 
0.132373 0.132373 0.132373 0.132373 0.132373 0.132373 0.132373 0.132373 0.132373 0.132373 
0.132373 0.132373 0.132373 0.132373 0.132373 0.132373 0.132373 0.132373 0.132373 0.132373 
0.132373 0.132373 0.132373 0.132373 0.132373 0.132373 0.132373 0.132373 0.132373 0.132373 
0.132373 0.132373 0.132373 0.132373 0.132373 0.132373 0.132373 0.132373 0.132373 0.132373 
0.132373 0.132373 0.132373 0.132373 0.132373 0.132373 0.132373 0.132373 0.132373 0.132373 
0.132373 0.132373 0.132373 0.132373 0.132373 0.132373 0.132373 0.132373 0.132373 0.132373 
0.132373 0.132373 0.132373 0.132373 0.132373 0.132373 0.132373 0.132373 0.132373 0.132373 
0.132373 0.132373 0.132373 0.132373 0.132373 0.132373 0.132373 0.132373 0.132373 0.132373 
0.132373 0.132373 0.132373 0.132373 0.132373 0.132373 0.132373 0.132373 0.132373 0.132373 
0.132373 0.132373 0.132373 0.132373 0.132373 0.132373 0.132373 0.132373 0.132373 0.132373 
0.132373 0.132373 0.132373 0.132373 0.132373 0.132373 0.132373 0.132373 0.132373 0.132373 
0.132373 0.132373 0.132373 0.132373 0.132373 0.132373 0.132373 0.132373 0.132373 0.132373 
0.132373 0.132373 0.132373 0.132373 0.132373 0.132373 0.132373 0.132373 0.132373 0.132373 
0.132373 0.132373 0.132373 0.132373 0.132373 0.132373 0.132373 0.132373 0.132373 0.132373 
0.132373 0.132373 0.132373 0.132373 0.132373 0.132373 0.132373 0.132373 0.132373 0.132373 
0.132373 0.132373 0.132373 0.132373 0.132373 0.132373 0.132373 0.132373 0.132373 0.132373 
0.132373 0.132373 0.132373 0.132373 0.132373 0.132373 0.132373 0.132373 0.132373 0.132373 
0.132373 0.132373 0.132373 0.132373 0.132373 0.132373 0.132373 0.132373 0.132373 0.132373 
0.132373 0.132373 0.132373 0.132373 0.132373 0.132373 0.132373 0.132373 0.132373 0.132373 
0.132373 SCALARS Roughness float 1
LOOKUP_TABLE default
95.5642 95.5642 95.5642 95.5642 95.5642 95.5642 95.5642 95.5642 95.5642 
95.5642 95.5642 95.5642 95.5642 95.5642 95.5642 95.5642 95.5642 95.5642 95.5642 
95.5642 95.5642 95.5642 95.5642 95.5642 95.5642 95.5642 95.5642 95.5642 95.5642 
95.5642 95.5642 95.5642 95.5642 95.5642 95.5642 95.5642 95.5642 95.5642 95.5642 
95.5642 95.5642 95.5642 95.5642 95.5642 95.5642 95.5642 95.5642 95.5642 95.5642 
95.5642 95.5642 95.5642 95.5642 95.5642 95.5642 95.5642 95.5642 95.5642 95.5642 
95.5642 95.5642 95.5642 95.5642 95.5642 95.5642 95.5642 95.5642 95.5642 95.5642 
95.5642 95.5642 95.5642 95.5642 95.5642 95.5642 95.5642 95.5642 95.5642 95.5642 
95.5642 95.5642 95.5642 95.5642 95.5642 95.5642 95.5642 95.5642 95.5642 95.5642 
95.5642 95.5642 95.5642 95.5642 95.5642 95.5642 95.5642 95.5642 95.5642 95.5642 
95.5642 95.5642 95.5642 95.5642 95.5642 95.5642 95.5642 95.5642 95.5642 95.5642 
95.5642 95.5642 95.5642 95.5642 95.5642 95.5642 95.5642 95.5642 95.5642 95.5642 
95.5642 95.5642 95.5642 95.5642 95.5642 95.5642 95.5642 95.5642 95.5642 95.5642 
95.5642 95.5642 95.5642 95.5642 95.5642 95.5642 95.5642 95.5642 95.5642 95.5642 
95.5642 95.5642 95.5642 95.5642 95.5642 95.5642 95.5642 95.5642 95.5642 95.5642 
95.5642 95.5642 95.5642 95.5642 95.5642 95.5642 95.5642 95.5642 95.5642 95.5642 
95.5642 95.5642 95.5642 95.5642 95.5642 95.5642 95.5642 95.5642 95.5642 95.5642 
95.5642 95.5642 95.5642 95.5642 95.5642 95.5642 95.5642 95.5642 95.5642 95.5642 
95.5642 95.5642 95.5642 95.5642 95.5642 95.5642 95.5642 95.5642 95.5642 95.5642 
95.5642 95.5642 95.5642 95.5642 95.5642 95.5642 95.5642 95.5642 95.5642 95.5642 
95.5642 95.5642 95.5642 95.5642 95.5642 95.5642 95.5642 95.5642 95.5642 95.5642 
95.5642 95.5642 95.5642 95.5642 95.5642 95.5642 95.5642 95.5642 95.5642 95.5642 
95.5642 95.5642 95.5642 95.5642 95.5642 95.5642 95.5642 95.5642 95.5642 95.5642 
95.5642 95.5642 95.5642 95.5642 95.5642 95.5642 95.5642 95.5642 95.5642 95.5642 
95.5642 95.5642 95.5642 95.5642 95.5642 95.5642 95.5642 95.5642 95.5642 95.5642 
95.5642 95.5642 95.5642 95.5642 95.5642 95.5642 95.5642 95.5642 95.5642 95.5642 
95.5642 95.5642 95.5642 95.5642 95.5642 95.5642 95.5642 95.5642 95.5642 95.5642 
95.5642 95.5642 95.5642 95.5642 95.5642 95.5642 95.5642 95.5642 95.5642 95.5642 
95.5642 95.5642 95.5642 95.5642 95.5642 95.5642 95.5642 95.5642 95.5642 95.5642 
95.5642 95.5642 95.5642 95.5642 95.5642 95.5642 95.5642 95.5642 95.5642 95.5642 
95.5642 95.5642 95.5642 95.5642 95.5642 95.5642 95.5642 95.5642 95.5642 95.5642 
95.5642 95.5642 95.5642 95.5642 95.5642 95.5642 95.5642 95.5642 95.5642 95.5642 
95.5642 95.5642 95.5642 95.5642 95.5642 95.5642 95.5642 95.5642 95.5642 95.5642 
95.5642 95.5642 95.5642 95.5642 95.5642 95.5642 95.5642 95.5642 95.5642 95.5642 
95.5642 95.5642 95.5642 95.5642 95.5642 95.5642 95.5642 95.5642 95.5642 95.5642 
95.5642 95.5642 95.5642 95.5642 95.5642 95.5642 95.5642 95.5642 95.5642 95.5642 
95.5642 95.5642 95.5642 95.5642 95.5642 95.5642 95.5642 95.5642 95.5642 95.5642 
95.5642 95.5642 95.5642 95.5642 95.5642 95.5642 95.5642 95.5642 95.5642 95.5642 
95.5642 95.5642 95.5642 95.5642 95.5642 95.5642 95.5642 95.5642 95.5642 95.5642 
95.5642 95.5642 95.5642 95.5642 95.5642 95.5642 95.5642 95.5642 95.5642 95.5642 
95.5642 95.5642 95.5642 95.5642 95.5642 95.5642 95.5642 95.5642 95.5642 95.5642 
95.5642 95.5642 95.5642 95.5642 95.5642 95.5642 95.5642 95.5642 95.5642 95.5642 
95.5642 95.5642 95.5642 95.5642 95.5642 95.5642 95.5642 95.5642 95.5642 95.5642 
95.5642 95.5642 95.5642 95.5642 95.5642 95.5642 95.5642 95.5642 95.5642 95.5642 
95.5642 95.5642 95.5642 95.5642 95.5642 95.5642 95.5642 95.5642 95.5642 95.5642 
95.5642 95.5642 95.5642 95.5642 95.5642 95.5642 95.5642 95.5642 95.5642 95.5642 
95.5642 95.5642 95.5642 95.5642 95.5642 95.5642 95.5642 95.5642 95.5642 95.5642 
95.5642 95.5642 95.5642 95.5642 95.5642 95.5642 95.5642 95.5642 95.5642 95.5642 
95.5642 95.5642 95.5642 95.5642 95.5642 95.5642 95.5642 95.5642 95.5642 95.5642 
95.5642 95.5642 95.5642 95.5642 95.5642 95.5642 95.5642 95.5642 95.5642 95.5642 
95.5642 95.5642 95.5642 95.5642 95.5642 95.5642 95.5642 95.5642 95.5642 95.5642 
95.5642 95.5642 95.5642 95.5642 95.5642 95.5642 95.5642 95.5642 95.5642 95.5642 
95.5642 95.5642 95.5642 95.5642 95.5642 95.5642 95.5642 95.5642 95.5642 95.5642 
95.5642 95.5642 95.5642 95.5642 95.5642 95.5642 95.5642 95.5642 95.5642 95.5642 
95.5642 95.5642 95.5642 95.5642 95.5642 95.5642 95.5642 95.5642 95.5642 95.5642 
95.5642 95.5642 95.5642 95.5642 95.5642 95.5642 95.5642 95.5642 95.5642 95.5642 
95.5642 95.5642 95.5642 95.5642 95.5642 95.5642 95.5642 95.5642 95.5642 95.5642 
95.5642 95.5642 95.5642 95.5642 95.5642 95.5642 95.5642 95.5642 95.5642 95.5642 
95.5642 95.5642 95.5642 95.5642 95.5642 95.5642 95.5642 95.5642 95.5642 95.5642 
95.5642 95.5642 95.5642 95.5642 95.5642 95.5642 95.5642 95.5642 95.5642 95.5642 
95.5642 95.5642 95.5642 95.5642 95.5642 95.5642 95.5642 95.5642 95.5642 95.5642 
95.5642 95.5642 95.5642 95.5642 95.5642 95.5642 95.5642 95.5642 95.5642 95.5642 
95.5642 95.5642 95.5642 95.5642 95.5642 95.5642 95.5642 95.5642 95.5642 95.5642 
95.5642 95.5642 95.5642 95.5642 95.5642 95.5642 95.5642 95.5642 95.5642 95.5642 
95.5642 95.5642 95.5642 95.5642 95.5642 95.5642 95.5642 95.5642 95.5642 95.5642 
95.5642 95.5642 95.5642 95.5642 95.5642 95.5642 95.5642 95.5642 95.5642 95.5642 
95.5642 95.5642 95.5642 95.5642 95.5642 95.5642 95.5642 95.5642 95.5642 95.5642 
95.5642 95.5642 95.5642 95.5642 95.5642 95.5642 95.5642 95.5642 95.5642 95.5642 
95.5642 95.5642 95.5642 95.5642 95.5642 95.5642 95.5642 95.5642 95.5642 95.5642 
95.5642 95.5642 95.5642 95.5642 95.5642 95.5642 95.5642 95.5642 95.5642 95.5642 
95.5642 95.5642 95.5642 95.5642 95.5642 95.5642 95.5642 95.5642 95.5642 95.5642 
95.5642 95.5642 95.5642 95.5642 95.5642 95.5642 95.5642 95.5642 95.5642 95.5642 
95.5642 95.5642 95.5642 95.5642 95.5642 95.5642 95.5642 95.5642 95.5642 95.5642 
95.5642 95.5642 95.5642 95.5642 95.5642 95.5642 95.5642 95.5642 95.5642 95.5642 
95.5642 95.5642 95.5642 95.5642 95.5642 95.5642 95.5642 95.5642 95.5642 95.5642 
95.5642 95.5642 95.5642 95.5642 95.5642 95.5642 95.5642 95.5642 95.5642 95.5642 
95.5642 95.5642 95.5642 95.5642 95.5642 95.5642 95.5642 95.5642 95.5642 95.5642 
95.5642 95.5642 95.5642 95.5642 95.5642 95.5642 95.5642 95.5642 95.5642 95.5642 
95.5642 95.5642 95.5642 95.5642 95.5642 95.5642 95.5642 95.5642 95.5642 95.5642 
95.5642 95.5642 95.5642 95.5642 95.5642 95.5642 95.5642 95.5642 95.5642 95.5642 
95.5642 SCALARS Outer_Radius float 1
LOOKUP_TABLE default
0.16934 0.16934 0.16934 0.16934 0.16934 0.16934 0.16934 0.16934 0.16934 
0.16934 0.16934 0.16934 0.16934 0.16934 0.16934 0.16934 0.16934 0.16934 0.16934 
0.16934 0.16934 0.16934 0.16934 0.16934 0.16934 0.16934 0.16934 0.16934 0.16934 
0.16934 0.16934 0.16934 0.16934 0.16934 0.16934 0.16934 0.16934 0.16934 0.16934 
0.16934 0.16934 0.16934 0.16934 0.16934 0.16934 0.16934 0.16934 0.16934 0.16934 
0.16934 0.16934 0.16934 0.16934 0.16934 0.16934 0.16934 0.16934 0.16934 0.16934 
0.16934 0.16934 0.16934 0.16934 0.16934 0.16934 0.16934 0.16934 0.16934 0.16934 
0.16934 0.16934 0.16934 0.16934 0.16934 0.16934 0.16934 0.16934 0.16934 0.16934 
0.16934 0.16934 0.16934 0.16934 0.16934 0.16934 0.16934 0.16934 0.16934 0.16934 
0.16934 0.16934 0.16934 0.16934 0.16934 0.16934 0.16934 0.16934 0.16934 0.16934 
0.16934 0.16934 0.16934 0.16934 0.16934 0.16934 0.16934 0.16934 0.16934 0.16934 
0.16934 0.16934 0.16934 0.16934 0.16934 0.16934 0.16934 0.16934 0.16934 0.16934 
0.16934 0.16934 0.16934 0.16934 0.16934 0.16934 0.16934 0.16934 0.16934 0.16934 
0.16934 0.16934 0.16934 0.16934 0.16934 0.16934 0.16934 0.16934 0.16934 0.16934 
0.16934 0.16934 0.16934 0.16934 0.16934 0.16934 0.16934 0.16934 0.16934 0.16934 
0.16934 0.16934 0.16934 0.16934 0.16934 0.16934 0.16934 0.16934 0.16934 0.16934 
0.16934 0.16934 0.16934 0.16934 0.16934 0.16934 0.16934 0.16934 0.16934 0.16934 
0.16934 0.16934 0.16934 0.16934 0.16934 0.16934 0.16934 0.16934 0.16934 0.16934 
0.16934 0.16934 0.16934 0.16934 0.16934 0.16934 0.16934 0.16934 0.16934 0.16934 
0.16934 0.16934 0.16934 0.16934 0.16934 0.16934 0.16934 0.16934 0.16934 0.16934 
0.16934 0.16934 0.16934 0.16934 0.16934 0.16934 0.16934 0.16934 0.16934 0.16934 
0.16934 0.16934 0.16934 0.16934 0.16934 0.16934 0.16934 0.16934 0.16934 0.16934 
0.16934 0.16934 0.16934 0.16934 0.16934 0.16934 0.16934 0.16934 0.16934 0.16934 
0.16934 0.16934 0.16934 0.16934 0.16934 0.16934 0.16934 0.16934 0.16934 0.16934 
0.16934 0.16934 0.16934 0.16934 0.16934 0.16934 0.16934 0.16934 0.16934 0.16934 
0.16934 0.16934 0.16934 0.16934 0.16934 0.16934 0.16934 0.16934 0.16934 0.16934 
0.16934 0.16934 0.16934 0.16934 0.16934 0.16934 0.16934 0.16934 0.16934 0.16934 
0.16934 0.16934 0.16934 0.16934 0.16934 0.16934 0.16934 0.16934 0.16934 0.16934 
0.16934 0.16934 0.16934 0.16934 0.16934 0.16934 0.16934 0.16934 0.16934 0.16934 
0.16934 0.16934 0.16934 0.16934 0.16934 0.16934 0.16934 0.16934 0.16934 0.16934 
0.16934 0.16934 0.16934 0.16934 0.16934 0.16934 0.16934 0.16934 0.16934 0.16934 
0.16934 0.16934 0.16934 0.16934 0.16934 0.16934 0.16934 0.16934 0.16934 0.16934 
0.16934 0.16934 0.16934 0.16934 0.16934 0.16934 0.16934 0.16934 0.16934 0.16934 
0.16934 0.16934 0.16934 0.16934 0.16934 0.16934 0.16934 0.16934 0.16934 0.16934 
0.16934 0.16934 0.16934 0.16934 0.16934 0.16934 0.16934 0.16934 0.16934 0.16934 
0.16934 0.16934 0.16934 0.16934 0.16934 0.16934 0.16934 0.16934 0.16934 0.16934 
0.16934 0.16934 0.16934 0.16934 0.16934 0.16934 0.16934 0.16934 0.16934 0.16934 
0.16934 0.16934 0.16934 0.16934 0.16934 0.16934 0.16934 0.16934 0.16934 0.16934 
0.16934 0.16934 0.16934 0.16934 0.16934 0.16934 0.16934 0.16934 0.16934 0.16934 
0.16934 0.16934 0.16934 0.16934 0.16934 0.16934 0.16934 0.16934 0.16934 0.16934 
0.16934 0.16934 0.16934 0.16934 0.16934 0.16934 0.16934 0.16934 0.16934 0.16934 
0.16934 0.16934 0.16934 0.16934 0.16934 0.16934 0.16934 0.16934 0.16934 0.16934 
0.16934 0.16934 0.16934 0.16934 0.16934 0.16934 0.16934 0.16934 0.16934 0.16934 
0.16934 0.16934 0.16934 0.16934 0.16934 0.16934 0.16934 0.16934 0.16934 0.16934 
0.16934 0.16934 0.16934 0.16934 0.16934 0.16934 0.16934 0.16934 0.16934 0.16934 
0.16934 0.16934 0.16934 0.16934 0.16934 0.16934 0.16934 0.16934 0.16934 0.16934 
0.16934 0.16934 0.16934 0.16934 0.16934 0.16934 0.16934 0.16934 0.16934 0.16934 
0.16934 0.16934 0.16934 0.16934 0.16934 0.16934 0.16934 0.16934 0.16934 0.16934 
0.16934 0.16934 0.16934 0.16934 0.16934 0.16934 0.16934 0.16934 0.16934 0.16934 
0.16934 0.16934 0.16934 0.16934 0.16934 0.16934 0.16934 0.16934 0.16934 0.16934 
0.16934 0.16934 0.16934 0.16934 0.16934 0.16934 0.16934 0.16934 0.16934 0.16934 
0.16934 0.16934 0.16934 0.16934 0.16934 0.16934 0.16934 0.16934 0.16934 0.16934 
0.16934 0.16934 0.16934 0.16934 0.16934 0.16934 0.16934 0.16934 0.16934 0.16934 
0.16934 0.16934 0.16934 0.16934 0.16934 0.16934 0.16934 0.16934 0.16934 0.16934 
0.16934 0.16934 0.16934 0.16934 0.16934 0.16934 0.16934 0.16934 0.16934 0.16934 
0.16934 0.16934 0.16934 0.16934 0.16934 0.16934 0.16934 0.16934 0.16934 0.16934 
0.16934 0.16934 0.16934 0.16934 0.16934 0.16934 0.16934 0.16934 0.16934 0.16934 
0.16934 0.16934 0.16934 0.16934 0.16934 0.16934 0.16934 0.16934 0.16934 0.16934 
0.16934 0.16934 0.16934 0.16934 0.16934 0.16934 0.16934 0.16934 0.16934 0.16934 
0.16934 0.16934 0.16934 0.16934 0.16934 0.16934 0.16934 0.16934 0.16934 0.16934 
0.16934 0.16934 0.16934 0.16934 0.16934 0.16934 0.16934 0.16934 0.16934 0.16934 
0.16934 0.16934 0.16934 0.16934 0.16934 0.16934 0.16934 0.16934 0.16934 0.16934 
0.16934 0.16934 0.16934 0.16934 0.16934 0.16934 0.16934 0.16934 0.16934 0.16934 
0.16934 0.16934 0.16934 0.16934 0.16934 0.16934 0.16934 0.16934 0.16934 0.16934 
0.16934 0.16934 0.16934 0.16934 0.16934 0.16934 0.16934 0.16934 0.16934 0.16934 
0.16934 0.16934 0.16934 0.16934 0.16934 0.16934 0.16934 0.16934 0.16934 0.16934 
0.16934 0.16934 0.16934 0.16934 0.16934 0.16934 0.16934 0.16934 0.16934 0.16934 
0.16934 0.16934 0.16934 0.16934 0.16934 0.16934 0.16934 0.16934 0.16934 0.16934 
0.16934 0.16934 0.16934 0.16934 0.16934 0.16934 0.16934 0.16934 0.16934 0.16934 
0.16934 0.16934 0.16934 0.16934 0.16934 0.16934 0.16934 0.16934 0.16934 0.16934 
0.16934 0.16934 0.16934 0.16934 0.16934 0.16934 0.16934 0.16934 0.16934 0.16934 
0.16934 0.16934 0.16934 0.16934 0.16934 0.16934 0.16934 0.16934 0.16934 0.16934 
0.16934 0.16934 0.16934 0.16934 0.16934 0.16934 0.16934 0.16934 0.16934 0.16934 
0.16934 0.16934 0.16934 0.16934 0.16934 0.16934 0.16934 0.16934 0.16934 0.16934 
0.16934 0.16934 0.16934 0.16934 0.16934 0.16934 0.16934 0.16934 0.16934 0.16934 
0.16934 0.16934 0.16934 0.16934 0.16934 0.16934 0.16934 0.16934 0.16934 0.16934 
0.16934 0.16934 0.16934 0.16934 0.16934 0.16934 0.16934 0.16934 0.16934 0.16934 
0.16934 0.16934 0.16934 0.16934 0.16934 0.16934 0.16934 0.16934 0.16934 0.16934 
0.16934 0.16934 0.16934 0.16934 0.16934 0.16934 0.16934 0.16934 0.16934 0.16934 
0.16934 0.16934 0.16934 0.16934 0.16934 0.16934 0.16934 0.16934 0.16934 0.16934 
0.16934 
