# vtk DataFile Version 2.0
vtkObjects
ASCII
DATASET UNSTRUCTURED_GRID
POINTS 300 float
-239.617 10.6696 -189.221
-239.657 10.6759 -189.223
-245.736 -26.9955 -186.823
-245.775 -26.9892 -186.824
-251.954 -64.0353 -179.664
-251.994 -64.029 -179.666
-258.174 -99.8656 -167.86
-258.213 -99.8593 -167.861
-264.297 -133.921 -151.594
-264.336 -133.915 -151.596
-270.226 -165.666 -131.125
-270.266 -165.659 -131.126
-275.869 -194.598 -106.774
-275.909 -194.591 -106.776
-281.136 -220.261 -78.9265
-281.176 -220.255 -78.9282
-285.945 -242.251 -48.0208
-285.984 -242.245 -48.0225
-290.218 -260.222 -14.5446
-290.258 -260.215 -14.5462
-293.89 -273.889 20.9743
-293.929 -273.882 20.9726
-296.901 -283.036 57.9756
-296.941 -283.03 57.974
-299.205 -287.521 95.8759
-299.245 -287.515 95.8742
-300.766 -287.272 134.077
-300.805 -287.265 134.076
-301.558 -282.292 171.978
-301.597 -282.286 171.976
-301.569 -272.662 208.979
-301.608 -272.655 208.977
-300.799 -258.531 244.498
-300.838 -258.525 244.496
-299.26 -240.124 277.974
-299.299 -240.118 277.972
-296.976 -217.73 308.88
-297.015 -217.724 308.878
-293.984 -191.703 336.727
-294.023 -191.697 336.726
-290.33 -162.453 361.078
-290.369 -162.447 361.076
-286.072 -130.442 381.547
-286.112 -130.436 381.546
-281.278 -96.1739 397.813
-281.318 -96.1676 397.811
-276.023 -60.1895 409.618
-276.062 -60.1832 409.616
-270.389 -23.0563 416.776
-270.429 -23.05 416.774
-264.467 14.6401 419.175
-264.506 14.6464 419.173
-258.348 52.3052 416.776
-258.387 52.3115 416.774
-252.13 89.345 409.618
-252.169 89.3513 409.616
-245.91 125.175 397.813
-245.949 125.182 397.811
-239.787 159.231 381.547
-239.827 159.237 381.546
-233.857 190.975 361.078
-233.897 190.982 361.076
-228.215 219.907 336.727
-228.254 219.914 336.726
-222.947 245.571 308.88
-222.987 245.577 308.878
-218.139 267.561 277.974
-218.179 267.567 277.972
-213.866 285.531 244.498
-213.905 285.538 244.496
-210.194 299.198 208.979
-210.234 299.205 208.977
-207.183 308.346 171.978
-207.222 308.352 171.976
-204.878 312.831 134.077
-204.918 312.837 134.076
-203.318 312.581 95.8759
-203.358 312.588 95.8742
-202.526 307.602 57.9756
-202.566 307.608 57.974
-202.515 297.971 20.9743
-202.555 297.978 20.9726
-203.285 283.841 -14.5446
-203.325 283.847 -14.5462
-204.824 265.434 -48.0208
-204.864 265.44 -48.0225
-207.108 243.04 -78.9265
-207.147 243.046 -78.9282
-210.1 217.013 -106.774
-210.14 217.019 -106.776
-213.754 187.763 -131.125
-213.793 187.769 -131.126
-218.011 155.752 -151.594
-218.051 155.758 -151.596
-222.806 121.484 -167.86
-222.845 121.49 -167.861
-228.061 85.4992 -179.664
-228.1 85.5055 -179.666
-233.694 48.366 -186.823
-233.734 48.3723 -186.824
0.34222 -53.3548 -304.128
0.302785 -53.3484 -304.13
-5.91284 -90.9976 -301.73
-5.95228 -90.9911 -301.732
-12.2896 -128.011 -294.573
-12.3291 -128.004 -294.575
-18.6876 -163.81 -282.771
-18.7271 -163.804 -282.773
-25.0059 -197.832 -266.509
-25.0453 -197.826 -266.511
-31.1447 -229.54 -246.044
-31.1842 -229.533 -246.046
-37.0074 -258.433 -221.699
-37.0469 -258.426 -221.701
-42.5015 -284.056 -193.858
-42.5409 -284.049 -193.86
-47.5403 -306.004 -162.959
-47.5797 -305.998 -162.961
-52.0443 -323.932 -129.491
-52.0837 -323.926 -129.493
-55.9425 -337.557 -93.98
-55.982 -337.551 -93.9819
-59.1735 -346.664 -56.9871
-59.213 -346.658 -56.989
-61.6863 -351.11 -19.0955
-61.7257 -351.103 -19.0973
-63.4412 -350.823 19.0973
-63.4806 -350.817 19.0955
-64.4106 -345.81 56.989
-64.4501 -345.803 56.9871
-64.5792 -336.148 93.9819
-64.6187 -336.142 93.98
-63.9444 -321.99 129.493
-63.9838 -321.984 129.491
-62.5161 -303.561 162.961
-62.5555 -303.554 162.959
-60.3168 -281.149 193.86
-60.3563 -281.142 193.858
-57.3813 -255.108 221.701
-57.4208 -255.102 221.699
-53.7559 -225.85 246.046
-53.7953 -225.844 246.044
-49.4977 -193.836 266.511
-49.5371 -193.83 266.509
-44.6739 -159.57 282.773
-44.7133 -159.564 282.771
-39.3605 -123.594 294.575
-39.3999 -123.587 294.573
-33.6414 -86.4733 301.732
-33.6808 -86.4668 301.73
-27.6067 -48.7946 304.13
-27.6461 -48.7881 304.128
-21.3516 -11.1518 301.732
-21.3911 -11.1454 301.73
-14.9748 25.8613 294.575
-15.0143 25.8677 294.573
-8.57687 61.6611 282.773
-8.6163 61.6675 282.771
-2.25862 95.683 266.511
-2.29805 95.6894 266.509
3.88026 127.39 246.046
3.84083 127.397 246.044
9.74296 156.283 221.701
9.70353 156.29 221.699
15.237 181.906 193.86
15.1976 181.913 193.858
20.2758 203.855 162.961
20.2364 203.861 162.959
24.7798 221.783 129.493
24.7404 221.789 129.491
28.6781 235.408 93.9819
28.6386 235.414 93.98
31.909 244.515 56.989
31.8696 244.521 56.9871
34.4218 248.96 19.0973
34.3824 248.967 19.0955
36.1767 248.674 -19.0955
36.1373 248.68 -19.0973
37.1461 243.66 -56.9871
37.1067 243.667 -56.989
37.3147 233.999 -93.98
37.2753 234.005 -93.9819
36.6799 219.841 -129.491
36.6404 219.848 -129.493
35.2516 201.411 -162.959
35.2121 201.418 -162.961
33.0523 178.999 -193.858
33.0129 179.006 -193.86
30.1169 152.959 -221.699
30.0774 152.965 -221.701
26.4914 123.701 -246.044
26.452 123.708 -246.046
22.2332 91.6868 -266.509
22.1938 91.6932 -266.511
17.4094 57.4211 -282.771
17.37 57.4275 -282.773
12.096 21.4443 -294.573
12.0566 21.4507 -294.575
6.3769 -15.6761 -301.73
6.33746 -15.6697 -301.732
241.611 -117.411 -418.956
241.571 -117.405 -418.958
235.638 -155.1 -416.559
235.598 -155.094 -416.561
229.493 -192.153 -409.406
229.454 -192.147 -409.408
223.274 -227.986 -397.609
223.235 -227.98 -397.612
217.079 -262.034 -381.356
217.04 -262.028 -381.358
211.006 -293.761 -360.901
210.966 -293.755 -360.903
205.149 -322.665 -336.568
205.11 -322.659 -336.57
199.603 -348.291 -308.74
199.563 -348.285 -308.742
194.453 -370.235 -277.856
194.413 -370.229 -277.858
189.781 -388.15 -244.404
189.742 -388.144 -244.406
185.661 -401.755 -208.91
185.622 -401.749 -208.912
182.159 -410.834 -171.935
182.119 -410.828 -171.937
179.328 -415.245 -134.062
179.288 -415.239 -134.064
177.214 -414.918 -95.8876
177.175 -414.912 -95.8898
175.85 -409.857 -58.0143
175.811 -409.851 -58.0165
175.258 -400.144 -21.0393
175.218 -400.138 -21.0415
175.447 -385.93 14.4542
175.407 -385.924 14.452
176.413 -367.441 47.9066
176.374 -367.435 47.9044
178.143 -344.967 78.7903
178.103 -344.961 78.788
180.608 -318.864 106.618
180.568 -318.858 106.616
183.769 -289.542 130.951
183.73 -289.536 130.949
187.577 -257.465 151.406
187.538 -257.459 151.404
191.972 -223.138 167.66
191.933 -223.132 167.658
196.885 -187.102 179.456
196.845 -187.096 179.454
202.237 -149.927 186.61
202.197 -149.921 186.607
207.944 -112.197 189.007
207.905 -112.191 189.004
213.917 -74.5084 186.61
213.878 -74.5022 186.607
220.062 -37.4553 179.456
220.022 -37.4492 179.454
226.28 -1.62201 167.66
226.241 -1.6159 167.658
232.475 32.4263 151.406
232.436 32.4324 151.404
238.549 64.1527 130.951
238.51 64.1588 130.949
244.405 93.0568 106.618
244.366 93.063 106.616
249.952 118.683 78.7903
249.913 118.689 78.788
255.102 140.627 47.9066
255.063 140.633 47.9044
259.774 158.542 14.4542
259.734 158.548 14.452
263.894 172.147 -21.0393
263.854 172.153 -21.0415
267.396 181.226 -58.0143
267.357 181.232 -58.0165
270.227 185.637 -95.8876
270.188 185.643 -95.8898
272.341 185.31 -134.062
272.301 185.316 -134.064
273.705 180.249 -171.935
273.665 180.255 -171.937
274.297 170.536 -208.91
274.257 170.542 -208.912
274.108 156.322 -244.404
274.069 156.328 -244.406
273.141 137.833 -277.856
273.102 137.839 -277.858
271.412 115.359 -308.74
271.373 115.365 -308.742
268.947 89.2559 -336.568
268.908 89.262 -336.57
265.786 59.9343 -360.901
265.746 59.9405 -360.903
261.977 27.8571 -381.356
261.938 27.8632 -381.358
257.583 -6.47003 -397.609
257.543 -6.46392 -397.612
252.67 -42.5056 -409.406
252.631 -42.4995 -409.408
247.318 -79.6814 -416.559
247.279 -79.6753 -416.561
CELLS 588 2352
3 19 16 18
3 19 16 17
3 13 10 12
3 13 10 11
3 9 10 11
3 9 10 8
3 20 19 21
3 20 19 18
3 23 22 24
3 23 25 24
3 23 20 22
3 23 20 21
3 97 94 96
3 97 94 95
3 87 84 86
3 87 84 85
3 87 88 86
3 87 88 89
3 43 40 42
3 43 40 41
3 39 40 41
3 39 40 38
3 44 43 45
3 44 43 42
3 33 32 34
3 33 34 35
3 57 54 56
3 57 54 55
3 57 58 56
3 57 58 59
3 63 64 62
3 63 64 65
3 3 2 4
3 3 4 5
3 3 2 0
3 3 1 0
3 15 16 17
3 15 16 14
3 15 14 12
3 15 13 12
3 7 4 6
3 7 4 5
3 7 8 6
3 7 9 8
3 93 94 92
3 93 94 95
3 90 93 91
3 90 93 92
3 90 91 89
3 90 88 89
3 37 34 36
3 37 34 35
3 37 38 36
3 37 39 38
3 48 49 51
3 48 51 50
3 47 44 46
3 47 44 45
3 47 48 46
3 47 48 49
3 31 28 30
3 31 28 29
3 31 32 30
3 31 33 32
3 26 25 24
3 26 27 25
3 26 27 29
3 26 28 29
3 52 53 51
3 52 51 50
3 52 53 55
3 52 54 55
3 99 1 0
3 99 98 0
3 99 97 96
3 99 98 96
3 83 84 85
3 83 82 84
3 73 72 74
3 73 74 75
3 67 64 65
3 67 66 64
3 67 66 68
3 67 69 68
3 61 58 59
3 61 60 58
3 61 63 62
3 61 60 62
3 81 78 80
3 81 78 79
3 81 82 80
3 81 83 82
3 76 77 75
3 76 74 75
3 76 77 79
3 76 78 79
3 70 32 30
3 70 14 12
3 70 48 50
3 70 16 18
3 70 82 80
3 70 34 36
3 70 2 0
3 70 66 68
3 70 22 24
3 70 38 36
3 70 26 24
3 70 8 6
3 70 52 50
3 70 84 86
3 70 88 86
3 70 90 92
3 70 64 62
3 70 4 6
3 70 16 14
3 70 10 12
3 70 20 18
3 70 94 92
3 70 40 42
3 70 32 34
3 70 28 30
3 70 54 56
3 70 44 42
3 70 2 4
3 70 10 8
3 70 20 22
3 70 94 96
3 70 98 0
3 70 60 62
3 70 40 38
3 70 44 46
3 70 72 74
3 70 58 56
3 70 98 96
3 70 82 84
3 70 78 80
3 70 90 88
3 70 48 46
3 70 26 28
3 70 52 54
3 70 76 74
3 70 66 64
3 70 60 58
3 70 76 78
3 71 23 25
3 71 37 35
3 71 77 75
3 71 83 85
3 71 97 95
3 71 53 55
3 71 15 17
3 71 19 17
3 71 43 45
3 71 33 35
3 71 27 25
3 71 63 65
3 71 3 5
3 71 19 21
3 71 7 5
3 71 87 85
3 71 93 95
3 71 57 55
3 71 13 11
3 71 9 11
3 71 23 21
3 71 31 29
3 71 99 1
3 71 91 89
3 71 87 89
3 71 43 41
3 71 39 41
3 71 49 51
3 71 47 45
3 71 27 29
3 71 53 51
3 71 73 75
3 71 57 59
3 71 67 65
3 71 3 1
3 71 15 13
3 71 7 9
3 71 93 91
3 71 37 39
3 71 47 49
3 71 31 33
3 71 99 97
3 71 61 59
3 71 77 79
3 71 81 79
3 71 67 69
3 71 61 63
3 71 81 83
3 71 69 68
3 71 70 68
3 71 73 72
3 71 70 72
3 119 116 118
3 119 116 117
3 113 110 112
3 113 110 111
3 109 110 111
3 109 110 108
3 120 119 121
3 120 119 118
3 123 122 124
3 123 125 124
3 123 120 122
3 123 120 121
3 197 194 196
3 197 194 195
3 187 184 186
3 187 184 185
3 187 188 186
3 187 188 189
3 143 140 142
3 143 140 141
3 139 140 141
3 139 140 138
3 144 143 145
3 144 143 142
3 133 132 134
3 133 134 135
3 157 154 156
3 157 154 155
3 157 158 156
3 157 158 159
3 163 164 162
3 163 164 165
3 103 102 104
3 103 104 105
3 103 102 100
3 103 101 100
3 115 116 117
3 115 116 114
3 115 114 112
3 115 113 112
3 107 104 106
3 107 104 105
3 107 108 106
3 107 109 108
3 193 194 192
3 193 194 195
3 190 193 191
3 190 193 192
3 190 191 189
3 190 188 189
3 137 134 136
3 137 134 135
3 137 138 136
3 137 139 138
3 148 149 151
3 148 151 150
3 147 144 146
3 147 144 145
3 147 148 146
3 147 148 149
3 131 128 130
3 131 128 129
3 131 132 130
3 131 133 132
3 126 125 124
3 126 127 125
3 126 127 129
3 126 128 129
3 152 153 151
3 152 151 150
3 152 153 155
3 152 154 155
3 199 101 100
3 199 198 100
3 199 197 196
3 199 198 196
3 183 184 185
3 183 182 184
3 173 172 174
3 173 174 175
3 167 164 165
3 167 166 164
3 167 166 168
3 167 169 168
3 161 158 159
3 161 160 158
3 161 163 162
3 161 160 162
3 181 178 180
3 181 178 179
3 181 182 180
3 181 183 182
3 176 177 175
3 176 174 175
3 176 177 179
3 176 178 179
3 170 132 130
3 170 114 112
3 170 148 150
3 170 116 118
3 170 182 180
3 170 134 136
3 170 102 100
3 170 166 168
3 170 122 124
3 170 138 136
3 170 126 124
3 170 108 106
3 170 152 150
3 170 184 186
3 170 188 186
3 170 190 192
3 170 164 162
3 170 104 106
3 170 116 114
3 170 110 112
3 170 120 118
3 170 194 192
3 170 140 142
3 170 132 134
3 170 128 130
3 170 154 156
3 170 144 142
3 170 102 104
3 170 110 108
3 170 120 122
3 170 194 196
3 170 198 100
3 170 160 162
3 170 140 138
3 170 144 146
3 170 172 174
3 170 158 156
3 170 198 196
3 170 182 184
3 170 178 180
3 170 190 188
3 170 148 146
3 170 126 128
3 170 152 154
3 170 176 174
3 170 166 164
3 170 160 158
3 170 176 178
3 171 123 125
3 171 137 135
3 171 177 175
3 171 183 185
3 171 197 195
3 171 153 155
3 171 115 117
3 171 119 117
3 171 143 145
3 171 133 135
3 171 127 125
3 171 163 165
3 171 103 105
3 171 119 121
3 171 107 105
3 171 187 185
3 171 193 195
3 171 157 155
3 171 113 111
3 171 109 111
3 171 123 121
3 171 131 129
3 171 199 101
3 171 191 189
3 171 187 189
3 171 143 141
3 171 139 141
3 171 149 151
3 171 147 145
3 171 127 129
3 171 153 151
3 171 173 175
3 171 157 159
3 171 167 165
3 171 103 101
3 171 115 113
3 171 107 109
3 171 193 191
3 171 137 139
3 171 147 149
3 171 131 133
3 171 199 197
3 171 161 159
3 171 177 179
3 171 181 179
3 171 167 169
3 171 161 163
3 171 181 183
3 171 169 168
3 171 170 168
3 171 173 172
3 171 170 172
3 219 216 218
3 219 216 217
3 213 210 212
3 213 210 211
3 209 210 211
3 209 210 208
3 220 219 221
3 220 219 218
3 223 222 224
3 223 225 224
3 223 220 222
3 223 220 221
3 297 294 296
3 297 294 295
3 287 284 286
3 287 284 285
3 287 288 286
3 287 288 289
3 243 240 242
3 243 240 241
3 239 240 241
3 239 240 238
3 244 243 245
3 244 243 242
3 233 232 234
3 233 234 235
3 257 254 256
3 257 254 255
3 257 258 256
3 257 258 259
3 263 264 262
3 263 264 265
3 203 202 204
3 203 204 205
3 203 202 200
3 203 201 200
3 215 216 217
3 215 216 214
3 215 214 212
3 215 213 212
3 207 204 206
3 207 204 205
3 207 208 206
3 207 209 208
3 293 294 292
3 293 294 295
3 290 293 291
3 290 293 292
3 290 291 289
3 290 288 289
3 237 234 236
3 237 234 235
3 237 238 236
3 237 239 238
3 248 249 251
3 248 251 250
3 247 244 246
3 247 244 245
3 247 248 246
3 247 248 249
3 231 228 230
3 231 228 229
3 231 232 230
3 231 233 232
3 226 225 224
3 226 227 225
3 226 227 229
3 226 228 229
3 252 253 251
3 252 251 250
3 252 253 255
3 252 254 255
3 299 201 200
3 299 298 200
3 299 297 296
3 299 298 296
3 283 284 285
3 283 282 284
3 273 272 274
3 273 274 275
3 267 264 265
3 267 266 264
3 267 266 268
3 267 269 268
3 261 258 259
3 261 260 258
3 261 263 262
3 261 260 262
3 281 278 280
3 281 278 279
3 281 282 280
3 281 283 282
3 276 277 275
3 276 274 275
3 276 277 279
3 276 278 279
3 270 232 230
3 270 214 212
3 270 248 250
3 270 216 218
3 270 282 280
3 270 234 236
3 270 202 200
3 270 266 268
3 270 222 224
3 270 238 236
3 270 226 224
3 270 208 206
3 270 252 250
3 270 284 286
3 270 288 286
3 270 290 292
3 270 264 262
3 270 204 206
3 270 216 214
3 270 210 212
3 270 220 218
3 270 294 292
3 270 240 242
3 270 232 234
3 270 228 230
3 270 254 256
3 270 244 242
3 270 202 204
3 270 210 208
3 270 220 222
3 270 294 296
3 270 298 200
3 270 260 262
3 270 240 238
3 270 244 246
3 270 272 274
3 270 258 256
3 270 298 296
3 270 282 284
3 270 278 280
3 270 290 288
3 270 248 246
3 270 226 228
3 270 252 254
3 270 276 274
3 270 266 264
3 270 260 258
3 270 276 278
3 271 223 225
3 271 237 235
3 271 277 275
3 271 283 285
3 271 297 295
3 271 253 255
3 271 215 217
3 271 219 217
3 271 243 245
3 271 233 235
3 271 227 225
3 271 263 265
3 271 203 205
3 271 219 221
3 271 207 205
3 271 287 285
3 271 293 295
3 271 257 255
3 271 213 211
3 271 209 211
3 271 223 221
3 271 231 229
3 271 299 201
3 271 291 289
3 271 287 289
3 271 243 241
3 271 239 241
3 271 249 251
3 271 247 245
3 271 227 229
3 271 253 251
3 271 273 275
3 271 257 259
3 271 267 265
3 271 203 201
3 271 215 213
3 271 207 209
3 271 293 291
3 271 237 239
3 271 247 249
3 271 231 233
3 271 299 297
3 271 261 259
3 271 277 279
3 271 281 279
3 271 267 269
3 271 261 263
3 271 281 283
3 271 269 268
3 271 270 268
3 271 273 272
3 271 270 272
CELL_TYPES 588
5 5 5 5 5 5 5 5 5 5 
5 5 5 5 5 5 5 5 5 5 
5 5 5 5 5 5 5 5 5 5 
5 5 5 5 5 5 5 5 5 5 
5 5 5 5 5 5 5 5 5 5 
5 5 5 5 5 5 5 5 5 5 
5 5 5 5 5 5 5 5 5 5 
5 5 5 5 5 5 5 5 5 5 
5 5 5 5 5 5 5 5 5 5 
5 5 5 5 5 5 5 5 5 5 
5 5 5 5 5 5 5 5 5 5 
5 5 5 5 5 5 5 5 5 5 
5 5 5 5 5 5 5 5 5 5 
5 5 5 5 5 5 5 5 5 5 
5 5 5 5 5 5 5 5 5 5 
5 5 5 5 5 5 5 5 5 5 
5 5 5 5 5 5 5 5 5 5 
5 5 5 5 5 5 5 5 5 5 
5 5 5 5 5 5 5 5 5 5 
5 5 5 5 5 5 5 5 5 5 
5 5 5 5 5 5 5 5 5 5 
5 5 5 5 5 5 5 5 5 5 
5 5 5 5 5 5 5 5 5 5 
5 5 5 5 5 5 5 5 5 5 
5 5 5 5 5 5 5 5 5 5 
5 5 5 5 5 5 5 5 5 5 
5 5 5 5 5 5 5 5 5 5 
5 5 5 5 5 5 5 5 5 5 
5 5 5 5 5 5 5 5 5 5 
5 5 5 5 5 5 5 5 5 5 
5 5 5 5 5 5 5 5 5 5 
5 5 5 5 5 5 5 5 5 5 
5 5 5 5 5 5 5 5 5 5 
5 5 5 5 5 5 5 5 5 5 
5 5 5 5 5 5 5 5 5 5 
5 5 5 5 5 5 5 5 5 5 
5 5 5 5 5 5 5 5 5 5 
5 5 5 5 5 5 5 5 5 5 
5 5 5 5 5 5 5 5 5 5 
5 5 5 5 5 5 5 5 5 5 
5 5 5 5 5 5 5 5 5 5 
5 5 5 5 5 5 5 5 5 5 
5 5 5 5 5 5 5 5 5 5 
5 5 5 5 5 5 5 5 5 5 
5 5 5 5 5 5 5 5 5 5 
5 5 5 5 5 5 5 5 5 5 
5 5 5 5 5 5 5 5 5 5 
5 5 5 5 5 5 5 5 5 5 
5 5 5 5 5 5 5 5 5 5 
5 5 5 5 5 5 5 5 5 5 
5 5 5 5 5 5 5 5 5 5 
5 5 5 5 5 5 5 5 5 5 
5 5 5 5 5 5 5 5 5 5 
5 5 5 5 5 5 5 5 5 5 
5 5 5 5 5 5 5 5 5 5 
5 5 5 5 5 5 5 5 5 5 
5 5 5 5 5 5 5 5 5 5 
5 5 5 5 5 5 5 5 5 5 
5 5 5 5 5 5 5 5 
CELL_DATA 588
SCALARS Face_Number float 1
LOOKUP_TABLE default
6 6 6 6 6 6 6 6 6 
6 6 6 6 6 6 6 6 6 6 
6 6 6 6 6 6 6 6 6 6 
6 6 6 6 6 6 6 6 6 6 
6 6 6 6 6 6 6 6 6 6 
6 6 6 6 6 6 6 6 6 6 
6 6 6 6 6 6 6 6 6 6 
6 6 6 6 6 6 6 6 6 6 
6 6 6 6 6 6 6 6 6 6 
6 6 6 6 6 6 6 6 6 6 
6 6 6 6 6 6 6 6 6 6 
6 6 6 6 6 6 6 6 6 6 
6 6 6 6 6 6 6 6 6 6 
6 6 6 6 6 6 6 6 6 6 
6 6 6 6 6 6 6 6 6 6 
6 6 6 6 6 6 6 6 6 6 
6 6 6 6 6 6 6 6 6 6 
6 6 6 6 6 6 6 6 6 6 
6 6 6 6 6 6 6 6 6 6 
6 6 6 6 6 6 6 7 7 7 
7 7 7 7 7 7 7 7 7 7 
7 7 7 7 7 7 7 7 7 7 
7 7 7 7 7 7 7 7 7 7 
7 7 7 7 7 7 7 7 7 7 
7 7 7 7 7 7 7 7 7 7 
7 7 7 7 7 7 7 7 7 7 
7 7 7 7 7 7 7 7 7 7 
7 7 7 7 7 7 7 7 7 7 
7 7 7 7 7 7 7 7 7 7 
7 7 7 7 7 7 7 7 7 7 
7 7 7 7 7 7 7 7 7 7 
7 7 7 7 7 7 7 7 7 7 
7 7 7 7 7 7 7 7 7 7 
7 7 7 7 7 7 7 7 7 7 
7 7 7 7 7 7 7 7 7 7 
7 7 7 7 7 7 7 7 7 7 
7 7 7 7 7 7 7 7 7 7 
7 7 7 7 7 7 7 7 7 7 
7 7 7 7 7 7 7 7 7 7 
7 7 7 8 8 8 8 8 8 8 
8 8 8 8 8 8 8 8 8 8 
8 8 8 8 8 8 8 8 8 8 
8 8 8 8 8 8 8 8 8 8 
8 8 8 8 8 8 8 8 8 8 
8 8 8 8 8 8 8 8 8 8 
8 8 8 8 8 8 8 8 8 8 
8 8 8 8 8 8 8 8 8 8 
8 8 8 8 8 8 8 8 8 8 
8 8 8 8 8 8 8 8 8 8 
8 8 8 8 8 8 8 8 8 8 
8 8 8 8 8 8 8 8 8 8 
8 8 8 8 8 8 8 8 8 8 
8 8 8 8 8 8 8 8 8 8 
8 8 8 8 8 8 8 8 8 8 
8 8 8 8 8 8 8 8 8 8 
8 8 8 8 8 8 8 8 8 8 
8 8 8 8 8 8 8 8 8 8 
8 8 8 8 8 8 8 8 8 8 
8 8 8 8 8 8 8 8 8 SCALARS Node_Number float 1
LOOKUP_TABLE default
10 10 10 10 10 10 10 10 10 
10 10 10 10 10 10 10 10 10 10 
10 10 10 10 10 10 10 10 10 10 
10 10 10 10 10 10 10 10 10 10 
10 10 10 10 10 10 10 10 10 10 
10 10 10 10 10 10 10 10 10 10 
10 10 10 10 10 10 10 10 10 10 
10 10 10 10 10 10 10 10 10 10 
10 10 10 10 10 10 10 10 10 10 
10 10 10 10 10 10 10 10 10 10 
10 10 10 10 10 10 10 10 10 10 
10 10 10 10 10 10 10 10 10 10 
10 10 10 10 10 10 10 10 10 10 
10 10 10 10 10 10 10 10 10 10 
10 10 10 10 10 10 10 10 10 10 
10 10 10 10 10 10 10 10 10 10 
10 10 10 10 10 10 10 10 10 10 
10 10 10 10 10 10 10 10 10 10 
10 10 10 10 10 10 10 10 10 10 
10 10 10 10 10 10 10 13 13 13 
13 13 13 13 13 13 13 13 13 13 
13 13 13 13 13 13 13 13 13 13 
13 13 13 13 13 13 13 13 13 13 
13 13 13 13 13 13 13 13 13 13 
13 13 13 13 13 13 13 13 13 13 
13 13 13 13 13 13 13 13 13 13 
13 13 13 13 13 13 13 13 13 13 
13 13 13 13 13 13 13 13 13 13 
13 13 13 13 13 13 13 13 13 13 
13 13 13 13 13 13 13 13 13 13 
13 13 13 13 13 13 13 13 13 13 
13 13 13 13 13 13 13 13 13 13 
13 13 13 13 13 13 13 13 13 13 
13 13 13 13 13 13 13 13 13 13 
13 13 13 13 13 13 13 13 13 13 
13 13 13 13 13 13 13 13 13 13 
13 13 13 13 13 13 13 13 13 13 
13 13 13 13 13 13 13 13 13 13 
13 13 13 13 13 13 13 13 13 13 
13 13 13 13 13 13 13 13 13 13 
13 13 13 13 13 13 13 13 13 13 
13 13 13 13 13 13 13 13 13 13 
13 13 13 13 13 13 13 13 13 13 
13 13 13 13 13 13 13 13 13 13 
13 13 13 13 13 13 13 13 13 13 
13 13 13 13 13 13 13 13 13 13 
13 13 13 13 13 13 13 13 13 13 
13 13 13 13 13 13 13 13 13 13 
13 13 13 13 13 13 13 13 13 13 
13 13 13 13 13 13 13 13 13 13 
13 13 13 13 13 13 13 13 13 13 
13 13 13 13 13 13 13 13 13 13 
13 13 13 13 13 13 13 13 13 13 
13 13 13 13 13 13 13 13 13 13 
13 13 13 13 13 13 13 13 13 13 
13 13 13 13 13 13 13 13 13 13 
13 13 13 13 13 13 13 13 13 13 
13 13 13 13 13 13 13 13 13 13 
13 13 13 13 13 13 13 13 13 SCALARS Type float 1
LOOKUP_TABLE default
2 2 2 2 2 2 2 2 2 
2 2 2 2 2 2 2 2 2 2 
2 2 2 2 2 2 2 2 2 2 
2 2 2 2 2 2 2 2 2 2 
2 2 2 2 2 2 2 2 2 2 
2 2 2 2 2 2 2 2 2 2 
2 2 2 2 2 2 2 2 2 2 
2 2 2 2 2 2 2 2 2 2 
2 2 2 2 2 2 2 2 2 2 
2 2 2 2 2 2 2 2 2 2 
2 2 2 2 2 2 2 2 2 2 
2 2 2 2 2 2 2 2 2 2 
2 2 2 2 2 2 2 2 2 2 
2 2 2 2 2 2 2 2 2 2 
2 2 2 2 2 2 2 2 2 2 
2 2 2 2 2 2 2 2 2 2 
2 2 2 2 2 2 2 2 2 2 
2 2 2 2 2 2 2 2 2 2 
2 2 2 2 2 2 2 2 2 2 
2 2 2 2 2 2 2 2 2 2 
2 2 2 2 2 2 2 2 2 2 
2 2 2 2 2 2 2 2 2 2 
2 2 2 2 2 2 2 2 2 2 
2 2 2 2 2 2 2 2 2 2 
2 2 2 2 2 2 2 2 2 2 
2 2 2 2 2 2 2 2 2 2 
2 2 2 2 2 2 2 2 2 2 
2 2 2 2 2 2 2 2 2 2 
2 2 2 2 2 2 2 2 2 2 
2 2 2 2 2 2 2 2 2 2 
2 2 2 2 2 2 2 2 2 2 
2 2 2 2 2 2 2 2 2 2 
2 2 2 2 2 2 2 2 2 2 
2 2 2 2 2 2 2 2 2 2 
2 2 2 2 2 2 2 2 2 2 
2 2 2 2 2 2 2 2 2 2 
2 2 2 2 2 2 2 2 2 2 
2 2 2 2 2 2 2 2 2 2 
2 2 2 2 2 2 2 2 2 2 
2 2 2 2 2 2 2 2 2 2 
2 2 2 2 2 2 2 2 2 2 
2 2 2 2 2 2 2 2 2 2 
2 2 2 2 2 2 2 2 2 2 
2 2 2 2 2 2 2 2 2 2 
2 2 2 2 2 2 2 2 2 2 
2 2 2 2 2 2 2 2 2 2 
2 2 2 2 2 2 2 2 2 2 
2 2 2 2 2 2 2 2 2 2 
2 2 2 2 2 2 2 2 2 2 
2 2 2 2 2 2 2 2 2 2 
2 2 2 2 2 2 2 2 2 2 
2 2 2 2 2 2 2 2 2 2 
2 2 2 2 2 2 2 2 2 2 
2 2 2 2 2 2 2 2 2 2 
2 2 2 2 2 2 2 2 2 2 
2 2 2 2 2 2 2 2 2 2 
2 2 2 2 2 2 2 2 2 2 
2 2 2 2 2 2 2 2 2 2 
2 2 2 2 2 2 2 2 2 SCALARS Dilation_mm float 1
LOOKUP_TABLE default
0.746488 0.746488 0.746488 0.746488 0.746488 0.746488 0.746488 0.746488 0.746488 
0.746488 0.746488 0.746488 0.746488 0.746488 0.746488 0.746488 0.746488 0.746488 0.746488 
0.746488 0.746488 0.746488 0.746488 0.746488 0.746488 0.746488 0.746488 0.746488 0.746488 
0.746488 0.746488 0.746488 0.746488 0.746488 0.746488 0.746488 0.746488 0.746488 0.746488 
0.746488 0.746488 0.746488 0.746488 0.746488 0.746488 0.746488 0.746488 0.746488 0.746488 
0.746488 0.746488 0.746488 0.746488 0.746488 0.746488 0.746488 0.746488 0.746488 0.746488 
0.746488 0.746488 0.746488 0.746488 0.746488 0.746488 0.746488 0.746488 0.746488 0.746488 
0.746488 0.746488 0.746488 0.746488 0.746488 0.746488 0.746488 0.746488 0.746488 0.746488 
0.746488 0.746488 0.746488 0.746488 0.746488 0.746488 0.746488 0.746488 0.746488 0.746488 
0.746488 0.746488 0.746488 0.746488 0.746488 0.746488 0.746488 0.746488 0.746488 0.746488 
0.746488 0.746488 0.746488 0.746488 0.746488 0.746488 0.746488 0.746488 0.746488 0.746488 
0.746488 0.746488 0.746488 0.746488 0.746488 0.746488 0.746488 0.746488 0.746488 0.746488 
0.746488 0.746488 0.746488 0.746488 0.746488 0.746488 0.746488 0.746488 0.746488 0.746488 
0.746488 0.746488 0.746488 0.746488 0.746488 0.746488 0.746488 0.746488 0.746488 0.746488 
0.746488 0.746488 0.746488 0.746488 0.746488 0.746488 0.746488 0.746488 0.746488 0.746488 
0.746488 0.746488 0.746488 0.746488 0.746488 0.746488 0.746488 0.746488 0.746488 0.746488 
0.746488 0.746488 0.746488 0.746488 0.746488 0.746488 0.746488 0.746488 0.746488 0.746488 
0.746488 0.746488 0.746488 0.746488 0.746488 0.746488 0.746488 0.746488 0.746488 0.746488 
0.746488 0.746488 0.746488 0.746488 0.746488 0.746488 0.746488 0.746488 0.746488 0.746488 
0.746488 0.746488 0.746488 0.746488 0.746488 0.746488 0.746488 0.652476 0.652476 0.652476 
0.652476 0.652476 0.652476 0.652476 0.652476 0.652476 0.652476 0.652476 0.652476 0.652476 
0.652476 0.652476 0.652476 0.652476 0.652476 0.652476 0.652476 0.652476 0.652476 0.652476 
0.652476 0.652476 0.652476 0.652476 0.652476 0.652476 0.652476 0.652476 0.652476 0.652476 
0.652476 0.652476 0.652476 0.652476 0.652476 0.652476 0.652476 0.652476 0.652476 0.652476 
0.652476 0.652476 0.652476 0.652476 0.652476 0.652476 0.652476 0.652476 0.652476 0.652476 
0.652476 0.652476 0.652476 0.652476 0.652476 0.652476 0.652476 0.652476 0.652476 0.652476 
0.652476 0.652476 0.652476 0.652476 0.652476 0.652476 0.652476 0.652476 0.652476 0.652476 
0.652476 0.652476 0.652476 0.652476 0.652476 0.652476 0.652476 0.652476 0.652476 0.652476 
0.652476 0.652476 0.652476 0.652476 0.652476 0.652476 0.652476 0.652476 0.652476 0.652476 
0.652476 0.652476 0.652476 0.652476 0.652476 0.652476 0.652476 0.652476 0.652476 0.652476 
0.652476 0.652476 0.652476 0.652476 0.652476 0.652476 0.652476 0.652476 0.652476 0.652476 
0.652476 0.652476 0.652476 0.652476 0.652476 0.652476 0.652476 0.652476 0.652476 0.652476 
0.652476 0.652476 0.652476 0.652476 0.652476 0.652476 0.652476 0.652476 0.652476 0.652476 
0.652476 0.652476 0.652476 0.652476 0.652476 0.652476 0.652476 0.652476 0.652476 0.652476 
0.652476 0.652476 0.652476 0.652476 0.652476 0.652476 0.652476 0.652476 0.652476 0.652476 
0.652476 0.652476 0.652476 0.652476 0.652476 0.652476 0.652476 0.652476 0.652476 0.652476 
0.652476 0.652476 0.652476 0.652476 0.652476 0.652476 0.652476 0.652476 0.652476 0.652476 
0.652476 0.652476 0.652476 0.652476 0.652476 0.652476 0.652476 0.652476 0.652476 0.652476 
0.652476 0.652476 0.652476 0.652476 0.652476 0.652476 0.652476 0.652476 0.652476 0.652476 
0.652476 0.652476 0.652476 0.769522 0.769522 0.769522 0.769522 0.769522 0.769522 0.769522 
0.769522 0.769522 0.769522 0.769522 0.769522 0.769522 0.769522 0.769522 0.769522 0.769522 
0.769522 0.769522 0.769522 0.769522 0.769522 0.769522 0.769522 0.769522 0.769522 0.769522 
0.769522 0.769522 0.769522 0.769522 0.769522 0.769522 0.769522 0.769522 0.769522 0.769522 
0.769522 0.769522 0.769522 0.769522 0.769522 0.769522 0.769522 0.769522 0.769522 0.769522 
0.769522 0.769522 0.769522 0.769522 0.769522 0.769522 0.769522 0.769522 0.769522 0.769522 
0.769522 0.769522 0.769522 0.769522 0.769522 0.769522 0.769522 0.769522 0.769522 0.769522 
0.769522 0.769522 0.769522 0.769522 0.769522 0.769522 0.769522 0.769522 0.769522 0.769522 
0.769522 0.769522 0.769522 0.769522 0.769522 0.769522 0.769522 0.769522 0.769522 0.769522 
0.769522 0.769522 0.769522 0.769522 0.769522 0.769522 0.769522 0.769522 0.769522 0.769522 
0.769522 0.769522 0.769522 0.769522 0.769522 0.769522 0.769522 0.769522 0.769522 0.769522 
0.769522 0.769522 0.769522 0.769522 0.769522 0.769522 0.769522 0.769522 0.769522 0.769522 
0.769522 0.769522 0.769522 0.769522 0.769522 0.769522 0.769522 0.769522 0.769522 0.769522 
0.769522 0.769522 0.769522 0.769522 0.769522 0.769522 0.769522 0.769522 0.769522 0.769522 
0.769522 0.769522 0.769522 0.769522 0.769522 0.769522 0.769522 0.769522 0.769522 0.769522 
0.769522 0.769522 0.769522 0.769522 0.769522 0.769522 0.769522 0.769522 0.769522 0.769522 
0.769522 0.769522 0.769522 0.769522 0.769522 0.769522 0.769522 0.769522 0.769522 0.769522 
0.769522 0.769522 0.769522 0.769522 0.769522 0.769522 0.769522 0.769522 0.769522 0.769522 
0.769522 0.769522 0.769522 0.769522 0.769522 0.769522 0.769522 0.769522 0.769522 0.769522 
0.769522 0.769522 0.769522 0.769522 0.769522 0.769522 0.769522 0.769522 0.769522 SCALARS Hydraulic_mm float 1
LOOKUP_TABLE default
0.150367 0.150367 0.150367 0.150367 0.150367 0.150367 0.150367 0.150367 0.150367 
0.150367 0.150367 0.150367 0.150367 0.150367 0.150367 0.150367 0.150367 0.150367 0.150367 
0.150367 0.150367 0.150367 0.150367 0.150367 0.150367 0.150367 0.150367 0.150367 0.150367 
0.150367 0.150367 0.150367 0.150367 0.150367 0.150367 0.150367 0.150367 0.150367 0.150367 
0.150367 0.150367 0.150367 0.150367 0.150367 0.150367 0.150367 0.150367 0.150367 0.150367 
0.150367 0.150367 0.150367 0.150367 0.150367 0.150367 0.150367 0.150367 0.150367 0.150367 
0.150367 0.150367 0.150367 0.150367 0.150367 0.150367 0.150367 0.150367 0.150367 0.150367 
0.150367 0.150367 0.150367 0.150367 0.150367 0.150367 0.150367 0.150367 0.150367 0.150367 
0.150367 0.150367 0.150367 0.150367 0.150367 0.150367 0.150367 0.150367 0.150367 0.150367 
0.150367 0.150367 0.150367 0.150367 0.150367 0.150367 0.150367 0.150367 0.150367 0.150367 
0.150367 0.150367 0.150367 0.150367 0.150367 0.150367 0.150367 0.150367 0.150367 0.150367 
0.150367 0.150367 0.150367 0.150367 0.150367 0.150367 0.150367 0.150367 0.150367 0.150367 
0.150367 0.150367 0.150367 0.150367 0.150367 0.150367 0.150367 0.150367 0.150367 0.150367 
0.150367 0.150367 0.150367 0.150367 0.150367 0.150367 0.150367 0.150367 0.150367 0.150367 
0.150367 0.150367 0.150367 0.150367 0.150367 0.150367 0.150367 0.150367 0.150367 0.150367 
0.150367 0.150367 0.150367 0.150367 0.150367 0.150367 0.150367 0.150367 0.150367 0.150367 
0.150367 0.150367 0.150367 0.150367 0.150367 0.150367 0.150367 0.150367 0.150367 0.150367 
0.150367 0.150367 0.150367 0.150367 0.150367 0.150367 0.150367 0.150367 0.150367 0.150367 
0.150367 0.150367 0.150367 0.150367 0.150367 0.150367 0.150367 0.150367 0.150367 0.150367 
0.150367 0.150367 0.150367 0.150367 0.150367 0.150367 0.150367 0.0328742 0.0328742 0.0328742 
0.0328742 0.0328742 0.0328742 0.0328742 0.0328742 0.0328742 0.0328742 0.0328742 0.0328742 0.0328742 
0.0328742 0.0328742 0.0328742 0.0328742 0.0328742 0.0328742 0.0328742 0.0328742 0.0328742 0.0328742 
0.0328742 0.0328742 0.0328742 0.0328742 0.0328742 0.0328742 0.0328742 0.0328742 0.0328742 0.0328742 
0.0328742 0.0328742 0.0328742 0.0328742 0.0328742 0.0328742 0.0328742 0.0328742 0.0328742 0.0328742 
0.0328742 0.0328742 0.0328742 0.0328742 0.0328742 0.0328742 0.0328742 0.0328742 0.0328742 0.0328742 
0.0328742 0.0328742 0.0328742 0.0328742 0.0328742 0.0328742 0.0328742 0.0328742 0.0328742 0.0328742 
0.0328742 0.0328742 0.0328742 0.0328742 0.0328742 0.0328742 0.0328742 0.0328742 0.0328742 0.0328742 
0.0328742 0.0328742 0.0328742 0.0328742 0.0328742 0.0328742 0.0328742 0.0328742 0.0328742 0.0328742 
0.0328742 0.0328742 0.0328742 0.0328742 0.0328742 0.0328742 0.0328742 0.0328742 0.0328742 0.0328742 
0.0328742 0.0328742 0.0328742 0.0328742 0.0328742 0.0328742 0.0328742 0.0328742 0.0328742 0.0328742 
0.0328742 0.0328742 0.0328742 0.0328742 0.0328742 0.0328742 0.0328742 0.0328742 0.0328742 0.0328742 
0.0328742 0.0328742 0.0328742 0.0328742 0.0328742 0.0328742 0.0328742 0.0328742 0.0328742 0.0328742 
0.0328742 0.0328742 0.0328742 0.0328742 0.0328742 0.0328742 0.0328742 0.0328742 0.0328742 0.0328742 
0.0328742 0.0328742 0.0328742 0.0328742 0.0328742 0.0328742 0.0328742 0.0328742 0.0328742 0.0328742 
0.0328742 0.0328742 0.0328742 0.0328742 0.0328742 0.0328742 0.0328742 0.0328742 0.0328742 0.0328742 
0.0328742 0.0328742 0.0328742 0.0328742 0.0328742 0.0328742 0.0328742 0.0328742 0.0328742 0.0328742 
0.0328742 0.0328742 0.0328742 0.0328742 0.0328742 0.0328742 0.0328742 0.0328742 0.0328742 0.0328742 
0.0328742 0.0328742 0.0328742 0.0328742 0.0328742 0.0328742 0.0328742 0.0328742 0.0328742 0.0328742 
0.0328742 0.0328742 0.0328742 0.0328742 0.0328742 0.0328742 0.0328742 0.0328742 0.0328742 0.0328742 
0.0328742 0.0328742 0.0328742 0.132635 0.132635 0.132635 0.132635 0.132635 0.132635 0.132635 
0.132635 0.132635 0.132635 0.132635 0.132635 0.132635 0.132635 0.132635 0.132635 0.132635 
0.132635 0.132635 0.132635 0.132635 0.132635 0.132635 0.132635 0.132635 0.132635 0.132635 
0.132635 0.132635 0.132635 0.132635 0.132635 0.132635 0.132635 0.132635 0.132635 0.132635 
0.132635 0.132635 0.132635 0.132635 0.132635 0.132635 0.132635 0.132635 0.132635 0.132635 
0.132635 0.132635 0.132635 0.132635 0.132635 0.132635 0.132635 0.132635 0.132635 0.132635 
0.132635 0.132635 0.132635 0.132635 0.132635 0.132635 0.132635 0.132635 0.132635 0.132635 
0.132635 0.132635 0.132635 0.132635 0.132635 0.132635 0.132635 0.132635 0.132635 0.132635 
0.132635 0.132635 0.132635 0.132635 0.132635 0.132635 0.132635 0.132635 0.132635 0.132635 
0.132635 0.132635 0.132635 0.132635 0.132635 0.132635 0.132635 0.132635 0.132635 0.132635 
0.132635 0.132635 0.132635 0.132635 0.132635 0.132635 0.132635 0.132635 0.132635 0.132635 
0.132635 0.132635 0.132635 0.132635 0.132635 0.132635 0.132635 0.132635 0.132635 0.132635 
0.132635 0.132635 0.132635 0.132635 0.132635 0.132635 0.132635 0.132635 0.132635 0.132635 
0.132635 0.132635 0.132635 0.132635 0.132635 0.132635 0.132635 0.132635 0.132635 0.132635 
0.132635 0.132635 0.132635 0.132635 0.132635 0.132635 0.132635 0.132635 0.132635 0.132635 
0.132635 0.132635 0.132635 0.132635 0.132635 0.132635 0.132635 0.132635 0.132635 0.132635 
0.132635 0.132635 0.132635 0.132635 0.132635 0.132635 0.132635 0.132635 0.132635 0.132635 
0.132635 0.132635 0.132635 0.132635 0.132635 0.132635 0.132635 0.132635 0.132635 0.132635 
0.132635 0.132635 0.132635 0.132635 0.132635 0.132635 0.132635 0.132635 0.132635 0.132635 
0.132635 0.132635 0.132635 0.132635 0.132635 0.132635 0.132635 0.132635 0.132635 SCALARS Sn_MPa float 1
LOOKUP_TABLE default
31.3556 31.3556 31.3556 31.3556 31.3556 31.3556 31.3556 31.3556 31.3556 
31.3556 31.3556 31.3556 31.3556 31.3556 31.3556 31.3556 31.3556 31.3556 31.3556 
31.3556 31.3556 31.3556 31.3556 31.3556 31.3556 31.3556 31.3556 31.3556 31.3556 
31.3556 31.3556 31.3556 31.3556 31.3556 31.3556 31.3556 31.3556 31.3556 31.3556 
31.3556 31.3556 31.3556 31.3556 31.3556 31.3556 31.3556 31.3556 31.3556 31.3556 
31.3556 31.3556 31.3556 31.3556 31.3556 31.3556 31.3556 31.3556 31.3556 31.3556 
31.3556 31.3556 31.3556 31.3556 31.3556 31.3556 31.3556 31.3556 31.3556 31.3556 
31.3556 31.3556 31.3556 31.3556 31.3556 31.3556 31.3556 31.3556 31.3556 31.3556 
31.3556 31.3556 31.3556 31.3556 31.3556 31.3556 31.3556 31.3556 31.3556 31.3556 
31.3556 31.3556 31.3556 31.3556 31.3556 31.3556 31.3556 31.3556 31.3556 31.3556 
31.3556 31.3556 31.3556 31.3556 31.3556 31.3556 31.3556 31.3556 31.3556 31.3556 
31.3556 31.3556 31.3556 31.3556 31.3556 31.3556 31.3556 31.3556 31.3556 31.3556 
31.3556 31.3556 31.3556 31.3556 31.3556 31.3556 31.3556 31.3556 31.3556 31.3556 
31.3556 31.3556 31.3556 31.3556 31.3556 31.3556 31.3556 31.3556 31.3556 31.3556 
31.3556 31.3556 31.3556 31.3556 31.3556 31.3556 31.3556 31.3556 31.3556 31.3556 
31.3556 31.3556 31.3556 31.3556 31.3556 31.3556 31.3556 31.3556 31.3556 31.3556 
31.3556 31.3556 31.3556 31.3556 31.3556 31.3556 31.3556 31.3556 31.3556 31.3556 
31.3556 31.3556 31.3556 31.3556 31.3556 31.3556 31.3556 31.3556 31.3556 31.3556 
31.3556 31.3556 31.3556 31.3556 31.3556 31.3556 31.3556 31.3556 31.3556 31.3556 
31.3556 31.3556 31.3556 31.3556 31.3556 31.3556 31.3556 31.354 31.354 31.354 
31.354 31.354 31.354 31.354 31.354 31.354 31.354 31.354 31.354 31.354 
31.354 31.354 31.354 31.354 31.354 31.354 31.354 31.354 31.354 31.354 
31.354 31.354 31.354 31.354 31.354 31.354 31.354 31.354 31.354 31.354 
31.354 31.354 31.354 31.354 31.354 31.354 31.354 31.354 31.354 31.354 
31.354 31.354 31.354 31.354 31.354 31.354 31.354 31.354 31.354 31.354 
31.354 31.354 31.354 31.354 31.354 31.354 31.354 31.354 31.354 31.354 
31.354 31.354 31.354 31.354 31.354 31.354 31.354 31.354 31.354 31.354 
31.354 31.354 31.354 31.354 31.354 31.354 31.354 31.354 31.354 31.354 
31.354 31.354 31.354 31.354 31.354 31.354 31.354 31.354 31.354 31.354 
31.354 31.354 31.354 31.354 31.354 31.354 31.354 31.354 31.354 31.354 
31.354 31.354 31.354 31.354 31.354 31.354 31.354 31.354 31.354 31.354 
31.354 31.354 31.354 31.354 31.354 31.354 31.354 31.354 31.354 31.354 
31.354 31.354 31.354 31.354 31.354 31.354 31.354 31.354 31.354 31.354 
31.354 31.354 31.354 31.354 31.354 31.354 31.354 31.354 31.354 31.354 
31.354 31.354 31.354 31.354 31.354 31.354 31.354 31.354 31.354 31.354 
31.354 31.354 31.354 31.354 31.354 31.354 31.354 31.354 31.354 31.354 
31.354 31.354 31.354 31.354 31.354 31.354 31.354 31.354 31.354 31.354 
31.354 31.354 31.354 31.354 31.354 31.354 31.354 31.354 31.354 31.354 
31.354 31.354 31.354 31.354 31.354 31.354 31.354 31.354 31.354 31.354 
31.354 31.354 31.354 31.3558 31.3558 31.3558 31.3558 31.3558 31.3558 31.3558 
31.3558 31.3558 31.3558 31.3558 31.3558 31.3558 31.3558 31.3558 31.3558 31.3558 
31.3558 31.3558 31.3558 31.3558 31.3558 31.3558 31.3558 31.3558 31.3558 31.3558 
31.3558 31.3558 31.3558 31.3558 31.3558 31.3558 31.3558 31.3558 31.3558 31.3558 
31.3558 31.3558 31.3558 31.3558 31.3558 31.3558 31.3558 31.3558 31.3558 31.3558 
31.3558 31.3558 31.3558 31.3558 31.3558 31.3558 31.3558 31.3558 31.3558 31.3558 
31.3558 31.3558 31.3558 31.3558 31.3558 31.3558 31.3558 31.3558 31.3558 31.3558 
31.3558 31.3558 31.3558 31.3558 31.3558 31.3558 31.3558 31.3558 31.3558 31.3558 
31.3558 31.3558 31.3558 31.3558 31.3558 31.3558 31.3558 31.3558 31.3558 31.3558 
31.3558 31.3558 31.3558 31.3558 31.3558 31.3558 31.3558 31.3558 31.3558 31.3558 
31.3558 31.3558 31.3558 31.3558 31.3558 31.3558 31.3558 31.3558 31.3558 31.3558 
31.3558 31.3558 31.3558 31.3558 31.3558 31.3558 31.3558 31.3558 31.3558 31.3558 
31.3558 31.3558 31.3558 31.3558 31.3558 31.3558 31.3558 31.3558 31.3558 31.3558 
31.3558 31.3558 31.3558 31.3558 31.3558 31.3558 31.3558 31.3558 31.3558 31.3558 
31.3558 31.3558 31.3558 31.3558 31.3558 31.3558 31.3558 31.3558 31.3558 31.3558 
31.3558 31.3558 31.3558 31.3558 31.3558 31.3558 31.3558 31.3558 31.3558 31.3558 
31.3558 31.3558 31.3558 31.3558 31.3558 31.3558 31.3558 31.3558 31.3558 31.3558 
31.3558 31.3558 31.3558 31.3558 31.3558 31.3558 31.3558 31.3558 31.3558 31.3558 
31.3558 31.3558 31.3558 31.3558 31.3558 31.3558 31.3558 31.3558 31.3558 31.3558 
31.3558 31.3558 31.3558 31.3558 31.3558 31.3558 31.3558 31.3558 31.3558 SCALARS Pcen_MPa float 1
LOOKUP_TABLE default
2.77597e+07 2.77597e+07 2.77597e+07 2.77597e+07 2.77597e+07 2.77597e+07 2.77597e+07 2.77597e+07 2.77597e+07 
2.77597e+07 2.77597e+07 2.77597e+07 2.77597e+07 2.77597e+07 2.77597e+07 2.77597e+07 2.77597e+07 2.77597e+07 2.77597e+07 
2.77597e+07 2.77597e+07 2.77597e+07 2.77597e+07 2.77597e+07 2.77597e+07 2.77597e+07 2.77597e+07 2.77597e+07 2.77597e+07 
2.77597e+07 2.77597e+07 2.77597e+07 2.77597e+07 2.77597e+07 2.77597e+07 2.77597e+07 2.77597e+07 2.77597e+07 2.77597e+07 
2.77597e+07 2.77597e+07 2.77597e+07 2.77597e+07 2.77597e+07 2.77597e+07 2.77597e+07 2.77597e+07 2.77597e+07 2.77597e+07 
2.77597e+07 2.77597e+07 2.77597e+07 2.77597e+07 2.77597e+07 2.77597e+07 2.77597e+07 2.77597e+07 2.77597e+07 2.77597e+07 
2.77597e+07 2.77597e+07 2.77597e+07 2.77597e+07 2.77597e+07 2.77597e+07 2.77597e+07 2.77597e+07 2.77597e+07 2.77597e+07 
2.77597e+07 2.77597e+07 2.77597e+07 2.77597e+07 2.77597e+07 2.77597e+07 2.77597e+07 2.77597e+07 2.77597e+07 2.77597e+07 
2.77597e+07 2.77597e+07 2.77597e+07 2.77597e+07 2.77597e+07 2.77597e+07 2.77597e+07 2.77597e+07 2.77597e+07 2.77597e+07 
2.77597e+07 2.77597e+07 2.77597e+07 2.77597e+07 2.77597e+07 2.77597e+07 2.77597e+07 2.77597e+07 2.77597e+07 2.77597e+07 
2.77597e+07 2.77597e+07 2.77597e+07 2.77597e+07 2.77597e+07 2.77597e+07 2.77597e+07 2.77597e+07 2.77597e+07 2.77597e+07 
2.77597e+07 2.77597e+07 2.77597e+07 2.77597e+07 2.77597e+07 2.77597e+07 2.77597e+07 2.77597e+07 2.77597e+07 2.77597e+07 
2.77597e+07 2.77597e+07 2.77597e+07 2.77597e+07 2.77597e+07 2.77597e+07 2.77597e+07 2.77597e+07 2.77597e+07 2.77597e+07 
2.77597e+07 2.77597e+07 2.77597e+07 2.77597e+07 2.77597e+07 2.77597e+07 2.77597e+07 2.77597e+07 2.77597e+07 2.77597e+07 
2.77597e+07 2.77597e+07 2.77597e+07 2.77597e+07 2.77597e+07 2.77597e+07 2.77597e+07 2.77597e+07 2.77597e+07 2.77597e+07 
2.77597e+07 2.77597e+07 2.77597e+07 2.77597e+07 2.77597e+07 2.77597e+07 2.77597e+07 2.77597e+07 2.77597e+07 2.77597e+07 
2.77597e+07 2.77597e+07 2.77597e+07 2.77597e+07 2.77597e+07 2.77597e+07 2.77597e+07 2.77597e+07 2.77597e+07 2.77597e+07 
2.77597e+07 2.77597e+07 2.77597e+07 2.77597e+07 2.77597e+07 2.77597e+07 2.77597e+07 2.77597e+07 2.77597e+07 2.77597e+07 
2.77597e+07 2.77597e+07 2.77597e+07 2.77597e+07 2.77597e+07 2.77597e+07 2.77597e+07 2.77597e+07 2.77597e+07 2.77597e+07 
2.77597e+07 2.77597e+07 2.77597e+07 2.77597e+07 2.77597e+07 2.77597e+07 2.77597e+07 2.77789e+07 2.77789e+07 2.77789e+07 
2.77789e+07 2.77789e+07 2.77789e+07 2.77789e+07 2.77789e+07 2.77789e+07 2.77789e+07 2.77789e+07 2.77789e+07 2.77789e+07 
2.77789e+07 2.77789e+07 2.77789e+07 2.77789e+07 2.77789e+07 2.77789e+07 2.77789e+07 2.77789e+07 2.77789e+07 2.77789e+07 
2.77789e+07 2.77789e+07 2.77789e+07 2.77789e+07 2.77789e+07 2.77789e+07 2.77789e+07 2.77789e+07 2.77789e+07 2.77789e+07 
2.77789e+07 2.77789e+07 2.77789e+07 2.77789e+07 2.77789e+07 2.77789e+07 2.77789e+07 2.77789e+07 2.77789e+07 2.77789e+07 
2.77789e+07 2.77789e+07 2.77789e+07 2.77789e+07 2.77789e+07 2.77789e+07 2.77789e+07 2.77789e+07 2.77789e+07 2.77789e+07 
2.77789e+07 2.77789e+07 2.77789e+07 2.77789e+07 2.77789e+07 2.77789e+07 2.77789e+07 2.77789e+07 2.77789e+07 2.77789e+07 
2.77789e+07 2.77789e+07 2.77789e+07 2.77789e+07 2.77789e+07 2.77789e+07 2.77789e+07 2.77789e+07 2.77789e+07 2.77789e+07 
2.77789e+07 2.77789e+07 2.77789e+07 2.77789e+07 2.77789e+07 2.77789e+07 2.77789e+07 2.77789e+07 2.77789e+07 2.77789e+07 
2.77789e+07 2.77789e+07 2.77789e+07 2.77789e+07 2.77789e+07 2.77789e+07 2.77789e+07 2.77789e+07 2.77789e+07 2.77789e+07 
2.77789e+07 2.77789e+07 2.77789e+07 2.77789e+07 2.77789e+07 2.77789e+07 2.77789e+07 2.77789e+07 2.77789e+07 2.77789e+07 
2.77789e+07 2.77789e+07 2.77789e+07 2.77789e+07 2.77789e+07 2.77789e+07 2.77789e+07 2.77789e+07 2.77789e+07 2.77789e+07 
2.77789e+07 2.77789e+07 2.77789e+07 2.77789e+07 2.77789e+07 2.77789e+07 2.77789e+07 2.77789e+07 2.77789e+07 2.77789e+07 
2.77789e+07 2.77789e+07 2.77789e+07 2.77789e+07 2.77789e+07 2.77789e+07 2.77789e+07 2.77789e+07 2.77789e+07 2.77789e+07 
2.77789e+07 2.77789e+07 2.77789e+07 2.77789e+07 2.77789e+07 2.77789e+07 2.77789e+07 2.77789e+07 2.77789e+07 2.77789e+07 
2.77789e+07 2.77789e+07 2.77789e+07 2.77789e+07 2.77789e+07 2.77789e+07 2.77789e+07 2.77789e+07 2.77789e+07 2.77789e+07 
2.77789e+07 2.77789e+07 2.77789e+07 2.77789e+07 2.77789e+07 2.77789e+07 2.77789e+07 2.77789e+07 2.77789e+07 2.77789e+07 
2.77789e+07 2.77789e+07 2.77789e+07 2.77789e+07 2.77789e+07 2.77789e+07 2.77789e+07 2.77789e+07 2.77789e+07 2.77789e+07 
2.77789e+07 2.77789e+07 2.77789e+07 2.77789e+07 2.77789e+07 2.77789e+07 2.77789e+07 2.77789e+07 2.77789e+07 2.77789e+07 
2.77789e+07 2.77789e+07 2.77789e+07 2.77789e+07 2.77789e+07 2.77789e+07 2.77789e+07 2.77789e+07 2.77789e+07 2.77789e+07 
2.77789e+07 2.77789e+07 2.77789e+07 2.77789e+07 2.77789e+07 2.77789e+07 2.77789e+07 2.77789e+07 2.77789e+07 2.77789e+07 
2.77789e+07 2.77789e+07 2.77789e+07 2.77789e+07 2.77789e+07 2.77789e+07 2.77789e+07 2.77789e+07 2.77789e+07 2.77789e+07 
2.77789e+07 2.77789e+07 2.77789e+07 2.77789e+07 2.77789e+07 2.77789e+07 2.77789e+07 2.77789e+07 2.77789e+07 2.77789e+07 
2.77789e+07 2.77789e+07 2.77789e+07 2.77789e+07 2.77789e+07 2.77789e+07 2.77789e+07 2.77789e+07 2.77789e+07 2.77789e+07 
2.77789e+07 2.77789e+07 2.77789e+07 2.77789e+07 2.77789e+07 2.77789e+07 2.77789e+07 2.77789e+07 2.77789e+07 2.77789e+07 
2.77789e+07 2.77789e+07 2.77789e+07 2.77789e+07 2.77789e+07 2.77789e+07 2.77789e+07 2.77789e+07 2.77789e+07 2.77789e+07 
2.77789e+07 2.77789e+07 2.77789e+07 2.77789e+07 2.77789e+07 2.77789e+07 2.77789e+07 2.77789e+07 2.77789e+07 2.77789e+07 
2.77789e+07 2.77789e+07 2.77789e+07 2.77789e+07 2.77789e+07 2.77789e+07 2.77789e+07 2.77789e+07 2.77789e+07 2.77789e+07 
2.77789e+07 2.77789e+07 2.77789e+07 2.77789e+07 2.77789e+07 2.77789e+07 2.77789e+07 2.77789e+07 2.77789e+07 2.77789e+07 
2.77789e+07 2.77789e+07 2.77789e+07 2.77789e+07 2.77789e+07 2.77789e+07 2.77789e+07 2.77789e+07 2.77789e+07 2.77789e+07 
2.77789e+07 2.77789e+07 2.77789e+07 2.77789e+07 2.77789e+07 2.77789e+07 2.77789e+07 2.77789e+07 2.77789e+07 2.77789e+07 
2.77789e+07 2.77789e+07 2.77789e+07 2.77789e+07 2.77789e+07 2.77789e+07 2.77789e+07 2.77789e+07 2.77789e+07 2.77789e+07 
2.77789e+07 2.77789e+07 2.77789e+07 2.77789e+07 2.77789e+07 2.77789e+07 2.77789e+07 2.77789e+07 2.77789e+07 2.77789e+07 
2.77789e+07 2.77789e+07 2.77789e+07 2.77789e+07 2.77789e+07 2.77789e+07 2.77789e+07 2.77789e+07 2.77789e+07 2.77789e+07 
2.77789e+07 2.77789e+07 2.77789e+07 2.77789e+07 2.77789e+07 2.77789e+07 2.77789e+07 2.77789e+07 2.77789e+07 2.77789e+07 
2.77789e+07 2.77789e+07 2.77789e+07 2.77789e+07 2.77789e+07 2.77789e+07 2.77789e+07 2.77789e+07 2.77789e+07 2.77789e+07 
2.77789e+07 2.77789e+07 2.77789e+07 2.77789e+07 2.77789e+07 2.77789e+07 2.77789e+07 2.77789e+07 2.77789e+07 2.77789e+07 
2.77789e+07 2.77789e+07 2.77789e+07 2.77789e+07 2.77789e+07 2.77789e+07 2.77789e+07 2.77789e+07 2.77789e+07 2.77789e+07 
2.77789e+07 2.77789e+07 2.77789e+07 2.77789e+07 2.77789e+07 2.77789e+07 2.77789e+07 2.77789e+07 2.77789e+07 2.77789e+07 
2.77789e+07 2.77789e+07 2.77789e+07 2.77789e+07 2.77789e+07 2.77789e+07 2.77789e+07 2.77789e+07 2.77789e+07 SCALARS Pc_MPa float 1
LOOKUP_TABLE default
31.6489 31.6489 31.6489 31.6489 31.6489 31.6489 31.6489 31.6489 31.6489 
31.6489 31.6489 31.6489 31.6489 31.6489 31.6489 31.6489 31.6489 31.6489 31.6489 
31.6489 31.6489 31.6489 31.6489 31.6489 31.6489 31.6489 31.6489 31.6489 31.6489 
31.6489 31.6489 31.6489 31.6489 31.6489 31.6489 31.6489 31.6489 31.6489 31.6489 
31.6489 31.6489 31.6489 31.6489 31.6489 31.6489 31.6489 31.6489 31.6489 31.6489 
31.6489 31.6489 31.6489 31.6489 31.6489 31.6489 31.6489 31.6489 31.6489 31.6489 
31.6489 31.6489 31.6489 31.6489 31.6489 31.6489 31.6489 31.6489 31.6489 31.6489 
31.6489 31.6489 31.6489 31.6489 31.6489 31.6489 31.6489 31.6489 31.6489 31.6489 
31.6489 31.6489 31.6489 31.6489 31.6489 31.6489 31.6489 31.6489 31.6489 31.6489 
31.6489 31.6489 31.6489 31.6489 31.6489 31.6489 31.6489 31.6489 31.6489 31.6489 
31.6489 31.6489 31.6489 31.6489 31.6489 31.6489 31.6489 31.6489 31.6489 31.6489 
31.6489 31.6489 31.6489 31.6489 31.6489 31.6489 31.6489 31.6489 31.6489 31.6489 
31.6489 31.6489 31.6489 31.6489 31.6489 31.6489 31.6489 31.6489 31.6489 31.6489 
31.6489 31.6489 31.6489 31.6489 31.6489 31.6489 31.6489 31.6489 31.6489 31.6489 
31.6489 31.6489 31.6489 31.6489 31.6489 31.6489 31.6489 31.6489 31.6489 31.6489 
31.6489 31.6489 31.6489 31.6489 31.6489 31.6489 31.6489 31.6489 31.6489 31.6489 
31.6489 31.6489 31.6489 31.6489 31.6489 31.6489 31.6489 31.6489 31.6489 31.6489 
31.6489 31.6489 31.6489 31.6489 31.6489 31.6489 31.6489 31.6489 31.6489 31.6489 
31.6489 31.6489 31.6489 31.6489 31.6489 31.6489 31.6489 31.6489 31.6489 31.6489 
31.6489 31.6489 31.6489 31.6489 31.6489 31.6489 31.6489 31.6473 31.6473 31.6473 
31.6473 31.6473 31.6473 31.6473 31.6473 31.6473 31.6473 31.6473 31.6473 31.6473 
31.6473 31.6473 31.6473 31.6473 31.6473 31.6473 31.6473 31.6473 31.6473 31.6473 
31.6473 31.6473 31.6473 31.6473 31.6473 31.6473 31.6473 31.6473 31.6473 31.6473 
31.6473 31.6473 31.6473 31.6473 31.6473 31.6473 31.6473 31.6473 31.6473 31.6473 
31.6473 31.6473 31.6473 31.6473 31.6473 31.6473 31.6473 31.6473 31.6473 31.6473 
31.6473 31.6473 31.6473 31.6473 31.6473 31.6473 31.6473 31.6473 31.6473 31.6473 
31.6473 31.6473 31.6473 31.6473 31.6473 31.6473 31.6473 31.6473 31.6473 31.6473 
31.6473 31.6473 31.6473 31.6473 31.6473 31.6473 31.6473 31.6473 31.6473 31.6473 
31.6473 31.6473 31.6473 31.6473 31.6473 31.6473 31.6473 31.6473 31.6473 31.6473 
31.6473 31.6473 31.6473 31.6473 31.6473 31.6473 31.6473 31.6473 31.6473 31.6473 
31.6473 31.6473 31.6473 31.6473 31.6473 31.6473 31.6473 31.6473 31.6473 31.6473 
31.6473 31.6473 31.6473 31.6473 31.6473 31.6473 31.6473 31.6473 31.6473 31.6473 
31.6473 31.6473 31.6473 31.6473 31.6473 31.6473 31.6473 31.6473 31.6473 31.6473 
31.6473 31.6473 31.6473 31.6473 31.6473 31.6473 31.6473 31.6473 31.6473 31.6473 
31.6473 31.6473 31.6473 31.6473 31.6473 31.6473 31.6473 31.6473 31.6473 31.6473 
31.6473 31.6473 31.6473 31.6473 31.6473 31.6473 31.6473 31.6473 31.6473 31.6473 
31.6473 31.6473 31.6473 31.6473 31.6473 31.6473 31.6473 31.6473 31.6473 31.6473 
31.6473 31.6473 31.6473 31.6473 31.6473 31.6473 31.6473 31.6473 31.6473 31.6473 
31.6473 31.6473 31.6473 31.6473 31.6473 31.6473 31.6473 31.6473 31.6473 31.6473 
31.6473 31.6473 31.6473 31.649 31.649 31.649 31.649 31.649 31.649 31.649 
31.649 31.649 31.649 31.649 31.649 31.649 31.649 31.649 31.649 31.649 
31.649 31.649 31.649 31.649 31.649 31.649 31.649 31.649 31.649 31.649 
31.649 31.649 31.649 31.649 31.649 31.649 31.649 31.649 31.649 31.649 
31.649 31.649 31.649 31.649 31.649 31.649 31.649 31.649 31.649 31.649 
31.649 31.649 31.649 31.649 31.649 31.649 31.649 31.649 31.649 31.649 
31.649 31.649 31.649 31.649 31.649 31.649 31.649 31.649 31.649 31.649 
31.649 31.649 31.649 31.649 31.649 31.649 31.649 31.649 31.649 31.649 
31.649 31.649 31.649 31.649 31.649 31.649 31.649 31.649 31.649 31.649 
31.649 31.649 31.649 31.649 31.649 31.649 31.649 31.649 31.649 31.649 
31.649 31.649 31.649 31.649 31.649 31.649 31.649 31.649 31.649 31.649 
31.649 31.649 31.649 31.649 31.649 31.649 31.649 31.649 31.649 31.649 
31.649 31.649 31.649 31.649 31.649 31.649 31.649 31.649 31.649 31.649 
31.649 31.649 31.649 31.649 31.649 31.649 31.649 31.649 31.649 31.649 
31.649 31.649 31.649 31.649 31.649 31.649 31.649 31.649 31.649 31.649 
31.649 31.649 31.649 31.649 31.649 31.649 31.649 31.649 31.649 31.649 
31.649 31.649 31.649 31.649 31.649 31.649 31.649 31.649 31.649 31.649 
31.649 31.649 31.649 31.649 31.649 31.649 31.649 31.649 31.649 31.649 
31.649 31.649 31.649 31.649 31.649 31.649 31.649 31.649 31.649 31.649 
31.649 31.649 31.649 31.649 31.649 31.649 31.649 31.649 31.649 SCALARS stim float 1
LOOKUP_TABLE default
9 9 9 9 9 9 9 9 9 
9 9 9 9 9 9 9 9 9 9 
9 9 9 9 9 9 9 9 9 9 
9 9 9 9 9 9 9 9 9 9 
9 9 9 9 9 9 9 9 9 9 
9 9 9 9 9 9 9 9 9 9 
9 9 9 9 9 9 9 9 9 9 
9 9 9 9 9 9 9 9 9 9 
9 9 9 9 9 9 9 9 9 9 
9 9 9 9 9 9 9 9 9 9 
9 9 9 9 9 9 9 9 9 9 
9 9 9 9 9 9 9 9 9 9 
9 9 9 9 9 9 9 9 9 9 
9 9 9 9 9 9 9 9 9 9 
9 9 9 9 9 9 9 9 9 9 
9 9 9 9 9 9 9 9 9 9 
9 9 9 9 9 9 9 9 9 9 
9 9 9 9 9 9 9 9 9 9 
9 9 9 9 9 9 9 9 9 9 
9 9 9 9 9 9 9 9 9 9 
9 9 9 9 9 9 9 9 9 9 
9 9 9 9 9 9 9 9 9 9 
9 9 9 9 9 9 9 9 9 9 
9 9 9 9 9 9 9 9 9 9 
9 9 9 9 9 9 9 9 9 9 
9 9 9 9 9 9 9 9 9 9 
9 9 9 9 9 9 9 9 9 9 
9 9 9 9 9 9 9 9 9 9 
9 9 9 9 9 9 9 9 9 9 
9 9 9 9 9 9 9 9 9 9 
9 9 9 9 9 9 9 9 9 9 
9 9 9 9 9 9 9 9 9 9 
9 9 9 9 9 9 9 9 9 9 
9 9 9 9 9 9 9 9 9 9 
9 9 9 9 9 9 9 9 9 9 
9 9 9 9 9 9 9 9 9 9 
9 9 9 9 9 9 9 9 9 9 
9 9 9 9 9 9 9 9 9 9 
9 9 9 9 9 9 9 9 9 9 
9 9 9 9 9 9 9 9 9 9 
9 9 9 9 9 9 9 9 9 9 
9 9 9 9 9 9 9 9 9 9 
9 9 9 9 9 9 9 9 9 9 
9 9 9 9 9 9 9 9 9 9 
9 9 9 9 9 9 9 9 9 9 
9 9 9 9 9 9 9 9 9 9 
9 9 9 9 9 9 9 9 9 9 
9 9 9 9 9 9 9 9 9 9 
9 9 9 9 9 9 9 9 9 9 
9 9 9 9 9 9 9 9 9 9 
9 9 9 9 9 9 9 9 9 9 
9 9 9 9 9 9 9 9 9 9 
9 9 9 9 9 9 9 9 9 9 
9 9 9 9 9 9 9 9 9 9 
9 9 9 9 9 9 9 9 9 9 
9 9 9 9 9 9 9 9 9 9 
9 9 9 9 9 9 9 9 9 9 
9 9 9 9 9 9 9 9 9 9 
9 9 9 9 9 9 9 9 9 SCALARS Pmax_MPa float 1
LOOKUP_TABLE default
3.08517e+07 3.08517e+07 3.08517e+07 3.08517e+07 3.08517e+07 3.08517e+07 3.08517e+07 3.08517e+07 3.08517e+07 
3.08517e+07 3.08517e+07 3.08517e+07 3.08517e+07 3.08517e+07 3.08517e+07 3.08517e+07 3.08517e+07 3.08517e+07 3.08517e+07 
3.08517e+07 3.08517e+07 3.08517e+07 3.08517e+07 3.08517e+07 3.08517e+07 3.08517e+07 3.08517e+07 3.08517e+07 3.08517e+07 
3.08517e+07 3.08517e+07 3.08517e+07 3.08517e+07 3.08517e+07 3.08517e+07 3.08517e+07 3.08517e+07 3.08517e+07 3.08517e+07 
3.08517e+07 3.08517e+07 3.08517e+07 3.08517e+07 3.08517e+07 3.08517e+07 3.08517e+07 3.08517e+07 3.08517e+07 3.08517e+07 
3.08517e+07 3.08517e+07 3.08517e+07 3.08517e+07 3.08517e+07 3.08517e+07 3.08517e+07 3.08517e+07 3.08517e+07 3.08517e+07 
3.08517e+07 3.08517e+07 3.08517e+07 3.08517e+07 3.08517e+07 3.08517e+07 3.08517e+07 3.08517e+07 3.08517e+07 3.08517e+07 
3.08517e+07 3.08517e+07 3.08517e+07 3.08517e+07 3.08517e+07 3.08517e+07 3.08517e+07 3.08517e+07 3.08517e+07 3.08517e+07 
3.08517e+07 3.08517e+07 3.08517e+07 3.08517e+07 3.08517e+07 3.08517e+07 3.08517e+07 3.08517e+07 3.08517e+07 3.08517e+07 
3.08517e+07 3.08517e+07 3.08517e+07 3.08517e+07 3.08517e+07 3.08517e+07 3.08517e+07 3.08517e+07 3.08517e+07 3.08517e+07 
3.08517e+07 3.08517e+07 3.08517e+07 3.08517e+07 3.08517e+07 3.08517e+07 3.08517e+07 3.08517e+07 3.08517e+07 3.08517e+07 
3.08517e+07 3.08517e+07 3.08517e+07 3.08517e+07 3.08517e+07 3.08517e+07 3.08517e+07 3.08517e+07 3.08517e+07 3.08517e+07 
3.08517e+07 3.08517e+07 3.08517e+07 3.08517e+07 3.08517e+07 3.08517e+07 3.08517e+07 3.08517e+07 3.08517e+07 3.08517e+07 
3.08517e+07 3.08517e+07 3.08517e+07 3.08517e+07 3.08517e+07 3.08517e+07 3.08517e+07 3.08517e+07 3.08517e+07 3.08517e+07 
3.08517e+07 3.08517e+07 3.08517e+07 3.08517e+07 3.08517e+07 3.08517e+07 3.08517e+07 3.08517e+07 3.08517e+07 3.08517e+07 
3.08517e+07 3.08517e+07 3.08517e+07 3.08517e+07 3.08517e+07 3.08517e+07 3.08517e+07 3.08517e+07 3.08517e+07 3.08517e+07 
3.08517e+07 3.08517e+07 3.08517e+07 3.08517e+07 3.08517e+07 3.08517e+07 3.08517e+07 3.08517e+07 3.08517e+07 3.08517e+07 
3.08517e+07 3.08517e+07 3.08517e+07 3.08517e+07 3.08517e+07 3.08517e+07 3.08517e+07 3.08517e+07 3.08517e+07 3.08517e+07 
3.08517e+07 3.08517e+07 3.08517e+07 3.08517e+07 3.08517e+07 3.08517e+07 3.08517e+07 3.08517e+07 3.08517e+07 3.08517e+07 
3.08517e+07 3.08517e+07 3.08517e+07 3.08517e+07 3.08517e+07 3.08517e+07 3.08517e+07 3.08517e+07 3.08517e+07 3.08517e+07 
3.08517e+07 3.08517e+07 3.08517e+07 3.08517e+07 3.08517e+07 3.08517e+07 3.08517e+07 3.08517e+07 3.08517e+07 3.08517e+07 
3.08517e+07 3.08517e+07 3.08517e+07 3.08517e+07 3.08517e+07 3.08517e+07 3.08517e+07 3.08517e+07 3.08517e+07 3.08517e+07 
3.08517e+07 3.08517e+07 3.08517e+07 3.08517e+07 3.08517e+07 3.08517e+07 3.08517e+07 3.08517e+07 3.08517e+07 3.08517e+07 
3.08517e+07 3.08517e+07 3.08517e+07 3.08517e+07 3.08517e+07 3.08517e+07 3.08517e+07 3.08517e+07 3.08517e+07 3.08517e+07 
3.08517e+07 3.08517e+07 3.08517e+07 3.08517e+07 3.08517e+07 3.08517e+07 3.08517e+07 3.08517e+07 3.08517e+07 3.08517e+07 
3.08517e+07 3.08517e+07 3.08517e+07 3.08517e+07 3.08517e+07 3.08517e+07 3.08517e+07 3.08517e+07 3.08517e+07 3.08517e+07 
3.08517e+07 3.08517e+07 3.08517e+07 3.08517e+07 3.08517e+07 3.08517e+07 3.08517e+07 3.08517e+07 3.08517e+07 3.08517e+07 
3.08517e+07 3.08517e+07 3.08517e+07 3.08517e+07 3.08517e+07 3.08517e+07 3.08517e+07 3.08517e+07 3.08517e+07 3.08517e+07 
3.08517e+07 3.08517e+07 3.08517e+07 3.08517e+07 3.08517e+07 3.08517e+07 3.08517e+07 3.08517e+07 3.08517e+07 3.08517e+07 
3.08517e+07 3.08517e+07 3.08517e+07 3.08517e+07 3.08517e+07 3.08517e+07 3.08517e+07 3.08517e+07 3.08517e+07 3.08517e+07 
3.08517e+07 3.08517e+07 3.08517e+07 3.08517e+07 3.08517e+07 3.08517e+07 3.08517e+07 3.08517e+07 3.08517e+07 3.08517e+07 
3.08517e+07 3.08517e+07 3.08517e+07 3.08517e+07 3.08517e+07 3.08517e+07 3.08517e+07 3.08517e+07 3.08517e+07 3.08517e+07 
3.08517e+07 3.08517e+07 3.08517e+07 3.08517e+07 3.08517e+07 3.08517e+07 3.08517e+07 3.08517e+07 3.08517e+07 3.08517e+07 
3.08517e+07 3.08517e+07 3.08517e+07 3.08517e+07 3.08517e+07 3.08517e+07 3.08517e+07 3.08517e+07 3.08517e+07 3.08517e+07 
3.08517e+07 3.08517e+07 3.08517e+07 3.08517e+07 3.08517e+07 3.08517e+07 3.08517e+07 3.08517e+07 3.08517e+07 3.08517e+07 
3.08517e+07 3.08517e+07 3.08517e+07 3.08517e+07 3.08517e+07 3.08517e+07 3.08517e+07 3.08517e+07 3.08517e+07 3.08517e+07 
3.08517e+07 3.08517e+07 3.08517e+07 3.08517e+07 3.08517e+07 3.08517e+07 3.08517e+07 3.08517e+07 3.08517e+07 3.08517e+07 
3.08517e+07 3.08517e+07 3.08517e+07 3.08517e+07 3.08517e+07 3.08517e+07 3.08517e+07 3.08517e+07 3.08517e+07 3.08517e+07 
3.08517e+07 3.08517e+07 3.08517e+07 3.08517e+07 3.08517e+07 3.08517e+07 3.08517e+07 3.08517e+07 3.08517e+07 3.08517e+07 
3.08517e+07 3.08517e+07 3.08517e+07 3.08515e+07 3.08515e+07 3.08515e+07 3.08515e+07 3.08515e+07 3.08515e+07 3.08515e+07 
3.08515e+07 3.08515e+07 3.08515e+07 3.08515e+07 3.08515e+07 3.08515e+07 3.08515e+07 3.08515e+07 3.08515e+07 3.08515e+07 
3.08515e+07 3.08515e+07 3.08515e+07 3.08515e+07 3.08515e+07 3.08515e+07 3.08515e+07 3.08515e+07 3.08515e+07 3.08515e+07 
3.08515e+07 3.08515e+07 3.08515e+07 3.08515e+07 3.08515e+07 3.08515e+07 3.08515e+07 3.08515e+07 3.08515e+07 3.08515e+07 
3.08515e+07 3.08515e+07 3.08515e+07 3.08515e+07 3.08515e+07 3.08515e+07 3.08515e+07 3.08515e+07 3.08515e+07 3.08515e+07 
3.08515e+07 3.08515e+07 3.08515e+07 3.08515e+07 3.08515e+07 3.08515e+07 3.08515e+07 3.08515e+07 3.08515e+07 3.08515e+07 
3.08515e+07 3.08515e+07 3.08515e+07 3.08515e+07 3.08515e+07 3.08515e+07 3.08515e+07 3.08515e+07 3.08515e+07 3.08515e+07 
3.08515e+07 3.08515e+07 3.08515e+07 3.08515e+07 3.08515e+07 3.08515e+07 3.08515e+07 3.08515e+07 3.08515e+07 3.08515e+07 
3.08515e+07 3.08515e+07 3.08515e+07 3.08515e+07 3.08515e+07 3.08515e+07 3.08515e+07 3.08515e+07 3.08515e+07 3.08515e+07 
3.08515e+07 3.08515e+07 3.08515e+07 3.08515e+07 3.08515e+07 3.08515e+07 3.08515e+07 3.08515e+07 3.08515e+07 3.08515e+07 
3.08515e+07 3.08515e+07 3.08515e+07 3.08515e+07 3.08515e+07 3.08515e+07 3.08515e+07 3.08515e+07 3.08515e+07 3.08515e+07 
3.08515e+07 3.08515e+07 3.08515e+07 3.08515e+07 3.08515e+07 3.08515e+07 3.08515e+07 3.08515e+07 3.08515e+07 3.08515e+07 
3.08515e+07 3.08515e+07 3.08515e+07 3.08515e+07 3.08515e+07 3.08515e+07 3.08515e+07 3.08515e+07 3.08515e+07 3.08515e+07 
3.08515e+07 3.08515e+07 3.08515e+07 3.08515e+07 3.08515e+07 3.08515e+07 3.08515e+07 3.08515e+07 3.08515e+07 3.08515e+07 
3.08515e+07 3.08515e+07 3.08515e+07 3.08515e+07 3.08515e+07 3.08515e+07 3.08515e+07 3.08515e+07 3.08515e+07 3.08515e+07 
3.08515e+07 3.08515e+07 3.08515e+07 3.08515e+07 3.08515e+07 3.08515e+07 3.08515e+07 3.08515e+07 3.08515e+07 3.08515e+07 
3.08515e+07 3.08515e+07 3.08515e+07 3.08515e+07 3.08515e+07 3.08515e+07 3.08515e+07 3.08515e+07 3.08515e+07 3.08515e+07 
3.08515e+07 3.08515e+07 3.08515e+07 3.08515e+07 3.08515e+07 3.08515e+07 3.08515e+07 3.08515e+07 3.08515e+07 3.08515e+07 
3.08515e+07 3.08515e+07 3.08515e+07 3.08515e+07 3.08515e+07 3.08515e+07 3.08515e+07 3.08515e+07 3.08515e+07 3.08515e+07 
3.08515e+07 3.08515e+07 3.08515e+07 3.08515e+07 3.08515e+07 3.08515e+07 3.08515e+07 3.08515e+07 3.08515e+07 SCALARS Tau_MPa float 1
LOOKUP_TABLE default
0.226144 0.226144 0.226144 0.226144 0.226144 0.226144 0.226144 0.226144 0.226144 
0.226144 0.226144 0.226144 0.226144 0.226144 0.226144 0.226144 0.226144 0.226144 0.226144 
0.226144 0.226144 0.226144 0.226144 0.226144 0.226144 0.226144 0.226144 0.226144 0.226144 
0.226144 0.226144 0.226144 0.226144 0.226144 0.226144 0.226144 0.226144 0.226144 0.226144 
0.226144 0.226144 0.226144 0.226144 0.226144 0.226144 0.226144 0.226144 0.226144 0.226144 
0.226144 0.226144 0.226144 0.226144 0.226144 0.226144 0.226144 0.226144 0.226144 0.226144 
0.226144 0.226144 0.226144 0.226144 0.226144 0.226144 0.226144 0.226144 0.226144 0.226144 
0.226144 0.226144 0.226144 0.226144 0.226144 0.226144 0.226144 0.226144 0.226144 0.226144 
0.226144 0.226144 0.226144 0.226144 0.226144 0.226144 0.226144 0.226144 0.226144 0.226144 
0.226144 0.226144 0.226144 0.226144 0.226144 0.226144 0.226144 0.226144 0.226144 0.226144 
0.226144 0.226144 0.226144 0.226144 0.226144 0.226144 0.226144 0.226144 0.226144 0.226144 
0.226144 0.226144 0.226144 0.226144 0.226144 0.226144 0.226144 0.226144 0.226144 0.226144 
0.226144 0.226144 0.226144 0.226144 0.226144 0.226144 0.226144 0.226144 0.226144 0.226144 
0.226144 0.226144 0.226144 0.226144 0.226144 0.226144 0.226144 0.226144 0.226144 0.226144 
0.226144 0.226144 0.226144 0.226144 0.226144 0.226144 0.226144 0.226144 0.226144 0.226144 
0.226144 0.226144 0.226144 0.226144 0.226144 0.226144 0.226144 0.226144 0.226144 0.226144 
0.226144 0.226144 0.226144 0.226144 0.226144 0.226144 0.226144 0.226144 0.226144 0.226144 
0.226144 0.226144 0.226144 0.226144 0.226144 0.226144 0.226144 0.226144 0.226144 0.226144 
0.226144 0.226144 0.226144 0.226144 0.226144 0.226144 0.226144 0.226144 0.226144 0.226144 
0.226144 0.226144 0.226144 0.226144 0.226144 0.226144 0.226144 0.0837059 0.0837059 0.0837059 
0.0837059 0.0837059 0.0837059 0.0837059 0.0837059 0.0837059 0.0837059 0.0837059 0.0837059 0.0837059 
0.0837059 0.0837059 0.0837059 0.0837059 0.0837059 0.0837059 0.0837059 0.0837059 0.0837059 0.0837059 
0.0837059 0.0837059 0.0837059 0.0837059 0.0837059 0.0837059 0.0837059 0.0837059 0.0837059 0.0837059 
0.0837059 0.0837059 0.0837059 0.0837059 0.0837059 0.0837059 0.0837059 0.0837059 0.0837059 0.0837059 
0.0837059 0.0837059 0.0837059 0.0837059 0.0837059 0.0837059 0.0837059 0.0837059 0.0837059 0.0837059 
0.0837059 0.0837059 0.0837059 0.0837059 0.0837059 0.0837059 0.0837059 0.0837059 0.0837059 0.0837059 
0.0837059 0.0837059 0.0837059 0.0837059 0.0837059 0.0837059 0.0837059 0.0837059 0.0837059 0.0837059 
0.0837059 0.0837059 0.0837059 0.0837059 0.0837059 0.0837059 0.0837059 0.0837059 0.0837059 0.0837059 
0.0837059 0.0837059 0.0837059 0.0837059 0.0837059 0.0837059 0.0837059 0.0837059 0.0837059 0.0837059 
0.0837059 0.0837059 0.0837059 0.0837059 0.0837059 0.0837059 0.0837059 0.0837059 0.0837059 0.0837059 
0.0837059 0.0837059 0.0837059 0.0837059 0.0837059 0.0837059 0.0837059 0.0837059 0.0837059 0.0837059 
0.0837059 0.0837059 0.0837059 0.0837059 0.0837059 0.0837059 0.0837059 0.0837059 0.0837059 0.0837059 
0.0837059 0.0837059 0.0837059 0.0837059 0.0837059 0.0837059 0.0837059 0.0837059 0.0837059 0.0837059 
0.0837059 0.0837059 0.0837059 0.0837059 0.0837059 0.0837059 0.0837059 0.0837059 0.0837059 0.0837059 
0.0837059 0.0837059 0.0837059 0.0837059 0.0837059 0.0837059 0.0837059 0.0837059 0.0837059 0.0837059 
0.0837059 0.0837059 0.0837059 0.0837059 0.0837059 0.0837059 0.0837059 0.0837059 0.0837059 0.0837059 
0.0837059 0.0837059 0.0837059 0.0837059 0.0837059 0.0837059 0.0837059 0.0837059 0.0837059 0.0837059 
0.0837059 0.0837059 0.0837059 0.0837059 0.0837059 0.0837059 0.0837059 0.0837059 0.0837059 0.0837059 
0.0837059 0.0837059 0.0837059 0.0837059 0.0837059 0.0837059 0.0837059 0.0837059 0.0837059 0.0837059 
0.0837059 0.0837059 0.0837059 0.217562 0.217562 0.217562 0.217562 0.217562 0.217562 0.217562 
0.217562 0.217562 0.217562 0.217562 0.217562 0.217562 0.217562 0.217562 0.217562 0.217562 
0.217562 0.217562 0.217562 0.217562 0.217562 0.217562 0.217562 0.217562 0.217562 0.217562 
0.217562 0.217562 0.217562 0.217562 0.217562 0.217562 0.217562 0.217562 0.217562 0.217562 
0.217562 0.217562 0.217562 0.217562 0.217562 0.217562 0.217562 0.217562 0.217562 0.217562 
0.217562 0.217562 0.217562 0.217562 0.217562 0.217562 0.217562 0.217562 0.217562 0.217562 
0.217562 0.217562 0.217562 0.217562 0.217562 0.217562 0.217562 0.217562 0.217562 0.217562 
0.217562 0.217562 0.217562 0.217562 0.217562 0.217562 0.217562 0.217562 0.217562 0.217562 
0.217562 0.217562 0.217562 0.217562 0.217562 0.217562 0.217562 0.217562 0.217562 0.217562 
0.217562 0.217562 0.217562 0.217562 0.217562 0.217562 0.217562 0.217562 0.217562 0.217562 
0.217562 0.217562 0.217562 0.217562 0.217562 0.217562 0.217562 0.217562 0.217562 0.217562 
0.217562 0.217562 0.217562 0.217562 0.217562 0.217562 0.217562 0.217562 0.217562 0.217562 
0.217562 0.217562 0.217562 0.217562 0.217562 0.217562 0.217562 0.217562 0.217562 0.217562 
0.217562 0.217562 0.217562 0.217562 0.217562 0.217562 0.217562 0.217562 0.217562 0.217562 
0.217562 0.217562 0.217562 0.217562 0.217562 0.217562 0.217562 0.217562 0.217562 0.217562 
0.217562 0.217562 0.217562 0.217562 0.217562 0.217562 0.217562 0.217562 0.217562 0.217562 
0.217562 0.217562 0.217562 0.217562 0.217562 0.217562 0.217562 0.217562 0.217562 0.217562 
0.217562 0.217562 0.217562 0.217562 0.217562 0.217562 0.217562 0.217562 0.217562 0.217562 
0.217562 0.217562 0.217562 0.217562 0.217562 0.217562 0.217562 0.217562 0.217562 0.217562 
0.217562 0.217562 0.217562 0.217562 0.217562 0.217562 0.217562 0.217562 0.217562 SCALARS Mwmax float 1
LOOKUP_TABLE default
1.26006 1.26006 1.26006 1.26006 1.26006 1.26006 1.26006 1.26006 1.26006 
1.26006 1.26006 1.26006 1.26006 1.26006 1.26006 1.26006 1.26006 1.26006 1.26006 
1.26006 1.26006 1.26006 1.26006 1.26006 1.26006 1.26006 1.26006 1.26006 1.26006 
1.26006 1.26006 1.26006 1.26006 1.26006 1.26006 1.26006 1.26006 1.26006 1.26006 
1.26006 1.26006 1.26006 1.26006 1.26006 1.26006 1.26006 1.26006 1.26006 1.26006 
1.26006 1.26006 1.26006 1.26006 1.26006 1.26006 1.26006 1.26006 1.26006 1.26006 
1.26006 1.26006 1.26006 1.26006 1.26006 1.26006 1.26006 1.26006 1.26006 1.26006 
1.26006 1.26006 1.26006 1.26006 1.26006 1.26006 1.26006 1.26006 1.26006 1.26006 
1.26006 1.26006 1.26006 1.26006 1.26006 1.26006 1.26006 1.26006 1.26006 1.26006 
1.26006 1.26006 1.26006 1.26006 1.26006 1.26006 1.26006 1.26006 1.26006 1.26006 
1.26006 1.26006 1.26006 1.26006 1.26006 1.26006 1.26006 1.26006 1.26006 1.26006 
1.26006 1.26006 1.26006 1.26006 1.26006 1.26006 1.26006 1.26006 1.26006 1.26006 
1.26006 1.26006 1.26006 1.26006 1.26006 1.26006 1.26006 1.26006 1.26006 1.26006 
1.26006 1.26006 1.26006 1.26006 1.26006 1.26006 1.26006 1.26006 1.26006 1.26006 
1.26006 1.26006 1.26006 1.26006 1.26006 1.26006 1.26006 1.26006 1.26006 1.26006 
1.26006 1.26006 1.26006 1.26006 1.26006 1.26006 1.26006 1.26006 1.26006 1.26006 
1.26006 1.26006 1.26006 1.26006 1.26006 1.26006 1.26006 1.26006 1.26006 1.26006 
1.26006 1.26006 1.26006 1.26006 1.26006 1.26006 1.26006 1.26006 1.26006 1.26006 
1.26006 1.26006 1.26006 1.26006 1.26006 1.26006 1.26006 1.26006 1.26006 1.26006 
1.26006 1.26006 1.26006 1.26006 1.26006 1.26006 1.26006 1.40231 1.40231 1.40231 
1.40231 1.40231 1.40231 1.40231 1.40231 1.40231 1.40231 1.40231 1.40231 1.40231 
1.40231 1.40231 1.40231 1.40231 1.40231 1.40231 1.40231 1.40231 1.40231 1.40231 
1.40231 1.40231 1.40231 1.40231 1.40231 1.40231 1.40231 1.40231 1.40231 1.40231 
1.40231 1.40231 1.40231 1.40231 1.40231 1.40231 1.40231 1.40231 1.40231 1.40231 
1.40231 1.40231 1.40231 1.40231 1.40231 1.40231 1.40231 1.40231 1.40231 1.40231 
1.40231 1.40231 1.40231 1.40231 1.40231 1.40231 1.40231 1.40231 1.40231 1.40231 
1.40231 1.40231 1.40231 1.40231 1.40231 1.40231 1.40231 1.40231 1.40231 1.40231 
1.40231 1.40231 1.40231 1.40231 1.40231 1.40231 1.40231 1.40231 1.40231 1.40231 
1.40231 1.40231 1.40231 1.40231 1.40231 1.40231 1.40231 1.40231 1.40231 1.40231 
1.40231 1.40231 1.40231 1.40231 1.40231 1.40231 1.40231 1.40231 1.40231 1.40231 
1.40231 1.40231 1.40231 1.40231 1.40231 1.40231 1.40231 1.40231 1.40231 1.40231 
1.40231 1.40231 1.40231 1.40231 1.40231 1.40231 1.40231 1.40231 1.40231 1.40231 
1.40231 1.40231 1.40231 1.40231 1.40231 1.40231 1.40231 1.40231 1.40231 1.40231 
1.40231 1.40231 1.40231 1.40231 1.40231 1.40231 1.40231 1.40231 1.40231 1.40231 
1.40231 1.40231 1.40231 1.40231 1.40231 1.40231 1.40231 1.40231 1.40231 1.40231 
1.40231 1.40231 1.40231 1.40231 1.40231 1.40231 1.40231 1.40231 1.40231 1.40231 
1.40231 1.40231 1.40231 1.40231 1.40231 1.40231 1.40231 1.40231 1.40231 1.40231 
1.40231 1.40231 1.40231 1.40231 1.40231 1.40231 1.40231 1.40231 1.40231 1.40231 
1.40231 1.40231 1.40231 1.40231 1.40231 1.40231 1.40231 1.40231 1.40231 1.40231 
1.40231 1.40231 1.40231 0.639288 0.639288 0.639288 0.639288 0.639288 0.639288 0.639288 
0.639288 0.639288 0.639288 0.639288 0.639288 0.639288 0.639288 0.639288 0.639288 0.639288 
0.639288 0.639288 0.639288 0.639288 0.639288 0.639288 0.639288 0.639288 0.639288 0.639288 
0.639288 0.639288 0.639288 0.639288 0.639288 0.639288 0.639288 0.639288 0.639288 0.639288 
0.639288 0.639288 0.639288 0.639288 0.639288 0.639288 0.639288 0.639288 0.639288 0.639288 
0.639288 0.639288 0.639288 0.639288 0.639288 0.639288 0.639288 0.639288 0.639288 0.639288 
0.639288 0.639288 0.639288 0.639288 0.639288 0.639288 0.639288 0.639288 0.639288 0.639288 
0.639288 0.639288 0.639288 0.639288 0.639288 0.639288 0.639288 0.639288 0.639288 0.639288 
0.639288 0.639288 0.639288 0.639288 0.639288 0.639288 0.639288 0.639288 0.639288 0.639288 
0.639288 0.639288 0.639288 0.639288 0.639288 0.639288 0.639288 0.639288 0.639288 0.639288 
0.639288 0.639288 0.639288 0.639288 0.639288 0.639288 0.639288 0.639288 0.639288 0.639288 
0.639288 0.639288 0.639288 0.639288 0.639288 0.639288 0.639288 0.639288 0.639288 0.639288 
0.639288 0.639288 0.639288 0.639288 0.639288 0.639288 0.639288 0.639288 0.639288 0.639288 
0.639288 0.639288 0.639288 0.639288 0.639288 0.639288 0.639288 0.639288 0.639288 0.639288 
0.639288 0.639288 0.639288 0.639288 0.639288 0.639288 0.639288 0.639288 0.639288 0.639288 
0.639288 0.639288 0.639288 0.639288 0.639288 0.639288 0.639288 0.639288 0.639288 0.639288 
0.639288 0.639288 0.639288 0.639288 0.639288 0.639288 0.639288 0.639288 0.639288 0.639288 
0.639288 0.639288 0.639288 0.639288 0.639288 0.639288 0.639288 0.639288 0.639288 0.639288 
0.639288 0.639288 0.639288 0.639288 0.639288 0.639288 0.639288 0.639288 0.639288 0.639288 
0.639288 0.639288 0.639288 0.639288 0.639288 0.639288 0.639288 0.639288 0.639288 SCALARS Propped_mm float 1
LOOKUP_TABLE default
0.595966 0.595966 0.595966 0.595966 0.595966 0.595966 0.595966 0.595966 0.595966 
0.595966 0.595966 0.595966 0.595966 0.595966 0.595966 0.595966 0.595966 0.595966 0.595966 
0.595966 0.595966 0.595966 0.595966 0.595966 0.595966 0.595966 0.595966 0.595966 0.595966 
0.595966 0.595966 0.595966 0.595966 0.595966 0.595966 0.595966 0.595966 0.595966 0.595966 
0.595966 0.595966 0.595966 0.595966 0.595966 0.595966 0.595966 0.595966 0.595966 0.595966 
0.595966 0.595966 0.595966 0.595966 0.595966 0.595966 0.595966 0.595966 0.595966 0.595966 
0.595966 0.595966 0.595966 0.595966 0.595966 0.595966 0.595966 0.595966 0.595966 0.595966 
0.595966 0.595966 0.595966 0.595966 0.595966 0.595966 0.595966 0.595966 0.595966 0.595966 
0.595966 0.595966 0.595966 0.595966 0.595966 0.595966 0.595966 0.595966 0.595966 0.595966 
0.595966 0.595966 0.595966 0.595966 0.595966 0.595966 0.595966 0.595966 0.595966 0.595966 
0.595966 0.595966 0.595966 0.595966 0.595966 0.595966 0.595966 0.595966 0.595966 0.595966 
0.595966 0.595966 0.595966 0.595966 0.595966 0.595966 0.595966 0.595966 0.595966 0.595966 
0.595966 0.595966 0.595966 0.595966 0.595966 0.595966 0.595966 0.595966 0.595966 0.595966 
0.595966 0.595966 0.595966 0.595966 0.595966 0.595966 0.595966 0.595966 0.595966 0.595966 
0.595966 0.595966 0.595966 0.595966 0.595966 0.595966 0.595966 0.595966 0.595966 0.595966 
0.595966 0.595966 0.595966 0.595966 0.595966 0.595966 0.595966 0.595966 0.595966 0.595966 
0.595966 0.595966 0.595966 0.595966 0.595966 0.595966 0.595966 0.595966 0.595966 0.595966 
0.595966 0.595966 0.595966 0.595966 0.595966 0.595966 0.595966 0.595966 0.595966 0.595966 
0.595966 0.595966 0.595966 0.595966 0.595966 0.595966 0.595966 0.595966 0.595966 0.595966 
0.595966 0.595966 0.595966 0.595966 0.595966 0.595966 0.595966 0.59252 0.59252 0.59252 
0.59252 0.59252 0.59252 0.59252 0.59252 0.59252 0.59252 0.59252 0.59252 0.59252 
0.59252 0.59252 0.59252 0.59252 0.59252 0.59252 0.59252 0.59252 0.59252 0.59252 
0.59252 0.59252 0.59252 0.59252 0.59252 0.59252 0.59252 0.59252 0.59252 0.59252 
0.59252 0.59252 0.59252 0.59252 0.59252 0.59252 0.59252 0.59252 0.59252 0.59252 
0.59252 0.59252 0.59252 0.59252 0.59252 0.59252 0.59252 0.59252 0.59252 0.59252 
0.59252 0.59252 0.59252 0.59252 0.59252 0.59252 0.59252 0.59252 0.59252 0.59252 
0.59252 0.59252 0.59252 0.59252 0.59252 0.59252 0.59252 0.59252 0.59252 0.59252 
0.59252 0.59252 0.59252 0.59252 0.59252 0.59252 0.59252 0.59252 0.59252 0.59252 
0.59252 0.59252 0.59252 0.59252 0.59252 0.59252 0.59252 0.59252 0.59252 0.59252 
0.59252 0.59252 0.59252 0.59252 0.59252 0.59252 0.59252 0.59252 0.59252 0.59252 
0.59252 0.59252 0.59252 0.59252 0.59252 0.59252 0.59252 0.59252 0.59252 0.59252 
0.59252 0.59252 0.59252 0.59252 0.59252 0.59252 0.59252 0.59252 0.59252 0.59252 
0.59252 0.59252 0.59252 0.59252 0.59252 0.59252 0.59252 0.59252 0.59252 0.59252 
0.59252 0.59252 0.59252 0.59252 0.59252 0.59252 0.59252 0.59252 0.59252 0.59252 
0.59252 0.59252 0.59252 0.59252 0.59252 0.59252 0.59252 0.59252 0.59252 0.59252 
0.59252 0.59252 0.59252 0.59252 0.59252 0.59252 0.59252 0.59252 0.59252 0.59252 
0.59252 0.59252 0.59252 0.59252 0.59252 0.59252 0.59252 0.59252 0.59252 0.59252 
0.59252 0.59252 0.59252 0.59252 0.59252 0.59252 0.59252 0.59252 0.59252 0.59252 
0.59252 0.59252 0.59252 0.59252 0.59252 0.59252 0.59252 0.59252 0.59252 0.59252 
0.59252 0.59252 0.59252 0.596863 0.596863 0.596863 0.596863 0.596863 0.596863 0.596863 
0.596863 0.596863 0.596863 0.596863 0.596863 0.596863 0.596863 0.596863 0.596863 0.596863 
0.596863 0.596863 0.596863 0.596863 0.596863 0.596863 0.596863 0.596863 0.596863 0.596863 
0.596863 0.596863 0.596863 0.596863 0.596863 0.596863 0.596863 0.596863 0.596863 0.596863 
0.596863 0.596863 0.596863 0.596863 0.596863 0.596863 0.596863 0.596863 0.596863 0.596863 
0.596863 0.596863 0.596863 0.596863 0.596863 0.596863 0.596863 0.596863 0.596863 0.596863 
0.596863 0.596863 0.596863 0.596863 0.596863 0.596863 0.596863 0.596863 0.596863 0.596863 
0.596863 0.596863 0.596863 0.596863 0.596863 0.596863 0.596863 0.596863 0.596863 0.596863 
0.596863 0.596863 0.596863 0.596863 0.596863 0.596863 0.596863 0.596863 0.596863 0.596863 
0.596863 0.596863 0.596863 0.596863 0.596863 0.596863 0.596863 0.596863 0.596863 0.596863 
0.596863 0.596863 0.596863 0.596863 0.596863 0.596863 0.596863 0.596863 0.596863 0.596863 
0.596863 0.596863 0.596863 0.596863 0.596863 0.596863 0.596863 0.596863 0.596863 0.596863 
0.596863 0.596863 0.596863 0.596863 0.596863 0.596863 0.596863 0.596863 0.596863 0.596863 
0.596863 0.596863 0.596863 0.596863 0.596863 0.596863 0.596863 0.596863 0.596863 0.596863 
0.596863 0.596863 0.596863 0.596863 0.596863 0.596863 0.596863 0.596863 0.596863 0.596863 
0.596863 0.596863 0.596863 0.596863 0.596863 0.596863 0.596863 0.596863 0.596863 0.596863 
0.596863 0.596863 0.596863 0.596863 0.596863 0.596863 0.596863 0.596863 0.596863 0.596863 
0.596863 0.596863 0.596863 0.596863 0.596863 0.596863 0.596863 0.596863 0.596863 0.596863 
0.596863 0.596863 0.596863 0.596863 0.596863 0.596863 0.596863 0.596863 0.596863 0.596863 
0.596863 0.596863 0.596863 0.596863 0.596863 0.596863 0.596863 0.596863 0.596863 SCALARS Prop_m3 float 1
LOOKUP_TABLE default
111.072 111.072 111.072 111.072 111.072 111.072 111.072 111.072 111.072 
111.072 111.072 111.072 111.072 111.072 111.072 111.072 111.072 111.072 111.072 
111.072 111.072 111.072 111.072 111.072 111.072 111.072 111.072 111.072 111.072 
111.072 111.072 111.072 111.072 111.072 111.072 111.072 111.072 111.072 111.072 
111.072 111.072 111.072 111.072 111.072 111.072 111.072 111.072 111.072 111.072 
111.072 111.072 111.072 111.072 111.072 111.072 111.072 111.072 111.072 111.072 
111.072 111.072 111.072 111.072 111.072 111.072 111.072 111.072 111.072 111.072 
111.072 111.072 111.072 111.072 111.072 111.072 111.072 111.072 111.072 111.072 
111.072 111.072 111.072 111.072 111.072 111.072 111.072 111.072 111.072 111.072 
111.072 111.072 111.072 111.072 111.072 111.072 111.072 111.072 111.072 111.072 
111.072 111.072 111.072 111.072 111.072 111.072 111.072 111.072 111.072 111.072 
111.072 111.072 111.072 111.072 111.072 111.072 111.072 111.072 111.072 111.072 
111.072 111.072 111.072 111.072 111.072 111.072 111.072 111.072 111.072 111.072 
111.072 111.072 111.072 111.072 111.072 111.072 111.072 111.072 111.072 111.072 
111.072 111.072 111.072 111.072 111.072 111.072 111.072 111.072 111.072 111.072 
111.072 111.072 111.072 111.072 111.072 111.072 111.072 111.072 111.072 111.072 
111.072 111.072 111.072 111.072 111.072 111.072 111.072 111.072 111.072 111.072 
111.072 111.072 111.072 111.072 111.072 111.072 111.072 111.072 111.072 111.072 
111.072 111.072 111.072 111.072 111.072 111.072 111.072 111.072 111.072 111.072 
111.072 111.072 111.072 111.072 111.072 111.072 111.072 110.43 110.43 110.43 
110.43 110.43 110.43 110.43 110.43 110.43 110.43 110.43 110.43 110.43 
110.43 110.43 110.43 110.43 110.43 110.43 110.43 110.43 110.43 110.43 
110.43 110.43 110.43 110.43 110.43 110.43 110.43 110.43 110.43 110.43 
110.43 110.43 110.43 110.43 110.43 110.43 110.43 110.43 110.43 110.43 
110.43 110.43 110.43 110.43 110.43 110.43 110.43 110.43 110.43 110.43 
110.43 110.43 110.43 110.43 110.43 110.43 110.43 110.43 110.43 110.43 
110.43 110.43 110.43 110.43 110.43 110.43 110.43 110.43 110.43 110.43 
110.43 110.43 110.43 110.43 110.43 110.43 110.43 110.43 110.43 110.43 
110.43 110.43 110.43 110.43 110.43 110.43 110.43 110.43 110.43 110.43 
110.43 110.43 110.43 110.43 110.43 110.43 110.43 110.43 110.43 110.43 
110.43 110.43 110.43 110.43 110.43 110.43 110.43 110.43 110.43 110.43 
110.43 110.43 110.43 110.43 110.43 110.43 110.43 110.43 110.43 110.43 
110.43 110.43 110.43 110.43 110.43 110.43 110.43 110.43 110.43 110.43 
110.43 110.43 110.43 110.43 110.43 110.43 110.43 110.43 110.43 110.43 
110.43 110.43 110.43 110.43 110.43 110.43 110.43 110.43 110.43 110.43 
110.43 110.43 110.43 110.43 110.43 110.43 110.43 110.43 110.43 110.43 
110.43 110.43 110.43 110.43 110.43 110.43 110.43 110.43 110.43 110.43 
110.43 110.43 110.43 110.43 110.43 110.43 110.43 110.43 110.43 110.43 
110.43 110.43 110.43 110.43 110.43 110.43 110.43 110.43 110.43 110.43 
110.43 110.43 110.43 111.24 111.24 111.24 111.24 111.24 111.24 111.24 
111.24 111.24 111.24 111.24 111.24 111.24 111.24 111.24 111.24 111.24 
111.24 111.24 111.24 111.24 111.24 111.24 111.24 111.24 111.24 111.24 
111.24 111.24 111.24 111.24 111.24 111.24 111.24 111.24 111.24 111.24 
111.24 111.24 111.24 111.24 111.24 111.24 111.24 111.24 111.24 111.24 
111.24 111.24 111.24 111.24 111.24 111.24 111.24 111.24 111.24 111.24 
111.24 111.24 111.24 111.24 111.24 111.24 111.24 111.24 111.24 111.24 
111.24 111.24 111.24 111.24 111.24 111.24 111.24 111.24 111.24 111.24 
111.24 111.24 111.24 111.24 111.24 111.24 111.24 111.24 111.24 111.24 
111.24 111.24 111.24 111.24 111.24 111.24 111.24 111.24 111.24 111.24 
111.24 111.24 111.24 111.24 111.24 111.24 111.24 111.24 111.24 111.24 
111.24 111.24 111.24 111.24 111.24 111.24 111.24 111.24 111.24 111.24 
111.24 111.24 111.24 111.24 111.24 111.24 111.24 111.24 111.24 111.24 
111.24 111.24 111.24 111.24 111.24 111.24 111.24 111.24 111.24 111.24 
111.24 111.24 111.24 111.24 111.24 111.24 111.24 111.24 111.24 111.24 
111.24 111.24 111.24 111.24 111.24 111.24 111.24 111.24 111.24 111.24 
111.24 111.24 111.24 111.24 111.24 111.24 111.24 111.24 111.24 111.24 
111.24 111.24 111.24 111.24 111.24 111.24 111.24 111.24 111.24 111.24 
111.24 111.24 111.24 111.24 111.24 111.24 111.24 111.24 111.24 111.24 
111.24 111.24 111.24 111.24 111.24 111.24 111.24 111.24 111.24 
