# vtk DataFile Version 2.0
vtkObjects
ASCII
DATASET UNSTRUCTURED_GRID
POINTS 280 float
-546.451 87.5496 2454.37
-540.451 87.5496 2454.37
-546.451 93.5496 2454.37
-540.451 93.5496 2454.37
-546.451 87.5496 2460.37
-540.451 87.5496 2460.37
-546.451 93.5496 2460.37
-540.451 93.5496 2460.37
-543.451 88.6955 2452.52
-543.451 92.4037 2452.52
-543.451 88.6955 2462.23
-543.451 92.4037 2462.23
-545.305 85.6955 2457.37
-541.597 85.6955 2457.37
-545.305 95.4037 2457.37
-541.597 95.4037 2457.37
-548.305 90.5496 2455.52
-548.305 90.5496 2459.23
-538.597 90.5496 2455.52
-538.597 90.5496 2459.23
-546.451 87.5496 2345.25
-540.451 87.5496 2345.25
-546.451 93.5496 2345.25
-540.451 93.5496 2345.25
-546.451 87.5496 2351.25
-540.451 87.5496 2351.25
-546.451 93.5496 2351.25
-540.451 93.5496 2351.25
-543.451 88.6955 2343.39
-543.451 92.4037 2343.39
-543.451 88.6955 2353.1
-543.451 92.4037 2353.1
-545.305 85.6955 2348.25
-541.597 85.6955 2348.25
-545.305 95.4037 2348.25
-541.597 95.4037 2348.25
-548.305 90.5496 2346.39
-548.305 90.5496 2350.1
-538.597 90.5496 2346.39
-538.597 90.5496 2350.1
-530.175 192.64 2454.47
-524.175 192.64 2454.47
-530.175 198.64 2454.47
-524.175 198.64 2454.47
-530.175 192.64 2460.47
-524.175 192.64 2460.47
-530.175 198.64 2460.47
-524.175 198.64 2460.47
-527.175 193.786 2452.62
-527.175 197.494 2452.62
-527.175 193.786 2462.33
-527.175 197.494 2462.33
-529.029 190.786 2457.47
-525.321 190.786 2457.47
-529.029 200.494 2457.47
-525.321 200.494 2457.47
-532.029 195.64 2455.62
-532.029 195.64 2459.33
-522.321 195.64 2455.62
-522.321 195.64 2459.33
-530.175 192.64 2345.35
-524.175 192.64 2345.35
-530.175 198.64 2345.35
-524.175 198.64 2345.35
-530.175 192.64 2351.35
-524.175 192.64 2351.35
-530.175 198.64 2351.35
-524.175 198.64 2351.35
-527.175 193.786 2343.49
-527.175 197.494 2343.49
-527.175 193.786 2353.2
-527.175 197.494 2353.2
-529.029 190.786 2348.35
-525.321 190.786 2348.35
-529.029 200.494 2348.35
-525.321 200.494 2348.35
-532.029 195.64 2346.49
-532.029 195.64 2350.2
-522.321 195.64 2346.49
-522.321 195.64 2350.2
-546.451 87.5496 2345.25
-540.451 87.5496 2345.25
-546.451 93.5496 2345.25
-540.451 93.5496 2345.25
-546.451 87.5496 2351.25
-540.451 87.5496 2351.25
-546.451 93.5496 2351.25
-540.451 93.5496 2351.25
-543.451 88.6955 2343.39
-543.451 92.4037 2343.39
-543.451 88.6955 2353.1
-543.451 92.4037 2353.1
-545.305 85.6955 2348.25
-541.597 85.6955 2348.25
-545.305 95.4037 2348.25
-541.597 95.4037 2348.25
-548.305 90.5496 2346.39
-548.305 90.5496 2350.1
-538.597 90.5496 2346.39
-538.597 90.5496 2350.1
-546.451 87.5496 252.502
-540.451 87.5496 252.502
-546.451 93.5496 252.502
-540.451 93.5496 252.502
-546.451 87.5496 258.502
-540.451 87.5496 258.502
-546.451 93.5496 258.502
-540.451 93.5496 258.502
-543.451 88.6955 250.648
-543.451 92.4037 250.648
-543.451 88.6955 260.356
-543.451 92.4037 260.356
-545.305 85.6955 255.502
-541.597 85.6955 255.502
-545.305 95.4037 255.502
-541.597 95.4037 255.502
-548.305 90.5496 253.648
-548.305 90.5496 257.356
-538.597 90.5496 253.648
-538.597 90.5496 257.356
-530.175 192.64 2345.35
-524.175 192.64 2345.35
-530.175 198.64 2345.35
-524.175 198.64 2345.35
-530.175 192.64 2351.35
-524.175 192.64 2351.35
-530.175 198.64 2351.35
-524.175 198.64 2351.35
-527.175 193.786 2343.49
-527.175 197.494 2343.49
-527.175 193.786 2353.2
-527.175 197.494 2353.2
-529.029 190.786 2348.35
-525.321 190.786 2348.35
-529.029 200.494 2348.35
-525.321 200.494 2348.35
-532.029 195.64 2346.49
-532.029 195.64 2350.2
-522.321 195.64 2346.49
-522.321 195.64 2350.2
-530.175 192.64 228.002
-524.175 192.64 228.002
-530.175 198.64 228.002
-524.175 198.64 228.002
-530.175 192.64 234.002
-524.175 192.64 234.002
-530.175 198.64 234.002
-524.175 198.64 234.002
-527.175 193.786 226.148
-527.175 197.494 226.148
-527.175 193.786 235.856
-527.175 197.494 235.856
-529.029 190.786 231.002
-525.321 190.786 231.002
-529.029 200.494 231.002
-525.321 200.494 231.002
-532.029 195.64 229.148
-532.029 195.64 232.856
-522.321 195.64 229.148
-522.321 195.64 232.856
-546.451 87.5496 252.502
-540.451 87.5496 252.502
-546.451 93.5496 252.502
-540.451 93.5496 252.502
-546.451 87.5496 258.502
-540.451 87.5496 258.502
-546.451 93.5496 258.502
-540.451 93.5496 258.502
-543.451 88.6955 250.648
-543.451 92.4037 250.648
-543.451 88.6955 260.356
-543.451 92.4037 260.356
-545.305 85.6955 255.502
-541.597 85.6955 255.502
-545.305 95.4037 255.502
-541.597 95.4037 255.502
-548.305 90.5496 253.648
-548.305 90.5496 257.356
-538.597 90.5496 253.648
-538.597 90.5496 257.356
-493.471 73.3875 226.952
-487.471 73.3875 226.952
-493.471 79.3875 226.952
-487.471 79.3875 226.952
-493.471 73.3875 232.952
-487.471 73.3875 232.952
-493.471 79.3875 232.952
-487.471 79.3875 232.952
-490.471 74.5334 225.098
-490.471 78.2416 225.098
-490.471 74.5334 234.806
-490.471 78.2416 234.806
-492.325 71.5334 229.952
-488.617 71.5334 229.952
-492.325 81.2416 229.952
-488.617 81.2416 229.952
-495.325 76.3875 228.098
-495.325 76.3875 231.806
-485.617 76.3875 228.098
-485.617 76.3875 231.806
-493.471 73.3875 226.952
-487.471 73.3875 226.952
-493.471 79.3875 226.952
-487.471 79.3875 226.952
-493.471 73.3875 232.952
-487.471 73.3875 232.952
-493.471 79.3875 232.952
-487.471 79.3875 232.952
-490.471 74.5334 225.098
-490.471 78.2416 225.098
-490.471 74.5334 234.806
-490.471 78.2416 234.806
-492.325 71.5334 229.952
-488.617 71.5334 229.952
-492.325 81.2416 229.952
-488.617 81.2416 229.952
-495.325 76.3875 228.098
-495.325 76.3875 231.806
-485.617 76.3875 228.098
-485.617 76.3875 231.806
460.167 -181.53 -232.952
466.167 -181.53 -232.952
460.167 -175.53 -232.952
466.167 -175.53 -232.952
460.167 -181.53 -226.952
466.167 -181.53 -226.952
460.167 -175.53 -226.952
466.167 -175.53 -226.952
463.167 -180.385 -234.806
463.167 -176.676 -234.806
463.167 -180.385 -225.098
463.167 -176.676 -225.098
461.313 -183.385 -229.952
465.022 -183.385 -229.952
461.313 -173.676 -229.952
465.022 -173.676 -229.952
458.313 -178.53 -231.806
458.313 -178.53 -228.098
468.022 -178.53 -231.806
468.022 -178.53 -228.098
-530.175 192.64 228.002
-524.175 192.64 228.002
-530.175 198.64 228.002
-524.175 198.64 228.002
-530.175 192.64 234.002
-524.175 192.64 234.002
-530.175 198.64 234.002
-524.175 198.64 234.002
-527.175 193.786 226.148
-527.175 197.494 226.148
-527.175 193.786 235.856
-527.175 197.494 235.856
-529.029 190.786 231.002
-525.321 190.786 231.002
-529.029 200.494 231.002
-525.321 200.494 231.002
-532.029 195.64 229.148
-532.029 195.64 232.856
-522.321 195.64 229.148
-522.321 195.64 232.856
529.424 -90.6018 -283.002
535.424 -90.6018 -283.002
529.424 -84.6018 -283.002
535.424 -84.6018 -283.002
529.424 -90.6018 -277.002
535.424 -90.6018 -277.002
529.424 -84.6018 -277.002
535.424 -84.6018 -277.002
532.424 -89.4559 -284.856
532.424 -85.7477 -284.856
532.424 -89.4559 -275.148
532.424 -85.7477 -275.148
530.57 -92.4559 -280.002
534.278 -92.4559 -280.002
530.57 -82.7477 -280.002
534.278 -82.7477 -280.002
527.57 -87.6018 -281.856
527.57 -87.6018 -278.148
537.278 -87.6018 -281.856
537.278 -87.6018 -278.148
CELLS 356 1424
3 32 21 33
3 32 20 28
3 32 21 28
3 32 13 33
3 32 13 12
3 10 17 4
3 10 6 11
3 10 6 17
3 36 32 12
3 36 4 12
3 36 17 4
3 36 32 20
3 29 20 28
3 29 36 20
3 29 36 22
3 5 13 33
3 5 38 19
3 5 21 33
3 5 38 21
3 5 4 12
3 5 13 12
3 5 10 4
3 5 10 11
3 5 7 19
3 5 7 11
3 23 7 19
3 23 38 19
3 23 15 35
3 23 7 15
3 23 21 28
3 23 38 21
3 23 29 28
3 23 29 22
3 23 34 35
3 23 34 22
3 14 6 11
3 14 7 15
3 14 7 11
3 14 36 17
3 14 6 17
3 14 36 22
3 14 34 22
3 14 15 35
3 14 34 35
3 72 61 73
3 72 60 68
3 72 61 68
3 53 72 52
3 53 72 73
3 50 53 52
3 50 53 45
3 50 44 52
3 78 53 73
3 78 61 73
3 78 59 45
3 78 53 45
3 47 59 45
3 47 50 45
3 47 50 51
3 76 44 52
3 76 72 52
3 76 72 60
3 76 44 57
3 63 47 59
3 63 78 59
3 63 55 75
3 63 47 55
3 54 55 75
3 54 74 75
3 69 60 68
3 69 76 62
3 69 76 60
3 69 61 68
3 69 78 61
3 69 63 78
3 69 74 62
3 69 63 75
3 69 74 75
3 46 44 57
3 46 50 51
3 46 50 44
3 46 76 57
3 46 76 62
3 46 74 62
3 46 54 74
3 46 47 51
3 46 47 55
3 46 54 55
3 95 94 114
3 95 115 114
3 109 115 103
3 109 102 114
3 109 115 114
3 109 103 118
3 109 101 118
3 109 101 108
3 109 102 116
3 109 100 108
3 109 100 116
3 112 101 113
3 112 101 108
3 112 100 108
3 112 93 113
3 112 93 92
3 85 84 92
3 85 93 92
3 85 84 90
3 85 99 118
3 85 101 118
3 85 93 113
3 85 101 113
3 87 103 118
3 87 99 118
3 87 115 103
3 87 95 115
3 87 95 94
3 87 86 94
3 87 86 91
3 87 91 90
3 87 85 99
3 87 85 90
3 97 112 100
3 97 84 92
3 97 100 116
3 97 112 92
3 97 94 114
3 97 102 114
3 97 102 116
3 97 86 94
3 97 84 90
3 97 86 91
3 97 91 90
3 155 134 154
3 155 135 134
3 143 155 154
3 143 142 154
3 143 142 149
3 143 149 148
3 143 141 158
3 143 141 148
3 140 142 149
3 140 142 156
3 140 149 148
3 140 141 153
3 140 141 148
3 140 152 153
3 137 152 132
3 137 140 156
3 137 124 132
3 137 140 152
3 139 155 135
3 139 143 158
3 139 127 135
3 139 143 155
3 130 131 127
3 130 139 125
3 130 139 127
3 133 139 158
3 133 141 158
3 133 139 125
3 133 141 153
3 133 124 132
3 133 130 124
3 133 130 125
3 133 152 132
3 133 152 153
3 126 135 134
3 126 127 135
3 126 131 127
3 126 134 154
3 126 142 154
3 126 137 156
3 126 142 156
3 126 137 124
3 126 130 131
3 126 130 124
3 180 160 172
3 180 172 192
3 183 188 189
3 183 181 198
3 183 181 188
3 182 169 162
3 182 169 189
3 174 182 162
3 174 182 194
3 171 174 175
3 171 167 175
3 171 174 166
3 173 164 170
3 173 165 170
3 173 164 172
3 177 164 172
3 177 160 176
3 177 160 172
3 177 162 176
3 177 174 166
3 177 174 162
3 177 164 170
3 177 171 166
3 177 171 170
3 168 160 176
3 168 162 176
3 168 169 162
3 168 180 188
3 168 180 160
3 168 188 189
3 168 169 189
3 195 174 194
3 195 174 175
3 195 167 175
3 195 187 167
3 195 183 189
3 195 182 194
3 195 182 189
3 199 183 198
3 199 195 183
3 199 195 187
3 191 171 170
3 191 190 170
3 191 171 167
3 191 187 167
3 185 165 170
3 185 190 170
3 185 199 187
3 185 191 187
3 185 191 190
3 193 172 192
3 193 173 172
3 193 173 165
3 193 185 165
3 193 181 188
3 193 180 192
3 193 180 188
3 193 181 198
3 193 199 198
3 193 185 199
3 220 200 212
3 220 212 232
3 205 213 212
3 205 204 210
3 205 204 212
3 217 204 212
3 217 200 216
3 217 200 212
3 228 223 238
3 228 221 238
3 228 223 229
3 202 222 229
3 202 209 229
3 207 227 235
3 207 235 215
3 239 223 238
3 239 223 235
3 239 227 235
3 225 205 210
3 225 230 210
3 225 239 227
3 225 231 230
3 225 231 227
3 208 200 216
3 208 202 216
3 208 202 209
3 208 228 229
3 208 209 229
3 208 220 200
3 208 228 220
3 214 217 206
3 214 217 216
3 214 202 216
3 211 204 210
3 211 217 204
3 211 217 206
3 211 207 215
3 211 214 206
3 211 214 215
3 211 231 230
3 211 230 210
3 211 207 227
3 211 231 227
3 233 213 212
3 233 212 232
3 233 205 213
3 233 225 205
3 233 220 232
3 233 228 221
3 233 228 220
3 233 221 238
3 233 239 238
3 233 225 239
3 234 223 229
3 234 223 235
3 234 222 229
3 234 235 215
3 234 214 215
3 234 202 222
3 234 214 202
3 261 263 278
3 261 268 269
3 261 263 269
3 240 244 252
3 240 257 256
3 240 257 244
3 240 260 272
3 240 252 272
3 242 254 246
3 242 257 256
3 242 257 246
3 247 267 275
3 247 275 255
3 279 263 278
3 279 263 275
3 279 267 275
3 279 271 270
3 279 265 270
3 279 271 267
3 245 244 252
3 245 244 250
3 245 253 252
3 245 265 270
3 245 270 250
3 273 260 268
3 273 260 272
3 273 261 268
3 273 261 278
3 273 279 265
3 273 279 278
3 273 253 252
3 273 252 272
3 273 245 253
3 273 245 265
3 248 240 256
3 248 242 256
3 248 242 249
3 248 268 269
3 248 249 269
3 248 260 268
3 248 240 260
3 274 254 255
3 274 275 255
3 251 244 250
3 251 257 244
3 251 257 246
3 251 254 246
3 251 247 255
3 251 254 255
3 251 271 270
3 251 270 250
3 251 271 267
3 251 247 267
3 262 263 269
3 262 263 275
3 262 274 275
3 262 249 269
3 262 242 249
3 262 242 254
3 262 274 254
CELL_TYPES 356
5 5 5 5 5 5 5 5 5 5 
5 5 5 5 5 5 5 5 5 5 
5 5 5 5 5 5 5 5 5 5 
5 5 5 5 5 5 5 5 5 5 
5 5 5 5 5 5 5 5 5 5 
5 5 5 5 5 5 5 5 5 5 
5 5 5 5 5 5 5 5 5 5 
5 5 5 5 5 5 5 5 5 5 
5 5 5 5 5 5 5 5 5 5 
5 5 5 5 5 5 5 5 5 5 
5 5 5 5 5 5 5 5 5 5 
5 5 5 5 5 5 5 5 5 5 
5 5 5 5 5 5 5 5 5 5 
5 5 5 5 5 5 5 5 5 5 
5 5 5 5 5 5 5 5 5 5 
5 5 5 5 5 5 5 5 5 5 
5 5 5 5 5 5 5 5 5 5 
5 5 5 5 5 5 5 5 5 5 
5 5 5 5 5 5 5 5 5 5 
5 5 5 5 5 5 5 5 5 5 
5 5 5 5 5 5 5 5 5 5 
5 5 5 5 5 5 5 5 5 5 
5 5 5 5 5 5 5 5 5 5 
5 5 5 5 5 5 5 5 5 5 
5 5 5 5 5 5 5 5 5 5 
5 5 5 5 5 5 5 5 5 5 
5 5 5 5 5 5 5 5 5 5 
5 5 5 5 5 5 5 5 5 5 
5 5 5 5 5 5 5 5 5 5 
5 5 5 5 5 5 5 5 5 5 
5 5 5 5 5 5 5 5 5 5 
5 5 5 5 5 5 5 5 5 5 
5 5 5 5 5 5 5 5 5 5 
5 5 5 5 5 5 5 5 5 5 
5 5 5 5 5 5 5 5 5 5 
5 5 5 5 5 5 
CELL_DATA 356
SCALARS Well_Number float 1
LOOKUP_TABLE default
0 0 0 0 0 0 0 0 0 
0 0 0 0 0 0 0 0 0 0 
0 0 0 0 0 0 0 0 0 0 
0 0 0 0 0 0 0 0 0 0 
0 0 0 0 0 1 1 1 1 1 
1 1 1 1 1 1 1 1 1 1 
1 1 1 1 1 1 1 1 1 1 
1 1 1 1 1 1 1 1 1 1 
1 1 1 1 1 1 1 1 1 2 
2 2 2 2 2 2 2 2 2 2 
2 2 2 2 2 2 2 2 2 2 
2 2 2 2 2 2 2 2 2 2 
2 2 2 2 2 2 2 2 2 2 
2 2 2 3 3 3 3 3 3 3 
3 3 3 3 3 3 3 3 3 3 
3 3 3 3 3 3 3 3 3 3 
3 3 3 3 3 3 3 3 3 3 
3 3 3 3 3 3 3 4 4 4 
4 4 4 4 4 4 4 4 4 4 
4 4 4 4 4 4 4 4 4 4 
4 4 4 4 4 4 4 4 4 4 
4 4 4 4 4 4 4 4 4 4 
4 4 4 4 4 4 4 4 4 4 
4 4 4 4 4 4 4 5 5 5 
5 5 5 5 5 5 5 5 5 5 
5 5 5 5 5 5 5 5 5 5 
5 5 5 5 5 5 5 5 5 5 
5 5 5 5 5 5 5 5 5 5 
5 5 5 5 5 5 5 5 5 5 
5 5 5 5 5 5 5 6 6 6 
6 6 6 6 6 6 6 6 6 6 
6 6 6 6 6 6 6 6 6 6 
6 6 6 6 6 6 6 6 6 6 
6 6 6 6 6 6 6 6 6 6 
6 6 6 6 6 6 6 6 6 6 
6 6 6 6 6 6 6 SCALARS Well_Type float 1
LOOKUP_TABLE default
-1 -1 -1 -1 -1 -1 -1 -1 -1 
-1 -1 -1 -1 -1 -1 -1 -1 -1 -1 
-1 -1 -1 -1 -1 -1 -1 -1 -1 -1 
-1 -1 -1 -1 -1 -1 -1 -1 -1 -1 
-1 -1 -1 -1 -1 -2 -2 -2 -2 -2 
-2 -2 -2 -2 -2 -2 -2 -2 -2 -2 
-2 -2 -2 -2 -2 -2 -2 -2 -2 -2 
-2 -2 -2 -2 -2 -2 -2 -2 -2 -2 
-2 -2 -2 -2 -2 -2 -2 -2 -2 0 
0 0 0 0 0 0 0 0 0 0 
0 0 0 0 0 0 0 0 0 0 
0 0 0 0 0 0 0 0 0 0 
0 0 0 0 0 0 0 0 0 0 
0 0 0 0 0 0 0 0 0 0 
0 0 0 0 0 0 0 0 0 0 
0 0 0 0 0 0 0 0 0 0 
0 0 0 0 0 0 0 0 0 0 
0 0 0 0 0 0 0 0 0 0 
0 0 0 0 0 0 0 0 0 0 
0 0 0 0 0 0 0 0 0 0 
0 0 0 0 0 0 0 0 0 0 
0 0 0 0 0 0 0 0 0 0 
0 0 0 0 0 0 0 0 0 0 
0 0 0 0 0 0 0 -3 -3 -3 
-3 -3 -3 -3 -3 -3 -3 -3 -3 -3 
-3 -3 -3 -3 -3 -3 -3 -3 -3 -3 
-3 -3 -3 -3 -3 -3 -3 -3 -3 -3 
-3 -3 -3 -3 -3 -3 -3 -3 -3 -3 
-3 -3 -3 -3 -3 -3 -3 -3 -3 -3 
-3 -3 -3 -3 -3 -3 -3 -4 -4 -4 
-4 -4 -4 -4 -4 -4 -4 -4 -4 -4 
-4 -4 -4 -4 -4 -4 -4 -4 -4 -4 
-4 -4 -4 -4 -4 -4 -4 -4 -4 -4 
-4 -4 -4 -4 -4 -4 -4 -4 -4 -4 
-4 -4 -4 -4 -4 -4 -4 -4 -4 -4 
-4 -4 -4 -4 -4 -4 -4 SCALARS Inner_Radius float 1
LOOKUP_TABLE default
0.0889 0.0889 0.0889 0.0889 0.0889 0.0889 0.0889 0.0889 0.0889 
0.0889 0.0889 0.0889 0.0889 0.0889 0.0889 0.0889 0.0889 0.0889 0.0889 
0.0889 0.0889 0.0889 0.0889 0.0889 0.0889 0.0889 0.0889 0.0889 0.0889 
0.0889 0.0889 0.0889 0.0889 0.0889 0.0889 0.0889 0.0889 0.0889 0.0889 
0.0889 0.0889 0.0889 0.0889 0.0889 0.0889 0.0889 0.0889 0.0889 0.0889 
0.0889 0.0889 0.0889 0.0889 0.0889 0.0889 0.0889 0.0889 0.0889 0.0889 
0.0889 0.0889 0.0889 0.0889 0.0889 0.0889 0.0889 0.0889 0.0889 0.0889 
0.0889 0.0889 0.0889 0.0889 0.0889 0.0889 0.0889 0.0889 0.0889 0.0889 
0.0889 0.0889 0.0889 0.0889 0.0889 0.0889 0.0889 0.0889 0.0889 0.0889 
0.0889 0.0889 0.0889 0.0889 0.0889 0.0889 0.0889 0.0889 0.0889 0.0889 
0.0889 0.0889 0.0889 0.0889 0.0889 0.0889 0.0889 0.0889 0.0889 0.0889 
0.0889 0.0889 0.0889 0.0889 0.0889 0.0889 0.0889 0.0889 0.0889 0.0889 
0.0889 0.0889 0.0889 0.0889 0.0889 0.0889 0.0889 0.0889 0.0889 0.0889 
0.0889 0.0889 0.0889 0.0889 0.0889 0.0889 0.0889 0.0889 0.0889 0.0889 
0.0889 0.0889 0.0889 0.0889 0.0889 0.0889 0.0889 0.0889 0.0889 0.0889 
0.0889 0.0889 0.0889 0.0889 0.0889 0.0889 0.0889 0.0889 0.0889 0.0889 
0.0889 0.0889 0.0889 0.0889 0.0889 0.0889 0.0889 0.0889 0.0889 0.0889 
0.0889 0.0889 0.0889 0.0889 0.0889 0.0889 0.0889 0.0889 0.0889 0.0889 
0.0889 0.0889 0.0889 0.0889 0.0889 0.0889 0.0889 0.0889 0.0889 0.0889 
0.0889 0.0889 0.0889 0.0889 0.0889 0.0889 0.0889 0.0889 0.0889 0.0889 
0.0889 0.0889 0.0889 0.0889 0.0889 0.0889 0.0889 0.0889 0.0889 0.0889 
0.0889 0.0889 0.0889 0.0889 0.0889 0.0889 0.0889 0.0889 0.0889 0.0889 
0.0889 0.0889 0.0889 0.0889 0.0889 0.0889 0.0889 0.0889 0.0889 0.0889 
0.0889 0.0889 0.0889 0.0889 0.0889 0.0889 0.0889 0.0889 0.0889 0.0889 
0.0889 0.0889 0.0889 0.0889 0.0889 0.0889 0.0889 0.0889 0.0889 0.0889 
0.0889 0.0889 0.0889 0.0889 0.0889 0.0889 0.0889 0.0889 0.0889 0.0889 
0.0889 0.0889 0.0889 0.0889 0.0889 0.0889 0.0889 0.0889 0.0889 0.0889 
0.0889 0.0889 0.0889 0.0889 0.0889 0.0889 0.0889 0.0889 0.0889 0.0889 
0.0889 0.0889 0.0889 0.0889 0.0889 0.0889 0.0889 0.0889 0.0889 0.0889 
0.0889 0.0889 0.0889 0.0889 0.0889 0.0889 0.0889 0.0889 0.0889 0.0889 
0.0889 0.0889 0.0889 0.0889 0.0889 0.0889 0.0889 0.0889 0.0889 0.0889 
0.0889 0.0889 0.0889 0.0889 0.0889 0.0889 0.0889 0.0889 0.0889 0.0889 
0.0889 0.0889 0.0889 0.0889 0.0889 0.0889 0.0889 0.0889 0.0889 0.0889 
0.0889 0.0889 0.0889 0.0889 0.0889 0.0889 0.0889 0.0889 0.0889 0.0889 
0.0889 0.0889 0.0889 0.0889 0.0889 0.0889 0.0889 0.0889 0.0889 0.0889 
0.0889 0.0889 0.0889 0.0889 0.0889 0.0889 0.0889 SCALARS Roughness float 1
LOOKUP_TABLE default
80 80 80 80 80 80 80 80 80 
80 80 80 80 80 80 80 80 80 80 
80 80 80 80 80 80 80 80 80 80 
80 80 80 80 80 80 80 80 80 80 
80 80 80 80 80 80 80 80 80 80 
80 80 80 80 80 80 80 80 80 80 
80 80 80 80 80 80 80 80 80 80 
80 80 80 80 80 80 80 80 80 80 
80 80 80 80 80 80 80 80 80 80 
80 80 80 80 80 80 80 80 80 80 
80 80 80 80 80 80 80 80 80 80 
80 80 80 80 80 80 80 80 80 80 
80 80 80 80 80 80 80 80 80 80 
80 80 80 80 80 80 80 80 80 80 
80 80 80 80 80 80 80 80 80 80 
80 80 80 80 80 80 80 80 80 80 
80 80 80 80 80 80 80 80 80 80 
80 80 80 80 80 80 80 80 80 80 
80 80 80 80 80 80 80 80 80 80 
80 80 80 80 80 80 80 80 80 80 
80 80 80 80 80 80 80 80 80 80 
80 80 80 80 80 80 80 80 80 80 
80 80 80 80 80 80 80 80 80 80 
80 80 80 80 80 80 80 80 80 80 
80 80 80 80 80 80 80 80 80 80 
80 80 80 80 80 80 80 80 80 80 
80 80 80 80 80 80 80 80 80 80 
80 80 80 80 80 80 80 80 80 80 
80 80 80 80 80 80 80 80 80 80 
80 80 80 80 80 80 80 80 80 80 
80 80 80 80 80 80 80 80 80 80 
80 80 80 80 80 80 80 80 80 80 
80 80 80 80 80 80 80 80 80 80 
80 80 80 80 80 80 80 80 80 80 
80 80 80 80 80 80 80 80 80 80 
80 80 80 80 80 80 80 SCALARS Outer_Radius float 1
LOOKUP_TABLE default
0.114 0.114 0.114 0.114 0.114 0.114 0.114 0.114 0.114 
0.114 0.114 0.114 0.114 0.114 0.114 0.114 0.114 0.114 0.114 
0.114 0.114 0.114 0.114 0.114 0.114 0.114 0.114 0.114 0.114 
0.114 0.114 0.114 0.114 0.114 0.114 0.114 0.114 0.114 0.114 
0.114 0.114 0.114 0.114 0.114 0.114 0.114 0.114 0.114 0.114 
0.114 0.114 0.114 0.114 0.114 0.114 0.114 0.114 0.114 0.114 
0.114 0.114 0.114 0.114 0.114 0.114 0.114 0.114 0.114 0.114 
0.114 0.114 0.114 0.114 0.114 0.114 0.114 0.114 0.114 0.114 
0.114 0.114 0.114 0.114 0.114 0.114 0.114 0.114 0.114 0.114 
0.114 0.114 0.114 0.114 0.114 0.114 0.114 0.114 0.114 0.114 
0.114 0.114 0.114 0.114 0.114 0.114 0.114 0.114 0.114 0.114 
0.114 0.114 0.114 0.114 0.114 0.114 0.114 0.114 0.114 0.114 
0.114 0.114 0.114 0.114 0.114 0.114 0.114 0.114 0.114 0.114 
0.114 0.114 0.114 0.114 0.114 0.114 0.114 0.114 0.114 0.114 
0.114 0.114 0.114 0.114 0.114 0.114 0.114 0.114 0.114 0.114 
0.114 0.114 0.114 0.114 0.114 0.114 0.114 0.114 0.114 0.114 
0.114 0.114 0.114 0.114 0.114 0.114 0.114 0.114 0.114 0.114 
0.114 0.114 0.114 0.114 0.114 0.114 0.114 0.114 0.114 0.114 
0.114 0.114 0.114 0.114 0.114 0.114 0.114 0.114 0.114 0.114 
0.114 0.114 0.114 0.114 0.114 0.114 0.114 0.114 0.114 0.114 
0.114 0.114 0.114 0.114 0.114 0.114 0.114 0.114 0.114 0.114 
0.114 0.114 0.114 0.114 0.114 0.114 0.114 0.114 0.114 0.114 
0.114 0.114 0.114 0.114 0.114 0.114 0.114 0.114 0.114 0.114 
0.114 0.114 0.114 0.114 0.114 0.114 0.114 0.114 0.114 0.114 
0.114 0.114 0.114 0.114 0.114 0.114 0.114 0.114 0.114 0.114 
0.114 0.114 0.114 0.114 0.114 0.114 0.114 0.114 0.114 0.114 
0.114 0.114 0.114 0.114 0.114 0.114 0.114 0.114 0.114 0.114 
0.114 0.114 0.114 0.114 0.114 0.114 0.114 0.114 0.114 0.114 
0.114 0.114 0.114 0.114 0.114 0.114 0.114 0.114 0.114 0.114 
0.114 0.114 0.114 0.114 0.114 0.114 0.114 0.114 0.114 0.114 
0.114 0.114 0.114 0.114 0.114 0.114 0.114 0.114 0.114 0.114 
0.114 0.114 0.114 0.114 0.114 0.114 0.114 0.114 0.114 0.114 
0.114 0.114 0.114 0.114 0.114 0.114 0.114 0.114 0.114 0.114 
0.114 0.114 0.114 0.114 0.114 0.114 0.114 0.114 0.114 0.114 
0.114 0.114 0.114 0.114 0.114 0.114 0.114 0.114 0.114 0.114 
0.114 0.114 0.114 0.114 0.114 0.114 0.114 
