# vtk DataFile Version 2.0
vtkObjects
ASCII
DATASET UNSTRUCTURED_GRID
POINTS 300 float
-239.627 10.6711 -189.222
-239.647 10.6743 -189.223
-245.746 -26.9939 -186.823
-245.766 -26.9908 -186.824
-251.964 -64.0337 -179.665
-251.984 -64.0306 -179.666
-258.184 -99.8641 -167.86
-258.203 -99.8609 -167.861
-264.307 -133.92 -151.595
-264.326 -133.917 -151.595
-270.236 -165.664 -131.125
-270.256 -165.661 -131.126
-275.879 -194.596 -106.775
-275.899 -194.593 -106.775
-281.146 -220.26 -78.9269
-281.166 -220.256 -78.9277
-285.954 -242.25 -48.0212
-285.974 -242.247 -48.0221
-290.228 -260.22 -14.545
-290.248 -260.217 -14.5458
-293.9 -273.887 20.9739
-293.919 -273.884 20.973
-296.911 -283.035 57.9752
-296.931 -283.032 57.9744
-299.215 -287.519 95.8755
-299.235 -287.516 95.8747
-300.776 -287.27 134.077
-300.795 -287.267 134.076
-301.567 -282.291 171.977
-301.587 -282.288 171.976
-301.579 -272.66 208.979
-301.598 -272.657 208.978
-300.808 -258.53 244.497
-300.828 -258.526 244.497
-299.269 -240.122 277.974
-299.289 -240.119 277.973
-296.986 -217.729 308.879
-297.006 -217.725 308.879
-293.994 -191.702 336.727
-294.013 -191.699 336.726
-290.34 -162.452 361.078
-290.36 -162.449 361.077
-286.082 -130.44 381.547
-286.102 -130.437 381.546
-281.288 -96.1723 397.812
-281.308 -96.1692 397.812
-276.033 -60.1879 409.617
-276.053 -60.1848 409.617
-270.399 -23.0547 416.776
-270.419 -23.0515 416.775
-264.476 14.6417 419.174
-264.496 14.6449 419.173
-258.358 52.3068 416.776
-258.377 52.3099 416.775
-252.139 89.3466 409.617
-252.159 89.3497 409.617
-245.92 125.177 397.812
-245.94 125.18 397.812
-239.797 159.233 381.547
-239.817 159.236 381.546
-233.867 190.977 361.078
-233.887 190.98 361.077
-228.224 219.909 336.727
-228.244 219.912 336.726
-222.957 245.572 308.879
-222.977 245.576 308.879
-218.149 267.563 277.974
-218.169 267.566 277.973
-213.875 285.533 244.497
-213.895 285.536 244.497
-210.204 299.2 208.979
-210.224 299.203 208.978
-207.192 308.348 171.977
-207.212 308.351 171.976
-204.888 312.832 134.077
-204.908 312.835 134.076
-203.328 312.583 95.8755
-203.348 312.586 95.8747
-202.536 307.604 57.9752
-202.556 307.607 57.9744
-202.525 297.973 20.9739
-202.545 297.976 20.973
-203.295 283.842 -14.545
-203.315 283.846 -14.5458
-204.834 265.435 -48.0212
-204.854 265.438 -48.0221
-207.118 243.041 -78.9269
-207.137 243.045 -78.9277
-210.11 217.015 -106.775
-210.13 217.018 -106.775
-213.764 187.765 -131.125
-213.783 187.768 -131.126
-218.021 155.753 -151.595
-218.041 155.756 -151.595
-222.815 121.485 -167.86
-222.835 121.488 -167.861
-228.071 85.5007 -179.665
-228.09 85.5039 -179.666
-233.704 48.3675 -186.823
-233.724 48.3707 -186.824
0.332361 -53.3532 -304.128
0.312643 -53.35 -304.129
-5.9227 -90.996 -301.73
-5.94242 -90.9927 -301.731
-12.2995 -128.009 -294.574
-12.3192 -128.006 -294.574
-18.6975 -163.809 -282.771
-18.7172 -163.806 -282.772
-25.0157 -197.831 -266.51
-25.0354 -197.828 -266.511
-31.1546 -229.538 -246.045
-31.1743 -229.535 -246.046
-37.0173 -258.431 -221.7
-37.037 -258.428 -221.701
-42.5114 -284.054 -193.858
-42.5311 -284.051 -193.859
-47.5501 -306.002 -162.96
-47.5699 -305.999 -162.961
-52.0542 -323.931 -129.491
-52.0739 -323.927 -129.492
-55.9524 -337.556 -93.9805
-55.9721 -337.552 -93.9814
-59.1834 -346.663 -56.9876
-59.2031 -346.659 -56.9885
-61.6961 -351.108 -19.0959
-61.7159 -351.105 -19.0969
-63.4511 -350.822 19.0969
-63.4708 -350.818 19.0959
-64.4205 -345.808 56.9885
-64.4402 -345.805 56.9876
-64.5891 -336.146 93.9814
-64.6088 -336.143 93.9805
-63.9542 -321.989 129.492
-63.9739 -321.986 129.491
-62.5259 -303.559 162.961
-62.5456 -303.556 162.96
-60.3267 -281.147 193.859
-60.3464 -281.144 193.858
-57.3912 -255.107 221.701
-57.4109 -255.104 221.7
-53.7658 -225.849 246.046
-53.7855 -225.846 246.045
-49.5076 -193.835 266.511
-49.5273 -193.831 266.51
-44.6837 -159.569 282.772
-44.7034 -159.566 282.771
-39.3704 -123.592 294.574
-39.3901 -123.589 294.574
-33.6512 -86.4717 301.731
-33.671 -86.4684 301.73
-27.6166 -48.793 304.129
-27.6363 -48.7897 304.128
-21.3615 -11.1502 301.731
-21.3812 -11.147 301.73
-14.9847 25.8629 294.574
-15.0044 25.8661 294.574
-8.58672 61.6627 282.772
-8.60644 61.6659 282.771
-2.26848 95.6846 266.511
-2.28819 95.6878 266.51
3.8704 127.392 246.046
3.85069 127.395 246.045
9.7331 156.285 221.701
9.71338 156.288 221.7
15.2272 181.908 193.859
15.2074 181.911 193.858
20.2659 203.856 162.961
20.2462 203.859 162.96
24.77 221.784 129.492
24.7502 221.788 129.491
28.6682 235.409 93.9814
28.6485 235.413 93.9805
31.8992 244.516 56.9885
31.8795 244.52 56.9876
34.4119 248.962 19.0969
34.3922 248.965 19.0959
36.1669 248.675 -19.0959
36.1472 248.679 -19.0969
37.1363 243.662 -56.9876
37.1166 243.665 -56.9885
37.3049 234 -93.9805
37.2852 234.003 -93.9814
36.67 219.843 -129.491
36.6503 219.846 -129.492
35.2417 201.413 -162.96
35.222 201.416 -162.961
33.0425 179.001 -193.858
33.0228 179.004 -193.859
30.107 152.961 -221.7
30.0873 152.964 -221.701
26.4816 123.703 -246.045
26.4618 123.706 -246.046
22.2234 91.6884 -266.51
22.2036 91.6916 -266.511
17.3995 57.4227 -282.771
17.3798 57.4259 -282.772
12.0862 21.4459 -294.574
12.0664 21.4491 -294.574
6.36704 -15.6745 -301.73
6.34732 -15.6713 -301.731
241.601 -117.41 -418.957
241.581 -117.407 -418.958
235.628 -155.098 -416.56
235.608 -155.095 -416.561
229.483 -192.151 -409.406
229.464 -192.148 -409.408
223.265 -227.985 -397.61
223.245 -227.981 -397.611
217.07 -262.033 -381.356
217.05 -262.03 -381.357
210.996 -293.759 -360.901
210.976 -293.756 -360.902
205.14 -322.663 -336.568
205.12 -322.66 -336.569
199.593 -348.289 -308.74
199.573 -348.286 -308.741
194.443 -370.233 -277.857
194.423 -370.23 -277.858
189.771 -388.149 -244.404
189.751 -388.146 -244.405
185.652 -401.753 -208.911
185.632 -401.75 -208.912
182.149 -410.833 -171.936
182.129 -410.83 -171.937
179.318 -415.244 -134.062
179.298 -415.24 -134.064
177.204 -414.916 -95.8881
177.184 -414.913 -95.8892
175.84 -409.856 -58.0148
175.821 -409.853 -58.016
175.248 -400.142 -21.0399
175.228 -400.139 -21.041
175.437 -385.929 14.4537
175.417 -385.926 14.4526
176.404 -367.439 47.9061
176.384 -367.436 47.9049
178.133 -344.966 78.7897
178.113 -344.963 78.7886
180.598 -318.862 106.618
180.578 -318.859 106.616
183.759 -289.541 130.951
183.74 -289.538 130.95
187.568 -257.464 151.406
187.548 -257.461 151.404
191.963 -223.136 167.659
191.943 -223.133 167.658
196.875 -187.101 179.456
196.855 -187.098 179.455
202.227 -149.925 186.609
202.207 -149.922 186.608
207.934 -112.195 189.006
207.915 -112.192 189.005
213.908 -74.5068 186.609
213.888 -74.5038 186.608
220.052 -37.4537 179.456
220.032 -37.4507 179.455
226.271 -1.62048 167.659
226.251 -1.61743 167.658
232.466 32.4278 151.406
232.446 32.4309 151.404
238.539 64.1542 130.951
238.519 64.1573 130.95
244.396 93.0584 106.618
244.376 93.0614 106.616
249.942 118.684 78.7897
249.923 118.687 78.7886
255.092 140.628 47.9061
255.073 140.631 47.9049
259.764 158.544 14.4537
259.744 158.547 14.4526
263.884 172.148 -21.0399
263.864 172.152 -21.041
267.386 181.228 -58.0148
267.367 181.231 -58.016
270.217 185.639 -95.8881
270.197 185.642 -95.8892
272.331 185.311 -134.062
272.311 185.314 -134.064
273.695 180.251 -171.936
273.675 180.254 -171.937
274.287 170.537 -208.911
274.267 170.54 -208.912
274.098 156.324 -244.404
274.079 156.327 -244.405
273.132 137.834 -277.857
273.112 137.837 -277.858
271.402 115.361 -308.74
271.382 115.364 -308.741
268.937 89.2574 -336.568
268.918 89.2605 -336.569
265.776 59.9359 -360.901
265.756 59.9389 -360.902
261.968 27.8586 -381.356
261.948 27.8617 -381.357
257.573 -6.4685 -397.61
257.553 -6.46545 -397.611
252.66 -42.5041 -409.406
252.641 -42.501 -409.408
247.308 -79.6799 -416.56
247.289 -79.6768 -416.561
CELLS 588 2352
3 19 16 18
3 19 16 17
3 3 4 2
3 3 4 5
3 3 2 0
3 3 1 0
3 13 10 12
3 13 10 11
3 9 10 11
3 9 10 8
3 20 19 21
3 20 19 18
3 23 22 24
3 23 25 24
3 23 20 22
3 23 20 21
3 97 94 96
3 97 94 95
3 93 94 92
3 93 94 95
3 87 88 86
3 87 88 89
3 42 43 45
3 42 45 44
3 46 47 45
3 46 45 44
3 33 32 34
3 33 34 35
3 57 54 56
3 57 54 55
3 57 58 56
3 57 58 59
3 63 64 62
3 63 64 65
3 15 16 17
3 15 16 14
3 15 14 12
3 15 13 12
3 7 4 5
3 7 4 6
3 7 8 6
3 7 9 8
3 84 87 85
3 84 87 86
3 83 84 85
3 83 84 82
3 37 34 36
3 37 34 35
3 37 38 36
3 37 39 38
3 41 42 40
3 41 42 43
3 41 38 40
3 41 39 38
3 31 28 30
3 31 28 29
3 31 32 30
3 31 33 32
3 26 25 24
3 26 27 25
3 26 27 29
3 26 28 29
3 99 1 0
3 99 98 0
3 99 97 96
3 99 98 96
3 81 78 80
3 81 78 79
3 81 82 80
3 81 83 82
3 91 88 89
3 91 90 88
3 91 93 92
3 91 90 92
3 53 54 55
3 53 52 54
3 53 52 50
3 53 51 50
3 49 46 47
3 49 48 46
3 49 48 50
3 49 51 50
3 73 72 74
3 73 74 75
3 67 64 65
3 67 66 64
3 67 66 68
3 67 69 68
3 61 58 59
3 61 60 58
3 61 63 62
3 61 60 62
3 76 77 75
3 76 74 75
3 76 77 79
3 76 78 79
3 70 32 30
3 70 14 12
3 70 48 50
3 70 16 18
3 70 42 44
3 70 34 36
3 70 4 6
3 70 66 68
3 70 22 24
3 70 84 86
3 70 90 92
3 70 8 6
3 70 2 0
3 70 98 0
3 70 88 86
3 70 38 36
3 70 64 62
3 70 26 24
3 70 16 14
3 70 10 12
3 70 20 18
3 70 94 92
3 70 38 40
3 70 32 34
3 70 28 30
3 70 54 56
3 70 52 50
3 70 4 2
3 70 10 8
3 70 20 22
3 70 94 96
3 70 82 80
3 70 60 62
3 70 42 40
3 70 46 44
3 70 72 74
3 70 58 56
3 70 98 96
3 70 84 82
3 70 78 80
3 70 90 88
3 70 52 54
3 70 48 46
3 70 26 28
3 70 76 74
3 70 66 64
3 70 60 58
3 70 76 78
3 71 23 25
3 71 91 89
3 71 3 5
3 71 99 1
3 71 97 95
3 71 27 25
3 71 15 17
3 71 19 17
3 71 87 85
3 71 33 35
3 71 83 85
3 71 49 47
3 71 63 65
3 71 19 21
3 71 93 95
3 71 43 45
3 71 47 45
3 71 57 55
3 71 3 1
3 71 13 11
3 71 9 11
3 71 23 21
3 71 31 29
3 71 7 5
3 71 81 79
3 71 87 89
3 71 37 35
3 71 53 55
3 71 41 43
3 71 27 29
3 71 73 75
3 71 57 59
3 71 67 65
3 71 15 13
3 71 7 9
3 71 77 75
3 71 37 39
3 71 41 39
3 71 31 33
3 71 99 97
3 71 77 79
3 71 81 83
3 71 91 93
3 71 53 51
3 71 49 51
3 71 61 59
3 71 67 69
3 71 61 63
3 71 69 68
3 71 70 68
3 71 73 72
3 71 70 72
3 119 116 118
3 119 116 117
3 103 104 102
3 103 104 105
3 103 102 100
3 103 101 100
3 113 110 112
3 113 110 111
3 109 110 111
3 109 110 108
3 120 119 121
3 120 119 118
3 123 122 124
3 123 125 124
3 123 120 122
3 123 120 121
3 197 194 196
3 197 194 195
3 193 194 192
3 193 194 195
3 187 188 186
3 187 188 189
3 142 143 145
3 142 145 144
3 146 147 145
3 146 145 144
3 133 132 134
3 133 134 135
3 157 154 156
3 157 154 155
3 157 158 156
3 157 158 159
3 163 164 162
3 163 164 165
3 115 116 117
3 115 116 114
3 115 114 112
3 115 113 112
3 107 104 105
3 107 104 106
3 107 108 106
3 107 109 108
3 184 187 185
3 184 187 186
3 183 184 185
3 183 184 182
3 137 134 136
3 137 134 135
3 137 138 136
3 137 139 138
3 141 142 140
3 141 142 143
3 141 138 140
3 141 139 138
3 131 128 130
3 131 128 129
3 131 132 130
3 131 133 132
3 126 125 124
3 126 127 125
3 126 127 129
3 126 128 129
3 199 101 100
3 199 198 100
3 199 197 196
3 199 198 196
3 181 178 180
3 181 178 179
3 181 182 180
3 181 183 182
3 191 188 189
3 191 190 188
3 191 193 192
3 191 190 192
3 153 154 155
3 153 152 154
3 153 152 150
3 153 151 150
3 149 146 147
3 149 148 146
3 149 148 150
3 149 151 150
3 173 172 174
3 173 174 175
3 167 164 165
3 167 166 164
3 167 166 168
3 167 169 168
3 161 158 159
3 161 160 158
3 161 163 162
3 161 160 162
3 176 177 175
3 176 174 175
3 176 177 179
3 176 178 179
3 170 132 130
3 170 114 112
3 170 148 150
3 170 116 118
3 170 142 144
3 170 134 136
3 170 104 106
3 170 166 168
3 170 122 124
3 170 184 186
3 170 190 192
3 170 108 106
3 170 102 100
3 170 198 100
3 170 188 186
3 170 138 136
3 170 164 162
3 170 126 124
3 170 116 114
3 170 110 112
3 170 120 118
3 170 194 192
3 170 138 140
3 170 132 134
3 170 128 130
3 170 154 156
3 170 152 150
3 170 104 102
3 170 110 108
3 170 120 122
3 170 194 196
3 170 182 180
3 170 160 162
3 170 142 140
3 170 146 144
3 170 172 174
3 170 158 156
3 170 198 196
3 170 184 182
3 170 178 180
3 170 190 188
3 170 152 154
3 170 148 146
3 170 126 128
3 170 176 174
3 170 166 164
3 170 160 158
3 170 176 178
3 171 123 125
3 171 191 189
3 171 103 105
3 171 199 101
3 171 197 195
3 171 127 125
3 171 115 117
3 171 119 117
3 171 187 185
3 171 133 135
3 171 183 185
3 171 149 147
3 171 163 165
3 171 119 121
3 171 193 195
3 171 143 145
3 171 147 145
3 171 157 155
3 171 103 101
3 171 113 111
3 171 109 111
3 171 123 121
3 171 131 129
3 171 107 105
3 171 181 179
3 171 187 189
3 171 137 135
3 171 153 155
3 171 141 143
3 171 127 129
3 171 173 175
3 171 157 159
3 171 167 165
3 171 115 113
3 171 107 109
3 171 177 175
3 171 137 139
3 171 141 139
3 171 131 133
3 171 199 197
3 171 177 179
3 171 181 183
3 171 191 193
3 171 153 151
3 171 149 151
3 171 161 159
3 171 167 169
3 171 161 163
3 171 169 168
3 171 170 168
3 171 173 172
3 171 170 172
3 219 216 218
3 219 216 217
3 203 204 202
3 203 204 205
3 203 202 200
3 203 201 200
3 213 210 212
3 213 210 211
3 209 210 211
3 209 210 208
3 220 219 221
3 220 219 218
3 223 222 224
3 223 225 224
3 223 220 222
3 223 220 221
3 297 294 296
3 297 294 295
3 293 294 292
3 293 294 295
3 287 288 286
3 287 288 289
3 242 243 245
3 242 245 244
3 246 247 245
3 246 245 244
3 233 232 234
3 233 234 235
3 257 254 256
3 257 254 255
3 257 258 256
3 257 258 259
3 263 264 262
3 263 264 265
3 215 216 217
3 215 216 214
3 215 214 212
3 215 213 212
3 207 204 205
3 207 204 206
3 207 208 206
3 207 209 208
3 284 287 285
3 284 287 286
3 283 284 285
3 283 284 282
3 237 234 236
3 237 234 235
3 237 238 236
3 237 239 238
3 241 242 240
3 241 242 243
3 241 238 240
3 241 239 238
3 231 228 230
3 231 228 229
3 231 232 230
3 231 233 232
3 226 225 224
3 226 227 225
3 226 227 229
3 226 228 229
3 299 201 200
3 299 298 200
3 299 297 296
3 299 298 296
3 281 278 280
3 281 278 279
3 281 282 280
3 281 283 282
3 291 288 289
3 291 290 288
3 291 293 292
3 291 290 292
3 253 254 255
3 253 252 254
3 253 252 250
3 253 251 250
3 249 246 247
3 249 248 246
3 249 248 250
3 249 251 250
3 273 272 274
3 273 274 275
3 267 264 265
3 267 266 264
3 267 266 268
3 267 269 268
3 261 258 259
3 261 260 258
3 261 263 262
3 261 260 262
3 276 277 275
3 276 274 275
3 276 277 279
3 276 278 279
3 270 232 230
3 270 214 212
3 270 248 250
3 270 216 218
3 270 242 244
3 270 234 236
3 270 204 206
3 270 266 268
3 270 222 224
3 270 284 286
3 270 290 292
3 270 208 206
3 270 202 200
3 270 298 200
3 270 288 286
3 270 238 236
3 270 264 262
3 270 226 224
3 270 216 214
3 270 210 212
3 270 220 218
3 270 294 292
3 270 238 240
3 270 232 234
3 270 228 230
3 270 254 256
3 270 252 250
3 270 204 202
3 270 210 208
3 270 220 222
3 270 294 296
3 270 282 280
3 270 260 262
3 270 242 240
3 270 246 244
3 270 272 274
3 270 258 256
3 270 298 296
3 270 284 282
3 270 278 280
3 270 290 288
3 270 252 254
3 270 248 246
3 270 226 228
3 270 276 274
3 270 266 264
3 270 260 258
3 270 276 278
3 271 223 225
3 271 291 289
3 271 203 205
3 271 299 201
3 271 297 295
3 271 227 225
3 271 215 217
3 271 219 217
3 271 287 285
3 271 233 235
3 271 283 285
3 271 249 247
3 271 263 265
3 271 219 221
3 271 293 295
3 271 243 245
3 271 247 245
3 271 257 255
3 271 203 201
3 271 213 211
3 271 209 211
3 271 223 221
3 271 231 229
3 271 207 205
3 271 281 279
3 271 287 289
3 271 237 235
3 271 253 255
3 271 241 243
3 271 227 229
3 271 273 275
3 271 257 259
3 271 267 265
3 271 215 213
3 271 207 209
3 271 277 275
3 271 237 239
3 271 241 239
3 271 231 233
3 271 299 297
3 271 277 279
3 271 281 283
3 271 291 293
3 271 253 251
3 271 249 251
3 271 261 259
3 271 267 269
3 271 261 263
3 271 269 268
3 271 270 268
3 271 273 272
3 271 270 272
CELL_TYPES 588
5 5 5 5 5 5 5 5 5 5 
5 5 5 5 5 5 5 5 5 5 
5 5 5 5 5 5 5 5 5 5 
5 5 5 5 5 5 5 5 5 5 
5 5 5 5 5 5 5 5 5 5 
5 5 5 5 5 5 5 5 5 5 
5 5 5 5 5 5 5 5 5 5 
5 5 5 5 5 5 5 5 5 5 
5 5 5 5 5 5 5 5 5 5 
5 5 5 5 5 5 5 5 5 5 
5 5 5 5 5 5 5 5 5 5 
5 5 5 5 5 5 5 5 5 5 
5 5 5 5 5 5 5 5 5 5 
5 5 5 5 5 5 5 5 5 5 
5 5 5 5 5 5 5 5 5 5 
5 5 5 5 5 5 5 5 5 5 
5 5 5 5 5 5 5 5 5 5 
5 5 5 5 5 5 5 5 5 5 
5 5 5 5 5 5 5 5 5 5 
5 5 5 5 5 5 5 5 5 5 
5 5 5 5 5 5 5 5 5 5 
5 5 5 5 5 5 5 5 5 5 
5 5 5 5 5 5 5 5 5 5 
5 5 5 5 5 5 5 5 5 5 
5 5 5 5 5 5 5 5 5 5 
5 5 5 5 5 5 5 5 5 5 
5 5 5 5 5 5 5 5 5 5 
5 5 5 5 5 5 5 5 5 5 
5 5 5 5 5 5 5 5 5 5 
5 5 5 5 5 5 5 5 5 5 
5 5 5 5 5 5 5 5 5 5 
5 5 5 5 5 5 5 5 5 5 
5 5 5 5 5 5 5 5 5 5 
5 5 5 5 5 5 5 5 5 5 
5 5 5 5 5 5 5 5 5 5 
5 5 5 5 5 5 5 5 5 5 
5 5 5 5 5 5 5 5 5 5 
5 5 5 5 5 5 5 5 5 5 
5 5 5 5 5 5 5 5 5 5 
5 5 5 5 5 5 5 5 5 5 
5 5 5 5 5 5 5 5 5 5 
5 5 5 5 5 5 5 5 5 5 
5 5 5 5 5 5 5 5 5 5 
5 5 5 5 5 5 5 5 5 5 
5 5 5 5 5 5 5 5 5 5 
5 5 5 5 5 5 5 5 5 5 
5 5 5 5 5 5 5 5 5 5 
5 5 5 5 5 5 5 5 5 5 
5 5 5 5 5 5 5 5 5 5 
5 5 5 5 5 5 5 5 5 5 
5 5 5 5 5 5 5 5 5 5 
5 5 5 5 5 5 5 5 5 5 
5 5 5 5 5 5 5 5 5 5 
5 5 5 5 5 5 5 5 5 5 
5 5 5 5 5 5 5 5 5 5 
5 5 5 5 5 5 5 5 5 5 
5 5 5 5 5 5 5 5 5 5 
5 5 5 5 5 5 5 5 5 5 
5 5 5 5 5 5 5 5 
CELL_DATA 588
SCALARS Face_Number float 1
LOOKUP_TABLE default
6 6 6 6 6 6 6 6 6 
6 6 6 6 6 6 6 6 6 6 
6 6 6 6 6 6 6 6 6 6 
6 6 6 6 6 6 6 6 6 6 
6 6 6 6 6 6 6 6 6 6 
6 6 6 6 6 6 6 6 6 6 
6 6 6 6 6 6 6 6 6 6 
6 6 6 6 6 6 6 6 6 6 
6 6 6 6 6 6 6 6 6 6 
6 6 6 6 6 6 6 6 6 6 
6 6 6 6 6 6 6 6 6 6 
6 6 6 6 6 6 6 6 6 6 
6 6 6 6 6 6 6 6 6 6 
6 6 6 6 6 6 6 6 6 6 
6 6 6 6 6 6 6 6 6 6 
6 6 6 6 6 6 6 6 6 6 
6 6 6 6 6 6 6 6 6 6 
6 6 6 6 6 6 6 6 6 6 
6 6 6 6 6 6 6 6 6 6 
6 6 6 6 6 6 6 7 7 7 
7 7 7 7 7 7 7 7 7 7 
7 7 7 7 7 7 7 7 7 7 
7 7 7 7 7 7 7 7 7 7 
7 7 7 7 7 7 7 7 7 7 
7 7 7 7 7 7 7 7 7 7 
7 7 7 7 7 7 7 7 7 7 
7 7 7 7 7 7 7 7 7 7 
7 7 7 7 7 7 7 7 7 7 
7 7 7 7 7 7 7 7 7 7 
7 7 7 7 7 7 7 7 7 7 
7 7 7 7 7 7 7 7 7 7 
7 7 7 7 7 7 7 7 7 7 
7 7 7 7 7 7 7 7 7 7 
7 7 7 7 7 7 7 7 7 7 
7 7 7 7 7 7 7 7 7 7 
7 7 7 7 7 7 7 7 7 7 
7 7 7 7 7 7 7 7 7 7 
7 7 7 7 7 7 7 7 7 7 
7 7 7 7 7 7 7 7 7 7 
7 7 7 8 8 8 8 8 8 8 
8 8 8 8 8 8 8 8 8 8 
8 8 8 8 8 8 8 8 8 8 
8 8 8 8 8 8 8 8 8 8 
8 8 8 8 8 8 8 8 8 8 
8 8 8 8 8 8 8 8 8 8 
8 8 8 8 8 8 8 8 8 8 
8 8 8 8 8 8 8 8 8 8 
8 8 8 8 8 8 8 8 8 8 
8 8 8 8 8 8 8 8 8 8 
8 8 8 8 8 8 8 8 8 8 
8 8 8 8 8 8 8 8 8 8 
8 8 8 8 8 8 8 8 8 8 
8 8 8 8 8 8 8 8 8 8 
8 8 8 8 8 8 8 8 8 8 
8 8 8 8 8 8 8 8 8 8 
8 8 8 8 8 8 8 8 8 8 
8 8 8 8 8 8 8 8 8 8 
8 8 8 8 8 8 8 8 8 8 
8 8 8 8 8 8 8 8 8 SCALARS Node_Number float 1
LOOKUP_TABLE default
10 10 10 10 10 10 10 10 10 
10 10 10 10 10 10 10 10 10 10 
10 10 10 10 10 10 10 10 10 10 
10 10 10 10 10 10 10 10 10 10 
10 10 10 10 10 10 10 10 10 10 
10 10 10 10 10 10 10 10 10 10 
10 10 10 10 10 10 10 10 10 10 
10 10 10 10 10 10 10 10 10 10 
10 10 10 10 10 10 10 10 10 10 
10 10 10 10 10 10 10 10 10 10 
10 10 10 10 10 10 10 10 10 10 
10 10 10 10 10 10 10 10 10 10 
10 10 10 10 10 10 10 10 10 10 
10 10 10 10 10 10 10 10 10 10 
10 10 10 10 10 10 10 10 10 10 
10 10 10 10 10 10 10 10 10 10 
10 10 10 10 10 10 10 10 10 10 
10 10 10 10 10 10 10 10 10 10 
10 10 10 10 10 10 10 10 10 10 
10 10 10 10 10 10 10 13 13 13 
13 13 13 13 13 13 13 13 13 13 
13 13 13 13 13 13 13 13 13 13 
13 13 13 13 13 13 13 13 13 13 
13 13 13 13 13 13 13 13 13 13 
13 13 13 13 13 13 13 13 13 13 
13 13 13 13 13 13 13 13 13 13 
13 13 13 13 13 13 13 13 13 13 
13 13 13 13 13 13 13 13 13 13 
13 13 13 13 13 13 13 13 13 13 
13 13 13 13 13 13 13 13 13 13 
13 13 13 13 13 13 13 13 13 13 
13 13 13 13 13 13 13 13 13 13 
13 13 13 13 13 13 13 13 13 13 
13 13 13 13 13 13 13 13 13 13 
13 13 13 13 13 13 13 13 13 13 
13 13 13 13 13 13 13 13 13 13 
13 13 13 13 13 13 13 13 13 13 
13 13 13 13 13 13 13 13 13 13 
13 13 13 13 13 13 13 13 13 13 
13 13 13 13 13 13 13 13 13 13 
13 13 13 13 13 13 13 13 13 13 
13 13 13 13 13 13 13 13 13 13 
13 13 13 13 13 13 13 13 13 13 
13 13 13 13 13 13 13 13 13 13 
13 13 13 13 13 13 13 13 13 13 
13 13 13 13 13 13 13 13 13 13 
13 13 13 13 13 13 13 13 13 13 
13 13 13 13 13 13 13 13 13 13 
13 13 13 13 13 13 13 13 13 13 
13 13 13 13 13 13 13 13 13 13 
13 13 13 13 13 13 13 13 13 13 
13 13 13 13 13 13 13 13 13 13 
13 13 13 13 13 13 13 13 13 13 
13 13 13 13 13 13 13 13 13 13 
13 13 13 13 13 13 13 13 13 13 
13 13 13 13 13 13 13 13 13 13 
13 13 13 13 13 13 13 13 13 13 
13 13 13 13 13 13 13 13 13 13 
13 13 13 13 13 13 13 13 13 SCALARS Type float 1
LOOKUP_TABLE default
2 2 2 2 2 2 2 2 2 
2 2 2 2 2 2 2 2 2 2 
2 2 2 2 2 2 2 2 2 2 
2 2 2 2 2 2 2 2 2 2 
2 2 2 2 2 2 2 2 2 2 
2 2 2 2 2 2 2 2 2 2 
2 2 2 2 2 2 2 2 2 2 
2 2 2 2 2 2 2 2 2 2 
2 2 2 2 2 2 2 2 2 2 
2 2 2 2 2 2 2 2 2 2 
2 2 2 2 2 2 2 2 2 2 
2 2 2 2 2 2 2 2 2 2 
2 2 2 2 2 2 2 2 2 2 
2 2 2 2 2 2 2 2 2 2 
2 2 2 2 2 2 2 2 2 2 
2 2 2 2 2 2 2 2 2 2 
2 2 2 2 2 2 2 2 2 2 
2 2 2 2 2 2 2 2 2 2 
2 2 2 2 2 2 2 2 2 2 
2 2 2 2 2 2 2 2 2 2 
2 2 2 2 2 2 2 2 2 2 
2 2 2 2 2 2 2 2 2 2 
2 2 2 2 2 2 2 2 2 2 
2 2 2 2 2 2 2 2 2 2 
2 2 2 2 2 2 2 2 2 2 
2 2 2 2 2 2 2 2 2 2 
2 2 2 2 2 2 2 2 2 2 
2 2 2 2 2 2 2 2 2 2 
2 2 2 2 2 2 2 2 2 2 
2 2 2 2 2 2 2 2 2 2 
2 2 2 2 2 2 2 2 2 2 
2 2 2 2 2 2 2 2 2 2 
2 2 2 2 2 2 2 2 2 2 
2 2 2 2 2 2 2 2 2 2 
2 2 2 2 2 2 2 2 2 2 
2 2 2 2 2 2 2 2 2 2 
2 2 2 2 2 2 2 2 2 2 
2 2 2 2 2 2 2 2 2 2 
2 2 2 2 2 2 2 2 2 2 
2 2 2 2 2 2 2 2 2 2 
2 2 2 2 2 2 2 2 2 2 
2 2 2 2 2 2 2 2 2 2 
2 2 2 2 2 2 2 2 2 2 
2 2 2 2 2 2 2 2 2 2 
2 2 2 2 2 2 2 2 2 2 
2 2 2 2 2 2 2 2 2 2 
2 2 2 2 2 2 2 2 2 2 
2 2 2 2 2 2 2 2 2 2 
2 2 2 2 2 2 2 2 2 2 
2 2 2 2 2 2 2 2 2 2 
2 2 2 2 2 2 2 2 2 2 
2 2 2 2 2 2 2 2 2 2 
2 2 2 2 2 2 2 2 2 2 
2 2 2 2 2 2 2 2 2 2 
2 2 2 2 2 2 2 2 2 2 
2 2 2 2 2 2 2 2 2 2 
2 2 2 2 2 2 2 2 2 2 
2 2 2 2 2 2 2 2 2 2 
2 2 2 2 2 2 2 2 2 SCALARS Sn_MPa float 1
LOOKUP_TABLE default
31.3556 31.3556 31.3556 31.3556 31.3556 31.3556 31.3556 31.3556 31.3556 
31.3556 31.3556 31.3556 31.3556 31.3556 31.3556 31.3556 31.3556 31.3556 31.3556 
31.3556 31.3556 31.3556 31.3556 31.3556 31.3556 31.3556 31.3556 31.3556 31.3556 
31.3556 31.3556 31.3556 31.3556 31.3556 31.3556 31.3556 31.3556 31.3556 31.3556 
31.3556 31.3556 31.3556 31.3556 31.3556 31.3556 31.3556 31.3556 31.3556 31.3556 
31.3556 31.3556 31.3556 31.3556 31.3556 31.3556 31.3556 31.3556 31.3556 31.3556 
31.3556 31.3556 31.3556 31.3556 31.3556 31.3556 31.3556 31.3556 31.3556 31.3556 
31.3556 31.3556 31.3556 31.3556 31.3556 31.3556 31.3556 31.3556 31.3556 31.3556 
31.3556 31.3556 31.3556 31.3556 31.3556 31.3556 31.3556 31.3556 31.3556 31.3556 
31.3556 31.3556 31.3556 31.3556 31.3556 31.3556 31.3556 31.3556 31.3556 31.3556 
31.3556 31.3556 31.3556 31.3556 31.3556 31.3556 31.3556 31.3556 31.3556 31.3556 
31.3556 31.3556 31.3556 31.3556 31.3556 31.3556 31.3556 31.3556 31.3556 31.3556 
31.3556 31.3556 31.3556 31.3556 31.3556 31.3556 31.3556 31.3556 31.3556 31.3556 
31.3556 31.3556 31.3556 31.3556 31.3556 31.3556 31.3556 31.3556 31.3556 31.3556 
31.3556 31.3556 31.3556 31.3556 31.3556 31.3556 31.3556 31.3556 31.3556 31.3556 
31.3556 31.3556 31.3556 31.3556 31.3556 31.3556 31.3556 31.3556 31.3556 31.3556 
31.3556 31.3556 31.3556 31.3556 31.3556 31.3556 31.3556 31.3556 31.3556 31.3556 
31.3556 31.3556 31.3556 31.3556 31.3556 31.3556 31.3556 31.3556 31.3556 31.3556 
31.3556 31.3556 31.3556 31.3556 31.3556 31.3556 31.3556 31.3556 31.3556 31.3556 
31.3556 31.3556 31.3556 31.3556 31.3556 31.3556 31.3556 31.354 31.354 31.354 
31.354 31.354 31.354 31.354 31.354 31.354 31.354 31.354 31.354 31.354 
31.354 31.354 31.354 31.354 31.354 31.354 31.354 31.354 31.354 31.354 
31.354 31.354 31.354 31.354 31.354 31.354 31.354 31.354 31.354 31.354 
31.354 31.354 31.354 31.354 31.354 31.354 31.354 31.354 31.354 31.354 
31.354 31.354 31.354 31.354 31.354 31.354 31.354 31.354 31.354 31.354 
31.354 31.354 31.354 31.354 31.354 31.354 31.354 31.354 31.354 31.354 
31.354 31.354 31.354 31.354 31.354 31.354 31.354 31.354 31.354 31.354 
31.354 31.354 31.354 31.354 31.354 31.354 31.354 31.354 31.354 31.354 
31.354 31.354 31.354 31.354 31.354 31.354 31.354 31.354 31.354 31.354 
31.354 31.354 31.354 31.354 31.354 31.354 31.354 31.354 31.354 31.354 
31.354 31.354 31.354 31.354 31.354 31.354 31.354 31.354 31.354 31.354 
31.354 31.354 31.354 31.354 31.354 31.354 31.354 31.354 31.354 31.354 
31.354 31.354 31.354 31.354 31.354 31.354 31.354 31.354 31.354 31.354 
31.354 31.354 31.354 31.354 31.354 31.354 31.354 31.354 31.354 31.354 
31.354 31.354 31.354 31.354 31.354 31.354 31.354 31.354 31.354 31.354 
31.354 31.354 31.354 31.354 31.354 31.354 31.354 31.354 31.354 31.354 
31.354 31.354 31.354 31.354 31.354 31.354 31.354 31.354 31.354 31.354 
31.354 31.354 31.354 31.354 31.354 31.354 31.354 31.354 31.354 31.354 
31.354 31.354 31.354 31.354 31.354 31.354 31.354 31.354 31.354 31.354 
31.354 31.354 31.354 31.3558 31.3558 31.3558 31.3558 31.3558 31.3558 31.3558 
31.3558 31.3558 31.3558 31.3558 31.3558 31.3558 31.3558 31.3558 31.3558 31.3558 
31.3558 31.3558 31.3558 31.3558 31.3558 31.3558 31.3558 31.3558 31.3558 31.3558 
31.3558 31.3558 31.3558 31.3558 31.3558 31.3558 31.3558 31.3558 31.3558 31.3558 
31.3558 31.3558 31.3558 31.3558 31.3558 31.3558 31.3558 31.3558 31.3558 31.3558 
31.3558 31.3558 31.3558 31.3558 31.3558 31.3558 31.3558 31.3558 31.3558 31.3558 
31.3558 31.3558 31.3558 31.3558 31.3558 31.3558 31.3558 31.3558 31.3558 31.3558 
31.3558 31.3558 31.3558 31.3558 31.3558 31.3558 31.3558 31.3558 31.3558 31.3558 
31.3558 31.3558 31.3558 31.3558 31.3558 31.3558 31.3558 31.3558 31.3558 31.3558 
31.3558 31.3558 31.3558 31.3558 31.3558 31.3558 31.3558 31.3558 31.3558 31.3558 
31.3558 31.3558 31.3558 31.3558 31.3558 31.3558 31.3558 31.3558 31.3558 31.3558 
31.3558 31.3558 31.3558 31.3558 31.3558 31.3558 31.3558 31.3558 31.3558 31.3558 
31.3558 31.3558 31.3558 31.3558 31.3558 31.3558 31.3558 31.3558 31.3558 31.3558 
31.3558 31.3558 31.3558 31.3558 31.3558 31.3558 31.3558 31.3558 31.3558 31.3558 
31.3558 31.3558 31.3558 31.3558 31.3558 31.3558 31.3558 31.3558 31.3558 31.3558 
31.3558 31.3558 31.3558 31.3558 31.3558 31.3558 31.3558 31.3558 31.3558 31.3558 
31.3558 31.3558 31.3558 31.3558 31.3558 31.3558 31.3558 31.3558 31.3558 31.3558 
31.3558 31.3558 31.3558 31.3558 31.3558 31.3558 31.3558 31.3558 31.3558 31.3558 
31.3558 31.3558 31.3558 31.3558 31.3558 31.3558 31.3558 31.3558 31.3558 31.3558 
31.3558 31.3558 31.3558 31.3558 31.3558 31.3558 31.3558 31.3558 31.3558 SCALARS Pc_MPa float 1
LOOKUP_TABLE default
31.6489 31.6489 31.6489 31.6489 31.6489 31.6489 31.6489 31.6489 31.6489 
31.6489 31.6489 31.6489 31.6489 31.6489 31.6489 31.6489 31.6489 31.6489 31.6489 
31.6489 31.6489 31.6489 31.6489 31.6489 31.6489 31.6489 31.6489 31.6489 31.6489 
31.6489 31.6489 31.6489 31.6489 31.6489 31.6489 31.6489 31.6489 31.6489 31.6489 
31.6489 31.6489 31.6489 31.6489 31.6489 31.6489 31.6489 31.6489 31.6489 31.6489 
31.6489 31.6489 31.6489 31.6489 31.6489 31.6489 31.6489 31.6489 31.6489 31.6489 
31.6489 31.6489 31.6489 31.6489 31.6489 31.6489 31.6489 31.6489 31.6489 31.6489 
31.6489 31.6489 31.6489 31.6489 31.6489 31.6489 31.6489 31.6489 31.6489 31.6489 
31.6489 31.6489 31.6489 31.6489 31.6489 31.6489 31.6489 31.6489 31.6489 31.6489 
31.6489 31.6489 31.6489 31.6489 31.6489 31.6489 31.6489 31.6489 31.6489 31.6489 
31.6489 31.6489 31.6489 31.6489 31.6489 31.6489 31.6489 31.6489 31.6489 31.6489 
31.6489 31.6489 31.6489 31.6489 31.6489 31.6489 31.6489 31.6489 31.6489 31.6489 
31.6489 31.6489 31.6489 31.6489 31.6489 31.6489 31.6489 31.6489 31.6489 31.6489 
31.6489 31.6489 31.6489 31.6489 31.6489 31.6489 31.6489 31.6489 31.6489 31.6489 
31.6489 31.6489 31.6489 31.6489 31.6489 31.6489 31.6489 31.6489 31.6489 31.6489 
31.6489 31.6489 31.6489 31.6489 31.6489 31.6489 31.6489 31.6489 31.6489 31.6489 
31.6489 31.6489 31.6489 31.6489 31.6489 31.6489 31.6489 31.6489 31.6489 31.6489 
31.6489 31.6489 31.6489 31.6489 31.6489 31.6489 31.6489 31.6489 31.6489 31.6489 
31.6489 31.6489 31.6489 31.6489 31.6489 31.6489 31.6489 31.6489 31.6489 31.6489 
31.6489 31.6489 31.6489 31.6489 31.6489 31.6489 31.6489 31.6473 31.6473 31.6473 
31.6473 31.6473 31.6473 31.6473 31.6473 31.6473 31.6473 31.6473 31.6473 31.6473 
31.6473 31.6473 31.6473 31.6473 31.6473 31.6473 31.6473 31.6473 31.6473 31.6473 
31.6473 31.6473 31.6473 31.6473 31.6473 31.6473 31.6473 31.6473 31.6473 31.6473 
31.6473 31.6473 31.6473 31.6473 31.6473 31.6473 31.6473 31.6473 31.6473 31.6473 
31.6473 31.6473 31.6473 31.6473 31.6473 31.6473 31.6473 31.6473 31.6473 31.6473 
31.6473 31.6473 31.6473 31.6473 31.6473 31.6473 31.6473 31.6473 31.6473 31.6473 
31.6473 31.6473 31.6473 31.6473 31.6473 31.6473 31.6473 31.6473 31.6473 31.6473 
31.6473 31.6473 31.6473 31.6473 31.6473 31.6473 31.6473 31.6473 31.6473 31.6473 
31.6473 31.6473 31.6473 31.6473 31.6473 31.6473 31.6473 31.6473 31.6473 31.6473 
31.6473 31.6473 31.6473 31.6473 31.6473 31.6473 31.6473 31.6473 31.6473 31.6473 
31.6473 31.6473 31.6473 31.6473 31.6473 31.6473 31.6473 31.6473 31.6473 31.6473 
31.6473 31.6473 31.6473 31.6473 31.6473 31.6473 31.6473 31.6473 31.6473 31.6473 
31.6473 31.6473 31.6473 31.6473 31.6473 31.6473 31.6473 31.6473 31.6473 31.6473 
31.6473 31.6473 31.6473 31.6473 31.6473 31.6473 31.6473 31.6473 31.6473 31.6473 
31.6473 31.6473 31.6473 31.6473 31.6473 31.6473 31.6473 31.6473 31.6473 31.6473 
31.6473 31.6473 31.6473 31.6473 31.6473 31.6473 31.6473 31.6473 31.6473 31.6473 
31.6473 31.6473 31.6473 31.6473 31.6473 31.6473 31.6473 31.6473 31.6473 31.6473 
31.6473 31.6473 31.6473 31.6473 31.6473 31.6473 31.6473 31.6473 31.6473 31.6473 
31.6473 31.6473 31.6473 31.6473 31.6473 31.6473 31.6473 31.6473 31.6473 31.6473 
31.6473 31.6473 31.6473 31.649 31.649 31.649 31.649 31.649 31.649 31.649 
31.649 31.649 31.649 31.649 31.649 31.649 31.649 31.649 31.649 31.649 
31.649 31.649 31.649 31.649 31.649 31.649 31.649 31.649 31.649 31.649 
31.649 31.649 31.649 31.649 31.649 31.649 31.649 31.649 31.649 31.649 
31.649 31.649 31.649 31.649 31.649 31.649 31.649 31.649 31.649 31.649 
31.649 31.649 31.649 31.649 31.649 31.649 31.649 31.649 31.649 31.649 
31.649 31.649 31.649 31.649 31.649 31.649 31.649 31.649 31.649 31.649 
31.649 31.649 31.649 31.649 31.649 31.649 31.649 31.649 31.649 31.649 
31.649 31.649 31.649 31.649 31.649 31.649 31.649 31.649 31.649 31.649 
31.649 31.649 31.649 31.649 31.649 31.649 31.649 31.649 31.649 31.649 
31.649 31.649 31.649 31.649 31.649 31.649 31.649 31.649 31.649 31.649 
31.649 31.649 31.649 31.649 31.649 31.649 31.649 31.649 31.649 31.649 
31.649 31.649 31.649 31.649 31.649 31.649 31.649 31.649 31.649 31.649 
31.649 31.649 31.649 31.649 31.649 31.649 31.649 31.649 31.649 31.649 
31.649 31.649 31.649 31.649 31.649 31.649 31.649 31.649 31.649 31.649 
31.649 31.649 31.649 31.649 31.649 31.649 31.649 31.649 31.649 31.649 
31.649 31.649 31.649 31.649 31.649 31.649 31.649 31.649 31.649 31.649 
31.649 31.649 31.649 31.649 31.649 31.649 31.649 31.649 31.649 31.649 
31.649 31.649 31.649 31.649 31.649 31.649 31.649 31.649 31.649 31.649 
31.649 31.649 31.649 31.649 31.649 31.649 31.649 31.649 31.649 SCALARS Tau_MPa float 1
LOOKUP_TABLE default
0.226144 0.226144 0.226144 0.226144 0.226144 0.226144 0.226144 0.226144 0.226144 
0.226144 0.226144 0.226144 0.226144 0.226144 0.226144 0.226144 0.226144 0.226144 0.226144 
0.226144 0.226144 0.226144 0.226144 0.226144 0.226144 0.226144 0.226144 0.226144 0.226144 
0.226144 0.226144 0.226144 0.226144 0.226144 0.226144 0.226144 0.226144 0.226144 0.226144 
0.226144 0.226144 0.226144 0.226144 0.226144 0.226144 0.226144 0.226144 0.226144 0.226144 
0.226144 0.226144 0.226144 0.226144 0.226144 0.226144 0.226144 0.226144 0.226144 0.226144 
0.226144 0.226144 0.226144 0.226144 0.226144 0.226144 0.226144 0.226144 0.226144 0.226144 
0.226144 0.226144 0.226144 0.226144 0.226144 0.226144 0.226144 0.226144 0.226144 0.226144 
0.226144 0.226144 0.226144 0.226144 0.226144 0.226144 0.226144 0.226144 0.226144 0.226144 
0.226144 0.226144 0.226144 0.226144 0.226144 0.226144 0.226144 0.226144 0.226144 0.226144 
0.226144 0.226144 0.226144 0.226144 0.226144 0.226144 0.226144 0.226144 0.226144 0.226144 
0.226144 0.226144 0.226144 0.226144 0.226144 0.226144 0.226144 0.226144 0.226144 0.226144 
0.226144 0.226144 0.226144 0.226144 0.226144 0.226144 0.226144 0.226144 0.226144 0.226144 
0.226144 0.226144 0.226144 0.226144 0.226144 0.226144 0.226144 0.226144 0.226144 0.226144 
0.226144 0.226144 0.226144 0.226144 0.226144 0.226144 0.226144 0.226144 0.226144 0.226144 
0.226144 0.226144 0.226144 0.226144 0.226144 0.226144 0.226144 0.226144 0.226144 0.226144 
0.226144 0.226144 0.226144 0.226144 0.226144 0.226144 0.226144 0.226144 0.226144 0.226144 
0.226144 0.226144 0.226144 0.226144 0.226144 0.226144 0.226144 0.226144 0.226144 0.226144 
0.226144 0.226144 0.226144 0.226144 0.226144 0.226144 0.226144 0.226144 0.226144 0.226144 
0.226144 0.226144 0.226144 0.226144 0.226144 0.226144 0.226144 0.0837059 0.0837059 0.0837059 
0.0837059 0.0837059 0.0837059 0.0837059 0.0837059 0.0837059 0.0837059 0.0837059 0.0837059 0.0837059 
0.0837059 0.0837059 0.0837059 0.0837059 0.0837059 0.0837059 0.0837059 0.0837059 0.0837059 0.0837059 
0.0837059 0.0837059 0.0837059 0.0837059 0.0837059 0.0837059 0.0837059 0.0837059 0.0837059 0.0837059 
0.0837059 0.0837059 0.0837059 0.0837059 0.0837059 0.0837059 0.0837059 0.0837059 0.0837059 0.0837059 
0.0837059 0.0837059 0.0837059 0.0837059 0.0837059 0.0837059 0.0837059 0.0837059 0.0837059 0.0837059 
0.0837059 0.0837059 0.0837059 0.0837059 0.0837059 0.0837059 0.0837059 0.0837059 0.0837059 0.0837059 
0.0837059 0.0837059 0.0837059 0.0837059 0.0837059 0.0837059 0.0837059 0.0837059 0.0837059 0.0837059 
0.0837059 0.0837059 0.0837059 0.0837059 0.0837059 0.0837059 0.0837059 0.0837059 0.0837059 0.0837059 
0.0837059 0.0837059 0.0837059 0.0837059 0.0837059 0.0837059 0.0837059 0.0837059 0.0837059 0.0837059 
0.0837059 0.0837059 0.0837059 0.0837059 0.0837059 0.0837059 0.0837059 0.0837059 0.0837059 0.0837059 
0.0837059 0.0837059 0.0837059 0.0837059 0.0837059 0.0837059 0.0837059 0.0837059 0.0837059 0.0837059 
0.0837059 0.0837059 0.0837059 0.0837059 0.0837059 0.0837059 0.0837059 0.0837059 0.0837059 0.0837059 
0.0837059 0.0837059 0.0837059 0.0837059 0.0837059 0.0837059 0.0837059 0.0837059 0.0837059 0.0837059 
0.0837059 0.0837059 0.0837059 0.0837059 0.0837059 0.0837059 0.0837059 0.0837059 0.0837059 0.0837059 
0.0837059 0.0837059 0.0837059 0.0837059 0.0837059 0.0837059 0.0837059 0.0837059 0.0837059 0.0837059 
0.0837059 0.0837059 0.0837059 0.0837059 0.0837059 0.0837059 0.0837059 0.0837059 0.0837059 0.0837059 
0.0837059 0.0837059 0.0837059 0.0837059 0.0837059 0.0837059 0.0837059 0.0837059 0.0837059 0.0837059 
0.0837059 0.0837059 0.0837059 0.0837059 0.0837059 0.0837059 0.0837059 0.0837059 0.0837059 0.0837059 
0.0837059 0.0837059 0.0837059 0.0837059 0.0837059 0.0837059 0.0837059 0.0837059 0.0837059 0.0837059 
0.0837059 0.0837059 0.0837059 0.217562 0.217562 0.217562 0.217562 0.217562 0.217562 0.217562 
0.217562 0.217562 0.217562 0.217562 0.217562 0.217562 0.217562 0.217562 0.217562 0.217562 
0.217562 0.217562 0.217562 0.217562 0.217562 0.217562 0.217562 0.217562 0.217562 0.217562 
0.217562 0.217562 0.217562 0.217562 0.217562 0.217562 0.217562 0.217562 0.217562 0.217562 
0.217562 0.217562 0.217562 0.217562 0.217562 0.217562 0.217562 0.217562 0.217562 0.217562 
0.217562 0.217562 0.217562 0.217562 0.217562 0.217562 0.217562 0.217562 0.217562 0.217562 
0.217562 0.217562 0.217562 0.217562 0.217562 0.217562 0.217562 0.217562 0.217562 0.217562 
0.217562 0.217562 0.217562 0.217562 0.217562 0.217562 0.217562 0.217562 0.217562 0.217562 
0.217562 0.217562 0.217562 0.217562 0.217562 0.217562 0.217562 0.217562 0.217562 0.217562 
0.217562 0.217562 0.217562 0.217562 0.217562 0.217562 0.217562 0.217562 0.217562 0.217562 
0.217562 0.217562 0.217562 0.217562 0.217562 0.217562 0.217562 0.217562 0.217562 0.217562 
0.217562 0.217562 0.217562 0.217562 0.217562 0.217562 0.217562 0.217562 0.217562 0.217562 
0.217562 0.217562 0.217562 0.217562 0.217562 0.217562 0.217562 0.217562 0.217562 0.217562 
0.217562 0.217562 0.217562 0.217562 0.217562 0.217562 0.217562 0.217562 0.217562 0.217562 
0.217562 0.217562 0.217562 0.217562 0.217562 0.217562 0.217562 0.217562 0.217562 0.217562 
0.217562 0.217562 0.217562 0.217562 0.217562 0.217562 0.217562 0.217562 0.217562 0.217562 
0.217562 0.217562 0.217562 0.217562 0.217562 0.217562 0.217562 0.217562 0.217562 0.217562 
0.217562 0.217562 0.217562 0.217562 0.217562 0.217562 0.217562 0.217562 0.217562 0.217562 
0.217562 0.217562 0.217562 0.217562 0.217562 0.217562 0.217562 0.217562 0.217562 0.217562 
0.217562 0.217562 0.217562 0.217562 0.217562 0.217562 0.217562 0.217562 0.217562 
