# vtk DataFile Version 2.0
vtkObjects
ASCII
DATASET UNSTRUCTURED_GRID
POINTS 960 float
-545.452 88.5495 2453.38
-541.452 88.5495 2453.38
-545.452 92.5495 2453.38
-541.452 92.5495 2453.38
-545.452 88.5495 2457.38
-541.452 88.5495 2457.38
-545.452 92.5495 2457.38
-541.452 92.5495 2457.38
-543.452 89.3134 2452.14
-543.452 91.7856 2452.14
-543.452 89.3134 2458.61
-543.452 91.7856 2458.61
-544.688 87.3134 2455.38
-542.215 87.3134 2455.38
-544.688 93.7856 2455.38
-542.215 93.7856 2455.38
-546.688 90.5495 2454.14
-546.688 90.5495 2456.61
-540.215 90.5495 2454.14
-540.215 90.5495 2456.61
-545.452 88.5495 2457.38
-541.452 88.5495 2457.38
-545.452 92.5495 2457.38
-541.452 92.5495 2457.38
-545.452 88.5495 2461.38
-541.452 88.5495 2461.38
-545.452 92.5495 2461.38
-541.452 92.5495 2461.38
-543.452 89.3134 2456.14
-543.452 91.7856 2456.14
-543.452 89.3134 2462.61
-543.452 91.7856 2462.61
-544.688 87.3134 2459.38
-542.215 87.3134 2459.38
-544.688 93.7856 2459.38
-542.215 93.7856 2459.38
-546.688 90.5495 2458.14
-546.688 90.5495 2460.61
-540.215 90.5495 2458.14
-540.215 90.5495 2460.61
-545.452 88.5495 2344.25
-541.452 88.5495 2344.25
-545.452 92.5495 2344.25
-541.452 92.5495 2344.25
-545.452 88.5495 2348.25
-541.452 88.5495 2348.25
-545.452 92.5495 2348.25
-541.452 92.5495 2348.25
-543.452 89.3134 2343.01
-543.452 91.7856 2343.01
-543.452 89.3134 2349.48
-543.452 91.7856 2349.48
-544.688 87.3134 2346.25
-542.215 87.3134 2346.25
-544.688 93.7856 2346.25
-542.215 93.7856 2346.25
-546.688 90.5495 2345.01
-546.688 90.5495 2347.48
-540.215 90.5495 2345.01
-540.215 90.5495 2347.48
-545.452 88.5495 2348.25
-541.452 88.5495 2348.25
-545.452 92.5495 2348.25
-541.452 92.5495 2348.25
-545.452 88.5495 2352.25
-541.452 88.5495 2352.25
-545.452 92.5495 2352.25
-541.452 92.5495 2352.25
-543.452 89.3134 2347.01
-543.452 91.7856 2347.01
-543.452 89.3134 2353.48
-543.452 91.7856 2353.48
-544.688 87.3134 2350.25
-542.215 87.3134 2350.25
-544.688 93.7856 2350.25
-542.215 93.7856 2350.25
-546.688 90.5495 2349.01
-546.688 90.5495 2351.48
-540.215 90.5495 2349.01
-540.215 90.5495 2351.48
-529.175 193.641 2453.47
-525.175 193.641 2453.47
-529.175 197.641 2453.47
-525.175 197.641 2453.47
-529.175 193.641 2457.47
-525.175 193.641 2457.47
-529.175 197.641 2457.47
-525.175 197.641 2457.47
-527.175 194.404 2452.24
-527.175 196.877 2452.24
-527.175 194.404 2458.71
-527.175 196.877 2458.71
-528.411 192.404 2455.47
-525.939 192.404 2455.47
-528.411 198.877 2455.47
-525.939 198.877 2455.47
-530.411 195.641 2454.24
-530.411 195.641 2456.71
-523.939 195.641 2454.24
-523.939 195.641 2456.71
-529.175 193.641 2457.47
-525.175 193.641 2457.47
-529.175 197.641 2457.47
-525.175 197.641 2457.47
-529.175 193.641 2461.47
-525.175 193.641 2461.47
-529.175 197.641 2461.47
-525.175 197.641 2461.47
-527.175 194.404 2456.24
-527.175 196.877 2456.24
-527.175 194.404 2462.71
-527.175 196.877 2462.71
-528.411 192.404 2459.47
-525.939 192.404 2459.47
-528.411 198.877 2459.47
-525.939 198.877 2459.47
-530.411 195.641 2458.24
-530.411 195.641 2460.71
-523.939 195.641 2458.24
-523.939 195.641 2460.71
-529.175 193.641 2344.35
-525.175 193.641 2344.35
-529.175 197.641 2344.35
-525.175 197.641 2344.35
-529.175 193.641 2348.35
-525.175 193.641 2348.35
-529.175 197.641 2348.35
-525.175 197.641 2348.35
-527.175 194.404 2343.11
-527.175 196.877 2343.11
-527.175 194.404 2349.58
-527.175 196.877 2349.58
-528.411 192.404 2346.35
-525.939 192.404 2346.35
-528.411 198.877 2346.35
-525.939 198.877 2346.35
-530.411 195.641 2345.11
-530.411 195.641 2347.58
-523.939 195.641 2345.11
-523.939 195.641 2347.58
-529.175 193.641 2348.35
-525.175 193.641 2348.35
-529.175 197.641 2348.35
-525.175 197.641 2348.35
-529.175 193.641 2352.35
-525.175 193.641 2352.35
-529.175 197.641 2352.35
-525.175 197.641 2352.35
-527.175 194.404 2347.11
-527.175 196.877 2347.11
-527.175 194.404 2353.58
-527.175 196.877 2353.58
-528.411 192.404 2350.35
-525.939 192.404 2350.35
-528.411 198.877 2350.35
-525.939 198.877 2350.35
-530.411 195.641 2349.11
-530.411 195.641 2351.58
-523.939 195.641 2349.11
-523.939 195.641 2351.58
-545.452 88.5495 251.502
-541.452 88.5495 251.502
-545.452 92.5495 251.502
-541.452 92.5495 251.502
-545.452 88.5495 255.502
-541.452 88.5495 255.502
-545.452 92.5495 255.502
-541.452 92.5495 255.502
-543.452 89.3134 250.266
-543.452 91.7856 250.266
-543.452 89.3134 256.738
-543.452 91.7856 256.738
-544.688 87.3134 253.502
-542.215 87.3134 253.502
-544.688 93.7856 253.502
-542.215 93.7856 253.502
-546.688 90.5495 252.266
-546.688 90.5495 254.738
-540.215 90.5495 252.266
-540.215 90.5495 254.738
-545.452 88.5495 255.502
-541.452 88.5495 255.502
-545.452 92.5495 255.502
-541.452 92.5495 255.502
-545.452 88.5495 259.502
-541.452 88.5495 259.502
-545.452 92.5495 259.502
-541.452 92.5495 259.502
-543.452 89.3134 254.266
-543.452 91.7856 254.266
-543.452 89.3134 260.738
-543.452 91.7856 260.738
-544.688 87.3134 257.502
-542.215 87.3134 257.502
-544.688 93.7856 257.502
-542.215 93.7856 257.502
-546.688 90.5495 256.266
-546.688 90.5495 258.738
-540.215 90.5495 256.266
-540.215 90.5495 258.738
-529.175 193.641 227.001
-525.175 193.641 227.001
-529.175 197.641 227.001
-525.175 197.641 227.001
-529.175 193.641 231.001
-525.175 193.641 231.001
-529.175 197.641 231.001
-525.175 197.641 231.001
-527.175 194.404 225.765
-527.175 196.877 225.765
-527.175 194.404 232.238
-527.175 196.877 232.238
-528.411 192.404 229.001
-525.939 192.404 229.001
-528.411 198.877 229.001
-525.939 198.877 229.001
-530.411 195.641 227.765
-530.411 195.641 230.238
-523.939 195.641 227.765
-523.939 195.641 230.238
-529.175 193.641 231.001
-525.175 193.641 231.001
-529.175 197.641 231.001
-525.175 197.641 231.001
-529.175 193.641 235.001
-525.175 193.641 235.001
-529.175 197.641 235.001
-525.175 197.641 235.001
-527.175 194.404 229.765
-527.175 196.877 229.765
-527.175 194.404 236.238
-527.175 196.877 236.238
-528.411 192.404 233.001
-525.939 192.404 233.001
-528.411 198.877 233.001
-525.939 198.877 233.001
-530.411 195.641 231.765
-530.411 195.641 234.238
-523.939 195.641 231.765
-523.939 195.641 234.238
-492.471 74.3875 225.952
-488.471 74.3875 225.952
-492.471 78.3875 225.952
-488.471 78.3875 225.952
-492.471 74.3875 229.952
-488.471 74.3875 229.952
-492.471 78.3875 229.952
-488.471 78.3875 229.952
-490.471 75.1514 224.715
-490.471 77.6236 224.715
-490.471 75.1514 231.188
-490.471 77.6236 231.188
-491.708 73.1514 227.952
-489.235 73.1514 227.952
-491.708 79.6236 227.952
-489.235 79.6236 227.952
-493.708 76.3875 226.715
-493.708 76.3875 229.188
-487.235 76.3875 226.715
-487.235 76.3875 229.188
-492.471 74.3875 229.952
-488.471 74.3875 229.952
-492.471 78.3875 229.952
-488.471 78.3875 229.952
-492.471 74.3875 233.952
-488.471 74.3875 233.952
-492.471 78.3875 233.952
-488.471 78.3875 233.952
-490.471 75.1514 228.715
-490.471 77.6236 228.715
-490.471 75.1514 235.188
-490.471 77.6236 235.188
-491.708 73.1514 231.952
-489.235 73.1514 231.952
-491.708 79.6236 231.952
-489.235 79.6236 231.952
-493.708 76.3875 230.715
-493.708 76.3875 233.188
-487.235 76.3875 230.715
-487.235 76.3875 233.188
-248.262 16.458 116.776
-244.262 16.458 116.776
-248.262 20.458 116.776
-244.262 20.458 116.776
-248.262 16.458 120.776
-244.262 16.458 120.776
-248.262 20.458 120.776
-244.262 20.458 120.776
-246.262 17.2219 115.54
-246.262 19.6941 115.54
-246.262 17.2219 122.012
-246.262 19.6941 122.012
-247.498 15.2219 118.776
-245.025 15.2219 118.776
-247.498 21.6941 118.776
-245.025 21.6941 118.776
-249.498 18.458 117.54
-249.498 18.458 120.012
-243.025 18.458 117.54
-243.025 18.458 120.012
-248.262 16.458 120.776
-244.262 16.458 120.776
-248.262 20.458 120.776
-244.262 20.458 120.776
-248.262 16.458 124.776
-244.262 16.458 124.776
-248.262 20.458 124.776
-244.262 20.458 124.776
-246.262 17.2219 119.54
-246.262 19.6941 119.54
-246.262 17.2219 126.012
-246.262 19.6941 126.012
-247.498 15.2219 122.776
-245.025 15.2219 122.776
-247.498 21.6941 122.776
-245.025 21.6941 122.776
-249.498 18.458 121.54
-249.498 18.458 124.012
-243.025 18.458 121.54
-243.025 18.458 124.012
-251.162 13.558 113.876
-247.162 13.558 113.876
-251.162 17.558 113.876
-247.162 17.558 113.876
-251.162 13.558 117.876
-247.162 13.558 117.876
-251.162 17.558 117.876
-247.162 17.558 117.876
-249.162 14.3219 112.64
-249.162 16.7941 112.64
-249.162 14.3219 119.112
-249.162 16.7941 119.112
-250.398 12.3219 115.876
-247.925 12.3219 115.876
-250.398 18.7941 115.876
-247.925 18.7941 115.876
-252.398 15.558 114.64
-252.398 15.558 117.112
-245.925 15.558 114.64
-245.925 15.558 117.112
-251.162 13.558 117.876
-247.162 13.558 117.876
-251.162 17.558 117.876
-247.162 17.558 117.876
-251.162 13.558 121.876
-247.162 13.558 121.876
-251.162 17.558 121.876
-247.162 17.558 121.876
-249.162 14.3219 116.64
-249.162 16.7941 116.64
-249.162 14.3219 123.112
-249.162 16.7941 123.112
-250.398 12.3219 119.876
-247.925 12.3219 119.876
-250.398 18.7941 119.876
-247.925 18.7941 119.876
-252.398 15.558 118.64
-252.398 15.558 121.112
-245.925 15.558 118.64
-245.925 15.558 121.112
-254.061 10.658 110.976
-250.061 10.658 110.976
-254.061 14.658 110.976
-250.061 14.658 110.976
-254.061 10.658 114.976
-250.061 10.658 114.976
-254.061 14.658 114.976
-250.061 14.658 114.976
-252.061 11.4219 109.74
-252.061 13.8941 109.74
-252.061 11.4219 116.212
-252.061 13.8941 116.212
-253.298 9.42193 112.976
-250.825 9.42193 112.976
-253.298 15.8941 112.976
-250.825 15.8941 112.976
-255.298 12.658 111.74
-255.298 12.658 114.212
-248.825 12.658 111.74
-248.825 12.658 114.212
-254.061 10.658 114.976
-250.061 10.658 114.976
-254.061 14.658 114.976
-250.061 14.658 114.976
-254.061 10.658 118.976
-250.061 10.658 118.976
-254.061 14.658 118.976
-250.061 14.658 118.976
-252.061 11.4219 113.74
-252.061 13.8941 113.74
-252.061 11.4219 120.212
-252.061 13.8941 120.212
-253.298 9.42193 116.976
-250.825 9.42193 116.976
-253.298 15.8941 116.976
-250.825 15.8941 116.976
-255.298 12.658 115.74
-255.298 12.658 118.212
-248.825 12.658 115.74
-248.825 12.658 118.212
-9.852 -47.2715 1.8
-5.852 -47.2715 1.8
-9.852 -43.2715 1.8
-5.852 -43.2715 1.8
-9.852 -47.2715 5.8
-5.852 -47.2715 5.8
-9.852 -43.2715 5.8
-5.852 -43.2715 5.8
-7.852 -46.5076 0.563932
-7.852 -44.0354 0.563932
-7.852 -46.5076 7.03607
-7.852 -44.0354 7.03607
-9.08807 -48.5076 3.8
-6.61593 -48.5076 3.8
-9.08807 -42.0354 3.8
-6.61593 -42.0354 3.8
-11.0881 -45.2715 2.56393
-11.0881 -45.2715 5.03607
-4.61593 -45.2715 2.56393
-4.61593 -45.2715 5.03607
-9.852 -47.2715 5.8
-5.852 -47.2715 5.8
-9.852 -43.2715 5.8
-5.852 -43.2715 5.8
-9.852 -47.2715 9.8
-5.852 -47.2715 9.8
-9.852 -43.2715 9.8
-5.852 -43.2715 9.8
-7.852 -46.5076 4.56393
-7.852 -44.0354 4.56393
-7.852 -46.5076 11.0361
-7.852 -44.0354 11.0361
-9.08807 -48.5076 7.8
-6.61593 -48.5076 7.8
-9.08807 -42.0354 7.8
-6.61593 -42.0354 7.8
-11.0881 -45.2715 6.56393
-11.0881 -45.2715 9.03607
-4.61593 -45.2715 6.56393
-4.61593 -45.2715 9.03607
-12.752 -50.1715 -1.1
-8.752 -50.1715 -1.1
-12.752 -46.1715 -1.1
-8.752 -46.1715 -1.1
-12.752 -50.1715 2.9
-8.752 -50.1715 2.9
-12.752 -46.1715 2.9
-8.752 -46.1715 2.9
-10.752 -49.4076 -2.33607
-10.752 -46.9354 -2.33607
-10.752 -49.4076 4.13607
-10.752 -46.9354 4.13607
-11.9881 -51.4076 0.9
-9.51593 -51.4076 0.9
-11.9881 -44.9354 0.9
-9.51593 -44.9354 0.9
-13.9881 -48.1715 -0.336068
-13.9881 -48.1715 2.13607
-7.51593 -48.1715 -0.336068
-7.51593 -48.1715 2.13607
-12.752 -50.1715 2.9
-8.752 -50.1715 2.9
-12.752 -46.1715 2.9
-8.752 -46.1715 2.9
-12.752 -50.1715 6.9
-8.752 -50.1715 6.9
-12.752 -46.1715 6.9
-8.752 -46.1715 6.9
-10.752 -49.4076 1.66393
-10.752 -46.9354 1.66393
-10.752 -49.4076 8.13607
-10.752 -46.9354 8.13607
-11.9881 -51.4076 4.9
-9.51593 -51.4076 4.9
-11.9881 -44.9354 4.9
-9.51593 -44.9354 4.9
-13.9881 -48.1715 3.66393
-13.9881 -48.1715 6.13607
-7.51593 -48.1715 3.66393
-7.51593 -48.1715 6.13607
-15.652 -53.0715 -4
-11.652 -53.0715 -4
-15.652 -49.0715 -4
-11.652 -49.0715 -4
-15.652 -53.0715 0
-11.652 -53.0715 0
-15.652 -49.0715 0
-11.652 -49.0715 0
-13.652 -52.3076 -5.23607
-13.652 -49.8354 -5.23607
-13.652 -52.3076 1.23607
-13.652 -49.8354 1.23607
-14.8881 -54.3076 -2
-12.4159 -54.3076 -2
-14.8881 -47.8354 -2
-12.4159 -47.8354 -2
-16.8881 -51.0715 -3.23607
-16.8881 -51.0715 -0.763932
-10.4159 -51.0715 -3.23607
-10.4159 -51.0715 -0.763932
-15.652 -53.0715 0
-11.652 -53.0715 0
-15.652 -49.0715 0
-11.652 -49.0715 0
-15.652 -53.0715 4
-11.652 -53.0715 4
-15.652 -49.0715 4
-11.652 -49.0715 4
-13.652 -52.3076 -1.23607
-13.652 -49.8354 -1.23607
-13.652 -52.3076 5.23607
-13.652 -49.8354 5.23607
-14.8881 -54.3076 2
-12.4159 -54.3076 2
-14.8881 -47.8354 2
-12.4159 -47.8354 2
-16.8881 -51.0715 0.763932
-16.8881 -51.0715 3.23607
-10.4159 -51.0715 0.763932
-10.4159 -51.0715 3.23607
228.558 -111.001 -113.176
232.558 -111.001 -113.176
228.558 -107.001 -113.176
232.558 -107.001 -113.176
228.558 -111.001 -109.176
232.558 -111.001 -109.176
228.558 -107.001 -109.176
232.558 -107.001 -109.176
230.558 -110.237 -114.412
230.558 -107.765 -114.412
230.558 -110.237 -107.94
230.558 -107.765 -107.94
229.321 -112.237 -111.176
231.794 -112.237 -111.176
229.321 -105.765 -111.176
231.794 -105.765 -111.176
227.321 -109.001 -112.412
227.321 -109.001 -109.94
233.794 -109.001 -112.412
233.794 -109.001 -109.94
228.558 -111.001 -109.176
232.558 -111.001 -109.176
228.558 -107.001 -109.176
232.558 -107.001 -109.176
228.558 -111.001 -105.176
232.558 -111.001 -105.176
228.558 -107.001 -105.176
232.558 -107.001 -105.176
230.558 -110.237 -110.412
230.558 -107.765 -110.412
230.558 -110.237 -103.94
230.558 -107.765 -103.94
229.321 -112.237 -107.176
231.794 -112.237 -107.176
229.321 -105.765 -107.176
231.794 -105.765 -107.176
227.321 -109.001 -108.412
227.321 -109.001 -105.94
233.794 -109.001 -108.412
233.794 -109.001 -105.94
225.657 -113.901 -116.076
229.657 -113.901 -116.076
225.657 -109.901 -116.076
229.657 -109.901 -116.076
225.657 -113.901 -112.076
229.657 -113.901 -112.076
225.657 -109.901 -112.076
229.657 -109.901 -112.076
227.657 -113.137 -117.312
227.657 -110.665 -117.312
227.657 -113.137 -110.84
227.657 -110.665 -110.84
226.421 -115.137 -114.076
228.894 -115.137 -114.076
226.421 -108.665 -114.076
228.894 -108.665 -114.076
224.421 -111.901 -115.312
224.421 -111.901 -112.84
230.894 -111.901 -115.312
230.894 -111.901 -112.84
225.657 -113.901 -112.076
229.657 -113.901 -112.076
225.657 -109.901 -112.076
229.657 -109.901 -112.076
225.657 -113.901 -108.076
229.657 -113.901 -108.076
225.657 -109.901 -108.076
229.657 -109.901 -108.076
227.657 -113.137 -113.312
227.657 -110.665 -113.312
227.657 -113.137 -106.84
227.657 -110.665 -106.84
226.421 -115.137 -110.076
228.894 -115.137 -110.076
226.421 -108.665 -110.076
228.894 -108.665 -110.076
224.421 -111.901 -111.312
224.421 -111.901 -108.84
230.894 -111.901 -111.312
230.894 -111.901 -108.84
222.757 -116.801 -118.976
226.757 -116.801 -118.976
222.757 -112.801 -118.976
226.757 -112.801 -118.976
222.757 -116.801 -114.976
226.757 -116.801 -114.976
222.757 -112.801 -114.976
226.757 -112.801 -114.976
224.757 -116.037 -120.212
224.757 -113.565 -120.212
224.757 -116.037 -113.74
224.757 -113.565 -113.74
223.521 -118.037 -116.976
225.994 -118.037 -116.976
223.521 -111.565 -116.976
225.994 -111.565 -116.976
221.521 -114.801 -118.212
221.521 -114.801 -115.74
227.994 -114.801 -118.212
227.994 -114.801 -115.74
222.757 -116.801 -114.976
226.757 -116.801 -114.976
222.757 -112.801 -114.976
226.757 -112.801 -114.976
222.757 -116.801 -110.976
226.757 -116.801 -110.976
222.757 -112.801 -110.976
226.757 -112.801 -110.976
224.757 -116.037 -116.212
224.757 -113.565 -116.212
224.757 -116.037 -109.74
224.757 -113.565 -109.74
223.521 -118.037 -112.976
225.994 -118.037 -112.976
223.521 -111.565 -112.976
225.994 -111.565 -112.976
221.521 -114.801 -114.212
221.521 -114.801 -111.74
227.994 -114.801 -114.212
227.994 -114.801 -111.74
461.168 -180.531 -233.952
465.168 -180.531 -233.952
461.168 -176.531 -233.952
465.168 -176.531 -233.952
461.168 -180.531 -229.952
465.168 -180.531 -229.952
461.168 -176.531 -229.952
465.168 -176.531 -229.952
463.168 -179.767 -235.188
463.168 -177.294 -235.188
463.168 -179.767 -228.715
463.168 -177.294 -228.715
461.931 -181.767 -231.952
464.404 -181.767 -231.952
461.931 -175.294 -231.952
464.404 -175.294 -231.952
459.931 -178.531 -233.188
459.931 -178.531 -230.715
466.404 -178.531 -233.188
466.404 -178.531 -230.715
461.168 -180.531 -229.952
465.168 -180.531 -229.952
461.168 -176.531 -229.952
465.168 -176.531 -229.952
461.168 -180.531 -225.952
465.168 -180.531 -225.952
461.168 -176.531 -225.952
465.168 -176.531 -225.952
463.168 -179.767 -231.188
463.168 -177.294 -231.188
463.168 -179.767 -224.715
463.168 -177.294 -224.715
461.931 -181.767 -227.952
464.404 -181.767 -227.952
461.931 -175.294 -227.952
464.404 -175.294 -227.952
459.931 -178.531 -229.188
459.931 -178.531 -226.715
466.404 -178.531 -229.188
466.404 -178.531 -226.715
-230.477 121.145 91.5485
-226.477 121.145 91.5485
-230.477 125.145 91.5485
-226.477 125.145 91.5485
-230.477 121.145 95.5485
-226.477 121.145 95.5485
-230.477 125.145 95.5485
-226.477 125.145 95.5485
-228.477 121.909 90.3124
-228.477 124.382 90.3124
-228.477 121.909 96.7846
-228.477 124.382 96.7846
-229.714 119.909 93.5485
-227.241 119.909 93.5485
-229.714 126.382 93.5485
-227.241 126.382 93.5485
-231.714 123.145 92.3124
-231.714 123.145 94.7846
-225.241 123.145 92.3124
-225.241 123.145 94.7846
-230.477 121.145 95.5485
-226.477 121.145 95.5485
-230.477 125.145 95.5485
-226.477 125.145 95.5485
-230.477 121.145 99.5485
-226.477 121.145 99.5485
-230.477 125.145 99.5485
-226.477 125.145 99.5485
-228.477 121.909 94.3124
-228.477 124.382 94.3124
-228.477 121.909 100.785
-228.477 124.382 100.785
-229.714 119.909 97.5485
-227.241 119.909 97.5485
-229.714 126.382 97.5485
-227.241 126.382 97.5485
-231.714 123.145 96.3124
-231.714 123.145 98.7846
-225.241 123.145 96.3124
-225.241 123.145 98.7846
-236.278 115.346 85.7485
-232.278 115.346 85.7485
-236.278 119.346 85.7485
-232.278 119.346 85.7485
-236.278 115.346 89.7485
-232.278 115.346 89.7485
-236.278 119.346 89.7485
-232.278 119.346 89.7485
-234.278 116.109 84.5124
-234.278 118.582 84.5124
-234.278 116.109 90.9846
-234.278 118.582 90.9846
-235.514 114.109 87.7485
-233.041 114.109 87.7485
-235.514 120.582 87.7485
-233.041 120.582 87.7485
-237.514 117.346 86.5124
-237.514 117.346 88.9846
-231.041 117.346 86.5124
-231.041 117.346 88.9846
-236.278 115.346 89.7485
-232.278 115.346 89.7485
-236.278 119.346 89.7485
-232.278 119.346 89.7485
-236.278 115.346 93.7485
-232.278 115.346 93.7485
-236.278 119.346 93.7485
-232.278 119.346 93.7485
-234.278 116.109 88.5124
-234.278 118.582 88.5124
-234.278 116.109 94.9846
-234.278 118.582 94.9846
-235.514 114.109 91.7485
-233.041 114.109 91.7485
-235.514 120.582 91.7485
-233.041 120.582 91.7485
-237.514 117.346 90.5124
-237.514 117.346 92.9846
-231.041 117.346 90.5124
-231.041 117.346 92.9846
8.4095 57.2885 -23.6575
12.4095 57.2885 -23.6575
8.4095 61.2885 -23.6575
12.4095 61.2885 -23.6575
8.4095 57.2885 -19.6575
12.4095 57.2885 -19.6575
8.4095 61.2885 -19.6575
12.4095 61.2885 -19.6575
10.4095 58.0524 -24.8936
10.4095 60.5246 -24.8936
10.4095 58.0524 -18.4214
10.4095 60.5246 -18.4214
9.17343 56.0524 -21.6575
11.6456 56.0524 -21.6575
9.17343 62.5246 -21.6575
11.6456 62.5246 -21.6575
7.17343 59.2885 -22.8936
7.17343 59.2885 -20.4214
13.6456 59.2885 -22.8936
13.6456 59.2885 -20.4214
8.4095 57.2885 -19.6575
12.4095 57.2885 -19.6575
8.4095 61.2885 -19.6575
12.4095 61.2885 -19.6575
8.4095 57.2885 -15.6575
12.4095 57.2885 -15.6575
8.4095 61.2885 -15.6575
12.4095 61.2885 -15.6575
10.4095 58.0524 -20.8936
10.4095 60.5246 -20.8936
10.4095 58.0524 -14.4214
10.4095 60.5246 -14.4214
9.17343 56.0524 -17.6575
11.6456 56.0524 -17.6575
9.17343 62.5246 -17.6575
11.6456 62.5246 -17.6575
7.17343 59.2885 -18.8936
7.17343 59.2885 -16.4214
13.6456 59.2885 -18.8936
13.6456 59.2885 -16.4214
2.6095 51.4885 -29.4575
6.6095 51.4885 -29.4575
2.6095 55.4885 -29.4575
6.6095 55.4885 -29.4575
2.6095 51.4885 -25.4575
6.6095 51.4885 -25.4575
2.6095 55.4885 -25.4575
6.6095 55.4885 -25.4575
4.6095 52.2524 -30.6936
4.6095 54.7246 -30.6936
4.6095 52.2524 -24.2214
4.6095 54.7246 -24.2214
3.37343 50.2524 -27.4575
5.84557 50.2524 -27.4575
3.37343 56.7246 -27.4575
5.84557 56.7246 -27.4575
1.37343 53.4885 -28.6936
1.37343 53.4885 -26.2214
7.84557 53.4885 -28.6936
7.84557 53.4885 -26.2214
2.6095 51.4885 -25.4575
6.6095 51.4885 -25.4575
2.6095 55.4885 -25.4575
6.6095 55.4885 -25.4575
2.6095 51.4885 -21.4575
6.6095 51.4885 -21.4575
2.6095 55.4885 -21.4575
6.6095 55.4885 -21.4575
4.6095 52.2524 -26.6936
4.6095 54.7246 -26.6936
4.6095 52.2524 -20.2214
4.6095 54.7246 -20.2214
3.37343 50.2524 -23.4575
5.84557 50.2524 -23.4575
3.37343 56.7246 -23.4575
5.84557 56.7246 -23.4575
1.37343 53.4885 -24.6936
1.37343 53.4885 -22.2214
7.84557 53.4885 -24.6936
7.84557 53.4885 -22.2214
246.204 -6.2765 -138.337
250.204 -6.2765 -138.337
246.204 -2.2765 -138.337
250.204 -2.2765 -138.337
246.204 -6.2765 -134.337
250.204 -6.2765 -134.337
246.204 -2.2765 -134.337
250.204 -2.2765 -134.337
248.204 -5.51257 -139.573
248.204 -3.04043 -139.573
248.204 -5.51257 -133.1
248.204 -3.04043 -133.1
246.968 -7.51257 -136.337
249.44 -7.51257 -136.337
246.968 -1.04043 -136.337
249.44 -1.04043 -136.337
244.968 -4.2765 -137.573
244.968 -4.2765 -135.1
251.44 -4.2765 -137.573
251.44 -4.2765 -135.1
246.204 -6.2765 -134.337
250.204 -6.2765 -134.337
246.204 -2.2765 -134.337
250.204 -2.2765 -134.337
246.204 -6.2765 -130.337
250.204 -6.2765 -130.337
246.204 -2.2765 -130.337
250.204 -2.2765 -130.337
248.204 -5.51257 -135.573
248.204 -3.04043 -135.573
248.204 -5.51257 -129.1
248.204 -3.04043 -129.1
246.968 -7.51257 -132.337
249.44 -7.51257 -132.337
246.968 -1.04043 -132.337
249.44 -1.04043 -132.337
244.968 -4.2765 -133.573
244.968 -4.2765 -131.1
251.44 -4.2765 -133.573
251.44 -4.2765 -131.1
240.404 -12.0765 -144.137
244.404 -12.0765 -144.137
240.404 -8.0765 -144.137
244.404 -8.0765 -144.137
240.404 -12.0765 -140.137
244.404 -12.0765 -140.137
240.404 -8.0765 -140.137
244.404 -8.0765 -140.137
242.404 -11.3126 -145.373
242.404 -8.84043 -145.373
242.404 -11.3126 -138.9
242.404 -8.84043 -138.9
241.168 -13.3126 -142.137
243.64 -13.3126 -142.137
241.168 -6.84043 -142.137
243.64 -6.84043 -142.137
239.168 -10.0765 -143.373
239.168 -10.0765 -140.9
245.64 -10.0765 -143.373
245.64 -10.0765 -140.9
240.404 -12.0765 -140.137
244.404 -12.0765 -140.137
240.404 -8.0765 -140.137
244.404 -8.0765 -140.137
240.404 -12.0765 -136.137
244.404 -12.0765 -136.137
240.404 -8.0765 -136.137
244.404 -8.0765 -136.137
242.404 -11.3126 -141.373
242.404 -8.84043 -141.373
242.404 -11.3126 -134.9
242.404 -8.84043 -134.9
241.168 -13.3126 -138.137
243.64 -13.3126 -138.137
241.168 -6.84043 -138.137
243.64 -6.84043 -138.137
239.168 -10.0765 -139.373
239.168 -10.0765 -136.9
245.64 -10.0765 -139.373
245.64 -10.0765 -136.9
530.423 -89.602 -284.002
534.423 -89.602 -284.002
530.423 -85.602 -284.002
534.423 -85.602 -284.002
530.423 -89.602 -280.002
534.423 -89.602 -280.002
530.423 -85.602 -280.002
534.423 -85.602 -280.002
532.423 -88.8381 -285.238
532.423 -86.3659 -285.238
532.423 -88.8381 -278.766
532.423 -86.3659 -278.766
531.187 -90.8381 -282.002
533.66 -90.8381 -282.002
531.187 -84.3659 -282.002
533.66 -84.3659 -282.002
529.187 -87.602 -283.238
529.187 -87.602 -280.766
535.66 -87.602 -283.238
535.66 -87.602 -280.766
530.423 -89.602 -280.002
534.423 -89.602 -280.002
530.423 -85.602 -280.002
534.423 -85.602 -280.002
530.423 -89.602 -276.002
534.423 -89.602 -276.002
530.423 -85.602 -276.002
534.423 -85.602 -276.002
532.423 -88.8381 -281.238
532.423 -86.3659 -281.238
532.423 -88.8381 -274.766
532.423 -86.3659 -274.766
531.187 -90.8381 -278.002
533.66 -90.8381 -278.002
531.187 -84.3659 -278.002
533.66 -84.3659 -278.002
529.187 -87.602 -279.238
529.187 -87.602 -276.766
535.66 -87.602 -279.238
535.66 -87.602 -276.766
CELLS 1056 4224
3 32 37 16
3 32 0 16
3 32 0 12
3 32 37 24
3 13 32 33
3 13 32 12
3 1 0 12
3 1 0 8
3 1 13 12
3 25 32 24
3 25 24 30
3 25 32 33
3 25 13 33
3 25 39 18
3 25 1 13
3 25 1 18
3 2 37 16
3 2 26 34
3 2 14 34
3 2 26 37
3 31 37 24
3 31 24 30
3 31 26 37
3 31 39 27
3 31 25 39
3 31 25 30
3 31 26 34
3 31 35 34
3 31 35 27
3 9 3 18
3 9 1 8
3 9 1 18
3 9 0 16
3 9 0 8
3 9 2 16
3 15 39 18
3 15 3 18
3 15 39 27
3 15 35 27
3 15 2 14
3 15 9 2
3 15 9 3
3 15 14 34
3 15 35 34
3 72 77 56
3 72 40 56
3 72 40 52
3 72 77 64
3 53 72 73
3 53 72 52
3 41 40 52
3 41 40 48
3 41 53 52
3 65 72 64
3 65 64 70
3 65 72 73
3 65 53 73
3 65 79 58
3 65 41 53
3 65 41 58
3 42 77 56
3 42 66 74
3 42 54 74
3 42 66 77
3 71 77 64
3 71 64 70
3 71 66 77
3 71 79 67
3 71 65 79
3 71 65 70
3 71 66 74
3 71 75 74
3 71 75 67
3 49 41 48
3 49 43 58
3 49 41 58
3 49 40 56
3 49 40 48
3 49 42 56
3 55 79 58
3 55 79 67
3 55 43 58
3 55 75 67
3 55 42 54
3 55 49 42
3 55 49 43
3 55 54 74
3 55 75 74
3 112 117 96
3 112 80 96
3 112 80 92
3 112 117 104
3 93 80 92
3 93 81 88
3 93 80 88
3 93 112 113
3 93 112 92
3 105 112 104
3 105 104 110
3 105 112 113
3 105 81 98
3 105 119 98
3 105 93 81
3 105 93 113
3 105 119 107
3 105 111 110
3 105 111 107
3 106 117 96
3 106 82 96
3 106 94 114
3 106 82 94
3 106 117 104
3 106 104 110
3 106 111 110
3 106 111 107
3 106 115 114
3 106 115 107
3 89 81 98
3 89 83 98
3 89 81 88
3 89 80 96
3 89 80 88
3 89 82 96
3 95 83 98
3 95 119 98
3 95 119 107
3 95 115 107
3 95 82 94
3 95 89 82
3 95 89 83
3 95 94 114
3 95 115 114
3 152 157 136
3 152 120 136
3 152 120 132
3 152 157 144
3 133 120 132
3 133 121 128
3 133 120 128
3 133 152 153
3 133 152 132
3 145 152 144
3 145 144 150
3 145 152 153
3 145 121 138
3 145 159 138
3 145 133 121
3 145 133 153
3 122 157 136
3 122 146 154
3 122 134 154
3 122 146 157
3 151 157 144
3 151 144 150
3 151 146 157
3 151 159 147
3 151 145 159
3 151 145 150
3 151 146 154
3 151 155 154
3 151 155 147
3 129 121 138
3 129 123 138
3 129 121 128
3 129 120 136
3 129 120 128
3 129 122 136
3 135 123 138
3 135 159 138
3 135 159 147
3 135 155 147
3 135 122 134
3 135 129 122
3 135 129 123
3 135 134 154
3 135 155 154
3 192 197 176
3 192 160 176
3 192 160 172
3 192 197 184
3 173 192 193
3 173 192 172
3 161 160 172
3 161 160 168
3 161 173 172
3 185 192 184
3 185 184 190
3 185 192 193
3 185 173 193
3 185 199 178
3 185 161 173
3 185 161 178
3 185 199 187
3 185 191 190
3 185 191 187
3 169 163 178
3 169 161 168
3 169 161 178
3 186 197 184
3 186 184 190
3 186 191 190
3 186 191 187
3 186 195 194
3 186 195 187
3 162 197 176
3 162 186 194
3 162 174 194
3 162 186 197
3 162 160 176
3 162 160 168
3 162 169 168
3 175 199 178
3 175 163 178
3 175 199 187
3 175 195 187
3 175 169 163
3 175 162 169
3 175 162 174
3 175 174 194
3 175 195 194
3 232 237 216
3 232 200 216
3 232 200 212
3 232 237 224
3 213 232 233
3 213 232 212
3 201 200 212
3 201 200 208
3 201 213 212
3 225 232 224
3 225 224 230
3 225 232 233
3 225 213 233
3 225 239 218
3 225 201 213
3 225 201 218
3 225 239 227
3 225 231 230
3 225 231 227
3 226 237 216
3 226 202 216
3 226 214 234
3 226 202 214
3 226 237 224
3 226 224 230
3 226 231 230
3 226 231 227
3 226 235 234
3 226 235 227
3 209 203 218
3 209 201 208
3 209 201 218
3 209 200 216
3 209 200 208
3 209 202 216
3 215 239 218
3 215 203 218
3 215 239 227
3 215 235 227
3 215 202 214
3 215 209 202
3 215 209 203
3 215 214 234
3 215 235 234
3 272 277 256
3 272 240 256
3 272 240 252
3 272 277 264
3 242 240 256
3 242 240 248
3 242 249 248
3 253 240 248
3 253 240 252
3 253 241 248
3 253 272 273
3 253 272 252
3 265 272 264
3 265 264 270
3 265 272 273
3 265 241 258
3 265 279 258
3 265 253 241
3 265 253 273
3 265 279 267
3 265 271 270
3 265 271 267
3 243 249 248
3 243 241 258
3 243 241 248
3 243 279 258
3 243 279 267
3 243 275 267
3 243 275 255
3 254 242 249
3 254 243 255
3 254 243 249
3 254 275 255
3 254 275 274
3 266 277 256
3 266 254 274
3 266 242 256
3 266 254 242
3 266 277 264
3 266 264 270
3 266 271 270
3 266 271 267
3 266 275 267
3 266 275 274
3 312 317 296
3 312 280 296
3 312 280 292
3 312 317 304
3 293 312 313
3 293 312 292
3 281 280 292
3 281 280 288
3 281 293 292
3 305 312 304
3 305 304 310
3 305 312 313
3 305 293 313
3 305 319 298
3 305 281 293
3 305 281 298
3 305 319 307
3 305 311 310
3 305 311 307
3 289 283 298
3 289 281 288
3 289 281 298
3 306 317 304
3 306 304 310
3 306 311 310
3 306 311 307
3 306 315 314
3 306 315 307
3 282 317 296
3 282 306 314
3 282 294 314
3 282 306 317
3 282 280 296
3 282 280 288
3 282 289 288
3 295 319 298
3 295 283 298
3 295 319 307
3 295 315 307
3 295 289 283
3 295 282 289
3 295 282 294
3 295 294 314
3 295 315 314
3 352 357 336
3 352 320 336
3 352 320 332
3 352 357 344
3 333 352 353
3 333 352 332
3 321 320 332
3 321 320 328
3 321 333 332
3 345 352 344
3 345 344 350
3 345 352 353
3 345 333 353
3 345 359 338
3 345 321 333
3 345 321 338
3 322 357 336
3 322 346 354
3 322 334 354
3 322 346 357
3 351 357 344
3 351 344 350
3 351 346 357
3 351 359 347
3 351 345 359
3 351 345 350
3 351 346 354
3 351 355 354
3 351 355 347
3 329 323 338
3 329 321 328
3 329 321 338
3 329 320 336
3 329 320 328
3 329 322 336
3 335 359 338
3 335 323 338
3 335 359 347
3 335 355 347
3 335 322 334
3 335 329 322
3 335 329 323
3 335 334 354
3 335 355 354
3 392 397 376
3 392 360 376
3 392 360 372
3 392 397 384
3 373 392 393
3 373 392 372
3 361 360 372
3 361 360 368
3 361 373 372
3 385 392 384
3 385 384 390
3 385 392 393
3 385 373 393
3 385 399 378
3 385 361 373
3 385 361 378
3 369 363 378
3 369 361 368
3 369 361 378
3 391 397 384
3 391 384 390
3 391 386 397
3 391 399 387
3 391 385 399
3 391 385 390
3 391 386 394
3 391 395 394
3 391 395 387
3 362 397 376
3 362 386 394
3 362 374 394
3 362 386 397
3 362 360 376
3 362 360 368
3 362 369 368
3 375 399 378
3 375 363 378
3 375 399 387
3 375 395 387
3 375 369 363
3 375 362 369
3 375 362 374
3 375 374 394
3 375 395 394
3 432 437 416
3 432 400 416
3 432 400 412
3 432 437 424
3 413 400 412
3 413 401 408
3 413 400 408
3 413 432 433
3 413 432 412
3 425 432 424
3 425 424 430
3 425 432 433
3 425 401 418
3 425 439 418
3 425 413 401
3 425 413 433
3 402 437 416
3 402 426 434
3 402 414 434
3 402 426 437
3 431 437 424
3 431 424 430
3 431 426 437
3 431 439 427
3 431 425 439
3 431 425 430
3 431 426 434
3 431 435 434
3 431 435 427
3 409 401 418
3 409 403 418
3 409 401 408
3 409 400 416
3 409 400 408
3 409 402 416
3 415 403 418
3 415 439 418
3 415 439 427
3 415 435 427
3 415 402 414
3 415 409 402
3 415 409 403
3 415 414 434
3 415 435 434
3 472 477 456
3 472 440 456
3 472 440 452
3 472 477 464
3 453 472 473
3 453 472 452
3 441 440 452
3 441 440 448
3 441 453 452
3 465 472 464
3 465 464 470
3 465 472 473
3 465 453 473
3 465 479 458
3 465 441 453
3 465 441 458
3 465 479 467
3 465 471 470
3 465 471 467
3 466 477 456
3 466 442 456
3 466 454 474
3 466 442 454
3 466 477 464
3 466 464 470
3 466 471 470
3 466 471 467
3 466 475 474
3 466 475 467
3 449 441 448
3 449 443 458
3 449 441 458
3 449 440 456
3 449 440 448
3 449 442 456
3 455 479 458
3 455 479 467
3 455 443 458
3 455 475 467
3 455 442 454
3 455 449 442
3 455 449 443
3 455 454 474
3 455 475 474
3 512 517 496
3 512 480 496
3 512 480 492
3 512 517 504
3 493 480 492
3 493 481 488
3 493 480 488
3 493 512 513
3 493 512 492
3 505 512 504
3 505 504 510
3 505 512 513
3 505 481 498
3 505 519 498
3 505 493 481
3 505 493 513
3 482 517 496
3 482 506 514
3 482 494 514
3 482 506 517
3 511 517 504
3 511 504 510
3 511 506 517
3 511 519 507
3 511 505 519
3 511 505 510
3 511 506 514
3 511 515 514
3 511 515 507
3 489 481 498
3 489 483 498
3 489 481 488
3 489 480 496
3 489 480 488
3 489 482 496
3 495 483 498
3 495 519 498
3 495 519 507
3 495 515 507
3 495 482 494
3 495 489 482
3 495 489 483
3 495 494 514
3 495 515 514
3 552 557 536
3 552 520 536
3 552 520 532
3 552 557 544
3 533 552 553
3 533 552 532
3 521 520 532
3 521 520 528
3 521 533 532
3 545 552 544
3 545 544 550
3 545 552 553
3 545 533 553
3 545 559 538
3 545 521 533
3 545 521 538
3 545 559 547
3 545 551 550
3 545 551 547
3 546 557 536
3 546 522 536
3 546 534 554
3 546 522 534
3 546 557 544
3 546 544 550
3 546 551 550
3 546 551 547
3 546 555 554
3 546 555 547
3 529 523 538
3 529 521 528
3 529 521 538
3 529 520 536
3 529 520 528
3 529 522 536
3 535 559 538
3 535 523 538
3 535 559 547
3 535 555 547
3 535 522 534
3 535 529 522
3 535 529 523
3 535 534 554
3 535 555 554
3 592 597 576
3 592 560 576
3 592 560 572
3 592 597 584
3 573 560 572
3 573 561 568
3 573 560 568
3 573 592 593
3 573 592 572
3 585 592 584
3 585 584 590
3 585 592 593
3 585 561 578
3 585 599 578
3 585 573 561
3 585 573 593
3 562 597 576
3 562 586 594
3 562 574 594
3 562 586 597
3 591 597 584
3 591 584 590
3 591 586 597
3 591 599 587
3 591 585 599
3 591 585 590
3 591 586 594
3 591 595 594
3 591 595 587
3 569 561 578
3 569 563 578
3 569 561 568
3 569 560 576
3 569 560 568
3 569 562 576
3 575 563 578
3 575 599 578
3 575 599 587
3 575 595 587
3 575 562 574
3 575 569 562
3 575 569 563
3 575 574 594
3 575 595 594
3 632 637 616
3 632 600 616
3 632 600 612
3 632 637 624
3 613 632 633
3 613 632 612
3 601 600 612
3 601 600 608
3 601 613 612
3 625 632 624
3 625 624 630
3 625 632 633
3 625 613 633
3 625 639 618
3 625 601 613
3 625 601 618
3 602 637 616
3 602 626 634
3 602 614 634
3 602 626 637
3 631 637 624
3 631 624 630
3 631 626 637
3 631 639 627
3 631 625 639
3 631 625 630
3 631 626 634
3 631 635 634
3 631 635 627
3 609 603 618
3 609 601 608
3 609 601 618
3 609 600 616
3 609 600 608
3 609 602 616
3 615 639 618
3 615 603 618
3 615 639 627
3 615 635 627
3 615 602 614
3 615 609 602
3 615 609 603
3 615 614 634
3 615 635 634
3 672 677 656
3 672 640 656
3 672 640 652
3 672 677 664
3 653 640 652
3 653 641 648
3 653 640 648
3 653 672 673
3 653 672 652
3 665 672 664
3 665 664 670
3 665 672 673
3 665 641 658
3 665 679 658
3 665 653 641
3 665 653 673
3 665 679 667
3 665 671 670
3 665 671 667
3 666 677 656
3 666 642 656
3 666 654 674
3 666 642 654
3 666 677 664
3 666 664 670
3 666 671 670
3 666 671 667
3 666 675 674
3 666 675 667
3 649 641 658
3 649 643 658
3 649 641 648
3 649 640 656
3 649 640 648
3 649 642 656
3 655 643 658
3 655 679 658
3 655 679 667
3 655 675 667
3 655 642 654
3 655 649 642
3 655 649 643
3 655 654 674
3 655 675 674
3 712 717 696
3 712 680 696
3 712 680 692
3 712 717 704
3 693 712 713
3 693 712 692
3 681 680 688
3 681 680 692
3 681 693 692
3 705 712 704
3 705 704 710
3 705 712 713
3 705 693 713
3 705 719 698
3 705 681 693
3 705 681 698
3 682 680 696
3 682 680 688
3 682 689 688
3 682 717 696
3 682 706 714
3 682 694 714
3 682 706 717
3 711 717 704
3 711 704 710
3 711 706 717
3 711 705 719
3 711 705 710
3 711 719 707
3 711 706 714
3 711 715 714
3 711 715 707
3 683 689 688
3 683 681 698
3 683 681 688
3 695 719 698
3 695 719 707
3 695 715 707
3 695 683 698
3 695 682 689
3 695 682 694
3 695 683 689
3 695 694 714
3 695 715 714
3 752 757 736
3 752 720 736
3 752 720 732
3 752 757 744
3 733 752 753
3 733 752 732
3 721 720 728
3 721 720 732
3 721 733 732
3 745 752 744
3 745 744 750
3 745 752 753
3 745 733 753
3 745 759 738
3 745 721 733
3 745 721 738
3 745 759 747
3 745 751 750
3 745 751 747
3 722 720 736
3 722 720 728
3 722 729 728
3 746 757 736
3 746 722 736
3 746 734 754
3 746 722 734
3 746 757 744
3 746 744 750
3 746 751 750
3 746 751 747
3 746 755 754
3 746 755 747
3 735 734 754
3 735 755 754
3 723 729 728
3 723 721 738
3 723 721 728
3 723 759 738
3 723 759 747
3 723 755 747
3 723 735 755
3 723 722 729
3 723 722 734
3 723 735 734
3 792 797 776
3 792 760 776
3 792 760 772
3 792 797 784
3 773 792 793
3 773 792 772
3 761 760 772
3 761 760 768
3 761 773 772
3 785 792 784
3 785 784 790
3 785 792 793
3 785 773 793
3 785 799 778
3 785 761 773
3 785 761 778
3 762 797 776
3 762 786 794
3 762 774 794
3 762 786 797
3 791 797 784
3 791 784 790
3 791 786 797
3 791 799 787
3 791 785 799
3 791 785 790
3 791 786 794
3 791 795 794
3 791 795 787
3 769 761 768
3 769 763 778
3 769 761 778
3 769 760 776
3 769 760 768
3 769 762 776
3 775 799 778
3 775 799 787
3 775 763 778
3 775 795 787
3 775 762 774
3 775 769 762
3 775 769 763
3 775 774 794
3 775 795 794
3 832 837 816
3 832 800 816
3 832 800 812
3 832 837 824
3 813 800 812
3 813 801 808
3 813 800 808
3 813 832 833
3 813 832 812
3 825 832 824
3 825 824 830
3 825 832 833
3 825 801 818
3 825 839 818
3 825 813 801
3 825 813 833
3 825 839 827
3 825 831 830
3 825 831 827
3 826 837 816
3 826 802 816
3 826 814 834
3 826 802 814
3 826 837 824
3 826 824 830
3 826 831 830
3 826 831 827
3 826 835 834
3 826 835 827
3 809 801 818
3 809 803 818
3 809 801 808
3 809 800 816
3 809 800 808
3 809 802 816
3 815 803 818
3 815 839 818
3 815 839 827
3 815 835 827
3 815 802 814
3 815 809 802
3 815 809 803
3 815 814 834
3 815 835 834
3 872 877 856
3 872 840 856
3 872 840 852
3 872 877 864
3 853 872 873
3 853 872 852
3 841 840 848
3 841 840 852
3 841 853 852
3 865 872 864
3 865 864 870
3 865 872 873
3 865 853 873
3 865 879 858
3 865 841 853
3 865 841 858
3 865 879 867
3 865 871 870
3 865 871 867
3 842 840 856
3 842 840 848
3 842 849 848
3 866 877 856
3 866 842 856
3 866 854 874
3 866 842 854
3 866 877 864
3 866 864 870
3 866 871 870
3 866 871 867
3 866 875 874
3 866 875 867
3 855 854 874
3 855 875 874
3 843 849 848
3 843 841 858
3 843 841 848
3 843 879 858
3 843 879 867
3 843 875 867
3 843 855 875
3 843 842 849
3 843 842 854
3 843 855 854
3 912 917 896
3 912 880 896
3 912 880 892
3 912 917 904
3 893 912 913
3 893 912 892
3 881 880 892
3 881 880 888
3 881 893 892
3 905 912 904
3 905 904 910
3 905 912 913
3 905 893 913
3 905 919 898
3 905 881 893
3 905 881 898
3 905 919 907
3 905 911 910
3 905 911 907
3 906 917 896
3 906 882 896
3 906 894 914
3 906 882 894
3 906 917 904
3 906 904 910
3 906 911 910
3 906 911 907
3 906 915 914
3 906 915 907
3 889 883 898
3 889 881 888
3 889 881 898
3 889 880 896
3 889 880 888
3 889 882 896
3 895 919 898
3 895 883 898
3 895 919 907
3 895 915 907
3 895 882 894
3 895 889 882
3 895 889 883
3 895 894 914
3 895 915 914
3 952 957 936
3 952 920 936
3 952 920 932
3 952 957 944
3 933 952 953
3 933 952 932
3 921 920 932
3 921 920 928
3 921 933 932
3 945 952 944
3 945 944 950
3 945 952 953
3 945 933 953
3 945 959 938
3 945 921 933
3 945 921 938
3 922 957 936
3 922 946 954
3 922 934 954
3 922 946 957
3 951 957 944
3 951 944 950
3 951 946 957
3 951 959 947
3 951 945 959
3 951 945 950
3 951 946 954
3 951 955 954
3 951 955 947
3 929 923 938
3 929 921 928
3 929 921 938
3 929 920 936
3 929 920 928
3 929 922 936
3 935 959 938
3 935 923 938
3 935 959 947
3 935 955 947
3 935 922 934
3 935 929 922
3 935 929 923
3 935 934 954
3 935 955 954
CELL_TYPES 1056
5 5 5 5 5 5 5 5 5 5 
5 5 5 5 5 5 5 5 5 5 
5 5 5 5 5 5 5 5 5 5 
5 5 5 5 5 5 5 5 5 5 
5 5 5 5 5 5 5 5 5 5 
5 5 5 5 5 5 5 5 5 5 
5 5 5 5 5 5 5 5 5 5 
5 5 5 5 5 5 5 5 5 5 
5 5 5 5 5 5 5 5 5 5 
5 5 5 5 5 5 5 5 5 5 
5 5 5 5 5 5 5 5 5 5 
5 5 5 5 5 5 5 5 5 5 
5 5 5 5 5 5 5 5 5 5 
5 5 5 5 5 5 5 5 5 5 
5 5 5 5 5 5 5 5 5 5 
5 5 5 5 5 5 5 5 5 5 
5 5 5 5 5 5 5 5 5 5 
5 5 5 5 5 5 5 5 5 5 
5 5 5 5 5 5 5 5 5 5 
5 5 5 5 5 5 5 5 5 5 
5 5 5 5 5 5 5 5 5 5 
5 5 5 5 5 5 5 5 5 5 
5 5 5 5 5 5 5 5 5 5 
5 5 5 5 5 5 5 5 5 5 
5 5 5 5 5 5 5 5 5 5 
5 5 5 5 5 5 5 5 5 5 
5 5 5 5 5 5 5 5 5 5 
5 5 5 5 5 5 5 5 5 5 
5 5 5 5 5 5 5 5 5 5 
5 5 5 5 5 5 5 5 5 5 
5 5 5 5 5 5 5 5 5 5 
5 5 5 5 5 5 5 5 5 5 
5 5 5 5 5 5 5 5 5 5 
5 5 5 5 5 5 5 5 5 5 
5 5 5 5 5 5 5 5 5 5 
5 5 5 5 5 5 5 5 5 5 
5 5 5 5 5 5 5 5 5 5 
5 5 5 5 5 5 5 5 5 5 
5 5 5 5 5 5 5 5 5 5 
5 5 5 5 5 5 5 5 5 5 
5 5 5 5 5 5 5 5 5 5 
5 5 5 5 5 5 5 5 5 5 
5 5 5 5 5 5 5 5 5 5 
5 5 5 5 5 5 5 5 5 5 
5 5 5 5 5 5 5 5 5 5 
5 5 5 5 5 5 5 5 5 5 
5 5 5 5 5 5 5 5 5 5 
5 5 5 5 5 5 5 5 5 5 
5 5 5 5 5 5 5 5 5 5 
5 5 5 5 5 5 5 5 5 5 
5 5 5 5 5 5 5 5 5 5 
5 5 5 5 5 5 5 5 5 5 
5 5 5 5 5 5 5 5 5 5 
5 5 5 5 5 5 5 5 5 5 
5 5 5 5 5 5 5 5 5 5 
5 5 5 5 5 5 5 5 5 5 
5 5 5 5 5 5 5 5 5 5 
5 5 5 5 5 5 5 5 5 5 
5 5 5 5 5 5 5 5 5 5 
5 5 5 5 5 5 5 5 5 5 
5 5 5 5 5 5 5 5 5 5 
5 5 5 5 5 5 5 5 5 5 
5 5 5 5 5 5 5 5 5 5 
5 5 5 5 5 5 5 5 5 5 
5 5 5 5 5 5 5 5 5 5 
5 5 5 5 5 5 5 5 5 5 
5 5 5 5 5 5 5 5 5 5 
5 5 5 5 5 5 5 5 5 5 
5 5 5 5 5 5 5 5 5 5 
5 5 5 5 5 5 5 5 5 5 
5 5 5 5 5 5 5 5 5 5 
5 5 5 5 5 5 5 5 5 5 
5 5 5 5 5 5 5 5 5 5 
5 5 5 5 5 5 5 5 5 5 
5 5 5 5 5 5 5 5 5 5 
5 5 5 5 5 5 5 5 5 5 
5 5 5 5 5 5 5 5 5 5 
5 5 5 5 5 5 5 5 5 5 
5 5 5 5 5 5 5 5 5 5 
5 5 5 5 5 5 5 5 5 5 
5 5 5 5 5 5 5 5 5 5 
5 5 5 5 5 5 5 5 5 5 
5 5 5 5 5 5 5 5 5 5 
5 5 5 5 5 5 5 5 5 5 
5 5 5 5 5 5 5 5 5 5 
5 5 5 5 5 5 5 5 5 5 
5 5 5 5 5 5 5 5 5 5 
5 5 5 5 5 5 5 5 5 5 
5 5 5 5 5 5 5 5 5 5 
5 5 5 5 5 5 5 5 5 5 
5 5 5 5 5 5 5 5 5 5 
5 5 5 5 5 5 5 5 5 5 
5 5 5 5 5 5 5 5 5 5 
5 5 5 5 5 5 5 5 5 5 
5 5 5 5 5 5 5 5 5 5 
5 5 5 5 5 5 5 5 5 5 
5 5 5 5 5 5 5 5 5 5 
5 5 5 5 5 5 5 5 5 5 
5 5 5 5 5 5 5 5 5 5 
5 5 5 5 5 5 5 5 5 5 
5 5 5 5 5 5 5 5 5 5 
5 5 5 5 5 5 5 5 5 5 
5 5 5 5 5 5 5 5 5 5 
5 5 5 5 5 5 5 5 5 5 
5 5 5 5 5 5 5 5 5 5 
5 5 5 5 5 5 
CELL_DATA 1056
SCALARS Node_Number float 1
LOOKUP_TABLE default
1 1 1 1 1 1 1 1 1 
1 1 1 1 1 1 1 1 1 1 
1 1 1 1 1 1 1 1 1 1 
1 1 1 1 1 1 1 1 1 1 
1 1 1 1 1 2 2 2 2 2 
2 2 2 2 2 2 2 2 2 2 
2 2 2 2 2 2 2 2 2 2 
2 2 2 2 2 2 2 2 2 2 
2 2 2 2 2 2 2 2 2 3 
3 3 3 3 3 3 3 3 3 3 
3 3 3 3 3 3 3 3 3 3 
3 3 3 3 3 3 3 3 3 3 
3 3 3 3 3 3 3 3 3 3 
3 3 3 4 4 4 4 4 4 4 
4 4 4 4 4 4 4 4 4 4 
4 4 4 4 4 4 4 4 4 4 
4 4 4 4 4 4 4 4 4 4 
4 4 4 4 4 4 4 5 5 5 
5 5 5 5 5 5 5 5 5 5 
5 5 5 5 5 5 5 5 5 5 
5 5 5 5 5 5 5 5 5 5 
5 5 5 5 5 5 5 5 5 5 
5 6 6 6 6 6 6 6 6 6 
6 6 6 6 6 6 6 6 6 6 
6 6 6 6 6 6 6 6 6 6 
6 6 6 6 6 6 6 6 6 6 
6 6 6 6 6 7 7 7 7 7 
7 7 7 7 7 7 7 7 7 7 
7 7 7 7 7 7 7 7 7 7 
7 7 7 7 7 7 7 7 7 7 
7 7 7 7 7 7 7 7 7 8 
8 8 8 8 8 8 8 8 8 8 
8 8 8 8 8 8 8 8 8 8 
8 8 8 8 8 8 8 8 8 8 
8 8 8 8 8 8 8 8 8 8 
8 8 8 9 9 9 9 9 9 9 
9 9 9 9 9 9 9 9 9 9 
9 9 9 9 9 9 9 9 9 9 
9 9 9 9 9 9 9 9 9 9 
9 9 9 9 9 9 9 10 10 10 
10 10 10 10 10 10 10 10 10 10 
10 10 10 10 10 10 10 10 10 10 
10 10 10 10 10 10 10 10 10 10 
10 10 10 10 10 10 10 10 10 10 
10 11 11 11 11 11 11 11 11 11 
11 11 11 11 11 11 11 11 11 11 
11 11 11 11 11 11 11 11 11 11 
11 11 11 11 11 11 11 11 11 11 
11 11 11 11 11 12 12 12 12 12 
12 12 12 12 12 12 12 12 12 12 
12 12 12 12 12 12 12 12 12 12 
12 12 12 12 12 12 12 12 12 12 
12 12 12 12 12 12 12 12 12 13 
13 13 13 13 13 13 13 13 13 13 
13 13 13 13 13 13 13 13 13 13 
13 13 13 13 13 13 13 13 13 13 
13 13 13 13 13 13 13 13 13 13 
13 13 13 14 14 14 14 14 14 14 
14 14 14 14 14 14 14 14 14 14 
14 14 14 14 14 14 14 14 14 14 
14 14 14 14 14 14 14 14 14 14 
14 14 14 14 14 14 14 15 15 15 
15 15 15 15 15 15 15 15 15 15 
15 15 15 15 15 15 15 15 15 15 
15 15 15 15 15 15 15 15 15 15 
15 15 15 15 15 15 15 15 15 15 
15 16 16 16 16 16 16 16 16 16 
16 16 16 16 16 16 16 16 16 16 
16 16 16 16 16 16 16 16 16 16 
16 16 16 16 16 16 16 16 16 16 
16 16 16 16 16 17 17 17 17 17 
17 17 17 17 17 17 17 17 17 17 
17 17 17 17 17 17 17 17 17 17 
17 17 17 17 17 17 17 17 17 17 
17 17 17 17 17 17 17 17 17 18 
18 18 18 18 18 18 18 18 18 18 
18 18 18 18 18 18 18 18 18 18 
18 18 18 18 18 18 18 18 18 18 
18 18 18 18 18 18 18 18 18 18 
18 18 18 19 19 19 19 19 19 19 
19 19 19 19 19 19 19 19 19 19 
19 19 19 19 19 19 19 19 19 19 
19 19 19 19 19 19 19 19 19 19 
19 19 19 19 19 19 19 20 20 20 
20 20 20 20 20 20 20 20 20 20 
20 20 20 20 20 20 20 20 20 20 
20 20 20 20 20 20 20 20 20 20 
20 20 20 20 20 20 20 20 20 20 
20 21 21 21 21 21 21 21 21 21 
21 21 21 21 21 21 21 21 21 21 
21 21 21 21 21 21 21 21 21 21 
21 21 21 21 21 21 21 21 21 21 
21 21 21 21 21 22 22 22 22 22 
22 22 22 22 22 22 22 22 22 22 
22 22 22 22 22 22 22 22 22 22 
22 22 22 22 22 22 22 22 22 22 
22 22 22 22 22 22 22 22 22 23 
23 23 23 23 23 23 23 23 23 23 
23 23 23 23 23 23 23 23 23 23 
23 23 23 23 23 23 23 23 23 23 
23 23 23 23 23 23 23 23 23 23 
23 23 23 24 24 24 24 24 24 24 
24 24 24 24 24 24 24 24 24 24 
24 24 24 24 24 24 24 24 24 24 
24 24 24 24 24 24 24 24 24 24 
24 24 24 24 24 24 24 SCALARS Node_Pressure_MPa float 1
LOOKUP_TABLE default
30.8538 30.8538 30.8538 30.8538 30.8538 30.8538 30.8538 30.8538 30.8538 
30.8538 30.8538 30.8538 30.8538 30.8538 30.8538 30.8538 30.8538 30.8538 30.8538 
30.8538 30.8538 30.8538 30.8538 30.8538 30.8538 30.8538 30.8538 30.8538 30.8538 
30.8538 30.8538 30.8538 30.8538 30.8538 30.8538 30.8538 30.8538 30.8538 30.8538 
30.8538 30.8538 30.8538 30.8538 30.8538 30.8536 30.8536 30.8536 30.8536 30.8536 
30.8536 30.8536 30.8536 30.8536 30.8536 30.8536 30.8536 30.8536 30.8536 30.8536 
30.8536 30.8536 30.8536 30.8536 30.8536 30.8536 30.8536 30.8536 30.8536 30.8536 
30.8536 30.8536 30.8536 30.8536 30.8536 30.8536 30.8536 30.8536 30.8536 30.8536 
30.8536 30.8536 30.8536 30.8536 30.8536 30.8536 30.8536 30.8536 30.8536 23.3719 
23.3719 23.3719 23.3719 23.3719 23.3719 23.3719 23.3719 23.3719 23.3719 23.3719 
23.3719 23.3719 23.3719 23.3719 23.3719 23.3719 23.3719 23.3719 23.3719 23.3719 
23.3719 23.3719 23.3719 23.3719 23.3719 23.3719 23.3719 23.3719 23.3719 23.3719 
23.3719 23.3719 23.3719 23.3719 23.3719 23.3719 23.3719 23.3719 23.3719 23.3719 
23.3719 23.3719 23.3719 23.3721 23.3721 23.3721 23.3721 23.3721 23.3721 23.3721 
23.3721 23.3721 23.3721 23.3721 23.3721 23.3721 23.3721 23.3721 23.3721 23.3721 
23.3721 23.3721 23.3721 23.3721 23.3721 23.3721 23.3721 23.3721 23.3721 23.3721 
23.3721 23.3721 23.3721 23.3721 23.3721 23.3721 23.3721 23.3721 23.3721 23.3721 
23.3721 23.3721 23.3721 23.3721 23.3721 23.3721 23.3721 30.8504 30.8504 30.8504 
30.8504 30.8504 30.8504 30.8504 30.8504 30.8504 30.8504 30.8504 30.8504 30.8504 
30.8504 30.8504 30.8504 30.8504 30.8504 30.8504 30.8504 30.8504 30.8504 30.8504 
30.8504 30.8504 30.8504 30.8504 30.8504 30.8504 30.8504 30.8504 30.8504 30.8504 
30.8504 30.8504 30.8504 30.8504 30.8504 30.8504 30.8504 30.8504 30.8504 30.8504 
30.8504 23.3754 23.3754 23.3754 23.3754 23.3754 23.3754 23.3754 23.3754 23.3754 
23.3754 23.3754 23.3754 23.3754 23.3754 23.3754 23.3754 23.3754 23.3754 23.3754 
23.3754 23.3754 23.3754 23.3754 23.3754 23.3754 23.3754 23.3754 23.3754 23.3754 
23.3754 23.3754 23.3754 23.3754 23.3754 23.3754 23.3754 23.3754 23.3754 23.3754 
23.3754 23.3754 23.3754 23.3754 23.3754 30.8503 30.8503 30.8503 30.8503 30.8503 
30.8503 30.8503 30.8503 30.8503 30.8503 30.8503 30.8503 30.8503 30.8503 30.8503 
30.8503 30.8503 30.8503 30.8503 30.8503 30.8503 30.8503 30.8503 30.8503 30.8503 
30.8503 30.8503 30.8503 30.8503 30.8503 30.8503 30.8503 30.8503 30.8503 30.8503 
30.8503 30.8503 30.8503 30.8503 30.8503 30.8503 30.8503 30.8503 30.8503 30.8499 
30.8499 30.8499 30.8499 30.8499 30.8499 30.8499 30.8499 30.8499 30.8499 30.8499 
30.8499 30.8499 30.8499 30.8499 30.8499 30.8499 30.8499 30.8499 30.8499 30.8499 
30.8499 30.8499 30.8499 30.8499 30.8499 30.8499 30.8499 30.8499 30.8499 30.8499 
30.8499 30.8499 30.8499 30.8499 30.8499 30.8499 30.8499 30.8499 30.8499 30.8499 
30.8499 30.8499 30.8499 30.7807 30.7807 30.7807 30.7807 30.7807 30.7807 30.7807 
30.7807 30.7807 30.7807 30.7807 30.7807 30.7807 30.7807 30.7807 30.7807 30.7807 
30.7807 30.7807 30.7807 30.7807 30.7807 30.7807 30.7807 30.7807 30.7807 30.7807 
30.7807 30.7807 30.7807 30.7807 30.7807 30.7807 30.7807 30.7807 30.7807 30.7807 
30.7807 30.7807 30.7807 30.7807 30.7807 30.7807 30.7807 27.7378 27.7378 27.7378 
27.7378 27.7378 27.7378 27.7378 27.7378 27.7378 27.7378 27.7378 27.7378 27.7378 
27.7378 27.7378 27.7378 27.7378 27.7378 27.7378 27.7378 27.7378 27.7378 27.7378 
27.7378 27.7378 27.7378 27.7378 27.7378 27.7378 27.7378 27.7378 27.7378 27.7378 
27.7378 27.7378 27.7378 27.7378 27.7378 27.7378 27.7378 27.7378 27.7378 27.7378 
27.7378 30.8499 30.8499 30.8499 30.8499 30.8499 30.8499 30.8499 30.8499 30.8499 
30.8499 30.8499 30.8499 30.8499 30.8499 30.8499 30.8499 30.8499 30.8499 30.8499 
30.8499 30.8499 30.8499 30.8499 30.8499 30.8499 30.8499 30.8499 30.8499 30.8499 
30.8499 30.8499 30.8499 30.8499 30.8499 30.8499 30.8499 30.8499 30.8499 30.8499 
30.8499 30.8499 30.8499 30.8499 30.8499 30.8499 30.8499 30.8499 30.8499 30.8499 
30.8499 30.8499 30.8499 30.8499 30.8499 30.8499 30.8499 30.8499 30.8499 30.8499 
30.8499 30.8499 30.8499 30.8499 30.8499 30.8499 30.8499 30.8499 30.8499 30.8499 
30.8499 30.8499 30.8499 30.8499 30.8499 30.8499 30.8499 30.8499 30.8499 30.8499 
30.8499 30.8499 30.8499 30.8499 30.8499 30.8499 30.8499 30.8499 30.8499 27.7786 
27.7786 27.7786 27.7786 27.7786 27.7786 27.7786 27.7786 27.7786 27.7786 27.7786 
27.7786 27.7786 27.7786 27.7786 27.7786 27.7786 27.7786 27.7786 27.7786 27.7786 
27.7786 27.7786 27.7786 27.7786 27.7786 27.7786 27.7786 27.7786 27.7786 27.7786 
27.7786 27.7786 27.7786 27.7786 27.7786 27.7786 27.7786 27.7786 27.7786 27.7786 
27.7786 27.7786 27.7786 30.8499 30.8499 30.8499 30.8499 30.8499 30.8499 30.8499 
30.8499 30.8499 30.8499 30.8499 30.8499 30.8499 30.8499 30.8499 30.8499 30.8499 
30.8499 30.8499 30.8499 30.8499 30.8499 30.8499 30.8499 30.8499 30.8499 30.8499 
30.8499 30.8499 30.8499 30.8499 30.8499 30.8499 30.8499 30.8499 30.8499 30.8499 
30.8499 30.8499 30.8499 30.8499 30.8499 30.8499 30.8499 30.8496 30.8496 30.8496 
30.8496 30.8496 30.8496 30.8496 30.8496 30.8496 30.8496 30.8496 30.8496 30.8496 
30.8496 30.8496 30.8496 30.8496 30.8496 30.8496 30.8496 30.8496 30.8496 30.8496 
30.8496 30.8496 30.8496 30.8496 30.8496 30.8496 30.8496 30.8496 30.8496 30.8496 
30.8496 30.8496 30.8496 30.8496 30.8496 30.8496 30.8496 30.8496 30.8496 30.8496 
30.8496 30.6044 30.6044 30.6044 30.6044 30.6044 30.6044 30.6044 30.6044 30.6044 
30.6044 30.6044 30.6044 30.6044 30.6044 30.6044 30.6044 30.6044 30.6044 30.6044 
30.6044 30.6044 30.6044 30.6044 30.6044 30.6044 30.6044 30.6044 30.6044 30.6044 
30.6044 30.6044 30.6044 30.6044 30.6044 30.6044 30.6044 30.6044 30.6044 30.6044 
30.6044 30.6044 30.6044 30.6044 30.6044 30.8499 30.8499 30.8499 30.8499 30.8499 
30.8499 30.8499 30.8499 30.8499 30.8499 30.8499 30.8499 30.8499 30.8499 30.8499 
30.8499 30.8499 30.8499 30.8499 30.8499 30.8499 30.8499 30.8499 30.8499 30.8499 
30.8499 30.8499 30.8499 30.8499 30.8499 30.8499 30.8499 30.8499 30.8499 30.8499 
30.8499 30.8499 30.8499 30.8499 30.8499 30.8499 30.8499 30.8499 30.8499 23.3759 
23.3759 23.3759 23.3759 23.3759 23.3759 23.3759 23.3759 23.3759 23.3759 23.3759 
23.3759 23.3759 23.3759 23.3759 23.3759 23.3759 23.3759 23.3759 23.3759 23.3759 
23.3759 23.3759 23.3759 23.3759 23.3759 23.3759 23.3759 23.3759 23.3759 23.3759 
23.3759 23.3759 23.3759 23.3759 23.3759 23.3759 23.3759 23.3759 23.3759 23.3759 
23.3759 23.3759 23.3759 26.4187 26.4187 26.4187 26.4187 26.4187 26.4187 26.4187 
26.4187 26.4187 26.4187 26.4187 26.4187 26.4187 26.4187 26.4187 26.4187 26.4187 
26.4187 26.4187 26.4187 26.4187 26.4187 26.4187 26.4187 26.4187 26.4187 26.4187 
26.4187 26.4187 26.4187 26.4187 26.4187 26.4187 26.4187 26.4187 26.4187 26.4187 
26.4187 26.4187 26.4187 26.4187 26.4187 26.4187 26.4187 23.3759 23.3759 23.3759 
23.3759 23.3759 23.3759 23.3759 23.3759 23.3759 23.3759 23.3759 23.3759 23.3759 
23.3759 23.3759 23.3759 23.3759 23.3759 23.3759 23.3759 23.3759 23.3759 23.3759 
23.3759 23.3759 23.3759 23.3759 23.3759 23.3759 23.3759 23.3759 23.3759 23.3759 
23.3759 23.3759 23.3759 23.3759 23.3759 23.3759 23.3759 23.3759 23.3759 23.3759 
23.3759 26.4471 26.4471 26.4471 26.4471 26.4471 26.4471 26.4471 26.4471 26.4471 
26.4471 26.4471 26.4471 26.4471 26.4471 26.4471 26.4471 26.4471 26.4471 26.4471 
26.4471 26.4471 26.4471 26.4471 26.4471 26.4471 26.4471 26.4471 26.4471 26.4471 
26.4471 26.4471 26.4471 26.4471 26.4471 26.4471 26.4471 26.4471 26.4471 26.4471 
26.4471 26.4471 26.4471 26.4471 26.4471 23.3759 23.3759 23.3759 23.3759 23.3759 
23.3759 23.3759 23.3759 23.3759 23.3759 23.3759 23.3759 23.3759 23.3759 23.3759 
23.3759 23.3759 23.3759 23.3759 23.3759 23.3759 23.3759 23.3759 23.3759 23.3759 
23.3759 23.3759 23.3759 23.3759 23.3759 23.3759 23.3759 23.3759 23.3759 23.3759 
23.3759 23.3759 23.3759 23.3759 23.3759 23.3759 23.3759 23.3759 23.3759 23.6212 
23.6212 23.6212 23.6212 23.6212 23.6212 23.6212 23.6212 23.6212 23.6212 23.6212 
23.6212 23.6212 23.6212 23.6212 23.6212 23.6212 23.6212 23.6212 23.6212 23.6212 
23.6212 23.6212 23.6212 23.6212 23.6212 23.6212 23.6212 23.6212 23.6212 23.6212 
23.6212 23.6212 23.6212 23.6212 23.6212 23.6212 23.6212 23.6212 23.6212 23.6212 
23.6212 23.6212 23.6212 23.3759 23.3759 23.3759 23.3759 23.3759 23.3759 23.3759 
23.3759 23.3759 23.3759 23.3759 23.3759 23.3759 23.3759 23.3759 23.3759 23.3759 
23.3759 23.3759 23.3759 23.3759 23.3759 23.3759 23.3759 23.3759 23.3759 23.3759 
23.3759 23.3759 23.3759 23.3759 23.3759 23.3759 23.3759 23.3759 23.3759 23.3759 
23.3759 23.3759 23.3759 23.3759 23.3759 23.3759 23.3759 SCALARS Node_Temperature_K float 1
LOOKUP_TABLE default
343.15 343.15 343.15 343.15 343.15 343.15 343.15 343.15 343.15 
343.15 343.15 343.15 343.15 343.15 343.15 343.15 343.15 343.15 343.15 
343.15 343.15 343.15 343.15 343.15 343.15 343.15 343.15 343.15 343.15 
343.15 343.15 343.15 343.15 343.15 343.15 343.15 343.15 343.15 343.15 
343.15 343.15 343.15 343.15 343.15 342.168 342.168 342.168 342.168 342.168 
342.168 342.168 342.168 342.168 342.168 342.168 342.168 342.168 342.168 342.168 
342.168 342.168 342.168 342.168 342.168 342.168 342.168 342.168 342.168 342.168 
342.168 342.168 342.168 342.168 342.168 342.168 342.168 342.168 342.168 342.168 
342.168 342.168 342.168 342.168 342.168 342.168 342.168 342.168 342.168 371.381 
371.381 371.381 371.381 371.381 371.381 371.381 371.381 371.381 371.381 371.381 
371.381 371.381 371.381 371.381 371.381 371.381 371.381 371.381 371.381 371.381 
371.381 371.381 371.381 371.381 371.381 371.381 371.381 371.381 371.381 371.381 
371.381 371.381 371.381 371.381 371.381 371.381 371.381 371.381 371.381 371.381 
371.381 371.381 371.381 372.798 372.798 372.798 372.798 372.798 372.798 372.798 
372.798 372.798 372.798 372.798 372.798 372.798 372.798 372.798 372.798 372.798 
372.798 372.798 372.798 372.798 372.798 372.798 372.798 372.798 372.798 372.798 
372.798 372.798 372.798 372.798 372.798 372.798 372.798 372.798 372.798 372.798 
372.798 372.798 372.798 372.798 372.798 372.798 372.798 357.993 357.993 357.993 
357.993 357.993 357.993 357.993 357.993 357.993 357.993 357.993 357.993 357.993 
357.993 357.993 357.993 357.993 357.993 357.993 357.993 357.993 357.993 357.993 
357.993 357.993 357.993 357.993 357.993 357.993 357.993 357.993 357.993 357.993 
357.993 357.993 357.993 357.993 357.993 357.993 357.993 357.993 357.993 357.993 
357.993 386.214 386.214 386.214 386.214 386.214 386.214 386.214 386.214 386.214 
386.214 386.214 386.214 386.214 386.214 386.214 386.214 386.214 386.214 386.214 
386.214 386.214 386.214 386.214 386.214 386.214 386.214 386.214 386.214 386.214 
386.214 386.214 386.214 386.214 386.214 386.214 386.214 386.214 386.214 386.214 
386.214 386.214 386.214 386.214 386.214 358.847 358.847 358.847 358.847 358.847 
358.847 358.847 358.847 358.847 358.847 358.847 358.847 358.847 358.847 358.847 
358.847 358.847 358.847 358.847 358.847 358.847 358.847 358.847 358.847 358.847 
358.847 358.847 358.847 358.847 358.847 358.847 358.847 358.847 358.847 358.847 
358.847 358.847 358.847 358.847 358.847 358.847 358.847 358.847 358.847 362.818 
362.818 362.818 362.818 362.818 362.818 362.818 362.818 362.818 362.818 362.818 
362.818 362.818 362.818 362.818 362.818 362.818 362.818 362.818 362.818 362.818 
362.818 362.818 362.818 362.818 362.818 362.818 362.818 362.818 362.818 362.818 
362.818 362.818 362.818 362.818 362.818 362.818 362.818 362.818 362.818 362.818 
362.818 362.818 362.818 362.818 362.818 362.818 362.818 362.818 362.818 362.818 
362.818 362.818 362.818 362.818 362.818 362.818 362.818 362.818 362.818 362.818 
362.818 362.818 362.818 362.818 362.818 362.818 362.818 362.818 362.818 362.818 
362.818 362.818 362.818 362.818 362.818 362.818 362.818 362.818 362.818 362.818 
362.818 362.818 362.818 362.818 362.818 362.818 362.818 362.818 362.818 362.818 
362.818 362.818 362.818 362.818 362.818 362.818 362.818 362.818 362.818 362.818 
362.818 362.818 362.818 362.818 362.818 362.818 362.818 362.818 362.818 362.818 
362.818 362.818 362.818 362.818 362.818 362.818 362.818 362.818 362.818 362.818 
362.818 362.818 362.818 362.818 362.818 362.818 362.818 362.818 362.818 362.818 
362.818 415.208 415.208 415.208 415.208 415.208 415.208 415.208 415.208 415.208 
415.208 415.208 415.208 415.208 415.208 415.208 415.208 415.208 415.208 415.208 
415.208 415.208 415.208 415.208 415.208 415.208 415.208 415.208 415.208 415.208 
415.208 415.208 415.208 415.208 415.208 415.208 415.208 415.208 415.208 415.208 
415.208 415.208 415.208 415.208 415.208 415.229 415.229 415.229 415.229 415.229 
415.229 415.229 415.229 415.229 415.229 415.229 415.229 415.229 415.229 415.229 
415.229 415.229 415.229 415.229 415.229 415.229 415.229 415.229 415.229 415.229 
415.229 415.229 415.229 415.229 415.229 415.229 415.229 415.229 415.229 415.229 
415.229 415.229 415.229 415.229 415.229 415.229 415.229 415.229 415.229 415.224 
415.224 415.224 415.224 415.224 415.224 415.224 415.224 415.224 415.224 415.224 
415.224 415.224 415.224 415.224 415.224 415.224 415.224 415.224 415.224 415.224 
415.224 415.224 415.224 415.224 415.224 415.224 415.224 415.224 415.224 415.224 
415.224 415.224 415.224 415.224 415.224 415.224 415.224 415.224 415.224 415.224 
415.224 415.224 415.224 451.6 451.6 451.6 451.6 451.6 451.6 451.6 
451.6 451.6 451.6 451.6 451.6 451.6 451.6 451.6 451.6 451.6 
451.6 451.6 451.6 451.6 451.6 451.6 451.6 451.6 451.6 451.6 
451.6 451.6 451.6 451.6 451.6 451.6 451.6 451.6 451.6 451.6 
451.6 451.6 451.6 451.6 451.6 451.6 451.6 451.588 451.588 451.588 
451.588 451.588 451.588 451.588 451.588 451.588 451.588 451.588 451.588 451.588 
451.588 451.588 451.588 451.588 451.588 451.588 451.588 451.588 451.588 451.588 
451.588 451.588 451.588 451.588 451.588 451.588 451.588 451.588 451.588 451.588 
451.588 451.588 451.588 451.588 451.588 451.588 451.588 451.588 451.588 451.588 
451.588 451.594 451.594 451.594 451.594 451.594 451.594 451.594 451.594 451.594 
451.594 451.594 451.594 451.594 451.594 451.594 451.594 451.594 451.594 451.594 
451.594 451.594 451.594 451.594 451.594 451.594 451.594 451.594 451.594 451.594 
451.594 451.594 451.594 451.594 451.594 451.594 451.594 451.594 451.594 451.594 
451.594 451.594 451.594 451.594 451.594 498.848 498.848 498.848 498.848 498.848 
498.848 498.848 498.848 498.848 498.848 498.848 498.848 498.848 498.848 498.848 
498.848 498.848 498.848 498.848 498.848 498.848 498.848 498.848 498.848 498.848 
498.848 498.848 498.848 498.848 498.848 498.848 498.848 498.848 498.848 498.848 
498.848 498.848 498.848 498.848 498.848 498.848 498.848 498.848 498.848 382.362 
382.362 382.362 382.362 382.362 382.362 382.362 382.362 382.362 382.362 382.362 
382.362 382.362 382.362 382.362 382.362 382.362 382.362 382.362 382.362 382.362 
382.362 382.362 382.362 382.362 382.362 382.362 382.362 382.362 382.362 382.362 
382.362 382.362 382.362 382.362 382.362 382.362 382.362 382.362 382.362 382.362 
382.362 382.362 382.362 376.353 376.353 376.353 376.353 376.353 376.353 376.353 
376.353 376.353 376.353 376.353 376.353 376.353 376.353 376.353 376.353 376.353 
376.353 376.353 376.353 376.353 376.353 376.353 376.353 376.353 376.353 376.353 
376.353 376.353 376.353 376.353 376.353 376.353 376.353 376.353 376.353 376.353 
376.353 376.353 376.353 376.353 376.353 376.353 376.353 486.744 486.744 486.744 
486.744 486.744 486.744 486.744 486.744 486.744 486.744 486.744 486.744 486.744 
486.744 486.744 486.744 486.744 486.744 486.744 486.744 486.744 486.744 486.744 
486.744 486.744 486.744 486.744 486.744 486.744 486.744 486.744 486.744 486.744 
486.744 486.744 486.744 486.744 486.744 486.744 486.744 486.744 486.744 486.744 
486.744 481.74 481.74 481.74 481.74 481.74 481.74 481.74 481.74 481.74 
481.74 481.74 481.74 481.74 481.74 481.74 481.74 481.74 481.74 481.74 
481.74 481.74 481.74 481.74 481.74 481.74 481.74 481.74 481.74 481.74 
481.74 481.74 481.74 481.74 481.74 481.74 481.74 481.74 481.74 481.74 
481.74 481.74 481.74 481.74 481.74 491.334 491.334 491.334 491.334 491.334 
491.334 491.334 491.334 491.334 491.334 491.334 491.334 491.334 491.334 491.334 
491.334 491.334 491.334 491.334 491.334 491.334 491.334 491.334 491.334 491.334 
491.334 491.334 491.334 491.334 491.334 491.334 491.334 491.334 491.334 491.334 
491.334 491.334 491.334 491.334 491.334 491.334 491.334 491.334 491.334 491.334 
491.334 491.334 491.334 491.334 491.334 491.334 491.334 491.334 491.334 491.334 
491.334 491.334 491.334 491.334 491.334 491.334 491.334 491.334 491.334 491.334 
491.334 491.334 491.334 491.334 491.334 491.334 491.334 491.334 491.334 491.334 
491.334 491.334 491.334 491.334 491.334 491.334 491.334 491.334 491.334 491.334 
491.334 491.334 491.334 503.036 503.036 503.036 503.036 503.036 503.036 503.036 
503.036 503.036 503.036 503.036 503.036 503.036 503.036 503.036 503.036 503.036 
503.036 503.036 503.036 503.036 503.036 503.036 503.036 503.036 503.036 503.036 
503.036 503.036 503.036 503.036 503.036 503.036 503.036 503.036 503.036 503.036 
503.036 503.036 503.036 503.036 503.036 503.036 503.036 SCALARS Node_Enthalpy_kJ/kg float 1
LOOKUP_TABLE default
311.171 311.171 311.171 311.171 311.171 311.171 311.171 311.171 311.171 
311.171 311.171 311.171 311.171 311.171 311.171 311.171 311.171 311.171 311.171 
311.171 311.171 311.171 311.171 311.171 311.171 311.171 311.171 311.171 311.171 
311.171 311.171 311.171 311.171 311.171 311.171 311.171 311.171 311.171 311.171 
311.171 311.171 311.171 311.171 311.171 307.098 307.098 307.098 307.098 307.098 
307.098 307.098 307.098 307.098 307.098 307.098 307.098 307.098 307.098 307.098 
307.098 307.098 307.098 307.098 307.098 307.098 307.098 307.098 307.098 307.098 
307.098 307.098 307.098 307.098 307.098 307.098 307.098 307.098 307.098 307.098 
307.098 307.098 307.098 307.098 307.098 307.098 307.098 307.098 307.098 428.51 
428.51 428.51 428.51 428.51 428.51 428.51 428.51 428.51 428.51 428.51 
428.51 428.51 428.51 428.51 428.51 428.51 428.51 428.51 428.51 428.51 
428.51 428.51 428.51 428.51 428.51 428.51 428.51 428.51 428.51 428.51 
428.51 428.51 428.51 428.51 428.51 428.51 428.51 428.51 428.51 428.51 
428.51 428.51 428.51 434.409 434.409 434.409 434.409 434.409 434.409 434.409 
434.409 434.409 434.409 434.409 434.409 434.409 434.409 434.409 434.409 434.409 
434.409 434.409 434.409 434.409 434.409 434.409 434.409 434.409 434.409 434.409 
434.409 434.409 434.409 434.409 434.409 434.409 434.409 434.409 434.409 434.409 
434.409 434.409 434.409 434.409 434.409 434.409 434.409 372.78 372.78 372.78 
372.78 372.78 372.78 372.78 372.78 372.78 372.78 372.78 372.78 372.78 
372.78 372.78 372.78 372.78 372.78 372.78 372.78 372.78 372.78 372.78 
372.78 372.78 372.78 372.78 372.78 372.78 372.78 372.78 372.78 372.78 
372.78 372.78 372.78 372.78 372.78 372.78 372.78 372.78 372.78 372.78 
372.78 490.468 490.468 490.468 490.468 490.468 490.468 490.468 490.468 490.468 
490.468 490.468 490.468 490.468 490.468 490.468 490.468 490.468 490.468 490.468 
490.468 490.468 490.468 490.468 490.468 490.468 490.468 490.468 490.468 490.468 
490.468 490.468 490.468 490.468 490.468 490.468 490.468 490.468 490.468 490.468 
490.468 490.468 490.468 490.468 490.468 376.335 376.335 376.335 376.335 376.335 
376.335 376.335 376.335 376.335 376.335 376.335 376.335 376.335 376.335 376.335 
376.335 376.335 376.335 376.335 376.335 376.335 376.335 376.335 376.335 376.335 
376.335 376.335 376.335 376.335 376.335 376.335 376.335 376.335 376.335 376.335 
376.335 376.335 376.335 376.335 376.335 376.335 376.335 376.335 376.335 392.863 
392.863 392.863 392.863 392.863 392.863 392.863 392.863 392.863 392.863 392.863 
392.863 392.863 392.863 392.863 392.863 392.863 392.863 392.863 392.863 392.863 
392.863 392.863 392.863 392.863 392.863 392.863 392.863 392.863 392.863 392.863 
392.863 392.863 392.863 392.863 392.863 392.863 392.863 392.863 392.863 392.863 
392.863 392.863 392.863 392.864 392.864 392.864 392.864 392.864 392.864 392.864 
392.864 392.864 392.864 392.864 392.864 392.864 392.864 392.864 392.864 392.864 
392.864 392.864 392.864 392.864 392.864 392.864 392.864 392.864 392.864 392.864 
392.864 392.864 392.864 392.864 392.864 392.864 392.864 392.864 392.864 392.864 
392.864 392.864 392.864 392.864 392.864 392.864 392.864 392.865 392.865 392.865 
392.865 392.865 392.865 392.865 392.865 392.865 392.865 392.865 392.865 392.865 
392.865 392.865 392.865 392.865 392.865 392.865 392.865 392.865 392.865 392.865 
392.865 392.865 392.865 392.865 392.865 392.865 392.865 392.865 392.865 392.865 
392.865 392.865 392.865 392.865 392.865 392.865 392.865 392.865 392.865 392.865 
392.865 612.402 612.402 612.402 612.402 612.402 612.402 612.402 612.402 612.402 
612.402 612.402 612.402 612.402 612.402 612.402 612.402 612.402 612.402 612.402 
612.402 612.402 612.402 612.402 612.402 612.402 612.402 612.402 612.402 612.402 
612.402 612.402 612.402 612.402 612.402 612.402 612.402 612.402 612.402 612.402 
612.402 612.402 612.402 612.402 612.402 612.49 612.49 612.49 612.49 612.49 
612.49 612.49 612.49 612.49 612.49 612.49 612.49 612.49 612.49 612.49 
612.49 612.49 612.49 612.49 612.49 612.49 612.49 612.49 612.49 612.49 
612.49 612.49 612.49 612.49 612.49 612.49 612.49 612.49 612.49 612.49 
612.49 612.49 612.49 612.49 612.49 612.49 612.49 612.49 612.49 612.468 
612.468 612.468 612.468 612.468 612.468 612.468 612.468 612.468 612.468 612.468 
612.468 612.468 612.468 612.468 612.468 612.468 612.468 612.468 612.468 612.468 
612.468 612.468 612.468 612.468 612.468 612.468 612.468 612.468 612.468 612.468 
612.468 612.468 612.468 612.468 612.468 612.468 612.468 612.468 612.468 612.468 
612.468 612.468 612.468 767.933 767.933 767.933 767.933 767.933 767.933 767.933 
767.933 767.933 767.933 767.933 767.933 767.933 767.933 767.933 767.933 767.933 
767.933 767.933 767.933 767.933 767.933 767.933 767.933 767.933 767.933 767.933 
767.933 767.933 767.933 767.933 767.933 767.933 767.933 767.933 767.933 767.933 
767.933 767.933 767.933 767.933 767.933 767.933 767.933 767.878 767.878 767.878 
767.878 767.878 767.878 767.878 767.878 767.878 767.878 767.878 767.878 767.878 
767.878 767.878 767.878 767.878 767.878 767.878 767.878 767.878 767.878 767.878 
767.878 767.878 767.878 767.878 767.878 767.878 767.878 767.878 767.878 767.878 
767.878 767.878 767.878 767.878 767.878 767.878 767.878 767.878 767.878 767.878 
767.878 767.904 767.904 767.904 767.904 767.904 767.904 767.904 767.904 767.904 
767.904 767.904 767.904 767.904 767.904 767.904 767.904 767.904 767.904 767.904 
767.904 767.904 767.904 767.904 767.904 767.904 767.904 767.904 767.904 767.904 
767.904 767.904 767.904 767.904 767.904 767.904 767.904 767.904 767.904 767.904 
767.904 767.904 767.904 767.904 767.904 975.853 975.853 975.853 975.853 975.853 
975.853 975.853 975.853 975.853 975.853 975.853 975.853 975.853 975.853 975.853 
975.853 975.853 975.853 975.853 975.853 975.853 975.853 975.853 975.853 975.853 
975.853 975.853 975.853 975.853 975.853 975.853 975.853 975.853 975.853 975.853 
975.853 975.853 975.853 975.853 975.853 975.853 975.853 975.853 975.853 474.36 
474.36 474.36 474.36 474.36 474.36 474.36 474.36 474.36 474.36 474.36 
474.36 474.36 474.36 474.36 474.36 474.36 474.36 474.36 474.36 474.36 
474.36 474.36 474.36 474.36 474.36 474.36 474.36 474.36 474.36 474.36 
474.36 474.36 474.36 474.36 474.36 474.36 474.36 474.36 474.36 474.36 
474.36 474.36 474.36 449.227 449.227 449.227 449.227 449.227 449.227 449.227 
449.227 449.227 449.227 449.227 449.227 449.227 449.227 449.227 449.227 449.227 
449.227 449.227 449.227 449.227 449.227 449.227 449.227 449.227 449.227 449.227 
449.227 449.227 449.227 449.227 449.227 449.227 449.227 449.227 449.227 449.227 
449.227 449.227 449.227 449.227 449.227 449.227 449.227 921.886 921.886 921.886 
921.886 921.886 921.886 921.886 921.886 921.886 921.886 921.886 921.886 921.886 
921.886 921.886 921.886 921.886 921.886 921.886 921.886 921.886 921.886 921.886 
921.886 921.886 921.886 921.886 921.886 921.886 921.886 921.886 921.886 921.886 
921.886 921.886 921.886 921.886 921.886 921.886 921.886 921.886 921.886 921.886 
921.886 899.623 899.623 899.623 899.623 899.623 899.623 899.623 899.623 899.623 
899.623 899.623 899.623 899.623 899.623 899.623 899.623 899.623 899.623 899.623 
899.623 899.623 899.623 899.623 899.623 899.623 899.623 899.623 899.623 899.623 
899.623 899.623 899.623 899.623 899.623 899.623 899.623 899.623 899.623 899.623 
899.623 899.623 899.623 899.623 899.623 942.304 942.304 942.304 942.304 942.304 
942.304 942.304 942.304 942.304 942.304 942.304 942.304 942.304 942.304 942.304 
942.304 942.304 942.304 942.304 942.304 942.304 942.304 942.304 942.304 942.304 
942.304 942.304 942.304 942.304 942.304 942.304 942.304 942.304 942.304 942.304 
942.304 942.304 942.304 942.304 942.304 942.304 942.304 942.304 942.304 942.305 
942.305 942.305 942.305 942.305 942.305 942.305 942.305 942.305 942.305 942.305 
942.305 942.305 942.305 942.305 942.305 942.305 942.305 942.305 942.305 942.305 
942.305 942.305 942.305 942.305 942.305 942.305 942.305 942.305 942.305 942.305 
942.305 942.305 942.305 942.305 942.305 942.305 942.305 942.305 942.305 942.305 
942.305 942.305 942.305 994.888 994.888 994.888 994.888 994.888 994.888 994.888 
994.888 994.888 994.888 994.888 994.888 994.888 994.888 994.888 994.888 994.888 
994.888 994.888 994.888 994.888 994.888 994.888 994.888 994.888 994.888 994.888 
994.888 994.888 994.888 994.888 994.888 994.888 994.888 994.888 994.888 994.888 
994.888 994.888 994.888 994.888 994.888 994.888 994.888 
