# vtk DataFile Version 2.0
vtkObjects
ASCII
DATASET UNSTRUCTURED_GRID
POINTS 600 float
-800.008 0 -1600
-799.992 0 -1600
-800.008 200.533 -1587.38
-799.992 200.533 -1587.38
-800.008 397.904 -1549.73
-799.992 397.904 -1549.73
-800.008 588.999 -1487.64
-799.992 588.999 -1487.64
-800.008 770.806 -1402.09
-799.992 770.806 -1402.09
-800.008 940.456 -1294.43
-799.992 940.456 -1294.43
-800.008 1095.28 -1166.35
-799.992 1095.28 -1166.35
-800.008 1232.82 -1019.88
-799.992 1232.82 -1019.88
-800.008 1350.92 -857.323
-799.992 1350.92 -857.323
-800.008 1447.72 -681.247
-799.992 1447.72 -681.247
-800.008 1521.69 -494.427
-799.992 1521.69 -494.427
-800.008 1571.66 -299.81
-799.992 1571.66 -299.81
-800.008 1596.84 -100.465
-799.992 1596.84 -100.465
-800.008 1596.84 100.465
-799.992 1596.84 100.465
-800.008 1571.66 299.81
-799.992 1571.66 299.81
-800.008 1521.69 494.427
-799.992 1521.69 494.427
-800.008 1447.72 681.247
-799.992 1447.72 681.247
-800.008 1350.92 857.323
-799.992 1350.92 857.323
-800.008 1232.82 1019.88
-799.992 1232.82 1019.88
-800.008 1095.28 1166.35
-799.992 1095.28 1166.35
-800.008 940.456 1294.43
-799.992 940.456 1294.43
-800.008 770.806 1402.09
-799.992 770.806 1402.09
-800.008 588.999 1487.64
-799.992 588.999 1487.64
-800.008 397.904 1549.73
-799.992 397.904 1549.73
-800.008 200.533 1587.38
-799.992 200.533 1587.38
-800.008 -5.14599e-13 1600
-799.992 -5.14599e-13 1600
-800.008 -200.533 1587.38
-799.992 -200.533 1587.38
-800.008 -397.904 1549.73
-799.992 -397.904 1549.73
-800.008 -588.999 1487.64
-799.992 -588.999 1487.64
-800.008 -770.806 1402.09
-799.992 -770.806 1402.09
-800.008 -940.456 1294.43
-799.992 -940.456 1294.43
-800.008 -1095.28 1166.35
-799.992 -1095.28 1166.35
-800.008 -1232.82 1019.88
-799.992 -1232.82 1019.88
-800.008 -1350.92 857.323
-799.992 -1350.92 857.323
-800.008 -1447.72 681.247
-799.992 -1447.72 681.247
-800.008 -1521.69 494.427
-799.992 -1521.69 494.427
-800.008 -1571.66 299.81
-799.992 -1571.66 299.81
-800.008 -1596.84 100.465
-799.992 -1596.84 100.465
-800.008 -1596.84 -100.465
-799.992 -1596.84 -100.465
-800.008 -1571.66 -299.81
-799.992 -1571.66 -299.81
-800.008 -1521.69 -494.427
-799.992 -1521.69 -494.427
-800.008 -1447.72 -681.247
-799.992 -1447.72 -681.247
-800.008 -1350.92 -857.323
-799.992 -1350.92 -857.323
-800.008 -1232.82 -1019.88
-799.992 -1232.82 -1019.88
-800.008 -1095.28 -1166.35
-799.992 -1095.28 -1166.35
-800.008 -940.456 -1294.43
-799.992 -940.456 -1294.43
-800.008 -770.806 -1402.09
-799.992 -770.806 -1402.09
-800.008 -588.999 -1487.64
-799.992 -588.999 -1487.64
-800.008 -397.904 -1549.73
-799.992 -397.904 -1549.73
-800.008 -200.533 -1587.38
-799.992 -200.533 -1587.38
799.992 0 -1600
800.008 0 -1600
799.992 200.533 -1587.38
800.008 200.533 -1587.38
799.992 397.904 -1549.73
800.008 397.904 -1549.73
799.992 588.999 -1487.64
800.008 588.999 -1487.64
799.992 770.806 -1402.09
800.008 770.806 -1402.09
799.992 940.456 -1294.43
800.008 940.456 -1294.43
799.992 1095.28 -1166.35
800.008 1095.28 -1166.35
799.992 1232.82 -1019.88
800.008 1232.82 -1019.88
799.992 1350.92 -857.323
800.008 1350.92 -857.323
799.992 1447.72 -681.247
800.008 1447.72 -681.247
799.992 1521.69 -494.427
800.008 1521.69 -494.427
799.992 1571.66 -299.81
800.008 1571.66 -299.81
799.992 1596.84 -100.465
800.008 1596.84 -100.465
799.992 1596.84 100.465
800.008 1596.84 100.465
799.992 1571.66 299.81
800.008 1571.66 299.81
799.992 1521.69 494.427
800.008 1521.69 494.427
799.992 1447.72 681.247
800.008 1447.72 681.247
799.992 1350.92 857.323
800.008 1350.92 857.323
799.992 1232.82 1019.88
800.008 1232.82 1019.88
799.992 1095.28 1166.35
800.008 1095.28 1166.35
799.992 940.456 1294.43
800.008 940.456 1294.43
799.992 770.806 1402.09
800.008 770.806 1402.09
799.992 588.999 1487.64
800.008 588.999 1487.64
799.992 397.904 1549.73
800.008 397.904 1549.73
799.992 200.533 1587.38
800.008 200.533 1587.38
799.992 -5.14599e-13 1600
800.008 -5.14599e-13 1600
799.992 -200.533 1587.38
800.008 -200.533 1587.38
799.992 -397.904 1549.73
800.008 -397.904 1549.73
799.992 -588.999 1487.64
800.008 -588.999 1487.64
799.992 -770.806 1402.09
800.008 -770.806 1402.09
799.992 -940.456 1294.43
800.008 -940.456 1294.43
799.992 -1095.28 1166.35
800.008 -1095.28 1166.35
799.992 -1232.82 1019.88
800.008 -1232.82 1019.88
799.992 -1350.92 857.323
800.008 -1350.92 857.323
799.992 -1447.72 681.247
800.008 -1447.72 681.247
799.992 -1521.69 494.427
800.008 -1521.69 494.427
799.992 -1571.66 299.81
800.008 -1571.66 299.81
799.992 -1596.84 100.465
800.008 -1596.84 100.465
799.992 -1596.84 -100.465
800.008 -1596.84 -100.465
799.992 -1571.66 -299.81
800.008 -1571.66 -299.81
799.992 -1521.69 -494.427
800.008 -1521.69 -494.427
799.992 -1447.72 -681.247
800.008 -1447.72 -681.247
799.992 -1350.92 -857.323
800.008 -1350.92 -857.323
799.992 -1232.82 -1019.88
800.008 -1232.82 -1019.88
799.992 -1095.28 -1166.35
800.008 -1095.28 -1166.35
799.992 -940.456 -1294.43
800.008 -940.456 -1294.43
799.992 -770.806 -1402.09
800.008 -770.806 -1402.09
799.992 -588.999 -1487.64
800.008 -588.999 -1487.64
799.992 -397.904 -1549.73
800.008 -397.904 -1549.73
799.992 -200.533 -1587.38
800.008 -200.533 -1587.38
0 -799.992 -1600
0 -800.008 -1600
200.533 -799.992 -1587.38
200.533 -800.008 -1587.38
397.904 -799.992 -1549.73
397.904 -800.008 -1549.73
588.999 -799.992 -1487.64
588.999 -800.008 -1487.64
770.806 -799.992 -1402.09
770.806 -800.008 -1402.09
940.456 -799.992 -1294.43
940.456 -800.008 -1294.43
1095.28 -799.992 -1166.35
1095.28 -800.008 -1166.35
1232.82 -799.992 -1019.88
1232.82 -800.008 -1019.88
1350.92 -799.992 -857.323
1350.92 -800.008 -857.323
1447.72 -799.992 -681.247
1447.72 -800.008 -681.247
1521.69 -799.992 -494.427
1521.69 -800.008 -494.427
1571.66 -799.992 -299.81
1571.66 -800.008 -299.81
1596.84 -799.992 -100.465
1596.84 -800.008 -100.465
1596.84 -799.992 100.465
1596.84 -800.008 100.465
1571.66 -799.992 299.81
1571.66 -800.008 299.81
1521.69 -799.992 494.427
1521.69 -800.008 494.427
1447.72 -799.992 681.247
1447.72 -800.008 681.247
1350.92 -799.992 857.323
1350.92 -800.008 857.323
1232.82 -799.992 1019.88
1232.82 -800.008 1019.88
1095.28 -799.992 1166.35
1095.28 -800.008 1166.35
940.456 -799.992 1294.43
940.456 -800.008 1294.43
770.806 -799.992 1402.09
770.806 -800.008 1402.09
588.999 -799.992 1487.64
588.999 -800.008 1487.64
397.904 -799.992 1549.73
397.904 -800.008 1549.73
200.533 -799.992 1587.38
200.533 -800.008 1587.38
-5.14599e-13 -799.992 1600
-5.14599e-13 -800.008 1600
-200.533 -799.992 1587.38
-200.533 -800.008 1587.38
-397.904 -799.992 1549.73
-397.904 -800.008 1549.73
-588.999 -799.992 1487.64
-588.999 -800.008 1487.64
-770.806 -799.992 1402.09
-770.806 -800.008 1402.09
-940.456 -799.992 1294.43
-940.456 -800.008 1294.43
-1095.28 -799.992 1166.35
-1095.28 -800.008 1166.35
-1232.82 -799.992 1019.88
-1232.82 -800.008 1019.88
-1350.92 -799.992 857.323
-1350.92 -800.008 857.323
-1447.72 -799.992 681.247
-1447.72 -800.008 681.247
-1521.69 -799.992 494.427
-1521.69 -800.008 494.427
-1571.66 -799.992 299.81
-1571.66 -800.008 299.81
-1596.84 -799.992 100.465
-1596.84 -800.008 100.465
-1596.84 -799.992 -100.465
-1596.84 -800.008 -100.465
-1571.66 -799.992 -299.81
-1571.66 -800.008 -299.81
-1521.69 -799.992 -494.427
-1521.69 -800.008 -494.427
-1447.72 -799.992 -681.247
-1447.72 -800.008 -681.247
-1350.92 -799.992 -857.323
-1350.92 -800.008 -857.323
-1232.82 -799.992 -1019.88
-1232.82 -800.008 -1019.88
-1095.28 -799.992 -1166.35
-1095.28 -800.008 -1166.35
-940.456 -799.992 -1294.43
-940.456 -800.008 -1294.43
-770.806 -799.992 -1402.09
-770.806 -800.008 -1402.09
-588.999 -799.992 -1487.64
-588.999 -800.008 -1487.64
-397.904 -799.992 -1549.73
-397.904 -800.008 -1549.73
-200.533 -799.992 -1587.38
-200.533 -800.008 -1587.38
0 800.008 -1600
0 799.992 -1600
200.533 800.008 -1587.38
200.533 799.992 -1587.38
397.904 800.008 -1549.73
397.904 799.992 -1549.73
588.999 800.008 -1487.64
588.999 799.992 -1487.64
770.806 800.008 -1402.09
770.806 799.992 -1402.09
940.456 800.008 -1294.43
940.456 799.992 -1294.43
1095.28 800.008 -1166.35
1095.28 799.992 -1166.35
1232.82 800.008 -1019.88
1232.82 799.992 -1019.88
1350.92 800.008 -857.323
1350.92 799.992 -857.323
1447.72 800.008 -681.247
1447.72 799.992 -681.247
1521.69 800.008 -494.427
1521.69 799.992 -494.427
1571.66 800.008 -299.81
1571.66 799.992 -299.81
1596.84 800.008 -100.465
1596.84 799.992 -100.465
1596.84 800.008 100.465
1596.84 799.992 100.465
1571.66 800.008 299.81
1571.66 799.992 299.81
1521.69 800.008 494.427
1521.69 799.992 494.427
1447.72 800.008 681.247
1447.72 799.992 681.247
1350.92 800.008 857.323
1350.92 799.992 857.323
1232.82 800.008 1019.88
1232.82 799.992 1019.88
1095.28 800.008 1166.35
1095.28 799.992 1166.35
940.456 800.008 1294.43
940.456 799.992 1294.43
770.806 800.008 1402.09
770.806 799.992 1402.09
588.999 800.008 1487.64
588.999 799.992 1487.64
397.904 800.008 1549.73
397.904 799.992 1549.73
200.533 800.008 1587.38
200.533 799.992 1587.38
-5.14599e-13 800.008 1600
-5.14599e-13 799.992 1600
-200.533 800.008 1587.38
-200.533 799.992 1587.38
-397.904 800.008 1549.73
-397.904 799.992 1549.73
-588.999 800.008 1487.64
-588.999 799.992 1487.64
-770.806 800.008 1402.09
-770.806 799.992 1402.09
-940.456 800.008 1294.43
-940.456 799.992 1294.43
-1095.28 800.008 1166.35
-1095.28 799.992 1166.35
-1232.82 800.008 1019.88
-1232.82 799.992 1019.88
-1350.92 800.008 857.323
-1350.92 799.992 857.323
-1447.72 800.008 681.247
-1447.72 799.992 681.247
-1521.69 800.008 494.427
-1521.69 799.992 494.427
-1571.66 800.008 299.81
-1571.66 799.992 299.81
-1596.84 800.008 100.465
-1596.84 799.992 100.465
-1596.84 800.008 -100.465
-1596.84 799.992 -100.465
-1571.66 800.008 -299.81
-1571.66 799.992 -299.81
-1521.69 800.008 -494.427
-1521.69 799.992 -494.427
-1447.72 800.008 -681.247
-1447.72 799.992 -681.247
-1350.92 800.008 -857.323
-1350.92 799.992 -857.323
-1232.82 800.008 -1019.88
-1232.82 799.992 -1019.88
-1095.28 800.008 -1166.35
-1095.28 799.992 -1166.35
-940.456 800.008 -1294.43
-940.456 799.992 -1294.43
-770.806 800.008 -1402.09
-770.806 799.992 -1402.09
-588.999 800.008 -1487.64
-588.999 799.992 -1487.64
-397.904 800.008 -1549.73
-397.904 799.992 -1549.73
-200.533 800.008 -1587.38
-200.533 799.992 -1587.38
1600 0 -800.008
1600 0 -799.992
1587.38 200.533 -800.008
1587.38 200.533 -799.992
1549.73 397.904 -800.008
1549.73 397.904 -799.992
1487.64 588.999 -800.008
1487.64 588.999 -799.992
1402.09 770.806 -800.008
1402.09 770.806 -799.992
1294.43 940.456 -800.008
1294.43 940.456 -799.992
1166.35 1095.28 -800.008
1166.35 1095.28 -799.992
1019.88 1232.82 -800.008
1019.88 1232.82 -799.992
857.323 1350.92 -800.008
857.323 1350.92 -799.992
681.247 1447.72 -800.008
681.247 1447.72 -799.992
494.427 1521.69 -800.008
494.427 1521.69 -799.992
299.81 1571.66 -800.008
299.81 1571.66 -799.992
100.465 1596.84 -800.008
100.465 1596.84 -799.992
-100.465 1596.84 -800.008
-100.465 1596.84 -799.992
-299.81 1571.66 -800.008
-299.81 1571.66 -799.992
-494.427 1521.69 -800.008
-494.427 1521.69 -799.992
-681.247 1447.72 -800.008
-681.247 1447.72 -799.992
-857.323 1350.92 -800.008
-857.323 1350.92 -799.992
-1019.88 1232.82 -800.008
-1019.88 1232.82 -799.992
-1166.35 1095.28 -800.008
-1166.35 1095.28 -799.992
-1294.43 940.456 -800.008
-1294.43 940.456 -799.992
-1402.09 770.806 -800.008
-1402.09 770.806 -799.992
-1487.64 588.999 -800.008
-1487.64 588.999 -799.992
-1549.73 397.904 -800.008
-1549.73 397.904 -799.992
-1587.38 200.533 -800.008
-1587.38 200.533 -799.992
-1600 -5.14599e-13 -800.008
-1600 -5.14599e-13 -799.992
-1587.38 -200.533 -800.008
-1587.38 -200.533 -799.992
-1549.73 -397.904 -800.008
-1549.73 -397.904 -799.992
-1487.64 -588.999 -800.008
-1487.64 -588.999 -799.992
-1402.09 -770.806 -800.008
-1402.09 -770.806 -799.992
-1294.43 -940.456 -800.008
-1294.43 -940.456 -799.992
-1166.35 -1095.28 -800.008
-1166.35 -1095.28 -799.992
-1019.88 -1232.82 -800.008
-1019.88 -1232.82 -799.992
-857.323 -1350.92 -800.008
-857.323 -1350.92 -799.992
-681.247 -1447.72 -800.008
-681.247 -1447.72 -799.992
-494.427 -1521.69 -800.008
-494.427 -1521.69 -799.992
-299.81 -1571.66 -800.008
-299.81 -1571.66 -799.992
-100.465 -1596.84 -800.008
-100.465 -1596.84 -799.992
100.465 -1596.84 -800.008
100.465 -1596.84 -799.992
299.81 -1571.66 -800.008
299.81 -1571.66 -799.992
494.427 -1521.69 -800.008
494.427 -1521.69 -799.992
681.247 -1447.72 -800.008
681.247 -1447.72 -799.992
857.323 -1350.92 -800.008
857.323 -1350.92 -799.992
1019.88 -1232.82 -800.008
1019.88 -1232.82 -799.992
1166.35 -1095.28 -800.008
1166.35 -1095.28 -799.992
1294.43 -940.456 -800.008
1294.43 -940.456 -799.992
1402.09 -770.806 -800.008
1402.09 -770.806 -799.992
1487.64 -588.999 -800.008
1487.64 -588.999 -799.992
1549.73 -397.904 -800.008
1549.73 -397.904 -799.992
1587.38 -200.533 -800.008
1587.38 -200.533 -799.992
1600 0 799.992
1600 0 800.008
1587.38 200.533 799.992
1587.38 200.533 800.008
1549.73 397.904 799.992
1549.73 397.904 800.008
1487.64 588.999 799.992
1487.64 588.999 800.008
1402.09 770.806 799.992
1402.09 770.806 800.008
1294.43 940.456 799.992
1294.43 940.456 800.008
1166.35 1095.28 799.992
1166.35 1095.28 800.008
1019.88 1232.82 799.992
1019.88 1232.82 800.008
857.323 1350.92 799.992
857.323 1350.92 800.008
681.247 1447.72 799.992
681.247 1447.72 800.008
494.427 1521.69 799.992
494.427 1521.69 800.008
299.81 1571.66 799.992
299.81 1571.66 800.008
100.465 1596.84 799.992
100.465 1596.84 800.008
-100.465 1596.84 799.992
-100.465 1596.84 800.008
-299.81 1571.66 799.992
-299.81 1571.66 800.008
-494.427 1521.69 799.992
-494.427 1521.69 800.008
-681.247 1447.72 799.992
-681.247 1447.72 800.008
-857.323 1350.92 799.992
-857.323 1350.92 800.008
-1019.88 1232.82 799.992
-1019.88 1232.82 800.008
-1166.35 1095.28 799.992
-1166.35 1095.28 800.008
-1294.43 940.456 799.992
-1294.43 940.456 800.008
-1402.09 770.806 799.992
-1402.09 770.806 800.008
-1487.64 588.999 799.992
-1487.64 588.999 800.008
-1549.73 397.904 799.992
-1549.73 397.904 800.008
-1587.38 200.533 799.992
-1587.38 200.533 800.008
-1600 -5.14599e-13 799.992
-1600 -5.14599e-13 800.008
-1587.38 -200.533 799.992
-1587.38 -200.533 800.008
-1549.73 -397.904 799.992
-1549.73 -397.904 800.008
-1487.64 -588.999 799.992
-1487.64 -588.999 800.008
-1402.09 -770.806 799.992
-1402.09 -770.806 800.008
-1294.43 -940.456 799.992
-1294.43 -940.456 800.008
-1166.35 -1095.28 799.992
-1166.35 -1095.28 800.008
-1019.88 -1232.82 799.992
-1019.88 -1232.82 800.008
-857.323 -1350.92 799.992
-857.323 -1350.92 800.008
-681.247 -1447.72 799.992
-681.247 -1447.72 800.008
-494.427 -1521.69 799.992
-494.427 -1521.69 800.008
-299.81 -1571.66 799.992
-299.81 -1571.66 800.008
-100.465 -1596.84 799.992
-100.465 -1596.84 800.008
100.465 -1596.84 799.992
100.465 -1596.84 800.008
299.81 -1571.66 799.992
299.81 -1571.66 800.008
494.427 -1521.69 799.992
494.427 -1521.69 800.008
681.247 -1447.72 799.992
681.247 -1447.72 800.008
857.323 -1350.92 799.992
857.323 -1350.92 800.008
1019.88 -1232.82 799.992
1019.88 -1232.82 800.008
1166.35 -1095.28 799.992
1166.35 -1095.28 800.008
1294.43 -940.456 799.992
1294.43 -940.456 800.008
1402.09 -770.806 799.992
1402.09 -770.806 800.008
1487.64 -588.999 799.992
1487.64 -588.999 800.008
1549.73 -397.904 799.992
1549.73 -397.904 800.008
1587.38 -200.533 799.992
1587.38 -200.533 800.008
CELLS 1176 4704
3 1 2 0
3 1 2 3
3 98 1 99
3 98 1 0
3 88 91 89
3 88 91 90
3 9 10 8
3 9 10 11
3 9 8 6
3 9 7 6
3 87 88 86
3 87 88 89
3 39 38 36
3 39 36 37
3 39 40 38
3 39 40 41
3 43 44 42
3 43 44 45
3 43 40 42
3 43 40 41
3 35 34 36
3 35 36 37
3 35 34 32
3 35 33 32
3 25 26 24
3 25 26 27
3 25 22 24
3 25 22 23
3 21 20 18
3 21 18 19
3 21 22 20
3 21 22 23
3 17 16 18
3 17 18 19
3 17 16 14
3 17 15 14
3 13 10 12
3 13 10 11
3 13 14 12
3 13 15 14
3 5 2 3
3 5 4 2
3 5 7 6
3 5 4 6
3 57 54 56
3 57 54 55
3 57 58 56
3 57 58 59
3 96 98 99
3 96 97 99
3 96 97 95
3 96 94 95
3 81 82 80
3 81 82 83
3 84 87 86
3 84 87 85
3 84 85 83
3 84 82 83
3 48 49 51
3 48 51 50
3 47 44 46
3 47 44 45
3 47 48 46
3 47 48 49
3 31 32 30
3 31 33 32
3 52 53 51
3 52 51 50
3 52 53 55
3 52 54 55
3 63 64 62
3 63 64 65
3 60 63 61
3 60 63 62
3 60 58 59
3 60 61 59
3 92 91 90
3 92 93 91
3 92 94 95
3 92 93 95
3 78 81 79
3 78 81 80
3 77 76 74
3 77 74 75
3 77 78 76
3 77 78 79
3 29 28 26
3 29 26 27
3 29 28 30
3 29 31 30
3 73 72 74
3 73 74 75
3 67 66 64
3 67 64 65
3 67 66 68
3 67 69 68
3 70 84 86
3 70 2 0
3 70 34 36
3 70 16 18
3 70 96 98
3 70 14 12
3 70 88 86
3 70 4 6
3 70 38 36
3 70 28 30
3 70 48 50
3 70 10 12
3 70 98 0
3 70 44 42
3 70 32 30
3 70 20 18
3 70 26 24
3 70 8 6
3 70 64 62
3 70 52 50
3 70 88 90
3 70 60 62
3 70 76 74
3 70 34 32
3 70 40 42
3 70 16 14
3 70 10 8
3 70 4 2
3 70 54 56
3 70 22 24
3 70 66 68
3 70 82 80
3 70 44 46
3 70 40 38
3 70 28 26
3 70 22 20
3 70 72 74
3 70 58 56
3 70 96 94
3 70 92 90
3 70 84 82
3 70 48 46
3 70 52 54
3 70 78 80
3 70 66 64
3 70 60 58
3 70 92 94
3 70 78 76
3 71 81 83
3 71 13 11
3 71 53 55
3 71 5 3
3 71 87 89
3 71 1 3
3 71 25 27
3 71 29 27
3 71 91 89
3 71 97 95
3 71 43 45
3 71 21 19
3 71 9 11
3 71 1 99
3 71 77 75
3 71 85 83
3 71 63 65
3 71 39 37
3 71 47 45
3 71 35 37
3 71 17 19
3 71 9 7
3 71 57 55
3 71 97 99
3 71 87 85
3 71 93 95
3 71 49 51
3 71 39 41
3 71 43 41
3 71 35 33
3 71 25 23
3 71 21 23
3 71 17 15
3 71 13 15
3 71 5 7
3 71 53 51
3 71 73 75
3 71 57 59
3 71 61 59
3 71 93 91
3 71 81 79
3 71 47 49
3 71 31 33
3 71 63 61
3 71 77 79
3 71 29 31
3 71 67 65
3 71 67 69
3 71 69 68
3 71 70 68
3 71 73 72
3 71 70 72
3 101 102 100
3 101 102 103
3 198 101 199
3 198 101 100
3 188 191 189
3 188 191 190
3 109 110 108
3 109 110 111
3 109 108 106
3 109 107 106
3 187 188 186
3 187 188 189
3 139 138 136
3 139 136 137
3 139 140 138
3 139 140 141
3 143 144 142
3 143 144 145
3 143 140 142
3 143 140 141
3 135 134 136
3 135 136 137
3 135 134 132
3 135 133 132
3 125 126 124
3 125 126 127
3 125 122 124
3 125 122 123
3 121 120 118
3 121 118 119
3 121 122 120
3 121 122 123
3 117 116 118
3 117 118 119
3 117 116 114
3 117 115 114
3 113 110 112
3 113 110 111
3 113 114 112
3 113 115 114
3 105 102 103
3 105 104 102
3 105 107 106
3 105 104 106
3 157 154 156
3 157 154 155
3 157 158 156
3 157 158 159
3 196 198 199
3 196 197 199
3 196 197 195
3 196 194 195
3 181 182 180
3 181 182 183
3 184 187 186
3 184 187 185
3 184 185 183
3 184 182 183
3 148 149 151
3 148 151 150
3 147 144 146
3 147 144 145
3 147 148 146
3 147 148 149
3 131 132 130
3 131 133 132
3 152 153 151
3 152 151 150
3 152 153 155
3 152 154 155
3 163 164 162
3 163 164 165
3 160 163 161
3 160 163 162
3 160 158 159
3 160 161 159
3 192 191 190
3 192 193 191
3 192 194 195
3 192 193 195
3 178 181 179
3 178 181 180
3 177 176 174
3 177 174 175
3 177 178 176
3 177 178 179
3 129 128 126
3 129 126 127
3 129 128 130
3 129 131 130
3 173 172 174
3 173 174 175
3 167 166 164
3 167 164 165
3 167 166 168
3 167 169 168
3 170 184 186
3 170 102 100
3 170 134 136
3 170 116 118
3 170 196 198
3 170 114 112
3 170 188 186
3 170 104 106
3 170 138 136
3 170 128 130
3 170 148 150
3 170 110 112
3 170 198 100
3 170 144 142
3 170 132 130
3 170 120 118
3 170 126 124
3 170 108 106
3 170 164 162
3 170 152 150
3 170 188 190
3 170 160 162
3 170 176 174
3 170 134 132
3 170 140 142
3 170 116 114
3 170 110 108
3 170 104 102
3 170 154 156
3 170 122 124
3 170 166 168
3 170 182 180
3 170 144 146
3 170 140 138
3 170 128 126
3 170 122 120
3 170 172 174
3 170 158 156
3 170 196 194
3 170 192 190
3 170 184 182
3 170 148 146
3 170 152 154
3 170 178 180
3 170 166 164
3 170 160 158
3 170 192 194
3 170 178 176
3 171 181 183
3 171 113 111
3 171 153 155
3 171 105 103
3 171 187 189
3 171 101 103
3 171 125 127
3 171 129 127
3 171 191 189
3 171 197 195
3 171 143 145
3 171 121 119
3 171 109 111
3 171 101 199
3 171 177 175
3 171 185 183
3 171 163 165
3 171 139 137
3 171 147 145
3 171 135 137
3 171 117 119
3 171 109 107
3 171 157 155
3 171 197 199
3 171 187 185
3 171 193 195
3 171 149 151
3 171 139 141
3 171 143 141
3 171 135 133
3 171 125 123
3 171 121 123
3 171 117 115
3 171 113 115
3 171 105 107
3 171 153 151
3 171 173 175
3 171 157 159
3 171 161 159
3 171 193 191
3 171 181 179
3 171 147 149
3 171 131 133
3 171 163 161
3 171 177 179
3 171 129 131
3 171 167 165
3 171 167 169
3 171 169 168
3 171 170 168
3 171 173 172
3 171 170 172
3 201 202 200
3 201 202 203
3 298 201 299
3 298 201 200
3 288 291 289
3 288 291 290
3 209 210 208
3 209 210 211
3 209 208 206
3 209 207 206
3 287 288 286
3 287 288 289
3 239 238 236
3 239 236 237
3 239 240 238
3 239 240 241
3 243 244 242
3 243 244 245
3 243 240 242
3 243 240 241
3 235 234 236
3 235 236 237
3 235 234 232
3 235 233 232
3 225 226 224
3 225 226 227
3 225 222 224
3 225 222 223
3 221 220 218
3 221 218 219
3 221 222 220
3 221 222 223
3 217 216 218
3 217 218 219
3 217 216 214
3 217 215 214
3 213 210 212
3 213 210 211
3 213 214 212
3 213 215 214
3 205 202 203
3 205 204 202
3 205 207 206
3 205 204 206
3 257 254 256
3 257 254 255
3 257 258 256
3 257 258 259
3 296 298 299
3 296 297 299
3 296 297 295
3 296 294 295
3 281 282 280
3 281 282 283
3 284 287 286
3 284 287 285
3 284 285 283
3 284 282 283
3 248 249 251
3 248 251 250
3 247 244 246
3 247 244 245
3 247 248 246
3 247 248 249
3 231 232 230
3 231 233 232
3 252 253 251
3 252 251 250
3 252 253 255
3 252 254 255
3 263 264 262
3 263 264 265
3 260 263 261
3 260 263 262
3 260 258 259
3 260 261 259
3 292 291 290
3 292 293 291
3 292 294 295
3 292 293 295
3 278 281 279
3 278 281 280
3 277 276 274
3 277 274 275
3 277 278 276
3 277 278 279
3 229 228 226
3 229 226 227
3 229 228 230
3 229 231 230
3 273 272 274
3 273 274 275
3 267 266 264
3 267 264 265
3 267 266 268
3 267 269 268
3 270 284 286
3 270 202 200
3 270 234 236
3 270 216 218
3 270 296 298
3 270 214 212
3 270 288 286
3 270 204 206
3 270 238 236
3 270 228 230
3 270 248 250
3 270 210 212
3 270 298 200
3 270 244 242
3 270 232 230
3 270 220 218
3 270 226 224
3 270 208 206
3 270 264 262
3 270 252 250
3 270 288 290
3 270 260 262
3 270 276 274
3 270 234 232
3 270 240 242
3 270 216 214
3 270 210 208
3 270 204 202
3 270 254 256
3 270 222 224
3 270 266 268
3 270 282 280
3 270 244 246
3 270 240 238
3 270 228 226
3 270 222 220
3 270 272 274
3 270 258 256
3 270 296 294
3 270 292 290
3 270 284 282
3 270 248 246
3 270 252 254
3 270 278 280
3 270 266 264
3 270 260 258
3 270 292 294
3 270 278 276
3 271 281 283
3 271 213 211
3 271 253 255
3 271 205 203
3 271 287 289
3 271 201 203
3 271 225 227
3 271 229 227
3 271 291 289
3 271 297 295
3 271 243 245
3 271 221 219
3 271 209 211
3 271 201 299
3 271 277 275
3 271 285 283
3 271 263 265
3 271 239 237
3 271 247 245
3 271 235 237
3 271 217 219
3 271 209 207
3 271 257 255
3 271 297 299
3 271 287 285
3 271 293 295
3 271 249 251
3 271 239 241
3 271 243 241
3 271 235 233
3 271 225 223
3 271 221 223
3 271 217 215
3 271 213 215
3 271 205 207
3 271 253 251
3 271 273 275
3 271 257 259
3 271 261 259
3 271 293 291
3 271 281 279
3 271 247 249
3 271 231 233
3 271 263 261
3 271 277 279
3 271 229 231
3 271 267 265
3 271 267 269
3 271 269 268
3 271 270 268
3 271 273 272
3 271 270 272
3 301 302 300
3 301 302 303
3 398 301 399
3 398 301 300
3 388 391 389
3 388 391 390
3 309 310 308
3 309 310 311
3 309 308 306
3 309 307 306
3 387 388 386
3 387 388 389
3 339 338 336
3 339 336 337
3 339 340 338
3 339 340 341
3 343 344 342
3 343 344 345
3 343 340 342
3 343 340 341
3 335 334 336
3 335 336 337
3 335 334 332
3 335 333 332
3 325 326 324
3 325 326 327
3 325 322 324
3 325 322 323
3 321 320 318
3 321 318 319
3 321 322 320
3 321 322 323
3 317 316 318
3 317 318 319
3 317 316 314
3 317 315 314
3 313 310 312
3 313 310 311
3 313 314 312
3 313 315 314
3 305 302 303
3 305 304 302
3 305 307 306
3 305 304 306
3 357 354 356
3 357 354 355
3 357 358 356
3 357 358 359
3 396 398 399
3 396 397 399
3 396 397 395
3 396 394 395
3 381 382 380
3 381 382 383
3 384 387 386
3 384 387 385
3 384 385 383
3 384 382 383
3 348 349 351
3 348 351 350
3 347 344 346
3 347 344 345
3 347 348 346
3 347 348 349
3 331 332 330
3 331 333 332
3 352 353 351
3 352 351 350
3 352 353 355
3 352 354 355
3 363 364 362
3 363 364 365
3 360 363 361
3 360 363 362
3 360 358 359
3 360 361 359
3 392 391 390
3 392 393 391
3 392 394 395
3 392 393 395
3 378 381 379
3 378 381 380
3 377 376 374
3 377 374 375
3 377 378 376
3 377 378 379
3 329 328 326
3 329 326 327
3 329 328 330
3 329 331 330
3 373 372 374
3 373 374 375
3 367 366 364
3 367 364 365
3 367 366 368
3 367 369 368
3 370 384 386
3 370 302 300
3 370 334 336
3 370 316 318
3 370 396 398
3 370 314 312
3 370 388 386
3 370 304 306
3 370 338 336
3 370 328 330
3 370 348 350
3 370 310 312
3 370 398 300
3 370 344 342
3 370 332 330
3 370 320 318
3 370 326 324
3 370 308 306
3 370 364 362
3 370 352 350
3 370 388 390
3 370 360 362
3 370 376 374
3 370 334 332
3 370 340 342
3 370 316 314
3 370 310 308
3 370 304 302
3 370 354 356
3 370 322 324
3 370 366 368
3 370 382 380
3 370 344 346
3 370 340 338
3 370 328 326
3 370 322 320
3 370 372 374
3 370 358 356
3 370 396 394
3 370 392 390
3 370 384 382
3 370 348 346
3 370 352 354
3 370 378 380
3 370 366 364
3 370 360 358
3 370 392 394
3 370 378 376
3 371 381 383
3 371 313 311
3 371 353 355
3 371 305 303
3 371 387 389
3 371 301 303
3 371 325 327
3 371 329 327
3 371 391 389
3 371 397 395
3 371 343 345
3 371 321 319
3 371 309 311
3 371 301 399
3 371 377 375
3 371 385 383
3 371 363 365
3 371 339 337
3 371 347 345
3 371 335 337
3 371 317 319
3 371 309 307
3 371 357 355
3 371 397 399
3 371 387 385
3 371 393 395
3 371 349 351
3 371 339 341
3 371 343 341
3 371 335 333
3 371 325 323
3 371 321 323
3 371 317 315
3 371 313 315
3 371 305 307
3 371 353 351
3 371 373 375
3 371 357 359
3 371 361 359
3 371 393 391
3 371 381 379
3 371 347 349
3 371 331 333
3 371 363 361
3 371 377 379
3 371 329 331
3 371 367 365
3 371 367 369
3 371 369 368
3 371 370 368
3 371 373 372
3 371 370 372
3 401 402 400
3 401 402 403
3 498 401 499
3 498 401 400
3 488 491 489
3 488 491 490
3 409 410 408
3 409 410 411
3 409 408 406
3 409 407 406
3 487 488 486
3 487 488 489
3 439 438 436
3 439 436 437
3 439 440 438
3 439 440 441
3 443 444 442
3 443 444 445
3 443 440 442
3 443 440 441
3 435 434 436
3 435 436 437
3 435 434 432
3 435 433 432
3 425 426 424
3 425 426 427
3 425 422 424
3 425 422 423
3 421 420 418
3 421 418 419
3 421 422 420
3 421 422 423
3 417 416 418
3 417 418 419
3 417 416 414
3 417 415 414
3 413 410 412
3 413 410 411
3 413 414 412
3 413 415 414
3 405 402 403
3 405 404 402
3 405 407 406
3 405 404 406
3 457 454 456
3 457 454 455
3 457 458 456
3 457 458 459
3 496 498 499
3 496 497 499
3 496 497 495
3 496 494 495
3 481 482 480
3 481 482 483
3 484 487 486
3 484 487 485
3 484 485 483
3 484 482 483
3 448 449 451
3 448 451 450
3 447 444 446
3 447 444 445
3 447 448 446
3 447 448 449
3 431 432 430
3 431 433 432
3 452 453 451
3 452 451 450
3 452 453 455
3 452 454 455
3 463 464 462
3 463 464 465
3 460 463 461
3 460 463 462
3 460 458 459
3 460 461 459
3 492 491 490
3 492 493 491
3 492 494 495
3 492 493 495
3 478 481 479
3 478 481 480
3 477 476 474
3 477 474 475
3 477 478 476
3 477 478 479
3 429 428 426
3 429 426 427
3 429 428 430
3 429 431 430
3 473 472 474
3 473 474 475
3 467 466 464
3 467 464 465
3 467 466 468
3 467 469 468
3 470 484 486
3 470 402 400
3 470 434 436
3 470 416 418
3 470 496 498
3 470 414 412
3 470 488 486
3 470 404 406
3 470 438 436
3 470 428 430
3 470 448 450
3 470 410 412
3 470 498 400
3 470 444 442
3 470 432 430
3 470 420 418
3 470 426 424
3 470 408 406
3 470 464 462
3 470 452 450
3 470 488 490
3 470 460 462
3 470 476 474
3 470 434 432
3 470 440 442
3 470 416 414
3 470 410 408
3 470 404 402
3 470 454 456
3 470 422 424
3 470 466 468
3 470 482 480
3 470 444 446
3 470 440 438
3 470 428 426
3 470 422 420
3 470 472 474
3 470 458 456
3 470 496 494
3 470 492 490
3 470 484 482
3 470 448 446
3 470 452 454
3 470 478 480
3 470 466 464
3 470 460 458
3 470 492 494
3 470 478 476
3 471 481 483
3 471 413 411
3 471 453 455
3 471 405 403
3 471 487 489
3 471 401 403
3 471 425 427
3 471 429 427
3 471 491 489
3 471 497 495
3 471 443 445
3 471 421 419
3 471 409 411
3 471 401 499
3 471 477 475
3 471 485 483
3 471 463 465
3 471 439 437
3 471 447 445
3 471 435 437
3 471 417 419
3 471 409 407
3 471 457 455
3 471 497 499
3 471 487 485
3 471 493 495
3 471 449 451
3 471 439 441
3 471 443 441
3 471 435 433
3 471 425 423
3 471 421 423
3 471 417 415
3 471 413 415
3 471 405 407
3 471 453 451
3 471 473 475
3 471 457 459
3 471 461 459
3 471 493 491
3 471 481 479
3 471 447 449
3 471 431 433
3 471 463 461
3 471 477 479
3 471 429 431
3 471 467 465
3 471 467 469
3 471 469 468
3 471 470 468
3 471 473 472
3 471 470 472
3 501 502 500
3 501 502 503
3 598 501 599
3 598 501 500
3 588 591 589
3 588 591 590
3 509 510 508
3 509 510 511
3 509 508 506
3 509 507 506
3 587 588 586
3 587 588 589
3 539 538 536
3 539 536 537
3 539 540 538
3 539 540 541
3 543 544 542
3 543 544 545
3 543 540 542
3 543 540 541
3 535 534 536
3 535 536 537
3 535 534 532
3 535 533 532
3 525 526 524
3 525 526 527
3 525 522 524
3 525 522 523
3 521 520 518
3 521 518 519
3 521 522 520
3 521 522 523
3 517 516 518
3 517 518 519
3 517 516 514
3 517 515 514
3 513 510 512
3 513 510 511
3 513 514 512
3 513 515 514
3 505 502 503
3 505 504 502
3 505 507 506
3 505 504 506
3 557 554 556
3 557 554 555
3 557 558 556
3 557 558 559
3 596 598 599
3 596 597 599
3 596 597 595
3 596 594 595
3 581 582 580
3 581 582 583
3 584 587 586
3 584 587 585
3 584 585 583
3 584 582 583
3 548 549 551
3 548 551 550
3 547 544 546
3 547 544 545
3 547 548 546
3 547 548 549
3 531 532 530
3 531 533 532
3 552 553 551
3 552 551 550
3 552 553 555
3 552 554 555
3 563 564 562
3 563 564 565
3 560 563 561
3 560 563 562
3 560 558 559
3 560 561 559
3 592 591 590
3 592 593 591
3 592 594 595
3 592 593 595
3 578 581 579
3 578 581 580
3 577 576 574
3 577 574 575
3 577 578 576
3 577 578 579
3 529 528 526
3 529 526 527
3 529 528 530
3 529 531 530
3 573 572 574
3 573 574 575
3 567 566 564
3 567 564 565
3 567 566 568
3 567 569 568
3 570 584 586
3 570 502 500
3 570 534 536
3 570 516 518
3 570 596 598
3 570 514 512
3 570 588 586
3 570 504 506
3 570 538 536
3 570 528 530
3 570 548 550
3 570 510 512
3 570 598 500
3 570 544 542
3 570 532 530
3 570 520 518
3 570 526 524
3 570 508 506
3 570 564 562
3 570 552 550
3 570 588 590
3 570 560 562
3 570 576 574
3 570 534 532
3 570 540 542
3 570 516 514
3 570 510 508
3 570 504 502
3 570 554 556
3 570 522 524
3 570 566 568
3 570 582 580
3 570 544 546
3 570 540 538
3 570 528 526
3 570 522 520
3 570 572 574
3 570 558 556
3 570 596 594
3 570 592 590
3 570 584 582
3 570 548 546
3 570 552 554
3 570 578 580
3 570 566 564
3 570 560 558
3 570 592 594
3 570 578 576
3 571 581 583
3 571 513 511
3 571 553 555
3 571 505 503
3 571 587 589
3 571 501 503
3 571 525 527
3 571 529 527
3 571 591 589
3 571 597 595
3 571 543 545
3 571 521 519
3 571 509 511
3 571 501 599
3 571 577 575
3 571 585 583
3 571 563 565
3 571 539 537
3 571 547 545
3 571 535 537
3 571 517 519
3 571 509 507
3 571 557 555
3 571 597 599
3 571 587 585
3 571 593 595
3 571 549 551
3 571 539 541
3 571 543 541
3 571 535 533
3 571 525 523
3 571 521 523
3 571 517 515
3 571 513 515
3 571 505 507
3 571 553 551
3 571 573 575
3 571 557 559
3 571 561 559
3 571 593 591
3 571 581 579
3 571 547 549
3 571 531 533
3 571 563 561
3 571 577 579
3 571 529 531
3 571 567 565
3 571 567 569
3 571 569 568
3 571 570 568
3 571 573 572
3 571 570 572
CELL_TYPES 1176
5 5 5 5 5 5 5 5 5 5 
5 5 5 5 5 5 5 5 5 5 
5 5 5 5 5 5 5 5 5 5 
5 5 5 5 5 5 5 5 5 5 
5 5 5 5 5 5 5 5 5 5 
5 5 5 5 5 5 5 5 5 5 
5 5 5 5 5 5 5 5 5 5 
5 5 5 5 5 5 5 5 5 5 
5 5 5 5 5 5 5 5 5 5 
5 5 5 5 5 5 5 5 5 5 
5 5 5 5 5 5 5 5 5 5 
5 5 5 5 5 5 5 5 5 5 
5 5 5 5 5 5 5 5 5 5 
5 5 5 5 5 5 5 5 5 5 
5 5 5 5 5 5 5 5 5 5 
5 5 5 5 5 5 5 5 5 5 
5 5 5 5 5 5 5 5 5 5 
5 5 5 5 5 5 5 5 5 5 
5 5 5 5 5 5 5 5 5 5 
5 5 5 5 5 5 5 5 5 5 
5 5 5 5 5 5 5 5 5 5 
5 5 5 5 5 5 5 5 5 5 
5 5 5 5 5 5 5 5 5 5 
5 5 5 5 5 5 5 5 5 5 
5 5 5 5 5 5 5 5 5 5 
5 5 5 5 5 5 5 5 5 5 
5 5 5 5 5 5 5 5 5 5 
5 5 5 5 5 5 5 5 5 5 
5 5 5 5 5 5 5 5 5 5 
5 5 5 5 5 5 5 5 5 5 
5 5 5 5 5 5 5 5 5 5 
5 5 5 5 5 5 5 5 5 5 
5 5 5 5 5 5 5 5 5 5 
5 5 5 5 5 5 5 5 5 5 
5 5 5 5 5 5 5 5 5 5 
5 5 5 5 5 5 5 5 5 5 
5 5 5 5 5 5 5 5 5 5 
5 5 5 5 5 5 5 5 5 5 
5 5 5 5 5 5 5 5 5 5 
5 5 5 5 5 5 5 5 5 5 
5 5 5 5 5 5 5 5 5 5 
5 5 5 5 5 5 5 5 5 5 
5 5 5 5 5 5 5 5 5 5 
5 5 5 5 5 5 5 5 5 5 
5 5 5 5 5 5 5 5 5 5 
5 5 5 5 5 5 5 5 5 5 
5 5 5 5 5 5 5 5 5 5 
5 5 5 5 5 5 5 5 5 5 
5 5 5 5 5 5 5 5 5 5 
5 5 5 5 5 5 5 5 5 5 
5 5 5 5 5 5 5 5 5 5 
5 5 5 5 5 5 5 5 5 5 
5 5 5 5 5 5 5 5 5 5 
5 5 5 5 5 5 5 5 5 5 
5 5 5 5 5 5 5 5 5 5 
5 5 5 5 5 5 5 5 5 5 
5 5 5 5 5 5 5 5 5 5 
5 5 5 5 5 5 5 5 5 5 
5 5 5 5 5 5 5 5 5 5 
5 5 5 5 5 5 5 5 5 5 
5 5 5 5 5 5 5 5 5 5 
5 5 5 5 5 5 5 5 5 5 
5 5 5 5 5 5 5 5 5 5 
5 5 5 5 5 5 5 5 5 5 
5 5 5 5 5 5 5 5 5 5 
5 5 5 5 5 5 5 5 5 5 
5 5 5 5 5 5 5 5 5 5 
5 5 5 5 5 5 5 5 5 5 
5 5 5 5 5 5 5 5 5 5 
5 5 5 5 5 5 5 5 5 5 
5 5 5 5 5 5 5 5 5 5 
5 5 5 5 5 5 5 5 5 5 
5 5 5 5 5 5 5 5 5 5 
5 5 5 5 5 5 5 5 5 5 
5 5 5 5 5 5 5 5 5 5 
5 5 5 5 5 5 5 5 5 5 
5 5 5 5 5 5 5 5 5 5 
5 5 5 5 5 5 5 5 5 5 
5 5 5 5 5 5 5 5 5 5 
5 5 5 5 5 5 5 5 5 5 
5 5 5 5 5 5 5 5 5 5 
5 5 5 5 5 5 5 5 5 5 
5 5 5 5 5 5 5 5 5 5 
5 5 5 5 5 5 5 5 5 5 
5 5 5 5 5 5 5 5 5 5 
5 5 5 5 5 5 5 5 5 5 
5 5 5 5 5 5 5 5 5 5 
5 5 5 5 5 5 5 5 5 5 
5 5 5 5 5 5 5 5 5 5 
5 5 5 5 5 5 5 5 5 5 
5 5 5 5 5 5 5 5 5 5 
5 5 5 5 5 5 5 5 5 5 
5 5 5 5 5 5 5 5 5 5 
5 5 5 5 5 5 5 5 5 5 
5 5 5 5 5 5 5 5 5 5 
5 5 5 5 5 5 5 5 5 5 
5 5 5 5 5 5 5 5 5 5 
5 5 5 5 5 5 5 5 5 5 
5 5 5 5 5 5 5 5 5 5 
5 5 5 5 5 5 5 5 5 5 
5 5 5 5 5 5 5 5 5 5 
5 5 5 5 5 5 5 5 5 5 
5 5 5 5 5 5 5 5 5 5 
5 5 5 5 5 5 5 5 5 5 
5 5 5 5 5 5 5 5 5 5 
5 5 5 5 5 5 5 5 5 5 
5 5 5 5 5 5 5 5 5 5 
5 5 5 5 5 5 5 5 5 5 
5 5 5 5 5 5 5 5 5 5 
5 5 5 5 5 5 5 5 5 5 
5 5 5 5 5 5 5 5 5 5 
5 5 5 5 5 5 5 5 5 5 
5 5 5 5 5 5 5 5 5 5 
5 5 5 5 5 5 5 5 5 5 
5 5 5 5 5 5 5 5 5 5 
5 5 5 5 5 5 5 5 5 5 
5 5 5 5 5 5 5 5 5 5 
5 5 5 5 5 5 
CELL_DATA 1176
SCALARS Face_Number float 1
LOOKUP_TABLE default
0 0 0 0 0 0 0 0 0 
0 0 0 0 0 0 0 0 0 0 
0 0 0 0 0 0 0 0 0 0 
0 0 0 0 0 0 0 0 0 0 
0 0 0 0 0 0 0 0 0 0 
0 0 0 0 0 0 0 0 0 0 
0 0 0 0 0 0 0 0 0 0 
0 0 0 0 0 0 0 0 0 0 
0 0 0 0 0 0 0 0 0 0 
0 0 0 0 0 0 0 0 0 0 
0 0 0 0 0 0 0 0 0 0 
0 0 0 0 0 0 0 0 0 0 
0 0 0 0 0 0 0 0 0 0 
0 0 0 0 0 0 0 0 0 0 
0 0 0 0 0 0 0 0 0 0 
0 0 0 0 0 0 0 0 0 0 
0 0 0 0 0 0 0 0 0 0 
0 0 0 0 0 0 0 0 0 0 
0 0 0 0 0 0 0 0 0 0 
0 0 0 0 0 0 0 1 1 1 
1 1 1 1 1 1 1 1 1 1 
1 1 1 1 1 1 1 1 1 1 
1 1 1 1 1 1 1 1 1 1 
1 1 1 1 1 1 1 1 1 1 
1 1 1 1 1 1 1 1 1 1 
1 1 1 1 1 1 1 1 1 1 
1 1 1 1 1 1 1 1 1 1 
1 1 1 1 1 1 1 1 1 1 
1 1 1 1 1 1 1 1 1 1 
1 1 1 1 1 1 1 1 1 1 
1 1 1 1 1 1 1 1 1 1 
1 1 1 1 1 1 1 1 1 1 
1 1 1 1 1 1 1 1 1 1 
1 1 1 1 1 1 1 1 1 1 
1 1 1 1 1 1 1 1 1 1 
1 1 1 1 1 1 1 1 1 1 
1 1 1 1 1 1 1 1 1 1 
1 1 1 1 1 1 1 1 1 1 
1 1 1 1 1 1 1 1 1 1 
1 1 1 2 2 2 2 2 2 2 
2 2 2 2 2 2 2 2 2 2 
2 2 2 2 2 2 2 2 2 2 
2 2 2 2 2 2 2 2 2 2 
2 2 2 2 2 2 2 2 2 2 
2 2 2 2 2 2 2 2 2 2 
2 2 2 2 2 2 2 2 2 2 
2 2 2 2 2 2 2 2 2 2 
2 2 2 2 2 2 2 2 2 2 
2 2 2 2 2 2 2 2 2 2 
2 2 2 2 2 2 2 2 2 2 
2 2 2 2 2 2 2 2 2 2 
2 2 2 2 2 2 2 2 2 2 
2 2 2 2 2 2 2 2 2 2 
2 2 2 2 2 2 2 2 2 2 
2 2 2 2 2 2 2 2 2 2 
2 2 2 2 2 2 2 2 2 2 
2 2 2 2 2 2 2 2 2 2 
2 2 2 2 2 2 2 2 2 2 
2 2 2 2 2 2 2 2 2 3 
3 3 3 3 3 3 3 3 3 3 
3 3 3 3 3 3 3 3 3 3 
3 3 3 3 3 3 3 3 3 3 
3 3 3 3 3 3 3 3 3 3 
3 3 3 3 3 3 3 3 3 3 
3 3 3 3 3 3 3 3 3 3 
3 3 3 3 3 3 3 3 3 3 
3 3 3 3 3 3 3 3 3 3 
3 3 3 3 3 3 3 3 3 3 
3 3 3 3 3 3 3 3 3 3 
3 3 3 3 3 3 3 3 3 3 
3 3 3 3 3 3 3 3 3 3 
3 3 3 3 3 3 3 3 3 3 
3 3 3 3 3 3 3 3 3 3 
3 3 3 3 3 3 3 3 3 3 
3 3 3 3 3 3 3 3 3 3 
3 3 3 3 3 3 3 3 3 3 
3 3 3 3 3 3 3 3 3 3 
3 3 3 3 3 3 3 3 3 3 
3 3 3 3 3 4 4 4 4 4 
4 4 4 4 4 4 4 4 4 4 
4 4 4 4 4 4 4 4 4 4 
4 4 4 4 4 4 4 4 4 4 
4 4 4 4 4 4 4 4 4 4 
4 4 4 4 4 4 4 4 4 4 
4 4 4 4 4 4 4 4 4 4 
4 4 4 4 4 4 4 4 4 4 
4 4 4 4 4 4 4 4 4 4 
4 4 4 4 4 4 4 4 4 4 
4 4 4 4 4 4 4 4 4 4 
4 4 4 4 4 4 4 4 4 4 
4 4 4 4 4 4 4 4 4 4 
4 4 4 4 4 4 4 4 4 4 
4 4 4 4 4 4 4 4 4 4 
4 4 4 4 4 4 4 4 4 4 
4 4 4 4 4 4 4 4 4 4 
4 4 4 4 4 4 4 4 4 4 
4 4 4 4 4 4 4 4 4 4 
4 4 4 4 4 4 4 4 4 4 
4 5 5 5 5 5 5 5 5 5 
5 5 5 5 5 5 5 5 5 5 
5 5 5 5 5 5 5 5 5 5 
5 5 5 5 5 5 5 5 5 5 
5 5 5 5 5 5 5 5 5 5 
5 5 5 5 5 5 5 5 5 5 
5 5 5 5 5 5 5 5 5 5 
5 5 5 5 5 5 5 5 5 5 
5 5 5 5 5 5 5 5 5 5 
5 5 5 5 5 5 5 5 5 5 
5 5 5 5 5 5 5 5 5 5 
5 5 5 5 5 5 5 5 5 5 
5 5 5 5 5 5 5 5 5 5 
5 5 5 5 5 5 5 5 5 5 
5 5 5 5 5 5 5 5 5 5 
5 5 5 5 5 5 5 5 5 5 
5 5 5 5 5 5 5 5 5 5 
5 5 5 5 5 5 5 5 5 5 
5 5 5 5 5 5 5 5 5 5 
5 5 5 5 5 5 5 SCALARS Node_Number float 1
LOOKUP_TABLE default
0 0 0 0 0 0 0 0 0 
0 0 0 0 0 0 0 0 0 0 
0 0 0 0 0 0 0 0 0 0 
0 0 0 0 0 0 0 0 0 0 
0 0 0 0 0 0 0 0 0 0 
0 0 0 0 0 0 0 0 0 0 
0 0 0 0 0 0 0 0 0 0 
0 0 0 0 0 0 0 0 0 0 
0 0 0 0 0 0 0 0 0 0 
0 0 0 0 0 0 0 0 0 0 
0 0 0 0 0 0 0 0 0 0 
0 0 0 0 0 0 0 0 0 0 
0 0 0 0 0 0 0 0 0 0 
0 0 0 0 0 0 0 0 0 0 
0 0 0 0 0 0 0 0 0 0 
0 0 0 0 0 0 0 0 0 0 
0 0 0 0 0 0 0 0 0 0 
0 0 0 0 0 0 0 0 0 0 
0 0 0 0 0 0 0 0 0 0 
0 0 0 0 0 0 0 0 0 0 
0 0 0 0 0 0 0 0 0 0 
0 0 0 0 0 0 0 0 0 0 
0 0 0 0 0 0 0 0 0 0 
0 0 0 0 0 0 0 0 0 0 
0 0 0 0 0 0 0 0 0 0 
0 0 0 0 0 0 0 0 0 0 
0 0 0 0 0 0 0 0 0 0 
0 0 0 0 0 0 0 0 0 0 
0 0 0 0 0 0 0 0 0 0 
0 0 0 0 0 0 0 0 0 0 
0 0 0 0 0 0 0 0 0 0 
0 0 0 0 0 0 0 0 0 0 
0 0 0 0 0 0 0 0 0 0 
0 0 0 0 0 0 0 0 0 0 
0 0 0 0 0 0 0 0 0 0 
0 0 0 0 0 0 0 0 0 0 
0 0 0 0 0 0 0 0 0 0 
0 0 0 0 0 0 0 0 0 0 
0 0 0 0 0 0 0 0 0 0 
0 0 0 -1 -1 -1 -1 -1 -1 -1 
-1 -1 -1 -1 -1 -1 -1 -1 -1 -1 
-1 -1 -1 -1 -1 -1 -1 -1 -1 -1 
-1 -1 -1 -1 -1 -1 -1 -1 -1 -1 
-1 -1 -1 -1 -1 -1 -1 -1 -1 -1 
-1 -1 -1 -1 -1 -1 -1 -1 -1 -1 
-1 -1 -1 -1 -1 -1 -1 -1 -1 -1 
-1 -1 -1 -1 -1 -1 -1 -1 -1 -1 
-1 -1 -1 -1 -1 -1 -1 -1 -1 -1 
-1 -1 -1 -1 -1 -1 -1 -1 -1 -1 
-1 -1 -1 -1 -1 -1 -1 -1 -1 -1 
-1 -1 -1 -1 -1 -1 -1 -1 -1 -1 
-1 -1 -1 -1 -1 -1 -1 -1 -1 -1 
-1 -1 -1 -1 -1 -1 -1 -1 -1 -1 
-1 -1 -1 -1 -1 -1 -1 -1 -1 -1 
-1 -1 -1 -1 -1 -1 -1 -1 -1 -1 
-1 -1 -1 -1 -1 -1 -1 -1 -1 -1 
-1 -1 -1 -1 -1 -1 -1 -1 -1 -1 
-1 -1 -1 -1 -1 -1 -1 -1 -1 -1 
-1 -1 -1 -1 -1 -1 -1 -1 -1 0 
0 0 0 0 0 0 0 0 0 0 
0 0 0 0 0 0 0 0 0 0 
0 0 0 0 0 0 0 0 0 0 
0 0 0 0 0 0 0 0 0 0 
0 0 0 0 0 0 0 0 0 0 
0 0 0 0 0 0 0 0 0 0 
0 0 0 0 0 0 0 0 0 0 
0 0 0 0 0 0 0 0 0 0 
0 0 0 0 0 0 0 0 0 0 
0 0 0 0 0 0 0 0 0 0 
0 0 0 0 0 0 0 0 0 0 
0 0 0 0 0 0 0 0 0 0 
0 0 0 0 0 0 0 0 0 0 
0 0 0 0 0 0 0 0 0 0 
0 0 0 0 0 0 0 0 0 0 
0 0 0 0 0 0 0 0 0 0 
0 0 0 0 0 0 0 0 0 0 
0 0 0 0 0 0 0 0 0 0 
0 0 0 0 0 0 0 0 0 0 
0 0 0 0 0 -1 -1 -1 -1 -1 
-1 -1 -1 -1 -1 -1 -1 -1 -1 -1 
-1 -1 -1 -1 -1 -1 -1 -1 -1 -1 
-1 -1 -1 -1 -1 -1 -1 -1 -1 -1 
-1 -1 -1 -1 -1 -1 -1 -1 -1 -1 
-1 -1 -1 -1 -1 -1 -1 -1 -1 -1 
-1 -1 -1 -1 -1 -1 -1 -1 -1 -1 
-1 -1 -1 -1 -1 -1 -1 -1 -1 -1 
-1 -1 -1 -1 -1 -1 -1 -1 -1 -1 
-1 -1 -1 -1 -1 -1 -1 -1 -1 -1 
-1 -1 -1 -1 -1 -1 -1 -1 -1 -1 
-1 -1 -1 -1 -1 -1 -1 -1 -1 -1 
-1 -1 -1 -1 -1 -1 -1 -1 -1 -1 
-1 -1 -1 -1 -1 -1 -1 -1 -1 -1 
-1 -1 -1 -1 -1 -1 -1 -1 -1 -1 
-1 -1 -1 -1 -1 -1 -1 -1 -1 -1 
-1 -1 -1 -1 -1 -1 -1 -1 -1 -1 
-1 -1 -1 -1 -1 -1 -1 -1 -1 -1 
-1 -1 -1 -1 -1 -1 -1 -1 -1 -1 
-1 -1 -1 -1 -1 -1 -1 -1 -1 -1 
-1 -1 -1 -1 -1 -1 -1 -1 -1 -1 
-1 -1 -1 -1 -1 -1 -1 -1 -1 -1 
-1 -1 -1 -1 -1 -1 -1 -1 -1 -1 
-1 -1 -1 -1 -1 -1 -1 -1 -1 -1 
-1 -1 -1 -1 -1 -1 -1 -1 -1 -1 
-1 -1 -1 -1 -1 -1 -1 -1 -1 -1 
-1 -1 -1 -1 -1 -1 -1 -1 -1 -1 
-1 -1 -1 -1 -1 -1 -1 -1 -1 -1 
-1 -1 -1 -1 -1 -1 -1 -1 -1 -1 
-1 -1 -1 -1 -1 -1 -1 -1 -1 -1 
-1 -1 -1 -1 -1 -1 -1 -1 -1 -1 
-1 -1 -1 -1 -1 -1 -1 -1 -1 -1 
-1 -1 -1 -1 -1 -1 -1 -1 -1 -1 
-1 -1 -1 -1 -1 -1 -1 -1 -1 -1 
-1 -1 -1 -1 -1 -1 -1 -1 -1 -1 
-1 -1 -1 -1 -1 -1 -1 -1 -1 -1 
-1 -1 -1 -1 -1 -1 -1 -1 -1 -1 
-1 -1 -1 -1 -1 -1 -1 -1 -1 -1 
-1 -1 -1 -1 -1 -1 -1 -1 -1 -1 
-1 -1 -1 -1 -1 -1 -1 SCALARS Type float 1
LOOKUP_TABLE default
6 6 6 6 6 6 6 6 6 
6 6 6 6 6 6 6 6 6 6 
6 6 6 6 6 6 6 6 6 6 
6 6 6 6 6 6 6 6 6 6 
6 6 6 6 6 6 6 6 6 6 
6 6 6 6 6 6 6 6 6 6 
6 6 6 6 6 6 6 6 6 6 
6 6 6 6 6 6 6 6 6 6 
6 6 6 6 6 6 6 6 6 6 
6 6 6 6 6 6 6 6 6 6 
6 6 6 6 6 6 6 6 6 6 
6 6 6 6 6 6 6 6 6 6 
6 6 6 6 6 6 6 6 6 6 
6 6 6 6 6 6 6 6 6 6 
6 6 6 6 6 6 6 6 6 6 
6 6 6 6 6 6 6 6 6 6 
6 6 6 6 6 6 6 6 6 6 
6 6 6 6 6 6 6 6 6 6 
6 6 6 6 6 6 6 6 6 6 
6 6 6 6 6 6 6 6 6 6 
6 6 6 6 6 6 6 6 6 6 
6 6 6 6 6 6 6 6 6 6 
6 6 6 6 6 6 6 6 6 6 
6 6 6 6 6 6 6 6 6 6 
6 6 6 6 6 6 6 6 6 6 
6 6 6 6 6 6 6 6 6 6 
6 6 6 6 6 6 6 6 6 6 
6 6 6 6 6 6 6 6 6 6 
6 6 6 6 6 6 6 6 6 6 
6 6 6 6 6 6 6 6 6 6 
6 6 6 6 6 6 6 6 6 6 
6 6 6 6 6 6 6 6 6 6 
6 6 6 6 6 6 6 6 6 6 
6 6 6 6 6 6 6 6 6 6 
6 6 6 6 6 6 6 6 6 6 
6 6 6 6 6 6 6 6 6 6 
6 6 6 6 6 6 6 6 6 6 
6 6 6 6 6 6 6 6 6 6 
6 6 6 6 6 6 6 6 6 6 
6 6 6 6 6 6 6 6 6 6 
6 6 6 6 6 6 6 6 6 6 
6 6 6 6 6 6 6 6 6 6 
6 6 6 6 6 6 6 6 6 6 
6 6 6 6 6 6 6 6 6 6 
6 6 6 6 6 6 6 6 6 6 
6 6 6 6 6 6 6 6 6 6 
6 6 6 6 6 6 6 6 6 6 
6 6 6 6 6 6 6 6 6 6 
6 6 6 6 6 6 6 6 6 6 
6 6 6 6 6 6 6 6 6 6 
6 6 6 6 6 6 6 6 6 6 
6 6 6 6 6 6 6 6 6 6 
6 6 6 6 6 6 6 6 6 6 
6 6 6 6 6 6 6 6 6 6 
6 6 6 6 6 6 6 6 6 6 
6 6 6 6 6 6 6 6 6 6 
6 6 6 6 6 6 6 6 6 6 
6 6 6 6 6 6 6 6 6 6 
6 6 6 6 6 6 6 6 6 6 
6 6 6 6 6 6 6 6 6 6 
6 6 6 6 6 6 6 6 6 6 
6 6 6 6 6 6 6 6 6 6 
6 6 6 6 6 6 6 6 6 6 
6 6 6 6 6 6 6 6 6 6 
6 6 6 6 6 6 6 6 6 6 
6 6 6 6 6 6 6 6 6 6 
6 6 6 6 6 6 6 6 6 6 
6 6 6 6 6 6 6 6 6 6 
6 6 6 6 6 6 6 6 6 6 
6 6 6 6 6 6 6 6 6 6 
6 6 6 6 6 6 6 6 6 6 
6 6 6 6 6 6 6 6 6 6 
6 6 6 6 6 6 6 6 6 6 
6 6 6 6 6 6 6 6 6 6 
6 6 6 6 6 6 6 6 6 6 
6 6 6 6 6 6 6 6 6 6 
6 6 6 6 6 6 6 6 6 6 
6 6 6 6 6 6 6 6 6 6 
6 6 6 6 6 6 6 6 6 6 
6 6 6 6 6 6 6 6 6 6 
6 6 6 6 6 6 6 6 6 6 
6 6 6 6 6 6 6 6 6 6 
6 6 6 6 6 6 6 6 6 6 
6 6 6 6 6 6 6 6 6 6 
6 6 6 6 6 6 6 6 6 6 
6 6 6 6 6 6 6 6 6 6 
6 6 6 6 6 6 6 6 6 6 
6 6 6 6 6 6 6 6 6 6 
6 6 6 6 6 6 6 6 6 6 
6 6 6 6 6 6 6 6 6 6 
6 6 6 6 6 6 6 6 6 6 
6 6 6 6 6 6 6 6 6 6 
6 6 6 6 6 6 6 6 6 6 
6 6 6 6 6 6 6 6 6 6 
6 6 6 6 6 6 6 6 6 6 
6 6 6 6 6 6 6 6 6 6 
6 6 6 6 6 6 6 6 6 6 
6 6 6 6 6 6 6 6 6 6 
6 6 6 6 6 6 6 6 6 6 
6 6 6 6 6 6 6 6 6 6 
6 6 6 6 6 6 6 6 6 6 
6 6 6 6 6 6 6 6 6 6 
6 6 6 6 6 6 6 6 6 6 
6 6 6 6 6 6 6 6 6 6 
6 6 6 6 6 6 6 6 6 6 
6 6 6 6 6 6 6 6 6 6 
6 6 6 6 6 6 6 6 6 6 
6 6 6 6 6 6 6 6 6 6 
6 6 6 6 6 6 6 6 6 6 
6 6 6 6 6 6 6 6 6 6 
6 6 6 6 6 6 6 6 6 6 
6 6 6 6 6 6 6 6 6 6 
6 6 6 6 6 6 6 6 6 6 
6 6 6 6 6 6 6 6 6 6 
6 6 6 6 6 6 6 6 6 6 
6 6 6 6 6 6 6 6 6 6 
6 6 6 6 6 6 6 6 6 6 
6 6 6 6 6 6 6 SCALARS Sn_MPa float 1
LOOKUP_TABLE default
56.2383 56.2383 56.2383 56.2383 56.2383 56.2383 56.2383 56.2383 56.2383 
56.2383 56.2383 56.2383 56.2383 56.2383 56.2383 56.2383 56.2383 56.2383 56.2383 
56.2383 56.2383 56.2383 56.2383 56.2383 56.2383 56.2383 56.2383 56.2383 56.2383 
56.2383 56.2383 56.2383 56.2383 56.2383 56.2383 56.2383 56.2383 56.2383 56.2383 
56.2383 56.2383 56.2383 56.2383 56.2383 56.2383 56.2383 56.2383 56.2383 56.2383 
56.2383 56.2383 56.2383 56.2383 56.2383 56.2383 56.2383 56.2383 56.2383 56.2383 
56.2383 56.2383 56.2383 56.2383 56.2383 56.2383 56.2383 56.2383 56.2383 56.2383 
56.2383 56.2383 56.2383 56.2383 56.2383 56.2383 56.2383 56.2383 56.2383 56.2383 
56.2383 56.2383 56.2383 56.2383 56.2383 56.2383 56.2383 56.2383 56.2383 56.2383 
56.2383 56.2383 56.2383 56.2383 56.2383 56.2383 56.2383 56.2383 56.2383 56.2383 
56.2383 56.2383 56.2383 56.2383 56.2383 56.2383 56.2383 56.2383 56.2383 56.2383 
56.2383 56.2383 56.2383 56.2383 56.2383 56.2383 56.2383 56.2383 56.2383 56.2383 
56.2383 56.2383 56.2383 56.2383 56.2383 56.2383 56.2383 56.2383 56.2383 56.2383 
56.2383 56.2383 56.2383 56.2383 56.2383 56.2383 56.2383 56.2383 56.2383 56.2383 
56.2383 56.2383 56.2383 56.2383 56.2383 56.2383 56.2383 56.2383 56.2383 56.2383 
56.2383 56.2383 56.2383 56.2383 56.2383 56.2383 56.2383 56.2383 56.2383 56.2383 
56.2383 56.2383 56.2383 56.2383 56.2383 56.2383 56.2383 56.2383 56.2383 56.2383 
56.2383 56.2383 56.2383 56.2383 56.2383 56.2383 56.2383 56.2383 56.2383 56.2383 
56.2383 56.2383 56.2383 56.2383 56.2383 56.2383 56.2383 56.2383 56.2383 56.2383 
56.2383 56.2383 56.2383 56.2383 56.2383 56.2383 56.2383 56.2383 56.2383 56.2383 
56.2383 56.2383 56.2383 56.2383 56.2383 56.2383 56.2383 56.2383 56.2383 56.2383 
56.2383 56.2383 56.2383 56.2383 56.2383 56.2383 56.2383 56.2383 56.2383 56.2383 
56.2383 56.2383 56.2383 56.2383 56.2383 56.2383 56.2383 56.2383 56.2383 56.2383 
56.2383 56.2383 56.2383 56.2383 56.2383 56.2383 56.2383 56.2383 56.2383 56.2383 
56.2383 56.2383 56.2383 56.2383 56.2383 56.2383 56.2383 56.2383 56.2383 56.2383 
56.2383 56.2383 56.2383 56.2383 56.2383 56.2383 56.2383 56.2383 56.2383 56.2383 
56.2383 56.2383 56.2383 56.2383 56.2383 56.2383 56.2383 56.2383 56.2383 56.2383 
56.2383 56.2383 56.2383 56.2383 56.2383 56.2383 56.2383 56.2383 56.2383 56.2383 
56.2383 56.2383 56.2383 56.2383 56.2383 56.2383 56.2383 56.2383 56.2383 56.2383 
56.2383 56.2383 56.2383 56.2383 56.2383 56.2383 56.2383 56.2383 56.2383 56.2383 
56.2383 56.2383 56.2383 56.2383 56.2383 56.2383 56.2383 56.2383 56.2383 56.2383 
56.2383 56.2383 56.2383 56.2383 56.2383 56.2383 56.2383 56.2383 56.2383 56.2383 
56.2383 56.2383 56.2383 56.2383 56.2383 56.2383 56.2383 56.2383 56.2383 56.2383 
56.2383 56.2383 56.2383 56.2383 56.2383 56.2383 56.2383 56.2383 56.2383 56.2383 
56.2383 56.2383 56.2383 56.2383 56.2383 56.2383 56.2383 56.2383 56.2383 56.2383 
56.2383 56.2383 56.2383 56.2383 56.2383 56.2383 56.2383 56.2383 56.2383 56.2383 
56.2383 56.2383 56.2383 56.2383 56.2383 56.2383 56.2383 56.2383 56.2383 56.2383 
56.2383 56.2383 56.2383 56.2383 56.2383 56.2383 56.2383 56.2383 56.2383 56.2383 
56.2383 56.2383 56.2383 56.2383 56.2383 56.2383 56.2383 56.2383 56.2383 56.2383 
56.2383 56.2383 56.2383 96.6322 96.6322 96.6322 96.6322 96.6322 96.6322 96.6322 
96.6322 96.6322 96.6322 96.6322 96.6322 96.6322 96.6322 96.6322 96.6322 96.6322 
96.6322 96.6322 96.6322 96.6322 96.6322 96.6322 96.6322 96.6322 96.6322 96.6322 
96.6322 96.6322 96.6322 96.6322 96.6322 96.6322 96.6322 96.6322 96.6322 96.6322 
96.6322 96.6322 96.6322 96.6322 96.6322 96.6322 96.6322 96.6322 96.6322 96.6322 
96.6322 96.6322 96.6322 96.6322 96.6322 96.6322 96.6322 96.6322 96.6322 96.6322 
96.6322 96.6322 96.6322 96.6322 96.6322 96.6322 96.6322 96.6322 96.6322 96.6322 
96.6322 96.6322 96.6322 96.6322 96.6322 96.6322 96.6322 96.6322 96.6322 96.6322 
96.6322 96.6322 96.6322 96.6322 96.6322 96.6322 96.6322 96.6322 96.6322 96.6322 
96.6322 96.6322 96.6322 96.6322 96.6322 96.6322 96.6322 96.6322 96.6322 96.6322 
96.6322 96.6322 96.6322 96.6322 96.6322 96.6322 96.6322 96.6322 96.6322 96.6322 
96.6322 96.6322 96.6322 96.6322 96.6322 96.6322 96.6322 96.6322 96.6322 96.6322 
96.6322 96.6322 96.6322 96.6322 96.6322 96.6322 96.6322 96.6322 96.6322 96.6322 
96.6322 96.6322 96.6322 96.6322 96.6322 96.6322 96.6322 96.6322 96.6322 96.6322 
96.6322 96.6322 96.6322 96.6322 96.6322 96.6322 96.6322 96.6322 96.6322 96.6322 
96.6322 96.6322 96.6322 96.6322 96.6322 96.6322 96.6322 96.6322 96.6322 96.6322 
96.6322 96.6322 96.6322 96.6322 96.6322 96.6322 96.6322 96.6322 96.6322 96.6322 
96.6322 96.6322 96.6322 96.6322 96.6322 96.6322 96.6322 96.6322 96.6322 96.6322 
96.6322 96.6322 96.6322 96.6322 96.6322 96.6322 96.6322 96.6322 96.6322 96.6322 
96.6322 96.6322 96.6322 96.6322 96.6322 96.6322 96.6322 96.6322 96.6322 96.6322 
96.6322 96.6322 96.6322 96.6322 96.6322 96.6322 96.6322 96.6322 96.6322 96.6322 
96.6322 96.6322 96.6322 96.6322 96.6322 96.6322 96.6322 96.6322 96.6322 96.6322 
96.6322 96.6322 96.6322 96.6322 96.6322 96.6322 96.6322 96.6322 96.6322 96.6322 
96.6322 96.6322 96.6322 96.6322 96.6322 96.6322 96.6322 96.6322 96.6322 96.6322 
96.6322 96.6322 96.6322 96.6322 96.6322 96.6322 96.6322 96.6322 96.6322 96.6322 
96.6322 96.6322 96.6322 96.6322 96.6322 96.6322 96.6322 96.6322 96.6322 96.6322 
96.6322 96.6322 96.6322 96.6322 96.6322 96.6322 96.6322 96.6322 96.6322 96.6322 
96.6322 96.6322 96.6322 96.6322 96.6322 96.6322 96.6322 96.6322 96.6322 96.6322 
96.6322 96.6322 96.6322 96.6322 96.6322 96.6322 96.6322 96.6322 96.6322 96.6322 
96.6322 96.6322 96.6322 96.6322 96.6322 96.6322 96.6322 96.6322 96.6322 96.6322 
96.6322 96.6322 96.6322 96.6322 96.6322 96.6322 96.6322 96.6322 96.6322 96.6322 
96.6322 96.6322 96.6322 96.6322 96.6322 96.6322 96.6322 96.6322 96.6322 96.6322 
96.6322 96.6322 96.6322 96.6322 96.6322 96.6322 96.6322 96.6322 96.6322 96.6322 
96.6322 96.6322 96.6322 96.6322 96.6322 96.6322 96.6322 96.6322 96.6322 96.6322 
96.6322 96.6322 96.6322 96.6322 96.6322 96.6322 96.6322 96.6322 96.6322 96.6322 
96.6322 96.6322 96.6322 96.6322 96.6322 96.6322 96.6322 96.6322 96.6322 96.6322 
96.6322 96.6322 96.6322 96.6322 96.6322 96.6322 96.6322 96.6322 96.6322 96.6322 
96.6322 96.6322 96.6322 96.6322 96.6322 96.6322 96.6322 96.6322 96.6322 96.6322 
96.6322 96.6322 96.6322 96.6322 96.6322 96.6322 96.6322 96.6322 96.6322 96.6322 
96.6322 96.6322 96.6322 96.6322 96.6322 78.8433 78.8433 78.8433 78.8433 78.8433 
78.8433 78.8433 78.8433 78.8433 78.8433 78.8433 78.8433 78.8433 78.8433 78.8433 
78.8433 78.8433 78.8433 78.8433 78.8433 78.8433 78.8433 78.8433 78.8433 78.8433 
78.8433 78.8433 78.8433 78.8433 78.8433 78.8433 78.8433 78.8433 78.8433 78.8433 
78.8433 78.8433 78.8433 78.8433 78.8433 78.8433 78.8433 78.8433 78.8433 78.8433 
78.8433 78.8433 78.8433 78.8433 78.8433 78.8433 78.8433 78.8433 78.8433 78.8433 
78.8433 78.8433 78.8433 78.8433 78.8433 78.8433 78.8433 78.8433 78.8433 78.8433 
78.8433 78.8433 78.8433 78.8433 78.8433 78.8433 78.8433 78.8433 78.8433 78.8433 
78.8433 78.8433 78.8433 78.8433 78.8433 78.8433 78.8433 78.8433 78.8433 78.8433 
78.8433 78.8433 78.8433 78.8433 78.8433 78.8433 78.8433 78.8433 78.8433 78.8433 
78.8433 78.8433 78.8433 78.8433 78.8433 78.8433 78.8433 78.8433 78.8433 78.8433 
78.8433 78.8433 78.8433 78.8433 78.8433 78.8433 78.8433 78.8433 78.8433 78.8433 
78.8433 78.8433 78.8433 78.8433 78.8433 78.8433 78.8433 78.8433 78.8433 78.8433 
78.8433 78.8433 78.8433 78.8433 78.8433 78.8433 78.8433 78.8433 78.8433 78.8433 
78.8433 78.8433 78.8433 78.8433 78.8433 78.8433 78.8433 78.8433 78.8433 78.8433 
78.8433 78.8433 78.8433 78.8433 78.8433 78.8433 78.8433 78.8433 78.8433 78.8433 
78.8433 78.8433 78.8433 78.8433 78.8433 78.8433 78.8433 78.8433 78.8433 78.8433 
78.8433 78.8433 78.8433 78.8433 78.8433 78.8433 78.8433 78.8433 78.8433 78.8433 
78.8433 78.8433 78.8433 78.8433 78.8433 78.8433 78.8433 78.8433 78.8433 78.8433 
78.8433 78.8433 78.8433 78.8433 78.8433 78.8433 78.8433 78.8433 78.8433 78.8433 
78.8433 78.8433 78.8433 78.8433 78.8433 78.8433 78.8433 78.8433 78.8433 78.8433 
78.8433 78.8433 78.8433 78.8433 78.8433 78.8433 78.8433 78.8433 78.8433 78.8433 
78.8433 78.8433 78.8433 78.8433 78.8433 78.8433 78.8433 78.8433 78.8433 78.8433 
78.8433 78.8433 78.8433 78.8433 78.8433 78.8433 78.8433 78.8433 78.8433 78.8433 
78.8433 78.8433 78.8433 78.8433 78.8433 78.8433 78.8433 78.8433 78.8433 78.8433 
78.8433 78.8433 78.8433 78.8433 78.8433 78.8433 78.8433 78.8433 78.8433 78.8433 
78.8433 78.8433 78.8433 78.8433 78.8433 78.8433 78.8433 78.8433 78.8433 78.8433 
78.8433 78.8433 78.8433 78.8433 78.8433 78.8433 78.8433 78.8433 78.8433 78.8433 
78.8433 78.8433 78.8433 78.8433 78.8433 78.8433 78.8433 78.8433 78.8433 78.8433 
78.8433 78.8433 78.8433 78.8433 78.8433 78.8433 78.8433 78.8433 78.8433 78.8433 
78.8433 78.8433 78.8433 78.8433 78.8433 78.8433 78.8433 78.8433 78.8433 78.8433 
78.8433 78.8433 78.8433 78.8433 78.8433 78.8433 78.8433 78.8433 78.8433 78.8433 
78.8433 78.8433 78.8433 78.8433 78.8433 78.8433 78.8433 78.8433 78.8433 78.8433 
78.8433 78.8433 78.8433 78.8433 78.8433 78.8433 78.8433 78.8433 78.8433 78.8433 
78.8433 78.8433 78.8433 78.8433 78.8433 78.8433 78.8433 78.8433 78.8433 78.8433 
78.8433 78.8433 78.8433 78.8433 78.8433 78.8433 78.8433 78.8433 78.8433 78.8433 
78.8433 78.8433 78.8433 78.8433 78.8433 78.8433 78.8433 78.8433 78.8433 78.8433 
78.8433 78.8433 78.8433 78.8433 78.8433 78.8433 78.8433 78.8433 78.8433 78.8433 
78.8433 78.8433 78.8433 78.8433 78.8433 78.8433 78.8433 78.8433 78.8433 78.8433 
78.8433 78.8433 78.8433 78.8433 78.8433 78.8433 78.8433 SCALARS Pc_MPa float 1
LOOKUP_TABLE default
47.6726 47.6726 47.6726 47.6726 47.6726 47.6726 47.6726 47.6726 47.6726 
47.6726 47.6726 47.6726 47.6726 47.6726 47.6726 47.6726 47.6726 47.6726 47.6726 
47.6726 47.6726 47.6726 47.6726 47.6726 47.6726 47.6726 47.6726 47.6726 47.6726 
47.6726 47.6726 47.6726 47.6726 47.6726 47.6726 47.6726 47.6726 47.6726 47.6726 
47.6726 47.6726 47.6726 47.6726 47.6726 47.6726 47.6726 47.6726 47.6726 47.6726 
47.6726 47.6726 47.6726 47.6726 47.6726 47.6726 47.6726 47.6726 47.6726 47.6726 
47.6726 47.6726 47.6726 47.6726 47.6726 47.6726 47.6726 47.6726 47.6726 47.6726 
47.6726 47.6726 47.6726 47.6726 47.6726 47.6726 47.6726 47.6726 47.6726 47.6726 
47.6726 47.6726 47.6726 47.6726 47.6726 47.6726 47.6726 47.6726 47.6726 47.6726 
47.6726 47.6726 47.6726 47.6726 47.6726 47.6726 47.6726 47.6726 47.6726 47.6726 
47.6726 47.6726 47.6726 47.6726 47.6726 47.6726 47.6726 47.6726 47.6726 47.6726 
47.6726 47.6726 47.6726 47.6726 47.6726 47.6726 47.6726 47.6726 47.6726 47.6726 
47.6726 47.6726 47.6726 47.6726 47.6726 47.6726 47.6726 47.6726 47.6726 47.6726 
47.6726 47.6726 47.6726 47.6726 47.6726 47.6726 47.6726 47.6726 47.6726 47.6726 
47.6726 47.6726 47.6726 47.6726 47.6726 47.6726 47.6726 47.6726 47.6726 47.6726 
47.6726 47.6726 47.6726 47.6726 47.6726 47.6726 47.6726 47.6726 47.6726 47.6726 
47.6726 47.6726 47.6726 47.6726 47.6726 47.6726 47.6726 47.6726 47.6726 47.6726 
47.6726 47.6726 47.6726 47.6726 47.6726 47.6726 47.6726 47.6726 47.6726 47.6726 
47.6726 47.6726 47.6726 47.6726 47.6726 47.6726 47.6726 47.6726 47.6726 47.6726 
47.6726 47.6726 47.6726 47.6726 47.6726 47.6726 47.6726 48.1084 48.1084 48.1084 
48.1084 48.1084 48.1084 48.1084 48.1084 48.1084 48.1084 48.1084 48.1084 48.1084 
48.1084 48.1084 48.1084 48.1084 48.1084 48.1084 48.1084 48.1084 48.1084 48.1084 
48.1084 48.1084 48.1084 48.1084 48.1084 48.1084 48.1084 48.1084 48.1084 48.1084 
48.1084 48.1084 48.1084 48.1084 48.1084 48.1084 48.1084 48.1084 48.1084 48.1084 
48.1084 48.1084 48.1084 48.1084 48.1084 48.1084 48.1084 48.1084 48.1084 48.1084 
48.1084 48.1084 48.1084 48.1084 48.1084 48.1084 48.1084 48.1084 48.1084 48.1084 
48.1084 48.1084 48.1084 48.1084 48.1084 48.1084 48.1084 48.1084 48.1084 48.1084 
48.1084 48.1084 48.1084 48.1084 48.1084 48.1084 48.1084 48.1084 48.1084 48.1084 
48.1084 48.1084 48.1084 48.1084 48.1084 48.1084 48.1084 48.1084 48.1084 48.1084 
48.1084 48.1084 48.1084 48.1084 48.1084 48.1084 48.1084 48.1084 48.1084 48.1084 
48.1084 48.1084 48.1084 48.1084 48.1084 48.1084 48.1084 48.1084 48.1084 48.1084 
48.1084 48.1084 48.1084 48.1084 48.1084 48.1084 48.1084 48.1084 48.1084 48.1084 
48.1084 48.1084 48.1084 48.1084 48.1084 48.1084 48.1084 48.1084 48.1084 48.1084 
48.1084 48.1084 48.1084 48.1084 48.1084 48.1084 48.1084 48.1084 48.1084 48.1084 
48.1084 48.1084 48.1084 48.1084 48.1084 48.1084 48.1084 48.1084 48.1084 48.1084 
48.1084 48.1084 48.1084 48.1084 48.1084 48.1084 48.1084 48.1084 48.1084 48.1084 
48.1084 48.1084 48.1084 48.1084 48.1084 48.1084 48.1084 48.1084 48.1084 48.1084 
48.1084 48.1084 48.1084 48.1084 48.1084 48.1084 48.1084 48.1084 48.1084 48.1084 
48.1084 48.1084 48.1084 48.1084 48.1084 48.1084 48.1084 48.1084 48.1084 48.1084 
48.1084 48.1084 48.1084 91.2355 91.2355 91.2355 91.2355 91.2355 91.2355 91.2355 
91.2355 91.2355 91.2355 91.2355 91.2355 91.2355 91.2355 91.2355 91.2355 91.2355 
91.2355 91.2355 91.2355 91.2355 91.2355 91.2355 91.2355 91.2355 91.2355 91.2355 
91.2355 91.2355 91.2355 91.2355 91.2355 91.2355 91.2355 91.2355 91.2355 91.2355 
91.2355 91.2355 91.2355 91.2355 91.2355 91.2355 91.2355 91.2355 91.2355 91.2355 
91.2355 91.2355 91.2355 91.2355 91.2355 91.2355 91.2355 91.2355 91.2355 91.2355 
91.2355 91.2355 91.2355 91.2355 91.2355 91.2355 91.2355 91.2355 91.2355 91.2355 
91.2355 91.2355 91.2355 91.2355 91.2355 91.2355 91.2355 91.2355 91.2355 91.2355 
91.2355 91.2355 91.2355 91.2355 91.2355 91.2355 91.2355 91.2355 91.2355 91.2355 
91.2355 91.2355 91.2355 91.2355 91.2355 91.2355 91.2355 91.2355 91.2355 91.2355 
91.2355 91.2355 91.2355 91.2355 91.2355 91.2355 91.2355 91.2355 91.2355 91.2355 
91.2355 91.2355 91.2355 91.2355 91.2355 91.2355 91.2355 91.2355 91.2355 91.2355 
91.2355 91.2355 91.2355 91.2355 91.2355 91.2355 91.2355 91.2355 91.2355 91.2355 
91.2355 91.2355 91.2355 91.2355 91.2355 91.2355 91.2355 91.2355 91.2355 91.2355 
91.2355 91.2355 91.2355 91.2355 91.2355 91.2355 91.2355 91.2355 91.2355 91.2355 
91.2355 91.2355 91.2355 91.2355 91.2355 91.2355 91.2355 91.2355 91.2355 91.2355 
91.2355 91.2355 91.2355 91.2355 91.2355 91.2355 91.2355 91.2355 91.2355 91.2355 
91.2355 91.2355 91.2355 91.2355 91.2355 91.2355 91.2355 91.2355 91.2355 91.2355 
91.2355 91.2355 91.2355 91.2355 91.2355 91.2355 91.2355 91.2355 91.2355 91.2355 
91.2355 91.2355 91.2355 91.2355 91.2355 91.2355 91.2355 91.2355 91.2355 93.4603 
93.4603 93.4603 93.4603 93.4603 93.4603 93.4603 93.4603 93.4603 93.4603 93.4603 
93.4603 93.4603 93.4603 93.4603 93.4603 93.4603 93.4603 93.4603 93.4603 93.4603 
93.4603 93.4603 93.4603 93.4603 93.4603 93.4603 93.4603 93.4603 93.4603 93.4603 
93.4603 93.4603 93.4603 93.4603 93.4603 93.4603 93.4603 93.4603 93.4603 93.4603 
93.4603 93.4603 93.4603 93.4603 93.4603 93.4603 93.4603 93.4603 93.4603 93.4603 
93.4603 93.4603 93.4603 93.4603 93.4603 93.4603 93.4603 93.4603 93.4603 93.4603 
93.4603 93.4603 93.4603 93.4603 93.4603 93.4603 93.4603 93.4603 93.4603 93.4603 
93.4603 93.4603 93.4603 93.4603 93.4603 93.4603 93.4603 93.4603 93.4603 93.4603 
93.4603 93.4603 93.4603 93.4603 93.4603 93.4603 93.4603 93.4603 93.4603 93.4603 
93.4603 93.4603 93.4603 93.4603 93.4603 93.4603 93.4603 93.4603 93.4603 93.4603 
93.4603 93.4603 93.4603 93.4603 93.4603 93.4603 93.4603 93.4603 93.4603 93.4603 
93.4603 93.4603 93.4603 93.4603 93.4603 93.4603 93.4603 93.4603 93.4603 93.4603 
93.4603 93.4603 93.4603 93.4603 93.4603 93.4603 93.4603 93.4603 93.4603 93.4603 
93.4603 93.4603 93.4603 93.4603 93.4603 93.4603 93.4603 93.4603 93.4603 93.4603 
93.4603 93.4603 93.4603 93.4603 93.4603 93.4603 93.4603 93.4603 93.4603 93.4603 
93.4603 93.4603 93.4603 93.4603 93.4603 93.4603 93.4603 93.4603 93.4603 93.4603 
93.4603 93.4603 93.4603 93.4603 93.4603 93.4603 93.4603 93.4603 93.4603 93.4603 
93.4603 93.4603 93.4603 93.4603 93.4603 93.4603 93.4603 93.4603 93.4603 93.4603 
93.4603 93.4603 93.4603 93.4603 93.4603 93.4603 93.4603 93.4603 93.4603 93.4603 
93.4603 93.4603 93.4603 93.4603 93.4603 73.9223 73.9223 73.9223 73.9223 73.9223 
73.9223 73.9223 73.9223 73.9223 73.9223 73.9223 73.9223 73.9223 73.9223 73.9223 
73.9223 73.9223 73.9223 73.9223 73.9223 73.9223 73.9223 73.9223 73.9223 73.9223 
73.9223 73.9223 73.9223 73.9223 73.9223 73.9223 73.9223 73.9223 73.9223 73.9223 
73.9223 73.9223 73.9223 73.9223 73.9223 73.9223 73.9223 73.9223 73.9223 73.9223 
73.9223 73.9223 73.9223 73.9223 73.9223 73.9223 73.9223 73.9223 73.9223 73.9223 
73.9223 73.9223 73.9223 73.9223 73.9223 73.9223 73.9223 73.9223 73.9223 73.9223 
73.9223 73.9223 73.9223 73.9223 73.9223 73.9223 73.9223 73.9223 73.9223 73.9223 
73.9223 73.9223 73.9223 73.9223 73.9223 73.9223 73.9223 73.9223 73.9223 73.9223 
73.9223 73.9223 73.9223 73.9223 73.9223 73.9223 73.9223 73.9223 73.9223 73.9223 
73.9223 73.9223 73.9223 73.9223 73.9223 73.9223 73.9223 73.9223 73.9223 73.9223 
73.9223 73.9223 73.9223 73.9223 73.9223 73.9223 73.9223 73.9223 73.9223 73.9223 
73.9223 73.9223 73.9223 73.9223 73.9223 73.9223 73.9223 73.9223 73.9223 73.9223 
73.9223 73.9223 73.9223 73.9223 73.9223 73.9223 73.9223 73.9223 73.9223 73.9223 
73.9223 73.9223 73.9223 73.9223 73.9223 73.9223 73.9223 73.9223 73.9223 73.9223 
73.9223 73.9223 73.9223 73.9223 73.9223 73.9223 73.9223 73.9223 73.9223 73.9223 
73.9223 73.9223 73.9223 73.9223 73.9223 73.9223 73.9223 73.9223 73.9223 73.9223 
73.9223 73.9223 73.9223 73.9223 73.9223 73.9223 73.9223 73.9223 73.9223 73.9223 
73.9223 73.9223 73.9223 73.9223 73.9223 73.9223 73.9223 73.9223 73.9223 73.9223 
73.9223 73.9223 73.9223 73.9223 73.9223 73.9223 73.9223 73.9223 73.9223 73.9223 
73.9223 72.1101 72.1101 72.1101 72.1101 72.1101 72.1101 72.1101 72.1101 72.1101 
72.1101 72.1101 72.1101 72.1101 72.1101 72.1101 72.1101 72.1101 72.1101 72.1101 
72.1101 72.1101 72.1101 72.1101 72.1101 72.1101 72.1101 72.1101 72.1101 72.1101 
72.1101 72.1101 72.1101 72.1101 72.1101 72.1101 72.1101 72.1101 72.1101 72.1101 
72.1101 72.1101 72.1101 72.1101 72.1101 72.1101 72.1101 72.1101 72.1101 72.1101 
72.1101 72.1101 72.1101 72.1101 72.1101 72.1101 72.1101 72.1101 72.1101 72.1101 
72.1101 72.1101 72.1101 72.1101 72.1101 72.1101 72.1101 72.1101 72.1101 72.1101 
72.1101 72.1101 72.1101 72.1101 72.1101 72.1101 72.1101 72.1101 72.1101 72.1101 
72.1101 72.1101 72.1101 72.1101 72.1101 72.1101 72.1101 72.1101 72.1101 72.1101 
72.1101 72.1101 72.1101 72.1101 72.1101 72.1101 72.1101 72.1101 72.1101 72.1101 
72.1101 72.1101 72.1101 72.1101 72.1101 72.1101 72.1101 72.1101 72.1101 72.1101 
72.1101 72.1101 72.1101 72.1101 72.1101 72.1101 72.1101 72.1101 72.1101 72.1101 
72.1101 72.1101 72.1101 72.1101 72.1101 72.1101 72.1101 72.1101 72.1101 72.1101 
72.1101 72.1101 72.1101 72.1101 72.1101 72.1101 72.1101 72.1101 72.1101 72.1101 
72.1101 72.1101 72.1101 72.1101 72.1101 72.1101 72.1101 72.1101 72.1101 72.1101 
72.1101 72.1101 72.1101 72.1101 72.1101 72.1101 72.1101 72.1101 72.1101 72.1101 
72.1101 72.1101 72.1101 72.1101 72.1101 72.1101 72.1101 72.1101 72.1101 72.1101 
72.1101 72.1101 72.1101 72.1101 72.1101 72.1101 72.1101 72.1101 72.1101 72.1101 
72.1101 72.1101 72.1101 72.1101 72.1101 72.1101 72.1101 72.1101 72.1101 72.1101 
72.1101 72.1101 72.1101 72.1101 72.1101 72.1101 72.1101 SCALARS Tau_MPa float 1
LOOKUP_TABLE default
9.67077 9.67077 9.67077 9.67077 9.67077 9.67077 9.67077 9.67077 9.67077 
9.67077 9.67077 9.67077 9.67077 9.67077 9.67077 9.67077 9.67077 9.67077 9.67077 
9.67077 9.67077 9.67077 9.67077 9.67077 9.67077 9.67077 9.67077 9.67077 9.67077 
9.67077 9.67077 9.67077 9.67077 9.67077 9.67077 9.67077 9.67077 9.67077 9.67077 
9.67077 9.67077 9.67077 9.67077 9.67077 9.67077 9.67077 9.67077 9.67077 9.67077 
9.67077 9.67077 9.67077 9.67077 9.67077 9.67077 9.67077 9.67077 9.67077 9.67077 
9.67077 9.67077 9.67077 9.67077 9.67077 9.67077 9.67077 9.67077 9.67077 9.67077 
9.67077 9.67077 9.67077 9.67077 9.67077 9.67077 9.67077 9.67077 9.67077 9.67077 
9.67077 9.67077 9.67077 9.67077 9.67077 9.67077 9.67077 9.67077 9.67077 9.67077 
9.67077 9.67077 9.67077 9.67077 9.67077 9.67077 9.67077 9.67077 9.67077 9.67077 
9.67077 9.67077 9.67077 9.67077 9.67077 9.67077 9.67077 9.67077 9.67077 9.67077 
9.67077 9.67077 9.67077 9.67077 9.67077 9.67077 9.67077 9.67077 9.67077 9.67077 
9.67077 9.67077 9.67077 9.67077 9.67077 9.67077 9.67077 9.67077 9.67077 9.67077 
9.67077 9.67077 9.67077 9.67077 9.67077 9.67077 9.67077 9.67077 9.67077 9.67077 
9.67077 9.67077 9.67077 9.67077 9.67077 9.67077 9.67077 9.67077 9.67077 9.67077 
9.67077 9.67077 9.67077 9.67077 9.67077 9.67077 9.67077 9.67077 9.67077 9.67077 
9.67077 9.67077 9.67077 9.67077 9.67077 9.67077 9.67077 9.67077 9.67077 9.67077 
9.67077 9.67077 9.67077 9.67077 9.67077 9.67077 9.67077 9.67077 9.67077 9.67077 
9.67077 9.67077 9.67077 9.67077 9.67077 9.67077 9.67077 9.67077 9.67077 9.67077 
9.67077 9.67077 9.67077 9.67077 9.67077 9.67077 9.67077 9.67077 9.67077 9.67077 
9.67077 9.67077 9.67077 9.67077 9.67077 9.67077 9.67077 9.67077 9.67077 9.67077 
9.67077 9.67077 9.67077 9.67077 9.67077 9.67077 9.67077 9.67077 9.67077 9.67077 
9.67077 9.67077 9.67077 9.67077 9.67077 9.67077 9.67077 9.67077 9.67077 9.67077 
9.67077 9.67077 9.67077 9.67077 9.67077 9.67077 9.67077 9.67077 9.67077 9.67077 
9.67077 9.67077 9.67077 9.67077 9.67077 9.67077 9.67077 9.67077 9.67077 9.67077 
9.67077 9.67077 9.67077 9.67077 9.67077 9.67077 9.67077 9.67077 9.67077 9.67077 
9.67077 9.67077 9.67077 9.67077 9.67077 9.67077 9.67077 9.67077 9.67077 9.67077 
9.67077 9.67077 9.67077 9.67077 9.67077 9.67077 9.67077 9.67077 9.67077 9.67077 
9.67077 9.67077 9.67077 9.67077 9.67077 9.67077 9.67077 9.67077 9.67077 9.67077 
9.67077 9.67077 9.67077 9.67077 9.67077 9.67077 9.67077 9.67077 9.67077 9.67077 
9.67077 9.67077 9.67077 9.67077 9.67077 9.67077 9.67077 9.67077 9.67077 9.67077 
9.67077 9.67077 9.67077 9.67077 9.67077 9.67077 9.67077 9.67077 9.67077 9.67077 
9.67077 9.67077 9.67077 9.67077 9.67077 9.67077 9.67077 9.67077 9.67077 9.67077 
9.67077 9.67077 9.67077 9.67077 9.67077 9.67077 9.67077 9.67077 9.67077 9.67077 
9.67077 9.67077 9.67077 9.67077 9.67077 9.67077 9.67077 9.67077 9.67077 9.67077 
9.67077 9.67077 9.67077 9.67077 9.67077 9.67077 9.67077 9.67077 9.67077 9.67077 
9.67077 9.67077 9.67077 9.67077 9.67077 9.67077 9.67077 9.67077 9.67077 9.67077 
9.67077 9.67077 9.67077 9.67077 9.67077 9.67077 9.67077 9.67077 9.67077 9.67077 
9.67077 9.67077 9.67077 9.67077 9.67077 9.67077 9.67077 9.67077 9.67077 9.67077 
9.67077 9.67077 9.67077 6.78033 6.78033 6.78033 6.78033 6.78033 6.78033 6.78033 
6.78033 6.78033 6.78033 6.78033 6.78033 6.78033 6.78033 6.78033 6.78033 6.78033 
6.78033 6.78033 6.78033 6.78033 6.78033 6.78033 6.78033 6.78033 6.78033 6.78033 
6.78033 6.78033 6.78033 6.78033 6.78033 6.78033 6.78033 6.78033 6.78033 6.78033 
6.78033 6.78033 6.78033 6.78033 6.78033 6.78033 6.78033 6.78033 6.78033 6.78033 
6.78033 6.78033 6.78033 6.78033 6.78033 6.78033 6.78033 6.78033 6.78033 6.78033 
6.78033 6.78033 6.78033 6.78033 6.78033 6.78033 6.78033 6.78033 6.78033 6.78033 
6.78033 6.78033 6.78033 6.78033 6.78033 6.78033 6.78033 6.78033 6.78033 6.78033 
6.78033 6.78033 6.78033 6.78033 6.78033 6.78033 6.78033 6.78033 6.78033 6.78033 
6.78033 6.78033 6.78033 6.78033 6.78033 6.78033 6.78033 6.78033 6.78033 6.78033 
6.78033 6.78033 6.78033 6.78033 6.78033 6.78033 6.78033 6.78033 6.78033 6.78033 
6.78033 6.78033 6.78033 6.78033 6.78033 6.78033 6.78033 6.78033 6.78033 6.78033 
6.78033 6.78033 6.78033 6.78033 6.78033 6.78033 6.78033 6.78033 6.78033 6.78033 
6.78033 6.78033 6.78033 6.78033 6.78033 6.78033 6.78033 6.78033 6.78033 6.78033 
6.78033 6.78033 6.78033 6.78033 6.78033 6.78033 6.78033 6.78033 6.78033 6.78033 
6.78033 6.78033 6.78033 6.78033 6.78033 6.78033 6.78033 6.78033 6.78033 6.78033 
6.78033 6.78033 6.78033 6.78033 6.78033 6.78033 6.78033 6.78033 6.78033 6.78033 
6.78033 6.78033 6.78033 6.78033 6.78033 6.78033 6.78033 6.78033 6.78033 6.78033 
6.78033 6.78033 6.78033 6.78033 6.78033 6.78033 6.78033 6.78033 6.78033 6.78033 
6.78033 6.78033 6.78033 6.78033 6.78033 6.78033 6.78033 6.78033 6.78033 6.78033 
6.78033 6.78033 6.78033 6.78033 6.78033 6.78033 6.78033 6.78033 6.78033 6.78033 
6.78033 6.78033 6.78033 6.78033 6.78033 6.78033 6.78033 6.78033 6.78033 6.78033 
6.78033 6.78033 6.78033 6.78033 6.78033 6.78033 6.78033 6.78033 6.78033 6.78033 
6.78033 6.78033 6.78033 6.78033 6.78033 6.78033 6.78033 6.78033 6.78033 6.78033 
6.78033 6.78033 6.78033 6.78033 6.78033 6.78033 6.78033 6.78033 6.78033 6.78033 
6.78033 6.78033 6.78033 6.78033 6.78033 6.78033 6.78033 6.78033 6.78033 6.78033 
6.78033 6.78033 6.78033 6.78033 6.78033 6.78033 6.78033 6.78033 6.78033 6.78033 
6.78033 6.78033 6.78033 6.78033 6.78033 6.78033 6.78033 6.78033 6.78033 6.78033 
6.78033 6.78033 6.78033 6.78033 6.78033 6.78033 6.78033 6.78033 6.78033 6.78033 
6.78033 6.78033 6.78033 6.78033 6.78033 6.78033 6.78033 6.78033 6.78033 6.78033 
6.78033 6.78033 6.78033 6.78033 6.78033 6.78033 6.78033 6.78033 6.78033 6.78033 
6.78033 6.78033 6.78033 6.78033 6.78033 6.78033 6.78033 6.78033 6.78033 6.78033 
6.78033 6.78033 6.78033 6.78033 6.78033 6.78033 6.78033 6.78033 6.78033 6.78033 
6.78033 6.78033 6.78033 6.78033 6.78033 6.78033 6.78033 6.78033 6.78033 6.78033 
6.78033 6.78033 6.78033 6.78033 6.78033 6.78033 6.78033 6.78033 6.78033 6.78033 
6.78033 6.78033 6.78033 6.78033 6.78033 6.78033 6.78033 6.78033 6.78033 6.78033 
6.78033 6.78033 6.78033 6.78033 6.78033 6.78033 6.78033 6.78033 6.78033 6.78033 
6.78033 6.78033 6.78033 6.78033 6.78033 6.78033 6.78033 6.78033 6.78033 6.78033 
6.78033 6.78033 6.78033 6.78033 6.78033 6.78033 6.78033 6.78033 6.78033 6.78033 
6.78033 6.78033 6.78033 6.78033 6.78033 7.07734 7.07734 7.07734 7.07734 7.07734 
7.07734 7.07734 7.07734 7.07734 7.07734 7.07734 7.07734 7.07734 7.07734 7.07734 
7.07734 7.07734 7.07734 7.07734 7.07734 7.07734 7.07734 7.07734 7.07734 7.07734 
7.07734 7.07734 7.07734 7.07734 7.07734 7.07734 7.07734 7.07734 7.07734 7.07734 
7.07734 7.07734 7.07734 7.07734 7.07734 7.07734 7.07734 7.07734 7.07734 7.07734 
7.07734 7.07734 7.07734 7.07734 7.07734 7.07734 7.07734 7.07734 7.07734 7.07734 
7.07734 7.07734 7.07734 7.07734 7.07734 7.07734 7.07734 7.07734 7.07734 7.07734 
7.07734 7.07734 7.07734 7.07734 7.07734 7.07734 7.07734 7.07734 7.07734 7.07734 
7.07734 7.07734 7.07734 7.07734 7.07734 7.07734 7.07734 7.07734 7.07734 7.07734 
7.07734 7.07734 7.07734 7.07734 7.07734 7.07734 7.07734 7.07734 7.07734 7.07734 
7.07734 7.07734 7.07734 7.07734 7.07734 7.07734 7.07734 7.07734 7.07734 7.07734 
7.07734 7.07734 7.07734 7.07734 7.07734 7.07734 7.07734 7.07734 7.07734 7.07734 
7.07734 7.07734 7.07734 7.07734 7.07734 7.07734 7.07734 7.07734 7.07734 7.07734 
7.07734 7.07734 7.07734 7.07734 7.07734 7.07734 7.07734 7.07734 7.07734 7.07734 
7.07734 7.07734 7.07734 7.07734 7.07734 7.07734 7.07734 7.07734 7.07734 7.07734 
7.07734 7.07734 7.07734 7.07734 7.07734 7.07734 7.07734 7.07734 7.07734 7.07734 
7.07734 7.07734 7.07734 7.07734 7.07734 7.07734 7.07734 7.07734 7.07734 7.07734 
7.07734 7.07734 7.07734 7.07734 7.07734 7.07734 7.07734 7.07734 7.07734 7.07734 
7.07734 7.07734 7.07734 7.07734 7.07734 7.07734 7.07734 7.07734 7.07734 7.07734 
7.07734 7.07734 7.07734 7.07734 7.07734 7.07734 7.07734 7.07734 7.07734 7.07734 
7.07734 7.07734 7.07734 7.07734 7.07734 7.07734 7.07734 7.07734 7.07734 7.07734 
7.07734 7.07734 7.07734 7.07734 7.07734 7.07734 7.07734 7.07734 7.07734 7.07734 
7.07734 7.07734 7.07734 7.07734 7.07734 7.07734 7.07734 7.07734 7.07734 7.07734 
7.07734 7.07734 7.07734 7.07734 7.07734 7.07734 7.07734 7.07734 7.07734 7.07734 
7.07734 7.07734 7.07734 7.07734 7.07734 7.07734 7.07734 7.07734 7.07734 7.07734 
7.07734 7.07734 7.07734 7.07734 7.07734 7.07734 7.07734 7.07734 7.07734 7.07734 
7.07734 7.07734 7.07734 7.07734 7.07734 7.07734 7.07734 7.07734 7.07734 7.07734 
7.07734 7.07734 7.07734 7.07734 7.07734 7.07734 7.07734 7.07734 7.07734 7.07734 
7.07734 7.07734 7.07734 7.07734 7.07734 7.07734 7.07734 7.07734 7.07734 7.07734 
7.07734 7.07734 7.07734 7.07734 7.07734 7.07734 7.07734 7.07734 7.07734 7.07734 
7.07734 7.07734 7.07734 7.07734 7.07734 7.07734 7.07734 7.07734 7.07734 7.07734 
7.07734 7.07734 7.07734 7.07734 7.07734 7.07734 7.07734 7.07734 7.07734 7.07734 
7.07734 7.07734 7.07734 7.07734 7.07734 7.07734 7.07734 7.07734 7.07734 7.07734 
7.07734 7.07734 7.07734 7.07734 7.07734 7.07734 7.07734 7.07734 7.07734 7.07734 
7.07734 7.07734 7.07734 7.07734 7.07734 7.07734 7.07734 7.07734 7.07734 7.07734 
7.07734 7.07734 7.07734 7.07734 7.07734 7.07734 7.07734 7.07734 7.07734 7.07734 
7.07734 7.07734 7.07734 7.07734 7.07734 7.07734 7.07734 7.07734 7.07734 7.07734 
7.07734 7.07734 7.07734 7.07734 7.07734 7.07734 7.07734 7.07734 7.07734 7.07734 
7.07734 7.07734 7.07734 7.07734 7.07734 7.07734 7.07734 7.07734 7.07734 7.07734 
7.07734 7.07734 7.07734 7.07734 7.07734 7.07734 7.07734 
