# vtk DataFile Version 2.0
vtkObjects
ASCII
DATASET UNSTRUCTURED_GRID
POINTS 960 float
-265.424 -2.34643 93.6114
-260.624 -2.34643 93.6114
-265.424 2.45357 93.6114
-260.624 2.45357 93.6114
-265.424 -2.34643 98.4114
-260.624 -2.34643 98.4114
-265.424 2.45357 98.4114
-260.624 2.45357 98.4114
-263.024 -1.42971 92.1281
-263.024 1.53685 92.1281
-263.024 -1.42971 99.8947
-263.024 1.53685 99.8947
-264.508 -3.82971 96.0114
-261.541 -3.82971 96.0114
-264.508 3.93685 96.0114
-261.541 3.93685 96.0114
-266.908 0.053571 94.5281
-266.908 0.053571 97.4947
-259.141 0.053571 94.5281
-259.141 0.053571 97.4947
-261.378 -2.34725 92.1343
-256.578 -2.34725 92.1343
-261.378 2.45275 92.1343
-256.578 2.45275 92.1343
-261.378 -2.34725 96.9343
-256.578 -2.34725 96.9343
-261.378 2.45275 96.9343
-256.578 2.45275 96.9343
-258.978 -1.43053 90.651
-258.978 1.53603 90.651
-258.978 -1.43053 98.4176
-258.978 1.53603 98.4176
-260.461 -3.83053 94.5343
-257.495 -3.83053 94.5343
-260.461 3.93603 94.5343
-257.495 3.93603 94.5343
-262.861 0.0527468 93.051
-262.861 0.0527468 96.0176
-255.095 0.0527468 93.051
-255.095 0.0527468 96.0176
-184.494 -2.36291 64.0694
-179.694 -2.36291 64.0694
-184.494 2.43709 64.0694
-179.694 2.43709 64.0694
-184.494 -2.36291 68.8694
-179.694 -2.36291 68.8694
-184.494 2.43709 68.8694
-179.694 2.43709 68.8694
-182.094 -1.44619 62.5861
-182.094 1.52037 62.5861
-182.094 -1.44619 70.3527
-182.094 1.52037 70.3527
-183.577 -3.84619 66.4694
-180.611 -3.84619 66.4694
-183.577 3.92037 66.4694
-180.611 3.92037 66.4694
-185.977 0.0370876 64.9861
-185.977 0.0370876 67.9527
-178.211 0.0370876 64.9861
-178.211 0.0370876 67.9527
-180.447 -2.36374 62.5923
-175.647 -2.36374 62.5923
-180.447 2.43626 62.5923
-175.647 2.43626 62.5923
-180.447 -2.36374 67.3923
-175.647 -2.36374 67.3923
-180.447 2.43626 67.3923
-175.647 2.43626 67.3923
-178.047 -1.44702 61.109
-178.047 1.51955 61.109
-178.047 -1.44702 68.8756
-178.047 1.51955 68.8756
-179.531 -3.84702 64.9923
-176.564 -3.84702 64.9923
-179.531 3.91955 64.9923
-176.564 3.91955 64.9923
-181.931 0.0362635 63.509
-181.931 0.0362635 66.4756
-174.164 0.0362635 63.509
-174.164 0.0362635 66.4756
-103.563 -2.3794 34.5275
-98.7632 -2.3794 34.5275
-103.563 2.4206 34.5275
-98.7632 2.4206 34.5275
-103.563 -2.3794 39.3275
-98.7632 -2.3794 39.3275
-103.563 2.4206 39.3275
-98.7632 2.4206 39.3275
-101.163 -1.46268 33.0442
-101.163 1.50389 33.0442
-101.163 -1.46268 40.8107
-101.163 1.50389 40.8107
-102.646 -3.86268 36.9275
-99.6799 -3.86268 36.9275
-102.646 3.90389 36.9275
-99.6799 3.90389 36.9275
-105.046 0.0206042 35.4442
-105.046 0.0206042 38.4107
-97.2799 0.0206042 35.4442
-97.2799 0.0206042 38.4107
-99.5167 -2.38022 33.0504
-94.7167 -2.38022 33.0504
-99.5167 2.41978 33.0504
-94.7167 2.41978 33.0504
-99.5167 -2.38022 37.8504
-94.7167 -2.38022 37.8504
-99.5167 2.41978 37.8504
-94.7167 2.41978 37.8504
-97.1167 -1.4635 31.5671
-97.1167 1.50306 31.5671
-97.1167 -1.4635 39.3336
-97.1167 1.50306 39.3336
-98.6 -3.8635 35.4504
-95.6334 -3.8635 35.4504
-98.6 3.90306 35.4504
-95.6334 3.90306 35.4504
-101 0.0197801 33.9671
-101 0.0197801 36.9336
-93.2334 0.0197801 33.9671
-93.2334 0.0197801 36.9336
-22.6326 -2.39588 4.98549
-17.8326 -2.39588 4.98549
-22.6326 2.40412 4.98549
-17.8326 2.40412 4.98549
-22.6326 -2.39588 9.78549
-17.8326 -2.39588 9.78549
-22.6326 2.40412 9.78549
-17.8326 2.40412 9.78549
-20.2326 -1.47916 3.50221
-20.2326 1.4874 3.50221
-20.2326 -1.47916 11.2688
-20.2326 1.4874 11.2688
-21.7159 -3.87916 7.38549
-18.7494 -3.87916 7.38549
-21.7159 3.8874 7.38549
-18.7494 3.8874 7.38549
-24.1159 0.00412085 5.90221
-24.1159 0.00412085 8.86877
-16.3494 0.00412085 5.90221
-16.3494 0.00412085 8.86877
-18.5861 -2.3967 3.50839
-13.7861 -2.3967 3.50839
-18.5861 2.4033 3.50839
-13.7861 2.4033 3.50839
-18.5861 -2.3967 8.30839
-13.7861 -2.3967 8.30839
-18.5861 2.4033 8.30839
-13.7861 2.4033 8.30839
-16.1861 -1.47998 2.02511
-16.1861 1.48658 2.02511
-16.1861 -1.47998 9.79167
-16.1861 1.48658 9.79167
-17.6694 -3.87998 5.90839
-14.7028 -3.87998 5.90839
-17.6694 3.88658 5.90839
-14.7028 3.88658 5.90839
-20.0694 0.00329668 4.42511
-20.0694 0.00329668 7.39167
-12.3028 0.00329668 4.42511
-12.3028 0.00329668 7.39167
58.2979 -2.41236 -24.5565
63.0979 -2.41236 -24.5565
58.2979 2.38764 -24.5565
63.0979 2.38764 -24.5565
58.2979 -2.41236 -19.7565
63.0979 -2.41236 -19.7565
58.2979 2.38764 -19.7565
63.0979 2.38764 -19.7565
60.6979 -1.49564 -26.0398
60.6979 1.47092 -26.0398
60.6979 -1.49564 -18.2732
60.6979 1.47092 -18.2732
59.2146 -3.89564 -22.1565
62.1812 -3.89564 -22.1565
59.2146 3.87092 -22.1565
62.1812 3.87092 -22.1565
56.8146 -0.0123625 -23.6398
56.8146 -0.0123625 -20.6732
64.5812 -0.0123625 -23.6398
64.5812 -0.0123625 -20.6732
62.3445 -2.41319 -26.0336
67.1445 -2.41319 -26.0336
62.3445 2.38681 -26.0336
67.1445 2.38681 -26.0336
62.3445 -2.41319 -21.2336
67.1445 -2.41319 -21.2336
62.3445 2.38681 -21.2336
67.1445 2.38681 -21.2336
64.7445 -1.49647 -27.5169
64.7445 1.47009 -27.5169
64.7445 -1.49647 -19.7503
64.7445 1.47009 -19.7503
63.2612 -3.89647 -23.6336
66.2277 -3.89647 -23.6336
63.2612 3.87009 -23.6336
66.2277 3.87009 -23.6336
60.8612 -0.0131867 -25.1169
60.8612 -0.0131867 -22.1503
68.6277 -0.0131867 -25.1169
68.6277 -0.0131867 -22.1503
139.228 -2.42885 -54.0984
144.028 -2.42885 -54.0984
139.228 2.37115 -54.0984
144.028 2.37115 -54.0984
139.228 -2.42885 -49.2984
144.028 -2.42885 -49.2984
139.228 2.37115 -49.2984
144.028 2.37115 -49.2984
141.628 -1.51213 -55.5817
141.628 1.45444 -55.5817
141.628 -1.51213 -47.8152
141.628 1.45444 -47.8152
140.145 -3.91213 -51.6984
143.112 -3.91213 -51.6984
140.145 3.85444 -51.6984
143.112 3.85444 -51.6984
137.745 -0.0288459 -53.1817
137.745 -0.0288459 -50.2152
145.512 -0.0288459 -53.1817
145.512 -0.0288459 -50.2152
143.275 -2.42967 -55.5755
148.075 -2.42967 -55.5755
143.275 2.37033 -55.5755
148.075 2.37033 -55.5755
143.275 -2.42967 -50.7755
148.075 -2.42967 -50.7755
143.275 2.37033 -50.7755
148.075 2.37033 -50.7755
145.675 -1.51295 -57.0588
145.675 1.45361 -57.0588
145.675 -1.51295 -49.2923
145.675 1.45361 -49.2923
144.192 -3.91295 -53.1755
147.158 -3.91295 -53.1755
144.192 3.85361 -53.1755
147.158 3.85361 -53.1755
141.792 -0.0296701 -54.6588
141.792 -0.0296701 -51.6923
149.558 -0.0296701 -54.6588
149.558 -0.0296701 -51.6923
220.159 -2.44533 -83.6404
224.959 -2.44533 -83.6404
220.159 2.35467 -83.6404
224.959 2.35467 -83.6404
220.159 -2.44533 -78.8404
224.959 -2.44533 -78.8404
220.159 2.35467 -78.8404
224.959 2.35467 -78.8404
222.559 -1.52861 -85.1237
222.559 1.43795 -85.1237
222.559 -1.52861 -77.3571
222.559 1.43795 -77.3571
221.076 -3.92861 -81.2404
224.042 -3.92861 -81.2404
221.076 3.83795 -81.2404
224.042 3.83795 -81.2404
218.676 -0.0453293 -82.7237
218.676 -0.0453293 -79.7571
226.442 -0.0453293 -82.7237
226.442 -0.0453293 -79.7571
224.206 -2.44615 -85.1175
229.006 -2.44615 -85.1175
224.206 2.35385 -85.1175
229.006 2.35385 -85.1175
224.206 -2.44615 -80.3175
229.006 -2.44615 -80.3175
224.206 2.35385 -80.3175
229.006 2.35385 -80.3175
226.606 -1.52944 -86.6008
226.606 1.43713 -86.6008
226.606 -1.52944 -78.8342
226.606 1.43713 -78.8342
225.122 -3.92944 -82.7175
228.089 -3.92944 -82.7175
225.122 3.83713 -82.7175
228.089 3.83713 -82.7175
222.722 -0.0461535 -84.2008
222.722 -0.0461535 -81.2342
230.489 -0.0461535 -84.2008
230.489 -0.0461535 -81.2342
-494.631 -2.23056 3144.38
-489.831 -2.23056 3144.38
-494.631 2.56944 3144.38
-489.831 2.56944 3144.38
-494.631 -2.23056 3149.18
-489.831 -2.23056 3149.18
-494.631 2.56944 3149.18
-489.831 2.56944 3149.18
-492.231 -1.31384 3142.9
-492.231 1.65272 3142.9
-492.231 -1.31384 3150.67
-492.231 1.65272 3150.67
-493.715 -3.71384 3146.78
-490.748 -3.71384 3146.78
-493.715 4.05272 3146.78
-490.748 4.05272 3146.78
-496.115 0.169442 3145.3
-496.115 0.169442 3148.27
-488.348 0.169442 3145.3
-488.348 0.169442 3148.27
-494.631 -2.23056 2989.96
-489.831 -2.23056 2989.96
-494.631 2.56944 2989.96
-489.831 2.56944 2989.96
-494.631 -2.23056 2994.76
-489.831 -2.23056 2994.76
-494.631 2.56944 2994.76
-489.831 2.56944 2994.76
-492.231 -1.31384 2988.48
-492.231 1.65272 2988.48
-492.231 -1.31384 2996.25
-492.231 1.65272 2996.25
-493.715 -3.71384 2992.36
-490.748 -3.71384 2992.36
-493.715 4.05272 2992.36
-490.748 4.05272 2992.36
-496.115 0.169442 2990.88
-496.115 0.169442 2993.85
-488.348 0.169442 2990.88
-488.348 0.169442 2993.85
-319.827 291.819 3144.38
-315.027 291.819 3144.38
-319.827 296.619 3144.38
-315.027 296.619 3144.38
-319.827 291.819 3149.18
-315.027 291.819 3149.18
-319.827 296.619 3149.18
-315.027 296.619 3149.18
-317.427 292.735 3142.9
-317.427 295.702 3142.9
-317.427 292.735 3150.67
-317.427 295.702 3150.67
-318.911 290.335 3146.78
-315.944 290.335 3146.78
-318.911 298.102 3146.78
-315.944 298.102 3146.78
-321.311 294.219 3145.3
-321.311 294.219 3148.27
-313.544 294.219 3145.3
-313.544 294.219 3148.27
-319.827 291.819 2989.96
-315.027 291.819 2989.96
-319.827 296.619 2989.96
-315.027 296.619 2989.96
-319.827 291.819 2994.76
-315.027 291.819 2994.76
-319.827 296.619 2994.76
-315.027 296.619 2994.76
-317.427 292.735 2988.48
-317.427 295.702 2988.48
-317.427 292.735 2996.25
-317.427 295.702 2996.25
-318.911 290.335 2992.36
-315.944 290.335 2992.36
-318.911 298.102 2992.36
-315.944 298.102 2992.36
-321.311 294.219 2990.88
-321.311 294.219 2993.85
-313.544 294.219 2990.88
-313.544 294.219 2993.85
-319.988 -296.558 3144.38
-315.188 -296.558 3144.38
-319.988 -291.758 3144.38
-315.188 -291.758 3144.38
-319.988 -296.558 3149.18
-315.188 -296.558 3149.18
-319.988 -291.758 3149.18
-315.188 -291.758 3149.18
-317.588 -295.642 3142.9
-317.588 -292.675 3142.9
-317.588 -295.642 3150.67
-317.588 -292.675 3150.67
-319.072 -298.042 3146.78
-316.105 -298.042 3146.78
-319.072 -290.275 3146.78
-316.105 -290.275 3146.78
-321.472 -294.158 3145.3
-321.472 -294.158 3148.27
-313.705 -294.158 3145.3
-313.705 -294.158 3148.27
-319.988 -296.558 2989.96
-315.188 -296.558 2989.96
-319.988 -291.758 2989.96
-315.188 -291.758 2989.96
-319.988 -296.558 2994.76
-315.188 -296.558 2994.76
-319.988 -291.758 2994.76
-315.188 -291.758 2994.76
-317.588 -295.642 2988.48
-317.588 -292.675 2988.48
-317.588 -295.642 2996.25
-317.588 -292.675 2996.25
-319.072 -298.042 2992.36
-316.105 -298.042 2992.36
-319.072 -290.275 2992.36
-316.105 -290.275 2992.36
-321.472 -294.158 2990.88
-321.472 -294.158 2993.85
-313.705 -294.158 2990.88
-313.705 -294.158 2993.85
-265.424 -2.34643 2989.96
-260.624 -2.34643 2989.96
-265.424 2.45357 2989.96
-260.624 2.45357 2989.96
-265.424 -2.34643 2994.76
-260.624 -2.34643 2994.76
-265.424 2.45357 2994.76
-260.624 2.45357 2994.76
-263.024 -1.42971 2988.48
-263.024 1.53685 2988.48
-263.024 -1.42971 2996.25
-263.024 1.53685 2996.25
-264.508 -3.82971 2992.36
-261.541 -3.82971 2992.36
-264.508 3.93685 2992.36
-261.541 3.93685 2992.36
-266.908 0.053571 2990.88
-266.908 0.053571 2993.85
-259.141 0.053571 2990.88
-259.141 0.053571 2993.85
-265.424 -2.34643 93.6114
-260.624 -2.34643 93.6114
-265.424 2.45357 93.6114
-260.624 2.45357 93.6114
-265.424 -2.34643 98.4114
-260.624 -2.34643 98.4114
-265.424 2.45357 98.4114
-260.624 2.45357 98.4114
-263.024 -1.42971 92.1281
-263.024 1.53685 92.1281
-263.024 -1.42971 99.8947
-263.024 1.53685 99.8947
-264.508 -3.82971 96.0114
-261.541 -3.82971 96.0114
-264.508 3.93685 96.0114
-261.541 3.93685 96.0114
-266.908 0.053571 94.5281
-266.908 0.053571 97.4947
-259.141 0.053571 94.5281
-259.141 0.053571 97.4947
-261.378 -2.34725 92.1343
-256.578 -2.34725 92.1343
-261.378 2.45275 92.1343
-256.578 2.45275 92.1343
-261.378 -2.34725 96.9343
-256.578 -2.34725 96.9343
-261.378 2.45275 96.9343
-256.578 2.45275 96.9343
-258.978 -1.43053 90.651
-258.978 1.53603 90.651
-258.978 -1.43053 98.4176
-258.978 1.53603 98.4176
-260.461 -3.83053 94.5343
-257.495 -3.83053 94.5343
-260.461 3.93603 94.5343
-257.495 3.93603 94.5343
-262.861 0.0527468 93.051
-262.861 0.0527468 96.0176
-255.095 0.0527468 93.051
-255.095 0.0527468 96.0176
-224.959 -2.35467 78.8404
-220.159 -2.35467 78.8404
-224.959 2.44533 78.8404
-220.159 2.44533 78.8404
-224.959 -2.35467 83.6404
-220.159 -2.35467 83.6404
-224.959 2.44533 83.6404
-220.159 2.44533 83.6404
-222.559 -1.43795 77.3571
-222.559 1.52861 77.3571
-222.559 -1.43795 85.1237
-222.559 1.52861 85.1237
-224.042 -3.83795 81.2404
-221.076 -3.83795 81.2404
-224.042 3.92861 81.2404
-221.076 3.92861 81.2404
-226.442 0.0453293 79.7571
-226.442 0.0453293 82.7237
-218.676 0.0453293 79.7571
-218.676 0.0453293 82.7237
-180.447 -2.36374 62.5923
-175.647 -2.36374 62.5923
-180.447 2.43626 62.5923
-175.647 2.43626 62.5923
-180.447 -2.36374 67.3923
-175.647 -2.36374 67.3923
-180.447 2.43626 67.3923
-175.647 2.43626 67.3923
-178.047 -1.44702 61.109
-178.047 1.51955 61.109
-178.047 -1.44702 68.8756
-178.047 1.51955 68.8756
-179.531 -3.84702 64.9923
-176.564 -3.84702 64.9923
-179.531 3.91955 64.9923
-176.564 3.91955 64.9923
-181.931 0.0362635 63.509
-181.931 0.0362635 66.4756
-174.164 0.0362635 63.509
-174.164 0.0362635 66.4756
-144.028 -2.37115 49.2984
-139.228 -2.37115 49.2984
-144.028 2.42885 49.2984
-139.228 2.42885 49.2984
-144.028 -2.37115 54.0984
-139.228 -2.37115 54.0984
-144.028 2.42885 54.0984
-139.228 2.42885 54.0984
-141.628 -1.45444 47.8152
-141.628 1.51213 47.8152
-141.628 -1.45444 55.5817
-141.628 1.51213 55.5817
-143.112 -3.85444 51.6984
-140.145 -3.85444 51.6984
-143.112 3.91213 51.6984
-140.145 3.91213 51.6984
-145.512 0.0288459 50.2152
-145.512 0.0288459 53.1817
-137.745 0.0288459 50.2152
-137.745 0.0288459 53.1817
-99.5167 -2.38022 33.0504
-94.7167 -2.38022 33.0504
-99.5167 2.41978 33.0504
-94.7167 2.41978 33.0504
-99.5167 -2.38022 37.8504
-94.7167 -2.38022 37.8504
-99.5167 2.41978 37.8504
-94.7167 2.41978 37.8504
-97.1167 -1.4635 31.5671
-97.1167 1.50306 31.5671
-97.1167 -1.4635 39.3336
-97.1167 1.50306 39.3336
-98.6 -3.8635 35.4504
-95.6334 -3.8635 35.4504
-98.6 3.90306 35.4504
-95.6334 3.90306 35.4504
-101 0.0197801 33.9671
-101 0.0197801 36.9336
-93.2334 0.0197801 33.9671
-93.2334 0.0197801 36.9336
-63.0979 -2.38764 19.7565
-58.2979 -2.38764 19.7565
-63.0979 2.41236 19.7565
-58.2979 2.41236 19.7565
-63.0979 -2.38764 24.5565
-58.2979 -2.38764 24.5565
-63.0979 2.41236 24.5565
-58.2979 2.41236 24.5565
-60.6979 -1.47092 18.2732
-60.6979 1.49564 18.2732
-60.6979 -1.47092 26.0398
-60.6979 1.49564 26.0398
-62.1812 -3.87092 22.1565
-59.2146 -3.87092 22.1565
-62.1812 3.89564 22.1565
-59.2146 3.89564 22.1565
-64.5812 0.0123625 20.6732
-64.5812 0.0123625 23.6398
-56.8146 0.0123625 20.6732
-56.8146 0.0123625 23.6398
-18.5861 -2.3967 3.50839
-13.7861 -2.3967 3.50839
-18.5861 2.4033 3.50839
-13.7861 2.4033 3.50839
-18.5861 -2.3967 8.30839
-13.7861 -2.3967 8.30839
-18.5861 2.4033 8.30839
-13.7861 2.4033 8.30839
-16.1861 -1.47998 2.02511
-16.1861 1.48658 2.02511
-16.1861 -1.47998 9.79167
-16.1861 1.48658 9.79167
-17.6694 -3.87998 5.90839
-14.7028 -3.87998 5.90839
-17.6694 3.88658 5.90839
-14.7028 3.88658 5.90839
-20.0694 0.00329668 4.42511
-20.0694 0.00329668 7.39167
-12.3028 0.00329668 4.42511
-12.3028 0.00329668 7.39167
17.8326 -2.40412 -9.78549
22.6326 -2.40412 -9.78549
17.8326 2.39588 -9.78549
22.6326 2.39588 -9.78549
17.8326 -2.40412 -4.98549
22.6326 -2.40412 -4.98549
17.8326 2.39588 -4.98549
22.6326 2.39588 -4.98549
20.2326 -1.4874 -11.2688
20.2326 1.47916 -11.2688
20.2326 -1.4874 -3.50221
20.2326 1.47916 -3.50221
18.7494 -3.8874 -7.38549
21.7159 -3.8874 -7.38549
18.7494 3.87916 -7.38549
21.7159 3.87916 -7.38549
16.3494 -0.00412085 -8.86877
16.3494 -0.00412085 -5.90221
24.1159 -0.00412085 -8.86877
24.1159 -0.00412085 -5.90221
62.3445 -2.41319 -26.0336
67.1445 -2.41319 -26.0336
62.3445 2.38681 -26.0336
67.1445 2.38681 -26.0336
62.3445 -2.41319 -21.2336
67.1445 -2.41319 -21.2336
62.3445 2.38681 -21.2336
67.1445 2.38681 -21.2336
64.7445 -1.49647 -27.5169
64.7445 1.47009 -27.5169
64.7445 -1.49647 -19.7503
64.7445 1.47009 -19.7503
63.2612 -3.89647 -23.6336
66.2277 -3.89647 -23.6336
63.2612 3.87009 -23.6336
66.2277 3.87009 -23.6336
60.8612 -0.0131867 -25.1169
60.8612 -0.0131867 -22.1503
68.6277 -0.0131867 -25.1169
68.6277 -0.0131867 -22.1503
98.7632 -2.4206 -39.3275
103.563 -2.4206 -39.3275
98.7632 2.3794 -39.3275
103.563 2.3794 -39.3275
98.7632 -2.4206 -34.5275
103.563 -2.4206 -34.5275
98.7632 2.3794 -34.5275
103.563 2.3794 -34.5275
101.163 -1.50389 -40.8107
101.163 1.46268 -40.8107
101.163 -1.50389 -33.0442
101.163 1.46268 -33.0442
99.6799 -3.90389 -36.9275
102.646 -3.90389 -36.9275
99.6799 3.86268 -36.9275
102.646 3.86268 -36.9275
97.2799 -0.0206042 -38.4107
97.2799 -0.0206042 -35.4442
105.046 -0.0206042 -38.4107
105.046 -0.0206042 -35.4442
143.275 -2.42967 -55.5755
148.075 -2.42967 -55.5755
143.275 2.37033 -55.5755
148.075 2.37033 -55.5755
143.275 -2.42967 -50.7755
148.075 -2.42967 -50.7755
143.275 2.37033 -50.7755
148.075 2.37033 -50.7755
145.675 -1.51295 -57.0588
145.675 1.45361 -57.0588
145.675 -1.51295 -49.2923
145.675 1.45361 -49.2923
144.192 -3.91295 -53.1755
147.158 -3.91295 -53.1755
144.192 3.85361 -53.1755
147.158 3.85361 -53.1755
141.792 -0.0296701 -54.6588
141.792 -0.0296701 -51.6923
149.558 -0.0296701 -54.6588
149.558 -0.0296701 -51.6923
179.694 -2.43709 -68.8694
184.494 -2.43709 -68.8694
179.694 2.36291 -68.8694
184.494 2.36291 -68.8694
179.694 -2.43709 -64.0694
184.494 -2.43709 -64.0694
179.694 2.36291 -64.0694
184.494 2.36291 -64.0694
182.094 -1.52037 -70.3527
182.094 1.44619 -70.3527
182.094 -1.52037 -62.5861
182.094 1.44619 -62.5861
180.611 -3.92037 -66.4694
183.577 -3.92037 -66.4694
180.611 3.84619 -66.4694
183.577 3.84619 -66.4694
178.211 -0.0370876 -67.9527
178.211 -0.0370876 -64.9861
185.977 -0.0370876 -67.9527
185.977 -0.0370876 -64.9861
224.206 -2.44615 -85.1175
229.006 -2.44615 -85.1175
224.206 2.35385 -85.1175
229.006 2.35385 -85.1175
224.206 -2.44615 -80.3175
229.006 -2.44615 -80.3175
224.206 2.35385 -80.3175
229.006 2.35385 -80.3175
226.606 -1.52944 -86.6008
226.606 1.43713 -86.6008
226.606 -1.52944 -78.8342
226.606 1.43713 -78.8342
225.122 -3.92944 -82.7175
228.089 -3.92944 -82.7175
225.122 3.83713 -82.7175
228.089 3.83713 -82.7175
222.722 -0.0461535 -84.2008
222.722 -0.0461535 -81.2342
230.489 -0.0461535 -84.2008
230.489 -0.0461535 -81.2342
260.624 -2.45357 -98.4114
265.424 -2.45357 -98.4114
260.624 2.34643 -98.4114
265.424 2.34643 -98.4114
260.624 -2.45357 -93.6114
265.424 -2.45357 -93.6114
260.624 2.34643 -93.6114
265.424 2.34643 -93.6114
263.024 -1.53685 -99.8947
263.024 1.42971 -99.8947
263.024 -1.53685 -92.1281
263.024 1.42971 -92.1281
261.541 -3.93685 -96.0114
264.508 -3.93685 -96.0114
261.541 3.82971 -96.0114
264.508 3.82971 -96.0114
259.141 -0.053571 -97.4947
259.141 -0.053571 -94.5281
266.908 -0.053571 -97.4947
266.908 -0.053571 -94.5281
-494.631 -2.23056 2989.96
-489.831 -2.23056 2989.96
-494.631 2.56944 2989.96
-489.831 2.56944 2989.96
-494.631 -2.23056 2994.76
-489.831 -2.23056 2994.76
-494.631 2.56944 2994.76
-489.831 2.56944 2994.76
-492.231 -1.31384 2988.48
-492.231 1.65272 2988.48
-492.231 -1.31384 2996.25
-492.231 1.65272 2996.25
-493.715 -3.71384 2992.36
-490.748 -3.71384 2992.36
-493.715 4.05272 2992.36
-490.748 4.05272 2992.36
-496.115 0.169442 2990.88
-496.115 0.169442 2993.85
-488.348 0.169442 2990.88
-488.348 0.169442 2993.85
-494.631 -2.23056 -184.345
-489.831 -2.23056 -184.345
-494.631 2.56944 -184.345
-489.831 2.56944 -184.345
-494.631 -2.23056 -179.545
-489.831 -2.23056 -179.545
-494.631 2.56944 -179.545
-489.831 2.56944 -179.545
-492.231 -1.31384 -185.829
-492.231 1.65272 -185.829
-492.231 -1.31384 -178.062
-492.231 1.65272 -178.062
-493.715 -3.71384 -181.945
-490.748 -3.71384 -181.945
-493.715 4.05272 -181.945
-490.748 4.05272 -181.945
-496.115 0.169442 -183.429
-496.115 0.169442 -180.462
-488.348 0.169442 -183.429
-488.348 0.169442 -180.462
-494.631 -2.23056 -184.345
-489.831 -2.23056 -184.345
-494.631 2.56944 -184.345
-489.831 2.56944 -184.345
-494.631 -2.23056 -179.545
-489.831 -2.23056 -179.545
-494.631 2.56944 -179.545
-489.831 2.56944 -179.545
-492.231 -1.31384 -185.829
-492.231 1.65272 -185.829
-492.231 -1.31384 -178.062
-492.231 1.65272 -178.062
-493.715 -3.71384 -181.945
-490.748 -3.71384 -181.945
-493.715 4.05272 -181.945
-490.748 4.05272 -181.945
-496.115 0.169442 -183.429
-496.115 0.169442 -180.462
-488.348 0.169442 -183.429
-488.348 0.169442 -180.462
256.867 -2.38362 -458.664
261.667 -2.38362 -458.664
256.867 2.41638 -458.664
261.667 2.41638 -458.664
256.867 -2.38362 -453.864
261.667 -2.38362 -453.864
256.867 2.41638 -453.864
261.667 2.41638 -453.864
259.267 -1.4669 -460.147
259.267 1.49966 -460.147
259.267 -1.4669 -452.38
259.267 1.49966 -452.38
257.784 -3.8669 -456.264
260.75 -3.8669 -456.264
257.784 3.89966 -456.264
260.75 3.89966 -456.264
255.384 0.016382 -457.747
255.384 0.016382 -454.78
263.15 0.016382 -457.747
263.15 0.016382 -454.78
-319.827 291.819 2989.96
-315.027 291.819 2989.96
-319.827 296.619 2989.96
-315.027 296.619 2989.96
-319.827 291.819 2994.76
-315.027 291.819 2994.76
-319.827 296.619 2994.76
-315.027 296.619 2994.76
-317.427 292.735 2988.48
-317.427 295.702 2988.48
-317.427 292.735 2996.25
-317.427 295.702 2996.25
-318.911 290.335 2992.36
-315.944 290.335 2992.36
-318.911 298.102 2992.36
-315.944 298.102 2992.36
-321.311 294.219 2990.88
-321.311 294.219 2993.85
-313.544 294.219 2990.88
-313.544 294.219 2993.85
-319.827 291.819 294.368
-315.027 291.819 294.368
-319.827 296.619 294.368
-315.027 296.619 294.368
-319.827 291.819 299.168
-315.027 291.819 299.168
-319.827 296.619 299.168
-315.027 296.619 299.168
-317.427 292.735 292.884
-317.427 295.702 292.884
-317.427 292.735 300.651
-317.427 295.702 300.651
-318.911 290.335 296.768
-315.944 290.335 296.768
-318.911 298.102 296.768
-315.944 298.102 296.768
-321.311 294.219 295.284
-321.311 294.219 298.251
-313.544 294.219 295.284
-313.544 294.219 298.251
-319.827 291.819 294.368
-315.027 291.819 294.368
-319.827 296.619 294.368
-315.027 296.619 294.368
-319.827 291.819 299.168
-315.027 291.819 299.168
-319.827 296.619 299.168
-315.027 296.619 299.168
-317.427 292.735 292.884
-317.427 295.702 292.884
-317.427 292.735 300.651
-317.427 295.702 300.651
-318.911 290.335 296.768
-315.944 290.335 296.768
-318.911 298.102 296.768
-315.944 298.102 296.768
-321.311 294.219 295.284
-321.311 294.219 298.251
-313.544 294.219 295.284
-313.544 294.219 298.251
431.671 291.666 20.0495
436.471 291.666 20.0495
431.671 296.466 20.0495
436.471 296.466 20.0495
431.671 291.666 24.8495
436.471 291.666 24.8495
431.671 296.466 24.8495
436.471 296.466 24.8495
434.071 292.582 18.5662
434.071 295.549 18.5662
434.071 292.582 26.3327
434.071 295.549 26.3327
432.587 290.182 22.4495
435.554 290.182 22.4495
432.587 297.949 22.4495
435.554 297.949 22.4495
430.187 294.066 20.9662
430.187 294.066 23.9327
437.954 294.066 20.9662
437.954 294.066 23.9327
-319.988 -296.558 2989.96
-315.188 -296.558 2989.96
-319.988 -291.758 2989.96
-315.188 -291.758 2989.96
-319.988 -296.558 2994.76
-315.188 -296.558 2994.76
-319.988 -291.758 2994.76
-315.188 -291.758 2994.76
-317.588 -295.642 2988.48
-317.588 -292.675 2988.48
-317.588 -295.642 2996.25
-317.588 -292.675 2996.25
-319.072 -298.042 2992.36
-316.105 -298.042 2992.36
-319.072 -290.275 2992.36
-316.105 -290.275 2992.36
-321.472 -294.158 2990.88
-321.472 -294.158 2993.85
-313.705 -294.158 2990.88
-313.705 -294.158 2993.85
-319.988 -296.558 294.255
-315.188 -296.558 294.255
-319.988 -291.758 294.255
-315.188 -291.758 294.255
-319.988 -296.558 299.055
-315.188 -296.558 299.055
-319.988 -291.758 299.055
-315.188 -291.758 299.055
-317.588 -295.642 292.772
-317.588 -292.675 292.772
-317.588 -295.642 300.538
-317.588 -292.675 300.538
-319.072 -298.042 296.655
-316.105 -298.042 296.655
-319.072 -290.275 296.655
-316.105 -290.275 296.655
-321.472 -294.158 295.172
-321.472 -294.158 298.138
-313.705 -294.158 295.172
-313.705 -294.158 298.138
-319.988 -296.558 294.255
-315.188 -296.558 294.255
-319.988 -291.758 294.255
-315.188 -291.758 294.255
-319.988 -296.558 299.055
-315.188 -296.558 299.055
-319.988 -291.758 299.055
-315.188 -291.758 299.055
-317.588 -295.642 292.772
-317.588 -292.675 292.772
-317.588 -295.642 300.538
-317.588 -292.675 300.538
-319.072 -298.042 296.655
-316.105 -298.042 296.655
-319.072 -290.275 296.655
-316.105 -290.275 296.655
-321.472 -294.158 295.172
-321.472 -294.158 298.138
-313.705 -294.158 295.172
-313.705 -294.158 298.138
431.51 -296.712 19.9369
436.31 -296.712 19.9369
431.51 -291.912 19.9369
436.31 -291.912 19.9369
431.51 -296.712 24.7369
436.31 -296.712 24.7369
431.51 -291.912 24.7369
436.31 -291.912 24.7369
433.91 -295.795 18.4536
433.91 -292.828 18.4536
433.91 -295.795 26.2202
433.91 -292.828 26.2202
432.426 -298.195 22.3369
435.393 -298.195 22.3369
432.426 -290.428 22.3369
435.393 -290.428 22.3369
430.026 -294.312 20.8536
430.026 -294.312 23.8202
437.793 -294.312 20.8536
437.793 -294.312 23.8202
CELLS 1328 5312
3 33 12 32
3 33 13 12
3 5 30 25
3 5 30 10
3 5 33 13
3 5 33 25
3 21 33 25
3 21 39 38
3 21 39 25
3 4 17 16
3 4 0 16
3 4 0 12
3 4 17 6
3 4 11 10
3 4 11 6
3 4 13 12
3 4 5 10
3 4 5 13
3 35 39 38
3 35 23 38
3 35 39 27
3 2 17 6
3 2 17 16
3 2 14 6
3 2 0 16
3 2 0 8
3 2 9 8
3 29 9 8
3 29 8 28
3 29 2 9
3 29 2 22
3 29 23 38
3 29 21 38
3 29 21 28
3 20 33 32
3 20 21 28
3 20 21 33
3 20 12 32
3 20 0 12
3 20 0 8
3 20 8 28
3 31 39 27
3 31 30 25
3 31 39 25
3 31 11 10
3 31 30 10
3 7 14 6
3 7 14 15
3 7 11 6
3 7 35 27
3 7 35 15
3 7 31 27
3 7 31 11
3 34 35 23
3 34 29 23
3 34 29 22
3 34 2 14
3 34 2 22
3 34 14 15
3 34 35 15
3 70 45 65
3 70 45 50
3 53 44 50
3 53 45 50
3 53 44 52
3 73 61 78
3 73 79 78
3 73 79 65
3 73 53 52
3 73 52 72
3 73 45 65
3 73 53 45
3 57 54 46
3 57 42 56
3 57 42 54
3 57 44 52
3 57 40 56
3 57 40 52
3 57 44 50
3 57 51 50
3 57 51 46
3 75 63 78
3 75 79 78
3 75 79 67
3 69 61 68
3 69 61 78
3 69 63 78
3 60 61 68
3 60 73 61
3 60 73 72
3 60 40 52
3 60 52 72
3 60 40 48
3 60 48 68
3 71 70 65
3 71 79 67
3 71 79 65
3 71 70 50
3 71 51 50
3 47 54 55
3 47 54 46
3 47 51 46
3 47 75 67
3 47 75 55
3 47 71 67
3 47 71 51
3 74 75 63
3 74 69 63
3 74 69 62
3 74 42 54
3 74 42 62
3 74 54 55
3 74 75 55
3 49 40 48
3 49 42 56
3 49 40 56
3 49 69 68
3 49 48 68
3 49 69 62
3 49 42 62
3 85 93 92
3 85 84 90
3 85 84 92
3 85 110 105
3 85 110 90
3 113 101 108
3 113 100 112
3 113 100 108
3 113 101 118
3 113 119 118
3 113 119 105
3 113 93 92
3 113 92 112
3 113 85 93
3 113 85 105
3 97 84 90
3 97 91 90
3 97 91 86
3 115 103 118
3 115 119 118
3 115 119 107
3 82 94 86
3 82 97 86
3 82 97 96
3 109 89 88
3 109 88 108
3 109 82 89
3 109 82 102
3 109 101 108
3 109 101 118
3 109 103 118
3 80 100 112
3 80 92 112
3 80 100 108
3 80 88 108
3 80 84 92
3 80 97 96
3 80 97 84
3 80 82 96
3 80 82 89
3 80 89 88
3 111 119 107
3 111 110 105
3 111 119 105
3 111 91 90
3 111 110 90
3 87 94 95
3 87 91 86
3 87 94 86
3 87 115 107
3 87 115 95
3 87 111 107
3 87 111 91
3 114 115 103
3 114 109 103
3 114 109 102
3 114 82 94
3 114 82 102
3 114 94 95
3 114 115 95
3 125 150 145
3 125 150 130
3 153 141 148
3 153 140 152
3 153 140 148
3 153 141 158
3 153 159 158
3 153 159 145
3 153 133 132
3 153 132 152
3 153 125 145
3 153 125 133
3 124 137 126
3 124 131 130
3 124 131 126
3 124 125 130
3 124 125 133
3 124 133 132
3 155 143 158
3 155 159 158
3 155 159 147
3 122 137 126
3 122 137 136
3 122 134 126
3 149 129 128
3 149 128 148
3 149 122 129
3 149 122 142
3 149 141 148
3 149 141 158
3 149 143 158
3 120 140 152
3 120 132 152
3 120 140 148
3 120 128 148
3 120 137 136
3 120 124 132
3 120 124 137
3 120 122 136
3 120 122 129
3 120 129 128
3 151 159 147
3 151 150 145
3 151 159 145
3 151 131 130
3 151 150 130
3 127 134 126
3 127 134 135
3 127 131 126
3 127 155 147
3 127 155 135
3 127 151 147
3 127 151 131
3 154 155 143
3 154 149 143
3 154 149 142
3 154 122 134
3 154 122 142
3 154 134 135
3 154 155 135
3 165 190 185
3 165 190 170
3 193 181 188
3 193 180 192
3 193 180 188
3 193 181 198
3 193 199 198
3 193 199 185
3 193 173 172
3 193 172 192
3 193 165 185
3 193 165 173
3 164 177 166
3 164 171 170
3 164 171 166
3 164 165 170
3 164 165 173
3 164 173 172
3 195 183 198
3 195 199 198
3 195 199 187
3 162 177 166
3 162 177 176
3 162 174 166
3 189 169 168
3 189 168 188
3 189 162 169
3 189 162 182
3 189 181 188
3 189 181 198
3 189 183 198
3 160 180 192
3 160 172 192
3 160 180 188
3 160 168 188
3 160 177 176
3 160 164 172
3 160 164 177
3 160 162 176
3 160 162 169
3 160 169 168
3 191 199 187
3 191 190 185
3 191 199 185
3 191 171 170
3 191 190 170
3 167 174 166
3 167 174 175
3 167 171 166
3 167 195 187
3 167 195 175
3 167 191 187
3 167 191 171
3 194 195 183
3 194 189 183
3 194 189 182
3 194 162 174
3 194 162 182
3 194 174 175
3 194 195 175
3 205 213 212
3 205 204 210
3 205 204 212
3 205 230 225
3 205 230 210
3 233 221 228
3 233 220 232
3 233 220 228
3 233 221 238
3 233 239 238
3 233 239 225
3 233 213 212
3 233 212 232
3 233 205 213
3 233 205 225
3 217 204 210
3 217 211 210
3 217 211 206
3 235 223 238
3 235 239 238
3 235 239 227
3 202 214 206
3 202 217 206
3 202 217 216
3 229 209 208
3 229 208 228
3 229 202 209
3 229 202 222
3 229 221 228
3 229 221 238
3 229 223 238
3 200 220 232
3 200 212 232
3 200 220 228
3 200 208 228
3 200 204 212
3 200 217 216
3 200 217 204
3 200 202 216
3 200 202 209
3 200 209 208
3 231 239 227
3 231 230 225
3 231 239 225
3 231 211 210
3 231 230 210
3 207 214 215
3 207 211 206
3 207 214 206
3 207 235 227
3 207 235 215
3 207 231 227
3 207 231 211
3 234 235 223
3 234 229 223
3 234 229 222
3 234 202 214
3 234 202 222
3 234 214 215
3 234 235 215
3 270 245 265
3 270 245 250
3 253 244 250
3 253 245 250
3 253 244 252
3 273 261 278
3 273 279 278
3 273 279 265
3 273 261 268
3 273 260 272
3 273 260 268
3 273 253 252
3 273 252 272
3 273 245 265
3 273 253 245
3 257 254 246
3 257 242 256
3 257 242 254
3 257 244 250
3 257 251 250
3 257 251 246
3 275 263 278
3 275 279 278
3 275 279 267
3 269 261 268
3 269 261 278
3 269 263 278
3 240 260 272
3 240 252 272
3 240 260 268
3 240 248 268
3 240 244 252
3 240 257 244
3 240 257 256
3 271 270 265
3 271 279 267
3 271 279 265
3 271 270 250
3 271 251 250
3 247 254 255
3 247 254 246
3 247 251 246
3 247 275 267
3 247 275 255
3 247 271 267
3 247 271 251
3 274 275 263
3 274 269 263
3 274 269 262
3 274 242 254
3 274 242 262
3 274 254 255
3 274 275 255
3 249 242 256
3 249 240 256
3 249 240 248
3 249 269 268
3 249 248 268
3 249 269 262
3 249 242 262
3 315 294 314
3 315 295 294
3 303 315 314
3 303 302 314
3 303 302 309
3 303 309 308
3 303 301 318
3 303 301 308
3 300 302 309
3 300 302 316
3 300 309 308
3 300 301 313
3 300 301 308
3 300 312 313
3 286 294 314
3 286 302 314
3 286 297 316
3 286 302 316
3 299 315 295
3 299 303 318
3 299 287 295
3 299 303 315
3 284 297 316
3 284 312 292
3 284 300 316
3 284 300 312
3 293 299 318
3 293 301 318
3 293 299 285
3 293 301 313
3 293 312 292
3 293 312 313
3 291 295 294
3 291 287 295
3 291 286 294
3 290 284 292
3 290 293 285
3 290 293 292
3 290 299 287
3 290 299 285
3 290 291 287
3 290 286 297
3 290 284 297
3 290 291 286
3 352 341 353
3 352 340 348
3 352 341 348
3 333 352 332
3 333 352 353
3 330 333 332
3 330 333 325
3 330 324 332
3 358 333 353
3 358 341 353
3 358 339 325
3 358 333 325
3 327 339 325
3 327 330 325
3 327 330 331
3 356 324 332
3 356 352 332
3 356 352 340
3 356 324 337
3 343 327 339
3 343 358 339
3 343 335 355
3 343 327 335
3 334 335 355
3 334 354 355
3 349 340 348
3 349 356 342
3 349 356 340
3 349 341 348
3 349 358 341
3 349 343 358
3 349 354 342
3 349 343 355
3 349 354 355
3 326 324 337
3 326 330 331
3 326 330 324
3 326 356 337
3 326 356 342
3 326 354 342
3 326 334 354
3 326 327 331
3 326 327 335
3 326 334 335
3 392 381 393
3 392 380 388
3 392 381 388
3 392 373 393
3 392 373 372
3 365 373 393
3 365 398 379
3 365 381 393
3 365 398 381
3 396 392 372
3 396 364 372
3 396 377 364
3 396 392 380
3 367 375 395
3 367 398 379
3 367 383 395
3 367 383 398
3 370 377 364
3 370 366 371
3 370 366 377
3 370 364 372
3 370 373 372
3 370 365 373
3 370 365 379
3 370 367 379
3 370 367 371
3 389 380 388
3 389 396 380
3 389 396 382
3 389 381 388
3 389 398 381
3 389 383 398
3 389 383 395
3 389 394 395
3 389 394 382
3 374 366 371
3 374 367 375
3 374 367 371
3 374 396 377
3 374 366 377
3 374 396 382
3 374 394 382
3 374 375 395
3 374 394 395
3 435 414 434
3 435 415 414
3 423 435 434
3 423 422 434
3 423 422 429
3 423 429 428
3 423 421 438
3 423 421 428
3 420 422 429
3 420 422 436
3 420 429 428
3 420 421 433
3 420 421 428
3 420 432 433
3 406 414 434
3 406 422 434
3 406 417 436
3 406 422 436
3 419 435 415
3 419 423 438
3 419 407 415
3 419 423 435
3 404 417 436
3 404 432 412
3 404 420 436
3 404 420 432
3 413 419 438
3 413 421 438
3 413 419 405
3 413 421 433
3 413 432 412
3 413 432 433
3 411 415 414
3 411 407 415
3 411 406 414
3 410 404 412
3 410 413 405
3 410 413 412
3 410 419 407
3 410 419 405
3 410 411 407
3 410 406 417
3 410 404 417
3 410 411 406
3 454 457 456
3 454 442 456
3 454 457 446
3 462 454 442
3 462 454 474
3 451 470 450
3 451 471 470
3 444 457 456
3 444 440 456
3 444 440 452
3 444 453 445
3 444 453 452
3 444 445 450
3 444 457 446
3 444 451 450
3 444 451 446
3 460 440 452
3 460 452 472
3 449 462 469
3 449 462 442
3 465 470 450
3 465 445 450
3 465 467 471
3 465 471 470
3 465 467 479
3 475 454 474
3 475 454 455
3 475 463 469
3 475 462 469
3 475 462 474
3 475 463 478
3 475 467 479
3 475 479 478
3 447 454 446
3 447 451 446
3 447 454 455
3 447 475 455
3 447 475 467
3 447 451 471
3 447 467 471
3 468 463 478
3 468 461 478
3 468 463 469
3 473 452 472
3 473 453 452
3 473 453 445
3 473 465 445
3 473 479 478
3 473 461 478
3 473 465 479
3 473 460 472
3 473 468 461
3 473 468 460
3 448 442 456
3 448 440 456
3 448 449 442
3 448 460 440
3 448 468 460
3 448 449 469
3 448 468 469
3 503 501 518
3 503 508 509
3 503 508 501
3 502 494 482
3 502 494 514
3 493 484 490
3 493 485 490
3 493 484 492
3 491 510 490
3 491 511 510
3 497 482 496
3 497 494 486
3 497 494 482
3 497 484 490
3 497 491 490
3 497 491 486
3 489 502 509
3 489 502 482
3 505 485 490
3 505 510 490
3 505 507 511
3 505 511 510
3 505 507 519
3 515 494 514
3 515 494 495
3 515 503 509
3 515 502 509
3 515 502 514
3 515 503 518
3 515 507 519
3 515 519 518
3 487 494 486
3 487 491 486
3 487 494 495
3 487 515 495
3 487 515 507
3 487 491 511
3 487 507 511
3 480 484 492
3 480 497 484
3 480 497 496
3 480 500 512
3 480 492 512
3 513 493 492
3 513 492 512
3 513 493 485
3 513 505 485
3 513 500 512
3 513 508 501
3 513 500 508
3 513 519 518
3 513 501 518
3 513 505 519
3 488 482 496
3 488 489 482
3 488 480 496
3 488 508 509
3 488 489 509
3 488 500 508
3 488 480 500
3 542 534 522
3 542 534 554
3 533 532 552
3 533 553 552
3 531 550 530
3 531 551 550
3 555 534 554
3 555 534 535
3 555 543 549
3 555 542 549
3 555 542 554
3 537 522 536
3 537 534 526
3 537 534 522
3 537 524 530
3 537 531 530
3 537 531 526
3 520 524 532
3 520 537 524
3 520 537 536
3 529 522 536
3 529 520 536
3 529 520 528
3 529 542 549
3 529 542 522
3 525 524 532
3 525 524 530
3 525 533 532
3 547 543 558
3 547 559 558
3 547 555 543
3 548 543 558
3 548 541 558
3 548 543 549
3 548 529 528
3 548 529 549
3 545 550 530
3 545 525 530
3 545 533 553
3 545 525 533
3 545 541 558
3 545 553 541
3 545 559 558
3 545 551 550
3 545 547 559
3 545 547 551
3 527 534 526
3 527 531 526
3 527 534 535
3 527 555 535
3 527 547 555
3 527 531 551
3 527 547 551
3 540 553 552
3 540 553 541
3 540 548 541
3 540 532 552
3 540 520 532
3 540 520 528
3 540 548 528
3 583 581 598
3 583 588 589
3 583 588 581
3 582 574 562
3 582 574 594
3 593 573 572
3 593 572 592
3 571 590 570
3 571 591 590
3 577 562 576
3 577 574 566
3 577 574 562
3 577 564 570
3 577 571 570
3 577 571 566
3 560 564 572
3 560 577 564
3 560 577 576
3 565 564 572
3 565 564 570
3 565 573 572
3 565 590 570
3 565 585 590
3 565 593 585
3 565 593 573
3 595 574 594
3 595 574 575
3 595 583 589
3 595 582 589
3 595 582 594
3 567 574 566
3 567 571 566
3 567 574 575
3 567 595 575
3 567 595 587
3 567 571 591
3 567 587 591
3 599 581 598
3 599 593 581
3 599 593 585
3 599 591 590
3 599 585 590
3 599 587 591
3 599 583 598
3 599 595 583
3 599 595 587
3 580 588 581
3 580 593 592
3 580 593 581
3 580 572 592
3 580 560 572
3 569 582 589
3 569 582 562
3 568 562 576
3 568 560 576
3 568 569 562
3 568 580 560
3 568 580 588
3 568 588 589
3 568 569 589
3 623 628 629
3 623 621 638
3 623 621 628
3 614 617 616
3 614 602 616
3 614 617 606
3 622 609 602
3 622 609 629
3 622 614 602
3 622 614 634
3 611 630 610
3 611 631 630
3 604 613 605
3 604 613 612
3 604 605 610
3 604 617 606
3 604 611 610
3 604 611 606
3 600 617 616
3 600 604 617
3 600 604 612
3 600 620 632
3 600 612 632
3 625 630 610
3 625 605 610
3 625 627 639
3 625 631 630
3 625 627 631
3 607 614 606
3 607 611 606
3 607 614 615
3 607 611 631
3 607 627 631
3 635 623 629
3 635 622 634
3 635 622 629
3 635 623 638
3 635 627 639
3 635 639 638
3 635 614 634
3 635 614 615
3 635 607 615
3 635 607 627
3 608 602 616
3 608 609 602
3 608 600 616
3 608 628 629
3 608 609 629
3 608 620 628
3 608 600 620
3 633 612 632
3 633 613 612
3 633 613 605
3 633 625 605
3 633 621 628
3 633 620 632
3 633 620 628
3 633 621 638
3 633 639 638
3 633 625 639
3 654 657 656
3 654 642 656
3 654 657 646
3 662 654 642
3 662 654 674
3 673 652 672
3 673 653 652
3 651 670 650
3 651 671 670
3 644 657 646
3 644 651 650
3 644 651 646
3 640 657 656
3 640 644 652
3 640 644 657
3 640 660 672
3 640 652 672
3 668 673 672
3 668 660 672
3 668 673 661
3 668 663 678
3 668 661 678
3 668 663 669
3 645 653 652
3 645 644 650
3 645 644 652
3 645 670 650
3 645 665 670
3 645 673 665
3 645 673 653
3 675 654 674
3 675 654 655
3 675 663 669
3 675 662 669
3 675 662 674
3 647 654 646
3 647 651 646
3 647 654 655
3 647 675 655
3 647 675 667
3 647 651 671
3 647 667 671
3 679 661 678
3 679 673 661
3 679 673 665
3 679 671 670
3 679 665 670
3 679 667 671
3 679 663 678
3 679 675 663
3 679 675 667
3 648 640 660
3 648 668 660
3 649 642 656
3 649 640 656
3 649 648 640
3 649 662 642
3 649 662 669
3 649 668 669
3 649 648 668
3 694 697 696
3 694 682 696
3 694 697 686
3 702 694 682
3 702 694 714
3 693 692 712
3 693 713 712
3 691 710 690
3 691 711 710
3 715 694 714
3 715 694 695
3 715 703 709
3 715 702 709
3 715 702 714
3 684 697 686
3 684 691 690
3 684 691 686
3 680 697 696
3 680 684 692
3 680 684 697
3 689 682 696
3 689 680 696
3 689 680 688
3 689 702 709
3 689 702 682
3 705 701 718
3 705 713 701
3 705 719 718
3 687 694 686
3 687 691 686
3 687 694 695
3 700 692 712
3 700 680 692
3 685 684 692
3 685 693 692
3 685 684 690
3 685 710 690
3 685 705 710
3 685 693 713
3 685 705 713
3 707 691 711
3 707 687 691
3 707 715 695
3 707 687 695
3 707 711 710
3 707 705 719
3 707 705 710
3 707 703 718
3 707 719 718
3 707 715 703
3 708 703 718
3 708 701 718
3 708 703 709
3 708 713 712
3 708 713 701
3 708 700 712
3 708 689 688
3 708 689 709
3 708 680 688
3 708 700 680
3 755 734 754
3 755 735 734
3 743 755 754
3 743 742 754
3 743 742 749
3 743 749 748
3 743 741 758
3 743 741 748
3 740 742 749
3 740 742 756
3 740 749 748
3 740 741 753
3 740 741 748
3 740 752 753
3 726 734 754
3 726 742 754
3 726 737 756
3 726 742 756
3 739 755 735
3 739 743 758
3 739 727 735
3 739 743 755
3 724 737 756
3 724 752 732
3 724 740 756
3 724 740 752
3 733 739 758
3 733 741 758
3 733 739 725
3 733 741 753
3 733 752 732
3 733 752 753
3 731 735 734
3 731 727 735
3 731 726 734
3 730 724 732
3 730 733 725
3 730 733 732
3 730 739 727
3 730 739 725
3 730 731 727
3 730 726 737
3 730 724 737
3 730 731 726
3 760 764 777
3 760 764 772
3 760 777 776
3 766 764 777
3 766 764 770
3 766 771 770
3 783 788 789
3 783 781 798
3 783 781 788
3 791 771 770
3 791 790 770
3 773 764 770
3 773 765 770
3 773 764 772
3 780 760 772
3 780 772 792
3 774 794 795
3 774 795 775
3 774 777 776
3 774 762 776
3 774 766 777
3 774 766 771
3 774 767 775
3 774 767 771
3 782 783 789
3 782 783 795
3 782 794 795
3 782 769 762
3 782 769 789
3 782 774 794
3 782 774 762
3 787 767 775
3 787 795 775
3 787 767 771
3 787 791 771
3 787 783 798
3 787 783 795
3 787 799 798
3 793 773 772
3 793 772 792
3 793 781 788
3 793 780 792
3 793 780 788
3 768 760 776
3 768 762 776
3 768 769 762
3 768 780 760
3 768 780 788
3 768 788 789
3 768 769 789
3 785 765 770
3 785 790 770
3 785 773 765
3 785 793 773
3 785 787 791
3 785 791 790
3 785 787 799
3 785 781 798
3 785 799 798
3 785 793 781
3 835 814 834
3 835 815 814
3 823 835 834
3 823 822 834
3 823 822 829
3 823 829 828
3 823 821 838
3 823 821 828
3 820 822 829
3 820 822 836
3 820 829 828
3 820 821 833
3 820 821 828
3 820 832 833
3 817 832 812
3 817 820 836
3 817 804 812
3 817 820 832
3 817 814 834
3 817 822 834
3 817 822 836
3 817 806 814
3 819 835 815
3 819 823 838
3 819 807 815
3 819 823 835
3 813 819 838
3 813 821 838
3 813 819 805
3 813 821 833
3 813 832 812
3 813 832 833
3 810 804 812
3 810 813 805
3 810 813 812
3 811 815 814
3 811 807 815
3 811 806 814
3 811 817 806
3 811 817 804
3 811 810 804
3 811 819 805
3 811 819 807
3 811 810 805
3 840 844 852
3 840 844 857
3 840 857 856
3 851 871 870
3 851 870 850
3 845 853 852
3 845 844 850
3 845 844 852
3 860 840 852
3 860 852 872
3 846 857 856
3 846 842 856
3 846 854 842
3 846 844 850
3 846 844 857
3 846 851 850
3 863 868 869
3 863 861 878
3 863 861 868
3 867 863 878
3 867 879 878
3 867 863 875
3 862 849 842
3 862 849 869
3 873 853 852
3 873 852 872
3 873 861 868
3 873 860 872
3 873 860 868
3 848 840 856
3 848 842 856
3 848 849 842
3 848 860 840
3 848 860 868
3 848 868 869
3 848 849 869
3 847 846 854
3 847 846 851
3 847 854 855
3 847 867 875
3 847 875 855
3 847 851 871
3 847 867 871
3 874 863 875
3 874 863 869
3 874 862 869
3 874 854 855
3 874 875 855
3 874 854 842
3 874 862 842
3 865 870 850
3 865 845 850
3 865 845 853
3 865 873 853
3 865 871 870
3 865 867 871
3 865 867 879
3 865 861 878
3 865 879 878
3 865 873 861
3 915 894 914
3 915 895 894
3 903 915 914
3 903 902 914
3 903 902 909
3 903 909 908
3 903 901 918
3 903 901 908
3 900 902 909
3 900 902 916
3 900 909 908
3 900 901 913
3 900 901 908
3 900 912 913
3 897 912 892
3 897 900 916
3 897 884 892
3 897 900 912
3 897 894 914
3 897 902 914
3 897 902 916
3 897 886 894
3 899 915 895
3 899 903 918
3 899 887 895
3 899 903 915
3 893 899 918
3 893 901 918
3 893 899 885
3 893 901 913
3 893 912 892
3 893 912 913
3 890 884 892
3 890 893 885
3 890 893 892
3 891 895 894
3 891 887 895
3 891 886 894
3 891 897 886
3 891 897 884
3 891 890 884
3 891 899 885
3 891 899 887
3 891 890 885
3 931 951 950
3 931 950 930
3 925 933 932
3 925 924 930
3 925 924 932
3 920 940 952
3 920 932 952
3 920 940 948
3 920 928 948
3 920 924 932
3 920 924 937
3 920 937 936
3 929 922 936
3 929 920 936
3 929 920 928
3 929 948 949
3 929 928 948
3 926 937 936
3 926 922 936
3 926 934 922
3 926 924 930
3 926 924 937
3 926 931 930
3 943 948 949
3 943 941 958
3 943 941 948
3 947 943 958
3 947 959 958
3 947 943 955
3 942 929 949
3 942 929 922
3 953 933 932
3 953 932 952
3 953 941 948
3 953 940 952
3 953 940 948
3 927 926 934
3 927 926 931
3 927 934 935
3 927 947 955
3 927 955 935
3 927 931 951
3 927 947 951
3 954 943 955
3 954 943 949
3 954 942 949
3 954 934 935
3 954 955 935
3 954 934 922
3 954 942 922
3 945 950 930
3 945 925 930
3 945 925 933
3 945 953 933
3 945 951 950
3 945 947 951
3 945 947 959
3 945 941 958
3 945 959 958
3 945 953 941
CELL_TYPES 1328
5 5 5 5 5 5 5 5 5 5 
5 5 5 5 5 5 5 5 5 5 
5 5 5 5 5 5 5 5 5 5 
5 5 5 5 5 5 5 5 5 5 
5 5 5 5 5 5 5 5 5 5 
5 5 5 5 5 5 5 5 5 5 
5 5 5 5 5 5 5 5 5 5 
5 5 5 5 5 5 5 5 5 5 
5 5 5 5 5 5 5 5 5 5 
5 5 5 5 5 5 5 5 5 5 
5 5 5 5 5 5 5 5 5 5 
5 5 5 5 5 5 5 5 5 5 
5 5 5 5 5 5 5 5 5 5 
5 5 5 5 5 5 5 5 5 5 
5 5 5 5 5 5 5 5 5 5 
5 5 5 5 5 5 5 5 5 5 
5 5 5 5 5 5 5 5 5 5 
5 5 5 5 5 5 5 5 5 5 
5 5 5 5 5 5 5 5 5 5 
5 5 5 5 5 5 5 5 5 5 
5 5 5 5 5 5 5 5 5 5 
5 5 5 5 5 5 5 5 5 5 
5 5 5 5 5 5 5 5 5 5 
5 5 5 5 5 5 5 5 5 5 
5 5 5 5 5 5 5 5 5 5 
5 5 5 5 5 5 5 5 5 5 
5 5 5 5 5 5 5 5 5 5 
5 5 5 5 5 5 5 5 5 5 
5 5 5 5 5 5 5 5 5 5 
5 5 5 5 5 5 5 5 5 5 
5 5 5 5 5 5 5 5 5 5 
5 5 5 5 5 5 5 5 5 5 
5 5 5 5 5 5 5 5 5 5 
5 5 5 5 5 5 5 5 5 5 
5 5 5 5 5 5 5 5 5 5 
5 5 5 5 5 5 5 5 5 5 
5 5 5 5 5 5 5 5 5 5 
5 5 5 5 5 5 5 5 5 5 
5 5 5 5 5 5 5 5 5 5 
5 5 5 5 5 5 5 5 5 5 
5 5 5 5 5 5 5 5 5 5 
5 5 5 5 5 5 5 5 5 5 
5 5 5 5 5 5 5 5 5 5 
5 5 5 5 5 5 5 5 5 5 
5 5 5 5 5 5 5 5 5 5 
5 5 5 5 5 5 5 5 5 5 
5 5 5 5 5 5 5 5 5 5 
5 5 5 5 5 5 5 5 5 5 
5 5 5 5 5 5 5 5 5 5 
5 5 5 5 5 5 5 5 5 5 
5 5 5 5 5 5 5 5 5 5 
5 5 5 5 5 5 5 5 5 5 
5 5 5 5 5 5 5 5 5 5 
5 5 5 5 5 5 5 5 5 5 
5 5 5 5 5 5 5 5 5 5 
5 5 5 5 5 5 5 5 5 5 
5 5 5 5 5 5 5 5 5 5 
5 5 5 5 5 5 5 5 5 5 
5 5 5 5 5 5 5 5 5 5 
5 5 5 5 5 5 5 5 5 5 
5 5 5 5 5 5 5 5 5 5 
5 5 5 5 5 5 5 5 5 5 
5 5 5 5 5 5 5 5 5 5 
5 5 5 5 5 5 5 5 5 5 
5 5 5 5 5 5 5 5 5 5 
5 5 5 5 5 5 5 5 5 5 
5 5 5 5 5 5 5 5 5 5 
5 5 5 5 5 5 5 5 5 5 
5 5 5 5 5 5 5 5 5 5 
5 5 5 5 5 5 5 5 5 5 
5 5 5 5 5 5 5 5 5 5 
5 5 5 5 5 5 5 5 5 5 
5 5 5 5 5 5 5 5 5 5 
5 5 5 5 5 5 5 5 5 5 
5 5 5 5 5 5 5 5 5 5 
5 5 5 5 5 5 5 5 5 5 
5 5 5 5 5 5 5 5 5 5 
5 5 5 5 5 5 5 5 5 5 
5 5 5 5 5 5 5 5 5 5 
5 5 5 5 5 5 5 5 5 5 
5 5 5 5 5 5 5 5 5 5 
5 5 5 5 5 5 5 5 5 5 
5 5 5 5 5 5 5 5 5 5 
5 5 5 5 5 5 5 5 5 5 
5 5 5 5 5 5 5 5 5 5 
5 5 5 5 5 5 5 5 5 5 
5 5 5 5 5 5 5 5 5 5 
5 5 5 5 5 5 5 5 5 5 
5 5 5 5 5 5 5 5 5 5 
5 5 5 5 5 5 5 5 5 5 
5 5 5 5 5 5 5 5 5 5 
5 5 5 5 5 5 5 5 5 5 
5 5 5 5 5 5 5 5 5 5 
5 5 5 5 5 5 5 5 5 5 
5 5 5 5 5 5 5 5 5 5 
5 5 5 5 5 5 5 5 5 5 
5 5 5 5 5 5 5 5 5 5 
5 5 5 5 5 5 5 5 5 5 
5 5 5 5 5 5 5 5 5 5 
5 5 5 5 5 5 5 5 5 5 
5 5 5 5 5 5 5 5 5 5 
5 5 5 5 5 5 5 5 5 5 
5 5 5 5 5 5 5 5 5 5 
5 5 5 5 5 5 5 5 5 5 
5 5 5 5 5 5 5 5 5 5 
5 5 5 5 5 5 5 5 5 5 
5 5 5 5 5 5 5 5 5 5 
5 5 5 5 5 5 5 5 5 5 
5 5 5 5 5 5 5 5 5 5 
5 5 5 5 5 5 5 5 5 5 
5 5 5 5 5 5 5 5 5 5 
5 5 5 5 5 5 5 5 5 5 
5 5 5 5 5 5 5 5 5 5 
5 5 5 5 5 5 5 5 5 5 
5 5 5 5 5 5 5 5 5 5 
5 5 5 5 5 5 5 5 5 5 
5 5 5 5 5 5 5 5 5 5 
5 5 5 5 5 5 5 5 5 5 
5 5 5 5 5 5 5 5 5 5 
5 5 5 5 5 5 5 5 5 5 
5 5 5 5 5 5 5 5 5 5 
5 5 5 5 5 5 5 5 5 5 
5 5 5 5 5 5 5 5 5 5 
5 5 5 5 5 5 5 5 5 5 
5 5 5 5 5 5 5 5 5 5 
5 5 5 5 5 5 5 5 5 5 
5 5 5 5 5 5 5 5 5 5 
5 5 5 5 5 5 5 5 5 5 
5 5 5 5 5 5 5 5 5 5 
5 5 5 5 5 5 5 5 5 5 
5 5 5 5 5 5 5 5 5 5 
5 5 5 5 5 5 5 5 5 5 
5 5 5 5 5 5 5 5 
CELL_DATA 1328
SCALARS Well_Number float 1
LOOKUP_TABLE default
0 0 0 0 0 0 0 0 0 
0 0 0 0 0 0 0 0 0 0 
0 0 0 0 0 0 0 0 0 0 
0 0 0 0 0 0 0 0 0 0 
0 0 0 0 0 0 0 0 0 0 
0 0 0 0 0 0 0 0 0 0 
0 1 1 1 1 1 1 1 1 1 
1 1 1 1 1 1 1 1 1 1 
1 1 1 1 1 1 1 1 1 1 
1 1 1 1 1 1 1 1 1 1 
1 1 1 1 1 1 1 1 1 1 
1 1 1 1 1 1 1 1 1 1 
1 2 2 2 2 2 2 2 2 2 
2 2 2 2 2 2 2 2 2 2 
2 2 2 2 2 2 2 2 2 2 
2 2 2 2 2 2 2 2 2 2 
2 2 2 2 2 2 2 2 2 2 
2 2 2 2 2 2 2 2 2 2 
2 3 3 3 3 3 3 3 3 3 
3 3 3 3 3 3 3 3 3 3 
3 3 3 3 3 3 3 3 3 3 
3 3 3 3 3 3 3 3 3 3 
3 3 3 3 3 3 3 3 3 3 
3 3 3 3 3 3 3 3 3 3 
3 4 4 4 4 4 4 4 4 4 
4 4 4 4 4 4 4 4 4 4 
4 4 4 4 4 4 4 4 4 4 
4 4 4 4 4 4 4 4 4 4 
4 4 4 4 4 4 4 4 4 4 
4 4 4 4 4 4 4 4 4 4 
4 5 5 5 5 5 5 5 5 5 
5 5 5 5 5 5 5 5 5 5 
5 5 5 5 5 5 5 5 5 5 
5 5 5 5 5 5 5 5 5 5 
5 5 5 5 5 5 5 5 5 5 
5 5 5 5 5 5 5 5 5 5 
5 6 6 6 6 6 6 6 6 6 
6 6 6 6 6 6 6 6 6 6 
6 6 6 6 6 6 6 6 6 6 
6 6 6 6 6 6 6 6 6 6 
6 6 6 6 6 6 6 6 6 6 
6 6 6 6 6 6 6 6 6 6 
6 7 7 7 7 7 7 7 7 7 
7 7 7 7 7 7 7 7 7 7 
7 7 7 7 7 7 7 7 7 7 
7 7 7 7 7 7 7 7 7 7 
7 7 7 7 7 8 8 8 8 8 
8 8 8 8 8 8 8 8 8 8 
8 8 8 8 8 8 8 8 8 8 
8 8 8 8 8 8 8 8 8 8 
8 8 8 8 8 8 8 8 8 9 
9 9 9 9 9 9 9 9 9 9 
9 9 9 9 9 9 9 9 9 9 
9 9 9 9 9 9 9 9 9 9 
9 9 9 9 9 9 9 9 9 9 
9 9 9 10 10 10 10 10 10 10 
10 10 10 10 10 10 10 10 10 10 
10 10 10 10 10 10 10 10 10 10 
10 10 10 10 10 10 10 10 10 10 
10 10 10 10 10 10 10 11 11 11 
11 11 11 11 11 11 11 11 11 11 
11 11 11 11 11 11 11 11 11 11 
11 11 11 11 11 11 11 11 11 11 
11 11 11 11 11 11 11 11 11 11 
11 11 11 11 11 11 11 11 11 11 
11 11 11 11 11 11 11 12 12 12 
12 12 12 12 12 12 12 12 12 12 
12 12 12 12 12 12 12 12 12 12 
12 12 12 12 12 12 12 12 12 12 
12 12 12 12 12 12 12 12 12 12 
12 12 12 12 12 12 12 12 12 12 
12 12 12 12 12 12 12 13 13 13 
13 13 13 13 13 13 13 13 13 13 
13 13 13 13 13 13 13 13 13 13 
13 13 13 13 13 13 13 13 13 13 
13 13 13 13 13 13 13 13 13 13 
13 13 13 13 13 13 13 13 13 13 
13 13 13 13 13 13 13 14 14 14 
14 14 14 14 14 14 14 14 14 14 
14 14 14 14 14 14 14 14 14 14 
14 14 14 14 14 14 14 14 14 14 
14 14 14 14 14 14 14 14 14 14 
14 14 14 14 14 14 14 14 14 14 
14 14 14 14 14 14 14 15 15 15 
15 15 15 15 15 15 15 15 15 15 
15 15 15 15 15 15 15 15 15 15 
15 15 15 15 15 15 15 15 15 15 
15 15 15 15 15 15 15 15 15 15 
15 15 15 15 15 15 15 15 15 15 
15 15 15 15 15 15 15 16 16 16 
16 16 16 16 16 16 16 16 16 16 
16 16 16 16 16 16 16 16 16 16 
16 16 16 16 16 16 16 16 16 16 
16 16 16 16 16 16 16 16 16 16 
16 16 16 16 16 16 16 16 16 16 
16 16 16 16 16 16 16 17 17 17 
17 17 17 17 17 17 17 17 17 17 
17 17 17 17 17 17 17 17 17 17 
17 17 17 17 17 17 17 17 17 17 
17 17 17 17 17 17 17 17 17 17 
17 17 17 17 17 17 17 17 17 17 
17 17 17 17 17 17 17 18 18 18 
18 18 18 18 18 18 18 18 18 18 
18 18 18 18 18 18 18 18 18 18 
18 18 18 18 18 18 18 18 18 18 
18 18 18 18 18 18 18 18 18 18 
18 19 19 19 19 19 19 19 19 19 
19 19 19 19 19 19 19 19 19 19 
19 19 19 19 19 19 19 19 19 19 
19 19 19 19 19 19 19 19 19 19 
19 19 19 19 19 19 19 19 19 19 
19 19 19 19 19 19 19 19 19 19 
19 20 20 20 20 20 20 20 20 20 
20 20 20 20 20 20 20 20 20 20 
20 20 20 20 20 20 20 20 20 20 
20 20 20 20 20 20 20 20 20 20 
20 20 20 20 20 21 21 21 21 21 
21 21 21 21 21 21 21 21 21 21 
21 21 21 21 21 21 21 21 21 21 
21 21 21 21 21 21 21 21 21 21 
21 21 21 21 21 21 21 21 21 21 
21 21 21 21 21 21 21 21 21 21 
21 21 21 21 21 22 22 22 22 22 
22 22 22 22 22 22 22 22 22 22 
22 22 22 22 22 22 22 22 22 22 
22 22 22 22 22 22 22 22 22 22 
22 22 22 22 22 22 22 22 22 23 
23 23 23 23 23 23 23 23 23 23 
23 23 23 23 23 23 23 23 23 23 
23 23 23 23 23 23 23 23 23 23 
23 23 23 23 23 23 23 23 23 23 
23 23 23 23 23 23 23 23 23 23 
23 23 23 23 23 23 23 23 23 SCALARS Well_Type float 1
LOOKUP_TABLE default
-1 -1 -1 -1 -1 -1 -1 -1 -1 
-1 -1 -1 -1 -1 -1 -1 -1 -1 -1 
-1 -1 -1 -1 -1 -1 -1 -1 -1 -1 
-1 -1 -1 -1 -1 -1 -1 -1 -1 -1 
-1 -1 -1 -1 -1 -1 -1 -1 -1 -1 
-1 -1 -1 -1 -1 -1 -1 -1 -1 -1 
-1 -1 -1 -1 -1 -1 -1 -1 -1 -1 
-1 -1 -1 -1 -1 -1 -1 -1 -1 -1 
-1 -1 -1 -1 -1 -1 -1 -1 -1 -1 
-1 -1 -1 -1 -1 -1 -1 -1 -1 -1 
-1 -1 -1 -1 -1 -1 -1 -1 -1 -1 
-1 -1 -1 -1 -1 -1 -1 -1 -1 -1 
-1 -1 -1 -1 -1 -1 -1 -1 -1 -1 
-1 -1 -1 -1 -1 -1 -1 -1 -1 -1 
-1 -1 -1 -1 -1 -1 -1 -1 -1 -1 
-1 -1 -1 -1 -1 -1 -1 -1 -1 -1 
-1 -1 -1 -1 -1 -1 -1 -1 -1 -1 
-1 -1 -1 -1 -1 -1 -1 -1 -1 -1 
-1 -1 -1 -1 -1 -1 -1 -1 -1 -1 
-1 -1 -1 -1 -1 -1 -1 -1 -1 -1 
-1 -1 -1 -1 -1 -1 -1 -1 -1 -1 
-1 -1 -1 -1 -1 -1 -1 -1 -1 -1 
-1 -1 -1 -1 -1 -1 -1 -1 -1 -1 
-1 -1 -1 -1 -1 -1 -1 -1 -1 -1 
-1 -1 -1 -1 -1 -1 -1 -1 -1 -1 
-1 -1 -1 -1 -1 -1 -1 -1 -1 -1 
-1 -1 -1 -1 -1 -1 -1 -1 -1 -1 
-1 -1 -1 -1 -1 -1 -1 -1 -1 -1 
-1 -1 -1 -1 -1 -1 -1 -1 -1 -1 
-1 -1 -1 -1 -1 -1 -1 -1 -1 -1 
-1 -1 -1 -1 -1 -1 -1 -1 -1 -1 
-1 -1 -1 -1 -1 -1 -1 -1 -1 -1 
-1 -1 -1 -1 -1 -1 -1 -1 -1 -1 
-1 -1 -1 -1 -1 -1 -1 -1 -1 -1 
-1 -1 -1 -1 -1 -1 -1 -1 -1 -1 
-1 -1 -1 -1 -1 -1 -1 -1 -1 -1 
-1 -1 -1 -1 -1 -1 -1 -1 -1 -1 
-1 -1 -1 -1 -1 -1 -1 -1 -1 -1 
-1 -1 -1 -1 -1 -1 -1 -1 -1 -1 
-1 -1 -1 -1 -1 -1 -1 -1 -1 -1 
-1 -1 -1 -1 -1 -1 -1 -1 -1 -1 
-1 -1 -1 -1 -1 -1 -1 -1 -1 -1 
-1 -2 -2 -2 -2 -2 -2 -2 -2 -2 
-2 -2 -2 -2 -2 -2 -2 -2 -2 -2 
-2 -2 -2 -2 -2 -2 -2 -2 -2 -2 
-2 -2 -2 -2 -2 -2 -2 -2 -2 -2 
-2 -2 -2 -2 -2 -2 -2 -2 -2 -2 
-2 -2 -2 -2 -2 -2 -2 -2 -2 -2 
-2 -2 -2 -2 -2 -2 -2 -2 -2 -2 
-2 -2 -2 -2 -2 -2 -2 -2 -2 -2 
-2 -2 -2 -2 -2 -2 -2 -2 -2 -2 
-2 -2 -2 -2 -2 -2 -2 -2 -2 -2 
-2 -2 -2 -2 -2 -2 -2 -2 -2 -2 
-2 -2 -2 -2 -2 -2 -2 -2 -2 -2 
-2 -2 -2 -2 -2 -2 -2 -2 -2 -2 
-2 -2 -2 0 0 0 0 0 0 0 
0 0 0 0 0 0 0 0 0 0 
0 0 0 0 0 0 0 0 0 0 
0 0 0 0 0 0 0 0 0 0 
0 0 0 0 0 0 0 -3 -3 -3 
-3 -3 -3 -3 -3 -3 -3 -3 -3 -3 
-3 -3 -3 -3 -3 -3 -3 -3 -3 -3 
-3 -3 -3 -3 -3 -3 -3 -3 -3 -3 
-3 -3 -3 -3 -3 -3 -3 -3 -3 -3 
-3 -3 -3 -3 -3 -3 -3 -3 -3 -3 
-3 -3 -3 -3 -3 -3 -3 -3 -3 -3 
-3 -3 -3 -3 -3 -3 -3 -3 -3 -3 
-3 -3 -3 -3 -3 -3 -3 -3 -3 -3 
-3 -3 -3 -3 -3 -3 -3 -3 -3 -3 
-3 -3 -3 -3 -3 -3 -3 -3 -3 -3 
-3 -3 -3 -3 -3 -3 -3 -3 -3 -3 
-3 -3 -3 -3 -3 -3 -3 -3 -3 -3 
-3 -3 -3 -3 -3 -3 -3 -3 -3 -3 
-3 -3 -3 -3 -3 -3 -3 -3 -3 -3 
-3 -3 -3 -3 -3 -3 -3 -3 -3 -3 
-3 -3 -3 -3 -3 -3 -3 -3 -3 -3 
-3 -3 -3 -3 -3 -3 -3 -3 -3 -3 
-3 -3 -3 -3 -3 -3 -3 -3 -3 -3 
-3 -3 -3 -3 -3 -3 -3 -3 -3 -3 
-3 -3 -3 -3 -3 -3 -3 -3 -3 -3 
-3 -3 -3 -3 -3 -3 -3 -3 -3 -3 
-3 -3 -3 -3 -3 -3 -3 -3 -3 -3 
-3 -3 -3 -3 -3 -3 -3 -3 -3 -3 
-3 -3 -3 -3 -3 -3 -3 -3 -3 -3 
-3 -3 -3 -3 -3 -3 -3 -3 -3 -3 
-3 -3 -3 -3 -3 -3 -3 -3 -3 -3 
-3 -3 -3 -3 -3 -3 -3 -3 -3 -3 
-3 -3 -3 -3 -3 -3 -3 -3 -3 -3 
-3 -3 -3 -3 -3 -3 -3 -3 -3 -3 
-3 -3 -3 -3 -3 -3 -3 -3 -3 -3 
-3 -3 -3 -3 -3 -3 -3 -3 -3 -3 
-3 -3 -3 -3 -3 -3 -3 -3 -3 -3 
-3 -3 -3 -3 -3 -3 -3 -3 -3 -3 
-3 -3 -3 -3 -3 -3 -3 -3 -3 -3 
-3 -3 -3 -3 -3 -3 -3 -3 -3 -3 
-3 -3 -3 -3 -3 -3 -3 -3 -3 -3 
-3 -3 -3 -3 -3 -3 -3 -3 -3 -3 
-3 -3 -3 -3 -3 -3 -3 -3 -3 -3 
-3 -3 -3 -3 -3 -3 -3 -3 -3 -3 
-3 -3 -3 -3 -3 -3 -3 -3 -3 -3 
-3 -3 -3 -3 -3 -3 -3 -3 -3 -3 
-3 -3 -3 -3 -3 -3 -3 0 0 0 
0 0 0 0 0 0 0 0 0 0 
0 0 0 0 0 0 0 0 0 0 
0 0 0 0 0 0 0 0 0 0 
0 0 0 0 0 0 0 0 0 0 
0 -4 -4 -4 -4 -4 -4 -4 -4 -4 
-4 -4 -4 -4 -4 -4 -4 -4 -4 -4 
-4 -4 -4 -4 -4 -4 -4 -4 -4 -4 
-4 -4 -4 -4 -4 -4 -4 -4 -4 -4 
-4 -4 -4 -4 -4 -4 -4 -4 -4 -4 
-4 -4 -4 -4 -4 -4 -4 -4 -4 -4 
-4 0 0 0 0 0 0 0 0 0 
0 0 0 0 0 0 0 0 0 0 
0 0 0 0 0 0 0 0 0 0 
0 0 0 0 0 0 0 0 0 0 
0 0 0 0 0 -4 -4 -4 -4 -4 
-4 -4 -4 -4 -4 -4 -4 -4 -4 -4 
-4 -4 -4 -4 -4 -4 -4 -4 -4 -4 
-4 -4 -4 -4 -4 -4 -4 -4 -4 -4 
-4 -4 -4 -4 -4 -4 -4 -4 -4 -4 
-4 -4 -4 -4 -4 -4 -4 -4 -4 -4 
-4 -4 -4 -4 -4 0 0 0 0 0 
0 0 0 0 0 0 0 0 0 0 
0 0 0 0 0 0 0 0 0 0 
0 0 0 0 0 0 0 0 0 0 
0 0 0 0 0 0 0 0 0 -4 
-4 -4 -4 -4 -4 -4 -4 -4 -4 -4 
-4 -4 -4 -4 -4 -4 -4 -4 -4 -4 
-4 -4 -4 -4 -4 -4 -4 -4 -4 -4 
-4 -4 -4 -4 -4 -4 -4 -4 -4 -4 
-4 -4 -4 -4 -4 -4 -4 -4 -4 -4 
-4 -4 -4 -4 -4 -4 -4 -4 -4 SCALARS Inner_Radius float 1
LOOKUP_TABLE default
0.102 0.102 0.102 0.102 0.102 0.102 0.102 0.102 0.102 
0.102 0.102 0.102 0.102 0.102 0.102 0.102 0.102 0.102 0.102 
0.102 0.102 0.102 0.102 0.102 0.102 0.102 0.102 0.102 0.102 
0.102 0.102 0.102 0.102 0.102 0.102 0.102 0.102 0.102 0.102 
0.102 0.102 0.102 0.102 0.102 0.102 0.102 0.102 0.102 0.102 
0.102 0.102 0.102 0.102 0.102 0.102 0.102 0.102 0.102 0.102 
0.102 0.102 0.102 0.102 0.102 0.102 0.102 0.102 0.102 0.102 
0.102 0.102 0.102 0.102 0.102 0.102 0.102 0.102 0.102 0.102 
0.102 0.102 0.102 0.102 0.102 0.102 0.102 0.102 0.102 0.102 
0.102 0.102 0.102 0.102 0.102 0.102 0.102 0.102 0.102 0.102 
0.102 0.102 0.102 0.102 0.102 0.102 0.102 0.102 0.102 0.102 
0.102 0.102 0.102 0.102 0.102 0.102 0.102 0.102 0.102 0.102 
0.102 0.102 0.102 0.102 0.102 0.102 0.102 0.102 0.102 0.102 
0.102 0.102 0.102 0.102 0.102 0.102 0.102 0.102 0.102 0.102 
0.102 0.102 0.102 0.102 0.102 0.102 0.102 0.102 0.102 0.102 
0.102 0.102 0.102 0.102 0.102 0.102 0.102 0.102 0.102 0.102 
0.102 0.102 0.102 0.102 0.102 0.102 0.102 0.102 0.102 0.102 
0.102 0.102 0.102 0.102 0.102 0.102 0.102 0.102 0.102 0.102 
0.102 0.102 0.102 0.102 0.102 0.102 0.102 0.102 0.102 0.102 
0.102 0.102 0.102 0.102 0.102 0.102 0.102 0.102 0.102 0.102 
0.102 0.102 0.102 0.102 0.102 0.102 0.102 0.102 0.102 0.102 
0.102 0.102 0.102 0.102 0.102 0.102 0.102 0.102 0.102 0.102 
0.102 0.102 0.102 0.102 0.102 0.102 0.102 0.102 0.102 0.102 
0.102 0.102 0.102 0.102 0.102 0.102 0.102 0.102 0.102 0.102 
0.102 0.102 0.102 0.102 0.102 0.102 0.102 0.102 0.102 0.102 
0.102 0.102 0.102 0.102 0.102 0.102 0.102 0.102 0.102 0.102 
0.102 0.102 0.102 0.102 0.102 0.102 0.102 0.102 0.102 0.102 
0.102 0.102 0.102 0.102 0.102 0.102 0.102 0.102 0.102 0.102 
0.102 0.102 0.102 0.102 0.102 0.102 0.102 0.102 0.102 0.102 
0.102 0.102 0.102 0.102 0.102 0.102 0.102 0.102 0.102 0.102 
0.102 0.102 0.102 0.102 0.102 0.102 0.102 0.102 0.102 0.102 
0.102 0.102 0.102 0.102 0.102 0.102 0.102 0.102 0.102 0.102 
0.102 0.102 0.102 0.102 0.102 0.102 0.102 0.102 0.102 0.102 
0.102 0.102 0.102 0.102 0.102 0.102 0.102 0.102 0.102 0.102 
0.102 0.102 0.102 0.102 0.102 0.102 0.102 0.102 0.102 0.102 
0.102 0.102 0.102 0.102 0.102 0.102 0.102 0.102 0.102 0.102 
0.102 0.102 0.102 0.102 0.102 0.102 0.102 0.102 0.102 0.102 
0.102 0.102 0.102 0.102 0.102 0.102 0.102 0.102 0.102 0.102 
0.102 0.102 0.102 0.102 0.102 0.102 0.102 0.102 0.102 0.102 
0.102 0.102 0.102 0.102 0.102 0.102 0.102 0.102 0.102 0.102 
0.102 0.102 0.102 0.102 0.102 0.102 0.102 0.102 0.102 0.102 
0.102 0.102 0.102 0.102 0.102 0.102 0.102 0.102 0.102 0.102 
0.102 0.102 0.102 0.102 0.102 0.102 0.102 0.102 0.102 0.102 
0.102 0.102 0.102 0.102 0.102 0.102 0.102 0.102 0.102 0.102 
0.102 0.102 0.102 0.102 0.102 0.102 0.102 0.102 0.102 0.102 
0.102 0.102 0.102 0.102 0.102 0.102 0.102 0.102 0.102 0.102 
0.102 0.102 0.102 0.102 0.102 0.102 0.102 0.102 0.102 0.102 
0.102 0.102 0.102 0.102 0.102 0.102 0.102 0.102 0.102 0.102 
0.102 0.102 0.102 0.102 0.102 0.102 0.102 0.102 0.102 0.102 
0.102 0.102 0.102 0.102 0.102 0.102 0.102 0.102 0.102 0.102 
0.102 0.102 0.102 0.102 0.102 0.102 0.102 0.102 0.102 0.102 
0.102 0.102 0.102 0.102 0.102 0.102 0.102 0.102 0.102 0.102 
0.102 0.102 0.102 0.102 0.102 0.102 0.102 0.102 0.102 0.102 
0.102 0.102 0.102 0.102 0.102 0.102 0.102 0.102 0.102 0.102 
0.102 0.102 0.102 0.102 0.102 0.102 0.102 0.102 0.102 0.102 
0.102 0.102 0.102 0.102 0.102 0.102 0.102 0.102 0.102 0.102 
0.102 0.102 0.102 0.102 0.102 0.102 0.102 0.102 0.102 0.102 
0.102 0.102 0.102 0.102 0.102 0.102 0.102 0.102 0.102 0.102 
0.102 0.102 0.102 0.102 0.102 0.102 0.102 0.102 0.102 0.102 
0.102 0.102 0.102 0.102 0.102 0.102 0.102 0.102 0.102 0.102 
0.102 0.102 0.102 0.102 0.102 0.102 0.102 0.102 0.102 0.102 
0.102 0.102 0.102 0.102 0.102 0.102 0.102 0.102 0.102 0.102 
0.102 0.102 0.102 0.102 0.102 0.102 0.102 0.102 0.102 0.102 
0.102 0.102 0.102 0.102 0.102 0.102 0.102 0.102 0.102 0.102 
0.102 0.102 0.102 0.102 0.102 0.102 0.102 0.102 0.102 0.102 
0.102 0.102 0.102 0.102 0.102 0.102 0.102 0.102 0.102 0.102 
0.102 0.102 0.102 0.102 0.102 0.102 0.102 0.102 0.102 0.102 
0.102 0.102 0.102 0.102 0.102 0.102 0.102 0.102 0.102 0.102 
0.102 0.102 0.102 0.102 0.102 0.102 0.102 0.102 0.102 0.102 
0.102 0.102 0.102 0.102 0.102 0.102 0.102 0.102 0.102 0.102 
0.102 0.102 0.102 0.102 0.102 0.102 0.102 0.102 0.102 0.102 
0.102 0.102 0.102 0.102 0.102 0.102 0.102 0.102 0.102 0.102 
0.102 0.102 0.102 0.102 0.102 0.102 0.102 0.102 0.102 0.102 
0.102 0.102 0.102 0.102 0.102 0.102 0.102 0.102 0.102 0.102 
0.102 0.102 0.102 0.102 0.102 0.102 0.102 0.102 0.102 0.102 
0.102 0.102 0.102 0.102 0.102 0.102 0.102 0.102 0.102 0.102 
0.102 0.102 0.102 0.102 0.102 0.102 0.102 0.102 0.102 0.102 
0.102 0.102 0.102 0.102 0.102 0.102 0.102 0.102 0.102 0.102 
0.102 0.102 0.102 0.102 0.102 0.102 0.102 0.102 0.102 0.102 
0.102 0.102 0.102 0.102 0.102 0.102 0.102 0.102 0.102 0.102 
0.102 0.102 0.102 0.102 0.102 0.102 0.102 0.102 0.102 0.102 
0.102 0.102 0.102 0.102 0.102 0.102 0.102 0.102 0.102 0.102 
0.102 0.102 0.102 0.102 0.102 0.102 0.102 0.102 0.102 0.102 
0.102 0.102 0.102 0.102 0.102 0.102 0.102 0.102 0.102 0.102 
0.102 0.102 0.102 0.102 0.102 0.102 0.102 0.102 0.102 0.102 
0.102 0.102 0.102 0.102 0.102 0.102 0.102 0.102 0.102 0.102 
0.102 0.102 0.102 0.102 0.102 0.102 0.102 0.102 0.102 0.102 
0.102 0.102 0.102 0.102 0.102 0.102 0.102 0.102 0.102 0.102 
0.102 0.102 0.102 0.102 0.102 0.102 0.102 0.102 0.102 0.102 
0.102 0.102 0.102 0.102 0.102 0.102 0.102 0.102 0.102 0.102 
0.102 0.102 0.102 0.102 0.102 0.102 0.102 0.102 0.102 0.102 
0.102 0.102 0.102 0.102 0.102 0.102 0.102 0.102 0.102 0.102 
0.102 0.102 0.102 0.102 0.102 0.102 0.102 0.102 0.102 0.102 
0.102 0.102 0.102 0.102 0.102 0.102 0.102 0.102 0.102 0.102 
0.102 0.102 0.102 0.102 0.102 0.102 0.102 0.102 0.102 0.102 
0.102 0.102 0.102 0.102 0.102 0.102 0.102 0.102 0.102 0.102 
0.102 0.102 0.102 0.102 0.102 0.102 0.102 0.102 0.102 0.102 
0.102 0.102 0.102 0.102 0.102 0.102 0.102 0.102 0.102 0.102 
0.102 0.102 0.102 0.102 0.102 0.102 0.102 0.102 0.102 0.102 
0.102 0.102 0.102 0.102 0.102 0.102 0.102 0.102 0.102 0.102 
0.102 0.102 0.102 0.102 0.102 0.102 0.102 0.102 0.102 0.102 
0.102 0.102 0.102 0.102 0.102 0.102 0.102 0.102 0.102 0.102 
0.102 0.102 0.102 0.102 0.102 0.102 0.102 0.102 0.102 0.102 
0.102 0.102 0.102 0.102 0.102 0.102 0.102 0.102 0.102 0.102 
0.102 0.102 0.102 0.102 0.102 0.102 0.102 0.102 0.102 0.102 
0.102 0.102 0.102 0.102 0.102 0.102 0.102 0.102 0.102 0.102 
0.102 0.102 0.102 0.102 0.102 0.102 0.102 0.102 0.102 0.102 
0.102 0.102 0.102 0.102 0.102 0.102 0.102 0.102 0.102 0.102 
0.102 0.102 0.102 0.102 0.102 0.102 0.102 0.102 0.102 0.102 
0.102 0.102 0.102 0.102 0.102 0.102 0.102 0.102 0.102 0.102 
0.102 0.102 0.102 0.102 0.102 0.102 0.102 0.102 0.102 0.102 
0.102 0.102 0.102 0.102 0.102 0.102 0.102 0.102 0.102 0.102 
0.102 0.102 0.102 0.102 0.102 0.102 0.102 0.102 0.102 0.102 
0.102 0.102 0.102 0.102 0.102 0.102 0.102 0.102 0.102 0.102 
0.102 0.102 0.102 0.102 0.102 0.102 0.102 0.102 0.102 0.102 
0.102 0.102 0.102 0.102 0.102 0.102 0.102 0.102 0.102 0.102 
0.102 0.102 0.102 0.102 0.102 0.102 0.102 0.102 0.102 0.102 
0.102 0.102 0.102 0.102 0.102 0.102 0.102 0.102 0.102 0.102 
0.102 0.102 0.102 0.102 0.102 0.102 0.102 0.102 0.102 0.102 
0.102 0.102 0.102 0.102 0.102 0.102 0.102 0.102 0.102 0.102 
0.102 0.102 0.102 0.102 0.102 0.102 0.102 0.102 0.102 0.102 
0.102 0.102 0.102 0.102 0.102 0.102 0.102 0.102 0.102 0.102 
0.102 0.102 0.102 0.102 0.102 0.102 0.102 0.102 0.102 0.102 
0.102 0.102 0.102 0.102 0.102 0.102 0.102 0.102 0.102 0.102 
0.102 0.102 0.102 0.102 0.102 0.102 0.102 0.102 0.102 0.102 
0.102 0.102 0.102 0.102 0.102 0.102 0.102 0.102 0.102 0.102 
0.102 0.102 0.102 0.102 0.102 0.102 0.102 0.102 0.102 0.102 
0.102 0.102 0.102 0.102 0.102 0.102 0.102 0.102 0.102 0.102 
0.102 0.102 0.102 0.102 0.102 0.102 0.102 0.102 0.102 0.102 
0.102 0.102 0.102 0.102 0.102 0.102 0.102 0.102 0.102 0.102 
0.102 0.102 0.102 0.102 0.102 0.102 0.102 0.102 0.102 0.102 
0.102 0.102 0.102 0.102 0.102 0.102 0.102 0.102 0.102 0.102 
0.102 0.102 0.102 0.102 0.102 0.102 0.102 0.102 0.102 SCALARS Roughness float 1
LOOKUP_TABLE default
80 80 80 80 80 80 80 80 80 
80 80 80 80 80 80 80 80 80 80 
80 80 80 80 80 80 80 80 80 80 
80 80 80 80 80 80 80 80 80 80 
80 80 80 80 80 80 80 80 80 80 
80 80 80 80 80 80 80 80 80 80 
80 80 80 80 80 80 80 80 80 80 
80 80 80 80 80 80 80 80 80 80 
80 80 80 80 80 80 80 80 80 80 
80 80 80 80 80 80 80 80 80 80 
80 80 80 80 80 80 80 80 80 80 
80 80 80 80 80 80 80 80 80 80 
80 80 80 80 80 80 80 80 80 80 
80 80 80 80 80 80 80 80 80 80 
80 80 80 80 80 80 80 80 80 80 
80 80 80 80 80 80 80 80 80 80 
80 80 80 80 80 80 80 80 80 80 
80 80 80 80 80 80 80 80 80 80 
80 80 80 80 80 80 80 80 80 80 
80 80 80 80 80 80 80 80 80 80 
80 80 80 80 80 80 80 80 80 80 
80 80 80 80 80 80 80 80 80 80 
80 80 80 80 80 80 80 80 80 80 
80 80 80 80 80 80 80 80 80 80 
80 80 80 80 80 80 80 80 80 80 
80 80 80 80 80 80 80 80 80 80 
80 80 80 80 80 80 80 80 80 80 
80 80 80 80 80 80 80 80 80 80 
80 80 80 80 80 80 80 80 80 80 
80 80 80 80 80 80 80 80 80 80 
80 80 80 80 80 80 80 80 80 80 
80 80 80 80 80 80 80 80 80 80 
80 80 80 80 80 80 80 80 80 80 
80 80 80 80 80 80 80 80 80 80 
80 80 80 80 80 80 80 80 80 80 
80 80 80 80 80 80 80 80 80 80 
80 80 80 80 80 80 80 80 80 80 
80 80 80 80 80 80 80 80 80 80 
80 80 80 80 80 80 80 80 80 80 
80 80 80 80 80 80 80 80 80 80 
80 80 80 80 80 80 80 80 80 80 
80 80 80 80 80 80 80 80 80 80 
80 80 80 80 80 80 80 80 80 80 
80 80 80 80 80 80 80 80 80 80 
80 80 80 80 80 80 80 80 80 80 
80 80 80 80 80 80 80 80 80 80 
80 80 80 80 80 80 80 80 80 80 
80 80 80 80 80 80 80 80 80 80 
80 80 80 80 80 80 80 80 80 80 
80 80 80 80 80 80 80 80 80 80 
80 80 80 80 80 80 80 80 80 80 
80 80 80 80 80 80 80 80 80 80 
80 80 80 80 80 80 80 80 80 80 
80 80 80 80 80 80 80 80 80 80 
80 80 80 80 80 80 80 80 80 80 
80 80 80 80 80 80 80 80 80 80 
80 80 80 80 80 80 80 80 80 80 
80 80 80 80 80 80 80 80 80 80 
80 80 80 80 80 80 80 80 80 80 
80 80 80 80 80 80 80 80 80 80 
80 80 80 80 80 80 80 80 80 80 
80 80 80 80 80 80 80 80 80 80 
80 80 80 80 80 80 80 80 80 80 
80 80 80 80 80 80 80 80 80 80 
80 80 80 80 80 80 80 80 80 80 
80 80 80 80 80 80 80 80 80 80 
80 80 80 80 80 80 80 80 80 80 
80 80 80 80 80 80 80 80 80 80 
80 80 80 80 80 80 80 80 80 80 
80 80 80 80 80 80 80 80 80 80 
80 80 80 80 80 80 80 80 80 80 
80 80 80 80 80 80 80 80 80 80 
80 80 80 80 80 80 80 80 80 80 
80 80 80 80 80 80 80 80 80 80 
80 80 80 80 80 80 80 80 80 80 
80 80 80 80 80 80 80 80 80 80 
80 80 80 80 80 80 80 80 80 80 
80 80 80 80 80 80 80 80 80 80 
80 80 80 80 80 80 80 80 80 80 
80 80 80 80 80 80 80 80 80 80 
80 80 80 80 80 80 80 80 80 80 
80 80 80 80 80 80 80 80 80 80 
80 80 80 80 80 80 80 80 80 80 
80 80 80 80 80 80 80 80 80 80 
80 80 80 80 80 80 80 80 80 80 
80 80 80 80 80 80 80 80 80 80 
80 80 80 80 80 80 80 80 80 80 
80 80 80 80 80 80 80 80 80 80 
80 80 80 80 80 80 80 80 80 80 
80 80 80 80 80 80 80 80 80 80 
80 80 80 80 80 80 80 80 80 80 
80 80 80 80 80 80 80 80 80 80 
80 80 80 80 80 80 80 80 80 80 
80 80 80 80 80 80 80 80 80 80 
80 80 80 80 80 80 80 80 80 80 
80 80 80 80 80 80 80 80 80 80 
80 80 80 80 80 80 80 80 80 80 
80 80 80 80 80 80 80 80 80 80 
80 80 80 80 80 80 80 80 80 80 
80 80 80 80 80 80 80 80 80 80 
80 80 80 80 80 80 80 80 80 80 
80 80 80 80 80 80 80 80 80 80 
80 80 80 80 80 80 80 80 80 80 
80 80 80 80 80 80 80 80 80 80 
80 80 80 80 80 80 80 80 80 80 
80 80 80 80 80 80 80 80 80 80 
80 80 80 80 80 80 80 80 80 80 
80 80 80 80 80 80 80 80 80 80 
80 80 80 80 80 80 80 80 80 80 
80 80 80 80 80 80 80 80 80 80 
80 80 80 80 80 80 80 80 80 80 
80 80 80 80 80 80 80 80 80 80 
80 80 80 80 80 80 80 80 80 80 
80 80 80 80 80 80 80 80 80 80 
80 80 80 80 80 80 80 80 80 80 
80 80 80 80 80 80 80 80 80 80 
80 80 80 80 80 80 80 80 80 80 
80 80 80 80 80 80 80 80 80 80 
80 80 80 80 80 80 80 80 80 80 
80 80 80 80 80 80 80 80 80 80 
80 80 80 80 80 80 80 80 80 80 
80 80 80 80 80 80 80 80 80 80 
80 80 80 80 80 80 80 80 80 80 
80 80 80 80 80 80 80 80 80 80 
80 80 80 80 80 80 80 80 80 80 
80 80 80 80 80 80 80 80 80 80 
80 80 80 80 80 80 80 80 80 80 
80 80 80 80 80 80 80 80 80 80 
80 80 80 80 80 80 80 80 80 80 
80 80 80 80 80 80 80 80 80 80 
80 80 80 80 80 80 80 80 80 80 
80 80 80 80 80 80 80 80 80 80 
80 80 80 80 80 80 80 80 80 SCALARS Outer_Radius float 1
LOOKUP_TABLE default
0.178 0.178 0.178 0.178 0.178 0.178 0.178 0.178 0.178 
0.178 0.178 0.178 0.178 0.178 0.178 0.178 0.178 0.178 0.178 
0.178 0.178 0.178 0.178 0.178 0.178 0.178 0.178 0.178 0.178 
0.178 0.178 0.178 0.178 0.178 0.178 0.178 0.178 0.178 0.178 
0.178 0.178 0.178 0.178 0.178 0.178 0.178 0.178 0.178 0.178 
0.178 0.178 0.178 0.178 0.178 0.178 0.178 0.178 0.178 0.178 
0.178 0.178 0.178 0.178 0.178 0.178 0.178 0.178 0.178 0.178 
0.178 0.178 0.178 0.178 0.178 0.178 0.178 0.178 0.178 0.178 
0.178 0.178 0.178 0.178 0.178 0.178 0.178 0.178 0.178 0.178 
0.178 0.178 0.178 0.178 0.178 0.178 0.178 0.178 0.178 0.178 
0.178 0.178 0.178 0.178 0.178 0.178 0.178 0.178 0.178 0.178 
0.178 0.178 0.178 0.178 0.178 0.178 0.178 0.178 0.178 0.178 
0.178 0.178 0.178 0.178 0.178 0.178 0.178 0.178 0.178 0.178 
0.178 0.178 0.178 0.178 0.178 0.178 0.178 0.178 0.178 0.178 
0.178 0.178 0.178 0.178 0.178 0.178 0.178 0.178 0.178 0.178 
0.178 0.178 0.178 0.178 0.178 0.178 0.178 0.178 0.178 0.178 
0.178 0.178 0.178 0.178 0.178 0.178 0.178 0.178 0.178 0.178 
0.178 0.178 0.178 0.178 0.178 0.178 0.178 0.178 0.178 0.178 
0.178 0.178 0.178 0.178 0.178 0.178 0.178 0.178 0.178 0.178 
0.178 0.178 0.178 0.178 0.178 0.178 0.178 0.178 0.178 0.178 
0.178 0.178 0.178 0.178 0.178 0.178 0.178 0.178 0.178 0.178 
0.178 0.178 0.178 0.178 0.178 0.178 0.178 0.178 0.178 0.178 
0.178 0.178 0.178 0.178 0.178 0.178 0.178 0.178 0.178 0.178 
0.178 0.178 0.178 0.178 0.178 0.178 0.178 0.178 0.178 0.178 
0.178 0.178 0.178 0.178 0.178 0.178 0.178 0.178 0.178 0.178 
0.178 0.178 0.178 0.178 0.178 0.178 0.178 0.178 0.178 0.178 
0.178 0.178 0.178 0.178 0.178 0.178 0.178 0.178 0.178 0.178 
0.178 0.178 0.178 0.178 0.178 0.178 0.178 0.178 0.178 0.178 
0.178 0.178 0.178 0.178 0.178 0.178 0.178 0.178 0.178 0.178 
0.178 0.178 0.178 0.178 0.178 0.178 0.178 0.178 0.178 0.178 
0.178 0.178 0.178 0.178 0.178 0.178 0.178 0.178 0.178 0.178 
0.178 0.178 0.178 0.178 0.178 0.178 0.178 0.178 0.178 0.178 
0.178 0.178 0.178 0.178 0.178 0.178 0.178 0.178 0.178 0.178 
0.178 0.178 0.178 0.178 0.178 0.178 0.178 0.178 0.178 0.178 
0.178 0.178 0.178 0.178 0.178 0.178 0.178 0.178 0.178 0.178 
0.178 0.178 0.178 0.178 0.178 0.178 0.178 0.178 0.178 0.178 
0.178 0.178 0.178 0.178 0.178 0.178 0.178 0.178 0.178 0.178 
0.178 0.178 0.178 0.178 0.178 0.178 0.178 0.178 0.178 0.178 
0.178 0.178 0.178 0.178 0.178 0.178 0.178 0.178 0.178 0.178 
0.178 0.178 0.178 0.178 0.178 0.178 0.178 0.178 0.178 0.178 
0.178 0.178 0.178 0.178 0.178 0.178 0.178 0.178 0.178 0.178 
0.178 0.178 0.178 0.178 0.178 0.178 0.178 0.178 0.178 0.178 
0.178 0.178 0.178 0.178 0.178 0.178 0.178 0.178 0.178 0.178 
0.178 0.178 0.178 0.178 0.178 0.178 0.178 0.178 0.178 0.178 
0.178 0.178 0.178 0.178 0.178 0.178 0.178 0.178 0.178 0.178 
0.178 0.178 0.178 0.178 0.178 0.178 0.178 0.178 0.178 0.178 
0.178 0.178 0.178 0.178 0.178 0.178 0.178 0.178 0.178 0.178 
0.178 0.178 0.178 0.178 0.178 0.178 0.178 0.178 0.178 0.178 
0.178 0.178 0.178 0.178 0.178 0.178 0.178 0.178 0.178 0.178 
0.178 0.178 0.178 0.178 0.178 0.178 0.178 0.178 0.178 0.178 
0.178 0.178 0.178 0.178 0.178 0.178 0.178 0.178 0.178 0.178 
0.178 0.178 0.178 0.178 0.178 0.178 0.178 0.178 0.178 0.178 
0.178 0.178 0.178 0.178 0.178 0.178 0.178 0.178 0.178 0.178 
0.178 0.178 0.178 0.178 0.178 0.178 0.178 0.178 0.178 0.178 
0.178 0.178 0.178 0.178 0.178 0.178 0.178 0.178 0.178 0.178 
0.178 0.178 0.178 0.178 0.178 0.178 0.178 0.178 0.178 0.178 
0.178 0.178 0.178 0.178 0.178 0.178 0.178 0.178 0.178 0.178 
0.178 0.178 0.178 0.178 0.178 0.178 0.178 0.178 0.178 0.178 
0.178 0.178 0.178 0.178 0.178 0.178 0.178 0.178 0.178 0.178 
0.178 0.178 0.178 0.178 0.178 0.178 0.178 0.178 0.178 0.178 
0.178 0.178 0.178 0.178 0.178 0.178 0.178 0.178 0.178 0.178 
0.178 0.178 0.178 0.178 0.178 0.178 0.178 0.178 0.178 0.178 
0.178 0.178 0.178 0.178 0.178 0.178 0.178 0.178 0.178 0.178 
0.178 0.178 0.178 0.178 0.178 0.178 0.178 0.178 0.178 0.178 
0.178 0.178 0.178 0.178 0.178 0.178 0.178 0.178 0.178 0.178 
0.178 0.178 0.178 0.178 0.178 0.178 0.178 0.178 0.178 0.178 
0.178 0.178 0.178 0.178 0.178 0.178 0.178 0.178 0.178 0.178 
0.178 0.178 0.178 0.178 0.178 0.178 0.178 0.178 0.178 0.178 
0.178 0.178 0.178 0.178 0.178 0.178 0.178 0.178 0.178 0.178 
0.178 0.178 0.178 0.178 0.178 0.178 0.178 0.178 0.178 0.178 
0.178 0.178 0.178 0.178 0.178 0.178 0.178 0.178 0.178 0.178 
0.178 0.178 0.178 0.178 0.178 0.178 0.178 0.178 0.178 0.178 
0.178 0.178 0.178 0.178 0.178 0.178 0.178 0.178 0.178 0.178 
0.178 0.178 0.178 0.178 0.178 0.178 0.178 0.178 0.178 0.178 
0.178 0.178 0.178 0.178 0.178 0.178 0.178 0.178 0.178 0.178 
0.178 0.178 0.178 0.178 0.178 0.178 0.178 0.178 0.178 0.178 
0.178 0.178 0.178 0.178 0.178 0.178 0.178 0.178 0.178 0.178 
0.178 0.178 0.178 0.178 0.178 0.178 0.178 0.178 0.178 0.178 
0.178 0.178 0.178 0.178 0.178 0.178 0.178 0.178 0.178 0.178 
0.178 0.178 0.178 0.178 0.178 0.178 0.178 0.178 0.178 0.178 
0.178 0.178 0.178 0.178 0.178 0.178 0.178 0.178 0.178 0.178 
0.178 0.178 0.178 0.178 0.178 0.178 0.178 0.178 0.178 0.178 
0.178 0.178 0.178 0.178 0.178 0.178 0.178 0.178 0.178 0.178 
0.178 0.178 0.178 0.178 0.178 0.178 0.178 0.178 0.178 0.178 
0.178 0.178 0.178 0.178 0.178 0.178 0.178 0.178 0.178 0.178 
0.178 0.178 0.178 0.178 0.178 0.178 0.178 0.178 0.178 0.178 
0.178 0.178 0.178 0.178 0.178 0.178 0.178 0.178 0.178 0.178 
0.178 0.178 0.178 0.178 0.178 0.178 0.178 0.178 0.178 0.178 
0.178 0.178 0.178 0.178 0.178 0.178 0.178 0.178 0.178 0.178 
0.178 0.178 0.178 0.178 0.178 0.178 0.178 0.178 0.178 0.178 
0.178 0.178 0.178 0.178 0.178 0.178 0.178 0.178 0.178 0.178 
0.178 0.178 0.178 0.178 0.178 0.178 0.178 0.178 0.178 0.178 
0.178 0.178 0.178 0.178 0.178 0.178 0.178 0.178 0.178 0.178 
0.178 0.178 0.178 0.178 0.178 0.178 0.178 0.178 0.178 0.178 
0.178 0.178 0.178 0.178 0.178 0.178 0.178 0.178 0.178 0.178 
0.178 0.178 0.178 0.178 0.178 0.178 0.178 0.178 0.178 0.178 
0.178 0.178 0.178 0.178 0.178 0.178 0.178 0.178 0.178 0.178 
0.178 0.178 0.178 0.178 0.178 0.178 0.178 0.178 0.178 0.178 
0.178 0.178 0.178 0.178 0.178 0.178 0.178 0.178 0.178 0.178 
0.178 0.178 0.178 0.178 0.178 0.178 0.178 0.178 0.178 0.178 
0.178 0.178 0.178 0.178 0.178 0.178 0.178 0.178 0.178 0.178 
0.178 0.178 0.178 0.178 0.178 0.178 0.178 0.178 0.178 0.178 
0.178 0.178 0.178 0.178 0.178 0.178 0.178 0.178 0.178 0.178 
0.178 0.178 0.178 0.178 0.178 0.178 0.178 0.178 0.178 0.178 
0.178 0.178 0.178 0.178 0.178 0.178 0.178 0.178 0.178 0.178 
0.178 0.178 0.178 0.178 0.178 0.178 0.178 0.178 0.178 0.178 
0.178 0.178 0.178 0.178 0.178 0.178 0.178 0.178 0.178 0.178 
0.178 0.178 0.178 0.178 0.178 0.178 0.178 0.178 0.178 0.178 
0.178 0.178 0.178 0.178 0.178 0.178 0.178 0.178 0.178 0.178 
0.178 0.178 0.178 0.178 0.178 0.178 0.178 0.178 0.178 0.178 
0.178 0.178 0.178 0.178 0.178 0.178 0.178 0.178 0.178 0.178 
0.178 0.178 0.178 0.178 0.178 0.178 0.178 0.178 0.178 0.178 
0.178 0.178 0.178 0.178 0.178 0.178 0.178 0.178 0.178 0.178 
0.178 0.178 0.178 0.178 0.178 0.178 0.178 0.178 0.178 0.178 
0.178 0.178 0.178 0.178 0.178 0.178 0.178 0.178 0.178 0.178 
0.178 0.178 0.178 0.178 0.178 0.178 0.178 0.178 0.178 0.178 
0.178 0.178 0.178 0.178 0.178 0.178 0.178 0.178 0.178 0.178 
0.178 0.178 0.178 0.178 0.178 0.178 0.178 0.178 0.178 0.178 
0.178 0.178 0.178 0.178 0.178 0.178 0.178 0.178 0.178 0.178 
0.178 0.178 0.178 0.178 0.178 0.178 0.178 0.178 0.178 0.178 
0.178 0.178 0.178 0.178 0.178 0.178 0.178 0.178 0.178 0.178 
0.178 0.178 0.178 0.178 0.178 0.178 0.178 0.178 0.178 0.178 
0.178 0.178 0.178 0.178 0.178 0.178 0.178 0.178 0.178 0.178 
0.178 0.178 0.178 0.178 0.178 0.178 0.178 0.178 0.178 0.178 
0.178 0.178 0.178 0.178 0.178 0.178 0.178 0.178 0.178 0.178 
0.178 0.178 0.178 0.178 0.178 0.178 0.178 0.178 0.178 0.178 
0.178 0.178 0.178 0.178 0.178 0.178 0.178 0.178 0.178 0.178 
0.178 0.178 0.178 0.178 0.178 0.178 0.178 0.178 0.178 0.178 
0.178 0.178 0.178 0.178 0.178 0.178 0.178 0.178 0.178 0.178 
0.178 0.178 0.178 0.178 0.178 0.178 0.178 0.178 0.178 0.178 
0.178 0.178 0.178 0.178 0.178 0.178 0.178 0.178 0.178 0.178 
0.178 0.178 0.178 0.178 0.178 0.178 0.178 0.178 0.178 0.178 
0.178 0.178 0.178 0.178 0.178 0.178 0.178 0.178 0.178 
